M48
; DRILL file {KiCad (5.1.0-0)} date Thursday, 27 June 2019 at 12:49:38
; FORMAT={-:-/ absolute / inch / decimal}
; #@! TF.CreationDate,2019-06-27T12:49:38+09:00
; #@! TF.GenerationSoftware,Kicad,Pcbnew,(5.1.0-0)
; #@! TF.FileFunction,Plated,1,2,PTH
FMAT,2
INCH
T1C0.0157
T2C0.0197
T3C0.0394
T4C0.0472
T5C0.1181
%
G90
G05
T1
X5.1339Y-3.9528
X5.1378Y-3.5406
X5.1429Y-3.7039
X5.1429Y-3.8878
X5.1929Y-3.6543
X5.1945Y-3.8144
X5.2413Y-3.5398
X5.2537Y-4.0174
X5.2795Y-3.811
X5.3193Y-3.8035
X5.3206Y-4.0292
X5.3363Y-4.3048
X5.3462Y-3.4513
X5.3583Y-3.6713
X5.3718Y-2.8088
X5.3764Y-3.5
X5.3787Y-3.542
X5.3839Y-3.7799
X5.3854Y-4.0226
X5.3878Y-3.9685
X5.3878Y-3.8549
X5.4033Y-4.293
X5.4134Y-4.437
X5.4229Y-2.9348
X5.4466Y-4.2182
X5.5059Y-3.7142
X5.5096Y-3.2655
X5.5118Y-4.0219
X5.5181Y-4.2551
X5.5227Y-3.9284
X5.5429Y-3.6827
X5.5511Y-4.0219
X5.56Y-3.0208
X5.561Y-3.6014
X5.561Y-3.724
X5.5673Y-4.0791
X5.5894Y-3.8724
X5.598Y-4.1079
X5.6031Y-3.573
X5.6031Y-3.623
X5.6355Y-3.0529
X5.6513Y-4.4269
X5.6598Y-3.2437
X5.667Y-2.848
X5.67Y-3.1946
X5.7104Y-3.0174
X5.7303Y-3.673
X5.7303Y-3.723
X5.7303Y-3.923
X5.7376Y-3.5014
X5.7433Y-4.0185
X5.7543Y-3.9567
X5.7575Y-4.0602
X5.7655Y-3.5292
X5.7852Y-3.2458
X5.8009Y-4.0174
X5.8211Y-3.2298
X5.8416Y-3.2706
X5.856Y-4.2615
X5.856Y-4.3009
X5.8678Y-4.0529
X5.8821Y-3.4319
X5.8943Y-4.0833
X5.9229Y-3.5568
X5.9269Y-4.0529
X5.9274Y-3.4334
X5.9331Y-3.8717
X5.9469Y-3.9151
X5.9505Y-4.2733
X5.9544Y-4.0844
X5.9697Y-2.9459
X5.9697Y-2.9959
X5.9697Y-3.1959
X5.9741Y-3.1159
X5.9741Y-3.6147
X5.9996Y-4.09
X6.0133Y-3.4335
X6.0177Y-3.8717
X6.0177Y-4.0528
X6.0292Y-3.2537
X6.0489Y-4.3285
X6.0568Y-3.2222
X6.0883Y-2.86
X6.0933Y-4.2665
X6.1295Y-3.1061
X6.1354Y-3.7937
X6.137Y-3.5685
X6.1665Y-3.7039
X6.1767Y-4.2034
X6.1783Y-3.9557
X6.1811Y-3.523
X6.1811Y-3.773
X6.1811Y-4.023
X6.1925Y-2.9459
X6.1925Y-3.1959
X6.311Y-4.273
X6.365Y-4.4637
X6.4157Y-4.4637
X6.4665Y-4.4637
X6.5172Y-4.4637
X6.568Y-4.4637
T2
X6.5453Y-3.8829
X6.5945Y-3.8829
X6.6437Y-3.8829
X6.6929Y-3.8829
X6.7421Y-3.8829
X5.1611Y-4.1395
X5.2104Y-4.1395
X5.2596Y-4.1395
X5.3088Y-4.1395
X5.358Y-4.1395
X6.5453Y-4.1437
X6.5945Y-4.1437
X6.6437Y-4.1437
X6.6929Y-4.1437
X6.7421Y-4.1437
X5.1552Y-3.1041
X5.2044Y-3.1041
X5.2537Y-3.1041
X5.3029Y-3.1041
X5.3521Y-3.1041
X6.5453Y-3.3612
X6.5945Y-3.3612
X6.6437Y-3.3612
X6.6929Y-3.3612
X6.7421Y-3.3612
X6.5453Y-3.1004
X6.5945Y-3.1004
X6.6437Y-3.1004
X6.6929Y-3.1004
X6.7421Y-3.1004
X6.5453Y-3.622
X6.5945Y-3.622
X6.6437Y-3.622
X6.6929Y-3.622
X6.7421Y-3.622
T3
X5.2127Y-3.3428
X5.3127Y-3.3428
X5.4127Y-3.3428
T4
X5.5135Y-3.0292
X5.8285Y-3.0292
T5
X5.1873Y-2.8448
X5.1873Y-4.3796
X6.7222Y-2.8448
X6.7222Y-4.3796
T0
M30
