G04 #@! TF.GenerationSoftware,KiCad,Pcbnew,(5.1.0-0)*
G04 #@! TF.CreationDate,2019-06-27T12:49:36+09:00*
G04 #@! TF.ProjectId,SwitchBlox,53776974-6368-4426-9c6f-782e6b696361,rev?*
G04 #@! TF.SameCoordinates,Original*
G04 #@! TF.FileFunction,Legend,Bot*
G04 #@! TF.FilePolarity,Positive*
%FSLAX46Y46*%
G04 Gerber Fmt 4.6, Leading zero omitted, Abs format (unit mm)*
G04 Created by KiCad (PCBNEW (5.1.0-0)) date 2019-06-27 12:49:36*
%MOMM*%
%LPD*%
G04 APERTURE LIST*
%ADD10C,0.150000*%
%ADD11C,0.175000*%
%ADD12C,0.250000*%
%ADD13C,0.187500*%
%ADD14C,0.325000*%
%ADD15C,0.200000*%
%ADD16C,0.225000*%
%ADD17C,0.120000*%
%ADD18C,0.100000*%
%ADD19C,0.010000*%
G04 APERTURE END LIST*
D10*
X160002535Y-111164321D02*
X160002535Y-110564321D01*
X159773964Y-110564321D01*
X159716821Y-110592893D01*
X159688250Y-110621464D01*
X159659678Y-110678607D01*
X159659678Y-110764321D01*
X159688250Y-110821464D01*
X159716821Y-110850035D01*
X159773964Y-110878607D01*
X160002535Y-110878607D01*
X159088250Y-111164321D02*
X159431107Y-111164321D01*
X159259678Y-111164321D02*
X159259678Y-110564321D01*
X159316821Y-110650035D01*
X159373964Y-110707178D01*
X159431107Y-110735750D01*
X158802535Y-111135750D02*
X158802535Y-111164321D01*
X158831107Y-111221464D01*
X158859678Y-111250035D01*
X158545393Y-111164321D02*
X158545393Y-110564321D01*
X158316821Y-110564321D01*
X158259678Y-110592893D01*
X158231107Y-110621464D01*
X158202535Y-110678607D01*
X158202535Y-110764321D01*
X158231107Y-110821464D01*
X158259678Y-110850035D01*
X158316821Y-110878607D01*
X158545393Y-110878607D01*
X157831107Y-110564321D02*
X157773964Y-110564321D01*
X157716821Y-110592893D01*
X157688250Y-110621464D01*
X157659678Y-110678607D01*
X157631107Y-110792893D01*
X157631107Y-110935750D01*
X157659678Y-111050035D01*
X157688250Y-111107178D01*
X157716821Y-111135750D01*
X157773964Y-111164321D01*
X157831107Y-111164321D01*
X157888250Y-111135750D01*
X157916821Y-111107178D01*
X157945393Y-111050035D01*
X157973964Y-110935750D01*
X157973964Y-110792893D01*
X157945393Y-110678607D01*
X157916821Y-110621464D01*
X157888250Y-110592893D01*
X157831107Y-110564321D01*
X156916821Y-110850035D02*
X156459678Y-110850035D01*
X156459678Y-111021464D02*
X156916821Y-111021464D01*
X155602535Y-110564321D02*
X155545393Y-110564321D01*
X155488250Y-110592893D01*
X155459678Y-110621464D01*
X155431107Y-110678607D01*
X155402535Y-110792893D01*
X155402535Y-110935750D01*
X155431107Y-111050035D01*
X155459678Y-111107178D01*
X155488250Y-111135750D01*
X155545393Y-111164321D01*
X155602535Y-111164321D01*
X155659678Y-111135750D01*
X155688250Y-111107178D01*
X155716821Y-111050035D01*
X155745393Y-110935750D01*
X155745393Y-110792893D01*
X155716821Y-110678607D01*
X155688250Y-110621464D01*
X155659678Y-110592893D01*
X155602535Y-110564321D01*
X155031107Y-110564321D02*
X154973964Y-110564321D01*
X154916821Y-110592893D01*
X154888250Y-110621464D01*
X154859678Y-110678607D01*
X154831107Y-110792893D01*
X154831107Y-110935750D01*
X154859678Y-111050035D01*
X154888250Y-111107178D01*
X154916821Y-111135750D01*
X154973964Y-111164321D01*
X155031107Y-111164321D01*
X155088250Y-111135750D01*
X155116821Y-111107178D01*
X155145393Y-111050035D01*
X155173964Y-110935750D01*
X155173964Y-110792893D01*
X155145393Y-110678607D01*
X155116821Y-110621464D01*
X155088250Y-110592893D01*
X155031107Y-110564321D01*
X154573964Y-111107178D02*
X154545393Y-111135750D01*
X154573964Y-111164321D01*
X154602535Y-111135750D01*
X154573964Y-111107178D01*
X154573964Y-111164321D01*
X154573964Y-110792893D02*
X154545393Y-110821464D01*
X154573964Y-110850035D01*
X154602535Y-110821464D01*
X154573964Y-110792893D01*
X154573964Y-110850035D01*
X153831107Y-111164321D02*
X153831107Y-110564321D01*
X153573964Y-110621464D02*
X153545393Y-110592893D01*
X153488250Y-110564321D01*
X153345393Y-110564321D01*
X153288250Y-110592893D01*
X153259678Y-110621464D01*
X153231107Y-110678607D01*
X153231107Y-110735750D01*
X153259678Y-110821464D01*
X153602535Y-111164321D01*
X153231107Y-111164321D01*
X152631107Y-111107178D02*
X152659678Y-111135750D01*
X152745393Y-111164321D01*
X152802535Y-111164321D01*
X152888250Y-111135750D01*
X152945393Y-111078607D01*
X152973964Y-111021464D01*
X153002535Y-110907178D01*
X153002535Y-110821464D01*
X152973964Y-110707178D01*
X152945393Y-110650035D01*
X152888250Y-110592893D01*
X152802535Y-110564321D01*
X152745393Y-110564321D01*
X152659678Y-110592893D01*
X152631107Y-110621464D01*
X151916821Y-111164321D02*
X151916821Y-110564321D01*
X151716821Y-110992893D01*
X151516821Y-110564321D01*
X151516821Y-111164321D01*
X151145393Y-111164321D02*
X151202535Y-111135750D01*
X151231107Y-111107178D01*
X151259678Y-111050035D01*
X151259678Y-110878607D01*
X151231107Y-110821464D01*
X151202535Y-110792893D01*
X151145393Y-110764321D01*
X151059678Y-110764321D01*
X151002535Y-110792893D01*
X150973964Y-110821464D01*
X150945393Y-110878607D01*
X150945393Y-111050035D01*
X150973964Y-111107178D01*
X151002535Y-111135750D01*
X151059678Y-111164321D01*
X151145393Y-111164321D01*
X150431107Y-111164321D02*
X150431107Y-110564321D01*
X150431107Y-111135750D02*
X150488250Y-111164321D01*
X150602535Y-111164321D01*
X150659678Y-111135750D01*
X150688250Y-111107178D01*
X150716821Y-111050035D01*
X150716821Y-110878607D01*
X150688250Y-110821464D01*
X150659678Y-110792893D01*
X150602535Y-110764321D01*
X150488250Y-110764321D01*
X150431107Y-110792893D01*
X149916821Y-111135750D02*
X149973964Y-111164321D01*
X150088250Y-111164321D01*
X150145393Y-111135750D01*
X150173964Y-111078607D01*
X150173964Y-110850035D01*
X150145393Y-110792893D01*
X150088250Y-110764321D01*
X149973964Y-110764321D01*
X149916821Y-110792893D01*
X149888250Y-110850035D01*
X149888250Y-110907178D01*
X150173964Y-110964321D01*
X149002535Y-111392893D02*
X149031107Y-111364321D01*
X149088250Y-111278607D01*
X149116821Y-111221464D01*
X149145393Y-111135750D01*
X149173964Y-110992893D01*
X149173964Y-110878607D01*
X149145393Y-110735750D01*
X149116821Y-110650035D01*
X149088250Y-110592893D01*
X149031107Y-110507178D01*
X149002535Y-110478607D01*
X148773964Y-111164321D02*
X148773964Y-110564321D01*
X148631107Y-110564321D01*
X148545393Y-110592893D01*
X148488250Y-110650035D01*
X148459678Y-110707178D01*
X148431107Y-110821464D01*
X148431107Y-110907178D01*
X148459678Y-111021464D01*
X148488250Y-111078607D01*
X148545393Y-111135750D01*
X148631107Y-111164321D01*
X148773964Y-111164321D01*
X147945393Y-111135750D02*
X148002535Y-111164321D01*
X148116821Y-111164321D01*
X148173964Y-111135750D01*
X148202535Y-111078607D01*
X148202535Y-110850035D01*
X148173964Y-110792893D01*
X148116821Y-110764321D01*
X148002535Y-110764321D01*
X147945393Y-110792893D01*
X147916821Y-110850035D01*
X147916821Y-110907178D01*
X148202535Y-110964321D01*
X147745393Y-110764321D02*
X147516821Y-110764321D01*
X147659678Y-111164321D02*
X147659678Y-110650035D01*
X147631107Y-110592893D01*
X147573964Y-110564321D01*
X147516821Y-110564321D01*
X147059678Y-111164321D02*
X147059678Y-110850035D01*
X147088250Y-110792893D01*
X147145393Y-110764321D01*
X147259678Y-110764321D01*
X147316821Y-110792893D01*
X147059678Y-111135750D02*
X147116821Y-111164321D01*
X147259678Y-111164321D01*
X147316821Y-111135750D01*
X147345393Y-111078607D01*
X147345393Y-111021464D01*
X147316821Y-110964321D01*
X147259678Y-110935750D01*
X147116821Y-110935750D01*
X147059678Y-110907178D01*
X146516821Y-110764321D02*
X146516821Y-111164321D01*
X146773964Y-110764321D02*
X146773964Y-111078607D01*
X146745393Y-111135750D01*
X146688250Y-111164321D01*
X146602535Y-111164321D01*
X146545393Y-111135750D01*
X146516821Y-111107178D01*
X146145393Y-111164321D02*
X146202535Y-111135750D01*
X146231107Y-111078607D01*
X146231107Y-110564321D01*
X146002535Y-110764321D02*
X145773964Y-110764321D01*
X145916821Y-110564321D02*
X145916821Y-111078607D01*
X145888250Y-111135750D01*
X145831107Y-111164321D01*
X145773964Y-111164321D01*
X145631107Y-111392893D02*
X145602535Y-111364321D01*
X145545393Y-111278607D01*
X145516821Y-111221464D01*
X145488250Y-111135750D01*
X145459678Y-110992893D01*
X145459678Y-110878607D01*
X145488250Y-110735750D01*
X145516821Y-110650035D01*
X145545393Y-110592893D01*
X145602535Y-110507178D01*
X145631107Y-110478607D01*
X160002535Y-112214321D02*
X160002535Y-111614321D01*
X159773964Y-111614321D01*
X159716821Y-111642893D01*
X159688250Y-111671464D01*
X159659678Y-111728607D01*
X159659678Y-111814321D01*
X159688250Y-111871464D01*
X159716821Y-111900035D01*
X159773964Y-111928607D01*
X160002535Y-111928607D01*
X159088250Y-112214321D02*
X159431107Y-112214321D01*
X159259678Y-112214321D02*
X159259678Y-111614321D01*
X159316821Y-111700035D01*
X159373964Y-111757178D01*
X159431107Y-111785750D01*
X158802535Y-112185750D02*
X158802535Y-112214321D01*
X158831107Y-112271464D01*
X158859678Y-112300035D01*
X158545393Y-112214321D02*
X158545393Y-111614321D01*
X158316821Y-111614321D01*
X158259678Y-111642893D01*
X158231107Y-111671464D01*
X158202535Y-111728607D01*
X158202535Y-111814321D01*
X158231107Y-111871464D01*
X158259678Y-111900035D01*
X158316821Y-111928607D01*
X158545393Y-111928607D01*
X157831107Y-111614321D02*
X157773964Y-111614321D01*
X157716821Y-111642893D01*
X157688250Y-111671464D01*
X157659678Y-111728607D01*
X157631107Y-111842893D01*
X157631107Y-111985750D01*
X157659678Y-112100035D01*
X157688250Y-112157178D01*
X157716821Y-112185750D01*
X157773964Y-112214321D01*
X157831107Y-112214321D01*
X157888250Y-112185750D01*
X157916821Y-112157178D01*
X157945393Y-112100035D01*
X157973964Y-111985750D01*
X157973964Y-111842893D01*
X157945393Y-111728607D01*
X157916821Y-111671464D01*
X157888250Y-111642893D01*
X157831107Y-111614321D01*
X156916821Y-111900035D02*
X156459678Y-111900035D01*
X156459678Y-112071464D02*
X156916821Y-112071464D01*
X155602535Y-111614321D02*
X155545393Y-111614321D01*
X155488250Y-111642893D01*
X155459678Y-111671464D01*
X155431107Y-111728607D01*
X155402535Y-111842893D01*
X155402535Y-111985750D01*
X155431107Y-112100035D01*
X155459678Y-112157178D01*
X155488250Y-112185750D01*
X155545393Y-112214321D01*
X155602535Y-112214321D01*
X155659678Y-112185750D01*
X155688250Y-112157178D01*
X155716821Y-112100035D01*
X155745393Y-111985750D01*
X155745393Y-111842893D01*
X155716821Y-111728607D01*
X155688250Y-111671464D01*
X155659678Y-111642893D01*
X155602535Y-111614321D01*
X154831107Y-112214321D02*
X155173964Y-112214321D01*
X155002535Y-112214321D02*
X155002535Y-111614321D01*
X155059678Y-111700035D01*
X155116821Y-111757178D01*
X155173964Y-111785750D01*
X154573964Y-112157178D02*
X154545393Y-112185750D01*
X154573964Y-112214321D01*
X154602535Y-112185750D01*
X154573964Y-112157178D01*
X154573964Y-112214321D01*
X154573964Y-111842893D02*
X154545393Y-111871464D01*
X154573964Y-111900035D01*
X154602535Y-111871464D01*
X154573964Y-111842893D01*
X154573964Y-111900035D01*
X153859678Y-112185750D02*
X153773964Y-112214321D01*
X153631107Y-112214321D01*
X153573964Y-112185750D01*
X153545393Y-112157178D01*
X153516821Y-112100035D01*
X153516821Y-112042893D01*
X153545393Y-111985750D01*
X153573964Y-111957178D01*
X153631107Y-111928607D01*
X153745393Y-111900035D01*
X153802535Y-111871464D01*
X153831107Y-111842893D01*
X153859678Y-111785750D01*
X153859678Y-111728607D01*
X153831107Y-111671464D01*
X153802535Y-111642893D01*
X153745393Y-111614321D01*
X153602535Y-111614321D01*
X153516821Y-111642893D01*
X153259678Y-112214321D02*
X153259678Y-111614321D01*
X153059678Y-112042893D01*
X152859678Y-111614321D01*
X152859678Y-112214321D01*
X152573964Y-112214321D02*
X152573964Y-111614321D01*
X151831107Y-112214321D02*
X151831107Y-111614321D01*
X151631107Y-112042893D01*
X151431107Y-111614321D01*
X151431107Y-112214321D01*
X151059678Y-112214321D02*
X151116821Y-112185750D01*
X151145393Y-112157178D01*
X151173964Y-112100035D01*
X151173964Y-111928607D01*
X151145393Y-111871464D01*
X151116821Y-111842893D01*
X151059678Y-111814321D01*
X150973964Y-111814321D01*
X150916821Y-111842893D01*
X150888250Y-111871464D01*
X150859678Y-111928607D01*
X150859678Y-112100035D01*
X150888250Y-112157178D01*
X150916821Y-112185750D01*
X150973964Y-112214321D01*
X151059678Y-112214321D01*
X150345393Y-112214321D02*
X150345393Y-111614321D01*
X150345393Y-112185750D02*
X150402535Y-112214321D01*
X150516821Y-112214321D01*
X150573964Y-112185750D01*
X150602535Y-112157178D01*
X150631107Y-112100035D01*
X150631107Y-111928607D01*
X150602535Y-111871464D01*
X150573964Y-111842893D01*
X150516821Y-111814321D01*
X150402535Y-111814321D01*
X150345393Y-111842893D01*
X149831107Y-112185750D02*
X149888250Y-112214321D01*
X150002535Y-112214321D01*
X150059678Y-112185750D01*
X150088250Y-112128607D01*
X150088250Y-111900035D01*
X150059678Y-111842893D01*
X150002535Y-111814321D01*
X149888250Y-111814321D01*
X149831107Y-111842893D01*
X149802535Y-111900035D01*
X149802535Y-111957178D01*
X150088250Y-112014321D01*
X160002535Y-113264321D02*
X160002535Y-112664321D01*
X159773964Y-112664321D01*
X159716821Y-112692893D01*
X159688250Y-112721464D01*
X159659678Y-112778607D01*
X159659678Y-112864321D01*
X159688250Y-112921464D01*
X159716821Y-112950035D01*
X159773964Y-112978607D01*
X160002535Y-112978607D01*
X159088250Y-113264321D02*
X159431107Y-113264321D01*
X159259678Y-113264321D02*
X159259678Y-112664321D01*
X159316821Y-112750035D01*
X159373964Y-112807178D01*
X159431107Y-112835750D01*
X158802535Y-113235750D02*
X158802535Y-113264321D01*
X158831107Y-113321464D01*
X158859678Y-113350035D01*
X158545393Y-113264321D02*
X158545393Y-112664321D01*
X158316821Y-112664321D01*
X158259678Y-112692893D01*
X158231107Y-112721464D01*
X158202535Y-112778607D01*
X158202535Y-112864321D01*
X158231107Y-112921464D01*
X158259678Y-112950035D01*
X158316821Y-112978607D01*
X158545393Y-112978607D01*
X157831107Y-112664321D02*
X157773964Y-112664321D01*
X157716821Y-112692893D01*
X157688250Y-112721464D01*
X157659678Y-112778607D01*
X157631107Y-112892893D01*
X157631107Y-113035750D01*
X157659678Y-113150035D01*
X157688250Y-113207178D01*
X157716821Y-113235750D01*
X157773964Y-113264321D01*
X157831107Y-113264321D01*
X157888250Y-113235750D01*
X157916821Y-113207178D01*
X157945393Y-113150035D01*
X157973964Y-113035750D01*
X157973964Y-112892893D01*
X157945393Y-112778607D01*
X157916821Y-112721464D01*
X157888250Y-112692893D01*
X157831107Y-112664321D01*
X156916821Y-112950035D02*
X156459678Y-112950035D01*
X156459678Y-113121464D02*
X156916821Y-113121464D01*
X155402535Y-113264321D02*
X155745393Y-113264321D01*
X155573964Y-113264321D02*
X155573964Y-112664321D01*
X155631107Y-112750035D01*
X155688250Y-112807178D01*
X155745393Y-112835750D01*
X155031107Y-112664321D02*
X154973964Y-112664321D01*
X154916821Y-112692893D01*
X154888250Y-112721464D01*
X154859678Y-112778607D01*
X154831107Y-112892893D01*
X154831107Y-113035750D01*
X154859678Y-113150035D01*
X154888250Y-113207178D01*
X154916821Y-113235750D01*
X154973964Y-113264321D01*
X155031107Y-113264321D01*
X155088250Y-113235750D01*
X155116821Y-113207178D01*
X155145393Y-113150035D01*
X155173964Y-113035750D01*
X155173964Y-112892893D01*
X155145393Y-112778607D01*
X155116821Y-112721464D01*
X155088250Y-112692893D01*
X155031107Y-112664321D01*
X154573964Y-113207178D02*
X154545393Y-113235750D01*
X154573964Y-113264321D01*
X154602535Y-113235750D01*
X154573964Y-113207178D01*
X154573964Y-113264321D01*
X154573964Y-112892893D02*
X154545393Y-112921464D01*
X154573964Y-112950035D01*
X154602535Y-112921464D01*
X154573964Y-112892893D01*
X154573964Y-112950035D01*
X153859678Y-113235750D02*
X153773964Y-113264321D01*
X153631107Y-113264321D01*
X153573964Y-113235750D01*
X153545393Y-113207178D01*
X153516821Y-113150035D01*
X153516821Y-113092893D01*
X153545393Y-113035750D01*
X153573964Y-113007178D01*
X153631107Y-112978607D01*
X153745393Y-112950035D01*
X153802535Y-112921464D01*
X153831107Y-112892893D01*
X153859678Y-112835750D01*
X153859678Y-112778607D01*
X153831107Y-112721464D01*
X153802535Y-112692893D01*
X153745393Y-112664321D01*
X153602535Y-112664321D01*
X153516821Y-112692893D01*
X153259678Y-113264321D02*
X153259678Y-112664321D01*
X153031107Y-112664321D01*
X152973964Y-112692893D01*
X152945393Y-112721464D01*
X152916821Y-112778607D01*
X152916821Y-112864321D01*
X152945393Y-112921464D01*
X152973964Y-112950035D01*
X153031107Y-112978607D01*
X153259678Y-112978607D01*
X152659678Y-113264321D02*
X152659678Y-112664321D01*
X151945393Y-113235750D02*
X151859678Y-113264321D01*
X151716821Y-113264321D01*
X151659678Y-113235750D01*
X151631107Y-113207178D01*
X151602535Y-113150035D01*
X151602535Y-113092893D01*
X151631107Y-113035750D01*
X151659678Y-113007178D01*
X151716821Y-112978607D01*
X151831107Y-112950035D01*
X151888250Y-112921464D01*
X151916821Y-112892893D01*
X151945393Y-112835750D01*
X151945393Y-112778607D01*
X151916821Y-112721464D01*
X151888250Y-112692893D01*
X151831107Y-112664321D01*
X151688250Y-112664321D01*
X151602535Y-112692893D01*
X151259678Y-113264321D02*
X151316821Y-113235750D01*
X151345393Y-113178607D01*
X151345393Y-112664321D01*
X150773964Y-113264321D02*
X150773964Y-112950035D01*
X150802535Y-112892893D01*
X150859678Y-112864321D01*
X150973964Y-112864321D01*
X151031107Y-112892893D01*
X150773964Y-113235750D02*
X150831107Y-113264321D01*
X150973964Y-113264321D01*
X151031107Y-113235750D01*
X151059678Y-113178607D01*
X151059678Y-113121464D01*
X151031107Y-113064321D01*
X150973964Y-113035750D01*
X150831107Y-113035750D01*
X150773964Y-113007178D01*
X150545393Y-112864321D02*
X150402535Y-113264321D01*
X150259678Y-112864321D01*
X149802535Y-113235750D02*
X149859678Y-113264321D01*
X149973964Y-113264321D01*
X150031107Y-113235750D01*
X150059678Y-113178607D01*
X150059678Y-112950035D01*
X150031107Y-112892893D01*
X149973964Y-112864321D01*
X149859678Y-112864321D01*
X149802535Y-112892893D01*
X149773964Y-112950035D01*
X149773964Y-113007178D01*
X150059678Y-113064321D01*
D11*
X148759559Y-81509559D02*
X148726226Y-81409559D01*
X148726226Y-81242893D01*
X148759559Y-81176226D01*
X148792893Y-81142893D01*
X148859559Y-81109559D01*
X148926226Y-81109559D01*
X148992893Y-81142893D01*
X149026226Y-81176226D01*
X149059559Y-81242893D01*
X149092893Y-81376226D01*
X149126226Y-81442893D01*
X149159559Y-81476226D01*
X149226226Y-81509559D01*
X149292893Y-81509559D01*
X149359559Y-81476226D01*
X149392893Y-81442893D01*
X149426226Y-81376226D01*
X149426226Y-81209559D01*
X149392893Y-81109559D01*
X148726226Y-80809559D02*
X149426226Y-80809559D01*
X146792893Y-81459559D02*
X146759559Y-81492893D01*
X146726226Y-81592893D01*
X146726226Y-81659559D01*
X146759559Y-81759559D01*
X146826226Y-81826226D01*
X146892893Y-81859559D01*
X147026226Y-81892893D01*
X147126226Y-81892893D01*
X147259559Y-81859559D01*
X147326226Y-81826226D01*
X147392893Y-81759559D01*
X147426226Y-81659559D01*
X147426226Y-81592893D01*
X147392893Y-81492893D01*
X147359559Y-81459559D01*
X146759559Y-81192893D02*
X146726226Y-81092893D01*
X146726226Y-80926226D01*
X146759559Y-80859559D01*
X146792893Y-80826226D01*
X146859559Y-80792893D01*
X146926226Y-80792893D01*
X146992893Y-80826226D01*
X147026226Y-80859559D01*
X147059559Y-80926226D01*
X147092893Y-81059559D01*
X147126226Y-81126226D01*
X147159559Y-81159559D01*
X147226226Y-81192893D01*
X147292893Y-81192893D01*
X147359559Y-81159559D01*
X147392893Y-81126226D01*
X147426226Y-81059559D01*
X147426226Y-80892893D01*
X147392893Y-80792893D01*
X144726226Y-81759559D02*
X145426226Y-81759559D01*
X145426226Y-81492893D01*
X145392893Y-81426226D01*
X145359559Y-81392893D01*
X145292893Y-81359559D01*
X145192893Y-81359559D01*
X145126226Y-81392893D01*
X145092893Y-81426226D01*
X145059559Y-81492893D01*
X145059559Y-81759559D01*
X144726226Y-80692893D02*
X144726226Y-81092893D01*
X144726226Y-80892893D02*
X145426226Y-80892893D01*
X145326226Y-80959559D01*
X145259559Y-81026226D01*
X145226226Y-81092893D01*
X142726226Y-81859559D02*
X143426226Y-81859559D01*
X143426226Y-81592893D01*
X143392893Y-81526226D01*
X143359559Y-81492893D01*
X143292893Y-81459559D01*
X143192893Y-81459559D01*
X143126226Y-81492893D01*
X143092893Y-81526226D01*
X143059559Y-81592893D01*
X143059559Y-81859559D01*
X143426226Y-81026226D02*
X143426226Y-80959559D01*
X143392893Y-80892893D01*
X143359559Y-80859559D01*
X143292893Y-80826226D01*
X143159559Y-80792893D01*
X142992893Y-80792893D01*
X142859559Y-80826226D01*
X142792893Y-80859559D01*
X142759559Y-80892893D01*
X142726226Y-80959559D01*
X142726226Y-81026226D01*
X142759559Y-81092893D01*
X142792893Y-81126226D01*
X142859559Y-81159559D01*
X142992893Y-81192893D01*
X143159559Y-81192893D01*
X143292893Y-81159559D01*
X143359559Y-81126226D01*
X143392893Y-81092893D01*
X143426226Y-81026226D01*
X140726226Y-82176226D02*
X141426226Y-82176226D01*
X140726226Y-81842893D02*
X141426226Y-81842893D01*
X140726226Y-81442893D01*
X141426226Y-81442893D01*
X141426226Y-81209559D02*
X141426226Y-80809559D01*
X140726226Y-81009559D02*
X141426226Y-81009559D01*
X138726226Y-83442893D02*
X139426226Y-83442893D01*
X139426226Y-83176226D01*
X139392893Y-83109559D01*
X139359559Y-83076226D01*
X139292893Y-83042893D01*
X139192893Y-83042893D01*
X139126226Y-83076226D01*
X139092893Y-83109559D01*
X139059559Y-83176226D01*
X139059559Y-83442893D01*
X139426226Y-82809559D02*
X138726226Y-82642893D01*
X139226226Y-82509559D01*
X138726226Y-82376226D01*
X139426226Y-82209559D01*
X138726226Y-81942893D02*
X139426226Y-81942893D01*
X139426226Y-81776226D01*
X139392893Y-81676226D01*
X139326226Y-81609559D01*
X139259559Y-81576226D01*
X139126226Y-81542893D01*
X139026226Y-81542893D01*
X138892893Y-81576226D01*
X138826226Y-81609559D01*
X138759559Y-81676226D01*
X138726226Y-81776226D01*
X138726226Y-81942893D01*
X138726226Y-81242893D02*
X139426226Y-81242893D01*
X138726226Y-80842893D01*
X139426226Y-80842893D01*
D12*
X133092893Y-106880988D02*
X133045273Y-106785750D01*
X133045273Y-106642893D01*
X133092893Y-106500035D01*
X133188131Y-106404797D01*
X133283369Y-106357178D01*
X133473845Y-106309559D01*
X133616702Y-106309559D01*
X133807178Y-106357178D01*
X133902416Y-106404797D01*
X133997654Y-106500035D01*
X134045273Y-106642893D01*
X134045273Y-106738131D01*
X133997654Y-106880988D01*
X133950035Y-106928607D01*
X133616702Y-106928607D01*
X133616702Y-106738131D01*
X134045273Y-107357178D02*
X133045273Y-107357178D01*
X134045273Y-107928607D01*
X133045273Y-107928607D01*
X134045273Y-108404797D02*
X133045273Y-108404797D01*
X133045273Y-108642893D01*
X133092893Y-108785750D01*
X133188131Y-108880988D01*
X133283369Y-108928607D01*
X133473845Y-108976226D01*
X133616702Y-108976226D01*
X133807178Y-108928607D01*
X133902416Y-108880988D01*
X133997654Y-108785750D01*
X134045273Y-108642893D01*
X134045273Y-108404797D01*
X132942893Y-75480988D02*
X132895273Y-75385750D01*
X132895273Y-75242893D01*
X132942893Y-75100035D01*
X133038131Y-75004797D01*
X133133369Y-74957178D01*
X133323845Y-74909559D01*
X133466702Y-74909559D01*
X133657178Y-74957178D01*
X133752416Y-75004797D01*
X133847654Y-75100035D01*
X133895273Y-75242893D01*
X133895273Y-75338131D01*
X133847654Y-75480988D01*
X133800035Y-75528607D01*
X133466702Y-75528607D01*
X133466702Y-75338131D01*
X133895273Y-75957178D02*
X132895273Y-75957178D01*
X133895273Y-76528607D01*
X132895273Y-76528607D01*
X133895273Y-77004797D02*
X132895273Y-77004797D01*
X132895273Y-77242893D01*
X132942893Y-77385750D01*
X133038131Y-77480988D01*
X133133369Y-77528607D01*
X133323845Y-77576226D01*
X133466702Y-77576226D01*
X133657178Y-77528607D01*
X133752416Y-77480988D01*
X133847654Y-77385750D01*
X133895273Y-77242893D01*
X133895273Y-77004797D01*
D11*
X148792893Y-72709559D02*
X148759559Y-72742893D01*
X148726226Y-72842893D01*
X148726226Y-72909559D01*
X148759559Y-73009559D01*
X148826226Y-73076226D01*
X148892893Y-73109559D01*
X149026226Y-73142893D01*
X149126226Y-73142893D01*
X149259559Y-73109559D01*
X149326226Y-73076226D01*
X149392893Y-73009559D01*
X149426226Y-72909559D01*
X149426226Y-72842893D01*
X149392893Y-72742893D01*
X149359559Y-72709559D01*
X148726226Y-72076226D02*
X148726226Y-72409559D01*
X149426226Y-72409559D01*
X148726226Y-71842893D02*
X149426226Y-71842893D01*
X148726226Y-71442893D02*
X149126226Y-71742893D01*
X149426226Y-71442893D02*
X149026226Y-71842893D01*
X146759559Y-73159559D02*
X146726226Y-73059559D01*
X146726226Y-72892893D01*
X146759559Y-72826226D01*
X146792893Y-72792893D01*
X146859559Y-72759559D01*
X146926226Y-72759559D01*
X146992893Y-72792893D01*
X147026226Y-72826226D01*
X147059559Y-72892893D01*
X147092893Y-73026226D01*
X147126226Y-73092893D01*
X147159559Y-73126226D01*
X147226226Y-73159559D01*
X147292893Y-73159559D01*
X147359559Y-73126226D01*
X147392893Y-73092893D01*
X147426226Y-73026226D01*
X147426226Y-72859559D01*
X147392893Y-72759559D01*
X147426226Y-72326226D02*
X147426226Y-72192893D01*
X147392893Y-72126226D01*
X147326226Y-72059559D01*
X147192893Y-72026226D01*
X146959559Y-72026226D01*
X146826226Y-72059559D01*
X146759559Y-72126226D01*
X146726226Y-72192893D01*
X146726226Y-72326226D01*
X146759559Y-72392893D01*
X146826226Y-72459559D01*
X146959559Y-72492893D01*
X147192893Y-72492893D01*
X147326226Y-72459559D01*
X147392893Y-72392893D01*
X147426226Y-72326226D01*
X143376226Y-73109559D02*
X143376226Y-72676226D01*
X143109559Y-72909559D01*
X143109559Y-72809559D01*
X143076226Y-72742893D01*
X143042893Y-72709559D01*
X142976226Y-72676226D01*
X142809559Y-72676226D01*
X142742893Y-72709559D01*
X142709559Y-72742893D01*
X142676226Y-72809559D01*
X142676226Y-73009559D01*
X142709559Y-73076226D01*
X142742893Y-73109559D01*
X143376226Y-72476226D02*
X142676226Y-72242893D01*
X143376226Y-72009559D01*
X143376226Y-71842893D02*
X143376226Y-71409559D01*
X143109559Y-71642893D01*
X143109559Y-71542893D01*
X143076226Y-71476226D01*
X143042893Y-71442893D01*
X142976226Y-71409559D01*
X142809559Y-71409559D01*
X142742893Y-71442893D01*
X142709559Y-71476226D01*
X142676226Y-71542893D01*
X142676226Y-71742893D01*
X142709559Y-71809559D01*
X142742893Y-71842893D01*
X145392893Y-72776226D02*
X145426226Y-72842893D01*
X145426226Y-72942893D01*
X145392893Y-73042893D01*
X145326226Y-73109559D01*
X145259559Y-73142893D01*
X145126226Y-73176226D01*
X145026226Y-73176226D01*
X144892893Y-73142893D01*
X144826226Y-73109559D01*
X144759559Y-73042893D01*
X144726226Y-72942893D01*
X144726226Y-72876226D01*
X144759559Y-72776226D01*
X144792893Y-72742893D01*
X145026226Y-72742893D01*
X145026226Y-72876226D01*
X144726226Y-72442893D02*
X145426226Y-72442893D01*
X144726226Y-72042893D01*
X145426226Y-72042893D01*
X144726226Y-71709559D02*
X145426226Y-71709559D01*
X145426226Y-71542893D01*
X145392893Y-71442893D01*
X145326226Y-71376226D01*
X145259559Y-71342893D01*
X145126226Y-71309559D01*
X145026226Y-71309559D01*
X144892893Y-71342893D01*
X144826226Y-71376226D01*
X144759559Y-71442893D01*
X144726226Y-71542893D01*
X144726226Y-71709559D01*
X141426226Y-72776226D02*
X141426226Y-73109559D01*
X141092893Y-73142893D01*
X141126226Y-73109559D01*
X141159559Y-73042893D01*
X141159559Y-72876226D01*
X141126226Y-72809559D01*
X141092893Y-72776226D01*
X141026226Y-72742893D01*
X140859559Y-72742893D01*
X140792893Y-72776226D01*
X140759559Y-72809559D01*
X140726226Y-72876226D01*
X140726226Y-73042893D01*
X140759559Y-73109559D01*
X140792893Y-73142893D01*
X141426226Y-72542893D02*
X140726226Y-72309559D01*
X141426226Y-72076226D01*
X139426226Y-73159559D02*
X138726226Y-72926226D01*
X139426226Y-72692893D01*
X138726226Y-72459559D02*
X139192893Y-72459559D01*
X139426226Y-72459559D02*
X139392893Y-72492893D01*
X139359559Y-72459559D01*
X139392893Y-72426226D01*
X139426226Y-72459559D01*
X139359559Y-72459559D01*
X139192893Y-72126226D02*
X138726226Y-72126226D01*
X139126226Y-72126226D02*
X139159559Y-72092893D01*
X139192893Y-72026226D01*
X139192893Y-71926226D01*
X139159559Y-71859559D01*
X139092893Y-71826226D01*
X138726226Y-71826226D01*
D13*
X146971464Y-70389321D02*
X146721464Y-70389321D01*
X146614321Y-70782178D02*
X146971464Y-70782178D01*
X146971464Y-70032178D01*
X146614321Y-70032178D01*
X146364321Y-70032178D02*
X145864321Y-70782178D01*
X145864321Y-70032178D02*
X146364321Y-70782178D01*
X145578607Y-70782178D02*
X145578607Y-70032178D01*
X145292893Y-70032178D01*
X145221464Y-70067893D01*
X145185750Y-70103607D01*
X145150035Y-70175035D01*
X145150035Y-70282178D01*
X145185750Y-70353607D01*
X145221464Y-70389321D01*
X145292893Y-70425035D01*
X145578607Y-70425035D01*
X144864321Y-70567893D02*
X144507178Y-70567893D01*
X144935750Y-70782178D02*
X144685750Y-70032178D01*
X144435750Y-70782178D01*
X144185750Y-70782178D02*
X144185750Y-70032178D01*
X143757178Y-70782178D01*
X143757178Y-70032178D01*
X143435750Y-70746464D02*
X143328607Y-70782178D01*
X143150035Y-70782178D01*
X143078607Y-70746464D01*
X143042893Y-70710750D01*
X143007178Y-70639321D01*
X143007178Y-70567893D01*
X143042893Y-70496464D01*
X143078607Y-70460750D01*
X143150035Y-70425035D01*
X143292893Y-70389321D01*
X143364321Y-70353607D01*
X143400035Y-70317893D01*
X143435750Y-70246464D01*
X143435750Y-70175035D01*
X143400035Y-70103607D01*
X143364321Y-70067893D01*
X143292893Y-70032178D01*
X143114321Y-70032178D01*
X143007178Y-70067893D01*
X142685750Y-70782178D02*
X142685750Y-70032178D01*
X142185750Y-70032178D02*
X142042893Y-70032178D01*
X141971464Y-70067893D01*
X141900035Y-70139321D01*
X141864321Y-70282178D01*
X141864321Y-70532178D01*
X141900035Y-70675035D01*
X141971464Y-70746464D01*
X142042893Y-70782178D01*
X142185750Y-70782178D01*
X142257178Y-70746464D01*
X142328607Y-70675035D01*
X142364321Y-70532178D01*
X142364321Y-70282178D01*
X142328607Y-70139321D01*
X142257178Y-70067893D01*
X142185750Y-70032178D01*
X141542893Y-70782178D02*
X141542893Y-70032178D01*
X141114321Y-70782178D01*
X141114321Y-70032178D01*
D12*
X135792893Y-106880988D02*
X135745273Y-106785750D01*
X135745273Y-106642893D01*
X135792893Y-106500035D01*
X135888131Y-106404797D01*
X135983369Y-106357178D01*
X136173845Y-106309559D01*
X136316702Y-106309559D01*
X136507178Y-106357178D01*
X136602416Y-106404797D01*
X136697654Y-106500035D01*
X136745273Y-106642893D01*
X136745273Y-106738131D01*
X136697654Y-106880988D01*
X136650035Y-106928607D01*
X136316702Y-106928607D01*
X136316702Y-106738131D01*
X136745273Y-107357178D02*
X135745273Y-107357178D01*
X136745273Y-107928607D01*
X135745273Y-107928607D01*
X136745273Y-108404797D02*
X135745273Y-108404797D01*
X135745273Y-108642893D01*
X135792893Y-108785750D01*
X135888131Y-108880988D01*
X135983369Y-108928607D01*
X136173845Y-108976226D01*
X136316702Y-108976226D01*
X136507178Y-108928607D01*
X136602416Y-108880988D01*
X136697654Y-108785750D01*
X136745273Y-108642893D01*
X136745273Y-108404797D01*
X131545273Y-106900035D02*
X131545273Y-106423845D01*
X132021464Y-106376226D01*
X131973845Y-106423845D01*
X131926226Y-106519083D01*
X131926226Y-106757178D01*
X131973845Y-106852416D01*
X132021464Y-106900035D01*
X132116702Y-106947654D01*
X132354797Y-106947654D01*
X132450035Y-106900035D01*
X132497654Y-106852416D01*
X132545273Y-106757178D01*
X132545273Y-106519083D01*
X132497654Y-106423845D01*
X132450035Y-106376226D01*
X131545273Y-107233369D02*
X132545273Y-107566702D01*
X131545273Y-107900035D01*
X132545273Y-108376226D02*
X132497654Y-108280988D01*
X132450035Y-108233369D01*
X132354797Y-108185750D01*
X132069083Y-108185750D01*
X131973845Y-108233369D01*
X131926226Y-108280988D01*
X131878607Y-108376226D01*
X131878607Y-108519083D01*
X131926226Y-108614321D01*
X131973845Y-108661940D01*
X132069083Y-108709559D01*
X132354797Y-108709559D01*
X132450035Y-108661940D01*
X132497654Y-108614321D01*
X132545273Y-108519083D01*
X132545273Y-108376226D01*
X135742893Y-75480988D02*
X135695273Y-75385750D01*
X135695273Y-75242893D01*
X135742893Y-75100035D01*
X135838131Y-75004797D01*
X135933369Y-74957178D01*
X136123845Y-74909559D01*
X136266702Y-74909559D01*
X136457178Y-74957178D01*
X136552416Y-75004797D01*
X136647654Y-75100035D01*
X136695273Y-75242893D01*
X136695273Y-75338131D01*
X136647654Y-75480988D01*
X136600035Y-75528607D01*
X136266702Y-75528607D01*
X136266702Y-75338131D01*
X136695273Y-75957178D02*
X135695273Y-75957178D01*
X136695273Y-76528607D01*
X135695273Y-76528607D01*
X136695273Y-77004797D02*
X135695273Y-77004797D01*
X135695273Y-77242893D01*
X135742893Y-77385750D01*
X135838131Y-77480988D01*
X135933369Y-77528607D01*
X136123845Y-77576226D01*
X136266702Y-77576226D01*
X136457178Y-77528607D01*
X136552416Y-77480988D01*
X136647654Y-77385750D01*
X136695273Y-77242893D01*
X136695273Y-77004797D01*
X131495273Y-75619083D02*
X132495273Y-75952416D01*
X131495273Y-76285750D01*
X132495273Y-76619083D02*
X131828607Y-76619083D01*
X131495273Y-76619083D02*
X131542893Y-76571464D01*
X131590512Y-76619083D01*
X131542893Y-76666702D01*
X131495273Y-76619083D01*
X131590512Y-76619083D01*
X131828607Y-77095273D02*
X132495273Y-77095273D01*
X131923845Y-77095273D02*
X131876226Y-77142893D01*
X131828607Y-77238131D01*
X131828607Y-77380988D01*
X131876226Y-77476226D01*
X131971464Y-77523845D01*
X132495273Y-77523845D01*
D14*
X171730988Y-108730988D02*
X171730988Y-107430988D01*
X171730988Y-107926226D02*
X171607178Y-107864321D01*
X171359559Y-107864321D01*
X171235750Y-107926226D01*
X171173845Y-107988131D01*
X171111940Y-108111940D01*
X171111940Y-108483369D01*
X171173845Y-108607178D01*
X171235750Y-108669083D01*
X171359559Y-108730988D01*
X171607178Y-108730988D01*
X171730988Y-108669083D01*
X170369083Y-108730988D02*
X170492893Y-108669083D01*
X170554797Y-108607178D01*
X170616702Y-108483369D01*
X170616702Y-108111940D01*
X170554797Y-107988131D01*
X170492893Y-107926226D01*
X170369083Y-107864321D01*
X170183369Y-107864321D01*
X170059559Y-107926226D01*
X169997654Y-107988131D01*
X169935750Y-108111940D01*
X169935750Y-108483369D01*
X169997654Y-108607178D01*
X170059559Y-108669083D01*
X170183369Y-108730988D01*
X170369083Y-108730988D01*
X169564321Y-107864321D02*
X169069083Y-107864321D01*
X169378607Y-107430988D02*
X169378607Y-108545273D01*
X169316702Y-108669083D01*
X169192893Y-108730988D01*
X169069083Y-108730988D01*
X168635750Y-108730988D02*
X168635750Y-107430988D01*
X168635750Y-107926226D02*
X168511940Y-107864321D01*
X168264321Y-107864321D01*
X168140512Y-107926226D01*
X168078607Y-107988131D01*
X168016702Y-108111940D01*
X168016702Y-108483369D01*
X168078607Y-108607178D01*
X168140512Y-108669083D01*
X168264321Y-108730988D01*
X168511940Y-108730988D01*
X168635750Y-108669083D01*
X167273845Y-108730988D02*
X167397654Y-108669083D01*
X167459559Y-108545273D01*
X167459559Y-107430988D01*
X166592893Y-108730988D02*
X166716702Y-108669083D01*
X166778607Y-108607178D01*
X166840512Y-108483369D01*
X166840512Y-108111940D01*
X166778607Y-107988131D01*
X166716702Y-107926226D01*
X166592893Y-107864321D01*
X166407178Y-107864321D01*
X166283369Y-107926226D01*
X166221464Y-107988131D01*
X166159559Y-108111940D01*
X166159559Y-108483369D01*
X166221464Y-108607178D01*
X166283369Y-108669083D01*
X166407178Y-108730988D01*
X166592893Y-108730988D01*
X165726226Y-108730988D02*
X165045273Y-107864321D01*
X165726226Y-107864321D02*
X165045273Y-108730988D01*
X164550035Y-108607178D02*
X164488131Y-108669083D01*
X164550035Y-108730988D01*
X164611940Y-108669083D01*
X164550035Y-108607178D01*
X164550035Y-108730988D01*
X163930988Y-108730988D02*
X163930988Y-107864321D01*
X163930988Y-107430988D02*
X163992893Y-107492893D01*
X163930988Y-107554797D01*
X163869083Y-107492893D01*
X163930988Y-107430988D01*
X163930988Y-107554797D01*
X163126226Y-108730988D02*
X163250035Y-108669083D01*
X163311940Y-108607178D01*
X163373845Y-108483369D01*
X163373845Y-108111940D01*
X163311940Y-107988131D01*
X163250035Y-107926226D01*
X163126226Y-107864321D01*
X162940512Y-107864321D01*
X162816702Y-107926226D01*
X162754797Y-107988131D01*
X162692893Y-108111940D01*
X162692893Y-108483369D01*
X162754797Y-108607178D01*
X162816702Y-108669083D01*
X162940512Y-108730988D01*
X163126226Y-108730988D01*
D11*
X167983571Y-73982178D02*
X167983571Y-73232178D01*
X167733571Y-73767893D01*
X167483571Y-73232178D01*
X167483571Y-73982178D01*
X167126428Y-73982178D02*
X167126428Y-73482178D01*
X167126428Y-73232178D02*
X167162142Y-73267893D01*
X167126428Y-73303607D01*
X167090714Y-73267893D01*
X167126428Y-73232178D01*
X167126428Y-73303607D01*
X166769285Y-73482178D02*
X166769285Y-73982178D01*
X166769285Y-73553607D02*
X166733571Y-73517893D01*
X166662142Y-73482178D01*
X166555000Y-73482178D01*
X166483571Y-73517893D01*
X166447857Y-73589321D01*
X166447857Y-73982178D01*
X166090714Y-73982178D02*
X166090714Y-73482178D01*
X166090714Y-73232178D02*
X166126428Y-73267893D01*
X166090714Y-73303607D01*
X166055000Y-73267893D01*
X166090714Y-73232178D01*
X166090714Y-73303607D01*
X164805000Y-73232178D02*
X165162142Y-73232178D01*
X165197857Y-73589321D01*
X165162142Y-73553607D01*
X165090714Y-73517893D01*
X164912142Y-73517893D01*
X164840714Y-73553607D01*
X164805000Y-73589321D01*
X164769285Y-73660750D01*
X164769285Y-73839321D01*
X164805000Y-73910750D01*
X164840714Y-73946464D01*
X164912142Y-73982178D01*
X165090714Y-73982178D01*
X165162142Y-73946464D01*
X165197857Y-73910750D01*
X164447857Y-73696464D02*
X163876428Y-73696464D01*
X163519285Y-73482178D02*
X163519285Y-74232178D01*
X163519285Y-73517893D02*
X163447857Y-73482178D01*
X163305000Y-73482178D01*
X163233571Y-73517893D01*
X163197857Y-73553607D01*
X163162142Y-73625035D01*
X163162142Y-73839321D01*
X163197857Y-73910750D01*
X163233571Y-73946464D01*
X163305000Y-73982178D01*
X163447857Y-73982178D01*
X163519285Y-73946464D01*
X162733571Y-73982178D02*
X162805000Y-73946464D01*
X162840714Y-73910750D01*
X162876428Y-73839321D01*
X162876428Y-73625035D01*
X162840714Y-73553607D01*
X162805000Y-73517893D01*
X162733571Y-73482178D01*
X162626428Y-73482178D01*
X162555000Y-73517893D01*
X162519285Y-73553607D01*
X162483571Y-73625035D01*
X162483571Y-73839321D01*
X162519285Y-73910750D01*
X162555000Y-73946464D01*
X162626428Y-73982178D01*
X162733571Y-73982178D01*
X162162142Y-73982178D02*
X162162142Y-73482178D01*
X162162142Y-73625035D02*
X162126428Y-73553607D01*
X162090714Y-73517893D01*
X162019285Y-73482178D01*
X161947857Y-73482178D01*
X161805000Y-73482178D02*
X161519285Y-73482178D01*
X161697857Y-73232178D02*
X161697857Y-73875035D01*
X161662142Y-73946464D01*
X161590714Y-73982178D01*
X161519285Y-73982178D01*
X160412142Y-73946464D02*
X160483571Y-73982178D01*
X160626428Y-73982178D01*
X160697857Y-73946464D01*
X160733571Y-73875035D01*
X160733571Y-73589321D01*
X160697857Y-73517893D01*
X160626428Y-73482178D01*
X160483571Y-73482178D01*
X160412142Y-73517893D01*
X160376428Y-73589321D01*
X160376428Y-73660750D01*
X160733571Y-73732178D01*
X160162142Y-73482178D02*
X159876428Y-73482178D01*
X160055000Y-73232178D02*
X160055000Y-73875035D01*
X160019285Y-73946464D01*
X159947857Y-73982178D01*
X159876428Y-73982178D01*
X159626428Y-73982178D02*
X159626428Y-73232178D01*
X159305000Y-73982178D02*
X159305000Y-73589321D01*
X159340714Y-73517893D01*
X159412142Y-73482178D01*
X159519285Y-73482178D01*
X159590714Y-73517893D01*
X159626428Y-73553607D01*
X158662142Y-73946464D02*
X158733571Y-73982178D01*
X158876428Y-73982178D01*
X158947857Y-73946464D01*
X158983571Y-73875035D01*
X158983571Y-73589321D01*
X158947857Y-73517893D01*
X158876428Y-73482178D01*
X158733571Y-73482178D01*
X158662142Y-73517893D01*
X158626428Y-73589321D01*
X158626428Y-73660750D01*
X158983571Y-73732178D01*
X158305000Y-73982178D02*
X158305000Y-73482178D01*
X158305000Y-73625035D02*
X158269285Y-73553607D01*
X158233571Y-73517893D01*
X158162142Y-73482178D01*
X158090714Y-73482178D01*
X157840714Y-73482178D02*
X157840714Y-73982178D01*
X157840714Y-73553607D02*
X157805000Y-73517893D01*
X157733571Y-73482178D01*
X157626428Y-73482178D01*
X157555000Y-73517893D01*
X157519285Y-73589321D01*
X157519285Y-73982178D01*
X156876428Y-73946464D02*
X156947857Y-73982178D01*
X157090714Y-73982178D01*
X157162142Y-73946464D01*
X157197857Y-73875035D01*
X157197857Y-73589321D01*
X157162142Y-73517893D01*
X157090714Y-73482178D01*
X156947857Y-73482178D01*
X156876428Y-73517893D01*
X156840714Y-73589321D01*
X156840714Y-73660750D01*
X157197857Y-73732178D01*
X156626428Y-73482178D02*
X156340714Y-73482178D01*
X156519285Y-73232178D02*
X156519285Y-73875035D01*
X156483571Y-73946464D01*
X156412142Y-73982178D01*
X156340714Y-73982178D01*
X155555000Y-73946464D02*
X155483571Y-73982178D01*
X155340714Y-73982178D01*
X155269285Y-73946464D01*
X155233571Y-73875035D01*
X155233571Y-73839321D01*
X155269285Y-73767893D01*
X155340714Y-73732178D01*
X155447857Y-73732178D01*
X155519285Y-73696464D01*
X155555000Y-73625035D01*
X155555000Y-73589321D01*
X155519285Y-73517893D01*
X155447857Y-73482178D01*
X155340714Y-73482178D01*
X155269285Y-73517893D01*
X154983571Y-73482178D02*
X154840714Y-73982178D01*
X154697857Y-73625035D01*
X154555000Y-73982178D01*
X154412142Y-73482178D01*
X154126428Y-73982178D02*
X154126428Y-73482178D01*
X154126428Y-73232178D02*
X154162142Y-73267893D01*
X154126428Y-73303607D01*
X154090714Y-73267893D01*
X154126428Y-73232178D01*
X154126428Y-73303607D01*
X153876428Y-73482178D02*
X153590714Y-73482178D01*
X153769285Y-73232178D02*
X153769285Y-73875035D01*
X153733571Y-73946464D01*
X153662142Y-73982178D01*
X153590714Y-73982178D01*
X153019285Y-73946464D02*
X153090714Y-73982178D01*
X153233571Y-73982178D01*
X153305000Y-73946464D01*
X153340714Y-73910750D01*
X153376428Y-73839321D01*
X153376428Y-73625035D01*
X153340714Y-73553607D01*
X153305000Y-73517893D01*
X153233571Y-73482178D01*
X153090714Y-73482178D01*
X153019285Y-73517893D01*
X152697857Y-73982178D02*
X152697857Y-73232178D01*
X152376428Y-73982178D02*
X152376428Y-73589321D01*
X152412142Y-73517893D01*
X152483571Y-73482178D01*
X152590714Y-73482178D01*
X152662142Y-73517893D01*
X152697857Y-73553607D01*
D15*
X165404797Y-107004797D02*
X165671464Y-106623845D01*
X165861940Y-107004797D02*
X165861940Y-106204797D01*
X165557178Y-106204797D01*
X165480988Y-106242893D01*
X165442893Y-106280988D01*
X165404797Y-106357178D01*
X165404797Y-106471464D01*
X165442893Y-106547654D01*
X165480988Y-106585750D01*
X165557178Y-106623845D01*
X165861940Y-106623845D01*
X165061940Y-106585750D02*
X164795273Y-106585750D01*
X164680988Y-107004797D02*
X165061940Y-107004797D01*
X165061940Y-106204797D01*
X164680988Y-106204797D01*
X164452416Y-106204797D02*
X164185750Y-107004797D01*
X163919083Y-106204797D01*
X162776226Y-106585750D02*
X162661940Y-106623845D01*
X162623845Y-106661940D01*
X162585750Y-106738131D01*
X162585750Y-106852416D01*
X162623845Y-106928607D01*
X162661940Y-106966702D01*
X162738131Y-107004797D01*
X163042893Y-107004797D01*
X163042893Y-106204797D01*
X162776226Y-106204797D01*
X162700035Y-106242893D01*
X162661940Y-106280988D01*
X162623845Y-106357178D01*
X162623845Y-106433369D01*
X162661940Y-106509559D01*
X162700035Y-106547654D01*
X162776226Y-106585750D01*
X163042893Y-106585750D01*
D16*
X172793809Y-75697142D02*
X172793809Y-74797142D01*
X172412857Y-74797142D01*
X172317619Y-74840000D01*
X172270000Y-74882857D01*
X172222380Y-74968571D01*
X172222380Y-75097142D01*
X172270000Y-75182857D01*
X172317619Y-75225714D01*
X172412857Y-75268571D01*
X172793809Y-75268571D01*
X171603333Y-74797142D02*
X171412857Y-74797142D01*
X171317619Y-74840000D01*
X171222380Y-74925714D01*
X171174761Y-75097142D01*
X171174761Y-75397142D01*
X171222380Y-75568571D01*
X171317619Y-75654285D01*
X171412857Y-75697142D01*
X171603333Y-75697142D01*
X171698571Y-75654285D01*
X171793809Y-75568571D01*
X171841428Y-75397142D01*
X171841428Y-75097142D01*
X171793809Y-74925714D01*
X171698571Y-74840000D01*
X171603333Y-74797142D01*
X170174761Y-75697142D02*
X170508095Y-75268571D01*
X170746190Y-75697142D02*
X170746190Y-74797142D01*
X170365238Y-74797142D01*
X170270000Y-74840000D01*
X170222380Y-74882857D01*
X170174761Y-74968571D01*
X170174761Y-75097142D01*
X170222380Y-75182857D01*
X170270000Y-75225714D01*
X170365238Y-75268571D01*
X170746190Y-75268571D01*
X169889047Y-74797142D02*
X169317619Y-74797142D01*
X169603333Y-75697142D02*
X169603333Y-74797142D01*
X167746190Y-74797142D02*
X168222380Y-74797142D01*
X168270000Y-75225714D01*
X168222380Y-75182857D01*
X168127142Y-75140000D01*
X167889047Y-75140000D01*
X167793809Y-75182857D01*
X167746190Y-75225714D01*
X167698571Y-75311428D01*
X167698571Y-75525714D01*
X167746190Y-75611428D01*
X167793809Y-75654285D01*
X167889047Y-75697142D01*
X168127142Y-75697142D01*
X168222380Y-75654285D01*
X168270000Y-75611428D01*
X172793809Y-82347142D02*
X172793809Y-81447142D01*
X172412857Y-81447142D01*
X172317619Y-81490000D01*
X172270000Y-81532857D01*
X172222380Y-81618571D01*
X172222380Y-81747142D01*
X172270000Y-81832857D01*
X172317619Y-81875714D01*
X172412857Y-81918571D01*
X172793809Y-81918571D01*
X171603333Y-81447142D02*
X171412857Y-81447142D01*
X171317619Y-81490000D01*
X171222380Y-81575714D01*
X171174761Y-81747142D01*
X171174761Y-82047142D01*
X171222380Y-82218571D01*
X171317619Y-82304285D01*
X171412857Y-82347142D01*
X171603333Y-82347142D01*
X171698571Y-82304285D01*
X171793809Y-82218571D01*
X171841428Y-82047142D01*
X171841428Y-81747142D01*
X171793809Y-81575714D01*
X171698571Y-81490000D01*
X171603333Y-81447142D01*
X170174761Y-82347142D02*
X170508095Y-81918571D01*
X170746190Y-82347142D02*
X170746190Y-81447142D01*
X170365238Y-81447142D01*
X170270000Y-81490000D01*
X170222380Y-81532857D01*
X170174761Y-81618571D01*
X170174761Y-81747142D01*
X170222380Y-81832857D01*
X170270000Y-81875714D01*
X170365238Y-81918571D01*
X170746190Y-81918571D01*
X169889047Y-81447142D02*
X169317619Y-81447142D01*
X169603333Y-82347142D02*
X169603333Y-81447142D01*
X167793809Y-81747142D02*
X167793809Y-82347142D01*
X168031904Y-81404285D02*
X168270000Y-82047142D01*
X167650952Y-82047142D01*
X172793809Y-88997142D02*
X172793809Y-88097142D01*
X172412857Y-88097142D01*
X172317619Y-88140000D01*
X172270000Y-88182857D01*
X172222380Y-88268571D01*
X172222380Y-88397142D01*
X172270000Y-88482857D01*
X172317619Y-88525714D01*
X172412857Y-88568571D01*
X172793809Y-88568571D01*
X171603333Y-88097142D02*
X171412857Y-88097142D01*
X171317619Y-88140000D01*
X171222380Y-88225714D01*
X171174761Y-88397142D01*
X171174761Y-88697142D01*
X171222380Y-88868571D01*
X171317619Y-88954285D01*
X171412857Y-88997142D01*
X171603333Y-88997142D01*
X171698571Y-88954285D01*
X171793809Y-88868571D01*
X171841428Y-88697142D01*
X171841428Y-88397142D01*
X171793809Y-88225714D01*
X171698571Y-88140000D01*
X171603333Y-88097142D01*
X170174761Y-88997142D02*
X170508095Y-88568571D01*
X170746190Y-88997142D02*
X170746190Y-88097142D01*
X170365238Y-88097142D01*
X170270000Y-88140000D01*
X170222380Y-88182857D01*
X170174761Y-88268571D01*
X170174761Y-88397142D01*
X170222380Y-88482857D01*
X170270000Y-88525714D01*
X170365238Y-88568571D01*
X170746190Y-88568571D01*
X169889047Y-88097142D02*
X169317619Y-88097142D01*
X169603333Y-88997142D02*
X169603333Y-88097142D01*
X168317619Y-88097142D02*
X167698571Y-88097142D01*
X168031904Y-88440000D01*
X167889047Y-88440000D01*
X167793809Y-88482857D01*
X167746190Y-88525714D01*
X167698571Y-88611428D01*
X167698571Y-88825714D01*
X167746190Y-88911428D01*
X167793809Y-88954285D01*
X167889047Y-88997142D01*
X168174761Y-88997142D01*
X168270000Y-88954285D01*
X168317619Y-88911428D01*
X172793809Y-95647142D02*
X172793809Y-94747142D01*
X172412857Y-94747142D01*
X172317619Y-94790000D01*
X172270000Y-94832857D01*
X172222380Y-94918571D01*
X172222380Y-95047142D01*
X172270000Y-95132857D01*
X172317619Y-95175714D01*
X172412857Y-95218571D01*
X172793809Y-95218571D01*
X171603333Y-94747142D02*
X171412857Y-94747142D01*
X171317619Y-94790000D01*
X171222380Y-94875714D01*
X171174761Y-95047142D01*
X171174761Y-95347142D01*
X171222380Y-95518571D01*
X171317619Y-95604285D01*
X171412857Y-95647142D01*
X171603333Y-95647142D01*
X171698571Y-95604285D01*
X171793809Y-95518571D01*
X171841428Y-95347142D01*
X171841428Y-95047142D01*
X171793809Y-94875714D01*
X171698571Y-94790000D01*
X171603333Y-94747142D01*
X170174761Y-95647142D02*
X170508095Y-95218571D01*
X170746190Y-95647142D02*
X170746190Y-94747142D01*
X170365238Y-94747142D01*
X170270000Y-94790000D01*
X170222380Y-94832857D01*
X170174761Y-94918571D01*
X170174761Y-95047142D01*
X170222380Y-95132857D01*
X170270000Y-95175714D01*
X170365238Y-95218571D01*
X170746190Y-95218571D01*
X169889047Y-94747142D02*
X169317619Y-94747142D01*
X169603333Y-95647142D02*
X169603333Y-94747142D01*
X168270000Y-94832857D02*
X168222380Y-94790000D01*
X168127142Y-94747142D01*
X167889047Y-94747142D01*
X167793809Y-94790000D01*
X167746190Y-94832857D01*
X167698571Y-94918571D01*
X167698571Y-95004285D01*
X167746190Y-95132857D01*
X168317619Y-95647142D01*
X167698571Y-95647142D01*
X172793809Y-102297142D02*
X172793809Y-101397142D01*
X172412857Y-101397142D01*
X172317619Y-101440000D01*
X172270000Y-101482857D01*
X172222380Y-101568571D01*
X172222380Y-101697142D01*
X172270000Y-101782857D01*
X172317619Y-101825714D01*
X172412857Y-101868571D01*
X172793809Y-101868571D01*
X171603333Y-101397142D02*
X171412857Y-101397142D01*
X171317619Y-101440000D01*
X171222380Y-101525714D01*
X171174761Y-101697142D01*
X171174761Y-101997142D01*
X171222380Y-102168571D01*
X171317619Y-102254285D01*
X171412857Y-102297142D01*
X171603333Y-102297142D01*
X171698571Y-102254285D01*
X171793809Y-102168571D01*
X171841428Y-101997142D01*
X171841428Y-101697142D01*
X171793809Y-101525714D01*
X171698571Y-101440000D01*
X171603333Y-101397142D01*
X170174761Y-102297142D02*
X170508095Y-101868571D01*
X170746190Y-102297142D02*
X170746190Y-101397142D01*
X170365238Y-101397142D01*
X170270000Y-101440000D01*
X170222380Y-101482857D01*
X170174761Y-101568571D01*
X170174761Y-101697142D01*
X170222380Y-101782857D01*
X170270000Y-101825714D01*
X170365238Y-101868571D01*
X170746190Y-101868571D01*
X169889047Y-101397142D02*
X169317619Y-101397142D01*
X169603333Y-102297142D02*
X169603333Y-101397142D01*
X167698571Y-102297142D02*
X168270000Y-102297142D01*
X167984285Y-102297142D02*
X167984285Y-101397142D01*
X168079523Y-101525714D01*
X168174761Y-101611428D01*
X168270000Y-101654285D01*
X171870000Y-77091428D02*
X171912857Y-77177143D01*
X171912857Y-77305714D01*
X171870000Y-77434285D01*
X171784285Y-77520000D01*
X171698571Y-77562857D01*
X171527142Y-77605714D01*
X171398571Y-77605714D01*
X171227142Y-77562857D01*
X171141428Y-77520000D01*
X171055714Y-77434285D01*
X171012857Y-77305714D01*
X171012857Y-77220000D01*
X171055714Y-77091428D01*
X171098571Y-77048571D01*
X171398571Y-77048571D01*
X171398571Y-77220000D01*
X171870000Y-83691428D02*
X171912857Y-83777143D01*
X171912857Y-83905714D01*
X171870000Y-84034285D01*
X171784285Y-84120000D01*
X171698571Y-84162857D01*
X171527142Y-84205714D01*
X171398571Y-84205714D01*
X171227142Y-84162857D01*
X171141428Y-84120000D01*
X171055714Y-84034285D01*
X171012857Y-83905714D01*
X171012857Y-83820000D01*
X171055714Y-83691428D01*
X171098571Y-83648571D01*
X171398571Y-83648571D01*
X171398571Y-83820000D01*
X171870000Y-90291428D02*
X171912857Y-90377143D01*
X171912857Y-90505714D01*
X171870000Y-90634285D01*
X171784285Y-90720000D01*
X171698571Y-90762857D01*
X171527142Y-90805714D01*
X171398571Y-90805714D01*
X171227142Y-90762857D01*
X171141428Y-90720000D01*
X171055714Y-90634285D01*
X171012857Y-90505714D01*
X171012857Y-90420000D01*
X171055714Y-90291428D01*
X171098571Y-90248571D01*
X171398571Y-90248571D01*
X171398571Y-90420000D01*
X171870000Y-96891428D02*
X171912857Y-96977143D01*
X171912857Y-97105714D01*
X171870000Y-97234285D01*
X171784285Y-97320000D01*
X171698571Y-97362857D01*
X171527142Y-97405714D01*
X171398571Y-97405714D01*
X171227142Y-97362857D01*
X171141428Y-97320000D01*
X171055714Y-97234285D01*
X171012857Y-97105714D01*
X171012857Y-97020000D01*
X171055714Y-96891428D01*
X171098571Y-96848571D01*
X171398571Y-96848571D01*
X171398571Y-97020000D01*
X169222857Y-77691428D02*
X169222857Y-77177143D01*
X168322857Y-77434285D02*
X169222857Y-77434285D01*
X168665714Y-76877143D02*
X168665714Y-76191428D01*
X166977857Y-77048571D02*
X167406428Y-77348571D01*
X166977857Y-77562857D02*
X167877857Y-77562857D01*
X167877857Y-77220000D01*
X167835000Y-77134285D01*
X167792142Y-77091428D01*
X167706428Y-77048571D01*
X167577857Y-77048571D01*
X167492142Y-77091428D01*
X167449285Y-77134285D01*
X167406428Y-77220000D01*
X167406428Y-77562857D01*
X167320714Y-76662857D02*
X167320714Y-75977142D01*
X166977857Y-76320000D02*
X167663571Y-76320000D01*
X170567857Y-77691428D02*
X170567857Y-77177143D01*
X169667857Y-77434285D02*
X170567857Y-77434285D01*
X170010714Y-76877143D02*
X170010714Y-76191428D01*
X169667857Y-76534285D02*
X170353571Y-76534285D01*
X165632857Y-77048571D02*
X166061428Y-77348571D01*
X165632857Y-77562857D02*
X166532857Y-77562857D01*
X166532857Y-77220000D01*
X166490000Y-77134285D01*
X166447142Y-77091428D01*
X166361428Y-77048571D01*
X166232857Y-77048571D01*
X166147142Y-77091428D01*
X166104285Y-77134285D01*
X166061428Y-77220000D01*
X166061428Y-77562857D01*
X165975714Y-76662857D02*
X165975714Y-75977142D01*
X166977857Y-83648571D02*
X167406428Y-83948571D01*
X166977857Y-84162857D02*
X167877857Y-84162857D01*
X167877857Y-83820000D01*
X167835000Y-83734285D01*
X167792142Y-83691428D01*
X167706428Y-83648571D01*
X167577857Y-83648571D01*
X167492142Y-83691428D01*
X167449285Y-83734285D01*
X167406428Y-83820000D01*
X167406428Y-84162857D01*
X167320714Y-83262857D02*
X167320714Y-82577142D01*
X166977857Y-82920000D02*
X167663571Y-82920000D01*
X165632857Y-83648571D02*
X166061428Y-83948571D01*
X165632857Y-84162857D02*
X166532857Y-84162857D01*
X166532857Y-83820000D01*
X166490000Y-83734285D01*
X166447142Y-83691428D01*
X166361428Y-83648571D01*
X166232857Y-83648571D01*
X166147142Y-83691428D01*
X166104285Y-83734285D01*
X166061428Y-83820000D01*
X166061428Y-84162857D01*
X165975714Y-83262857D02*
X165975714Y-82577142D01*
X170567857Y-84291428D02*
X170567857Y-83777143D01*
X169667857Y-84034285D02*
X170567857Y-84034285D01*
X170010714Y-83477143D02*
X170010714Y-82791428D01*
X169667857Y-83134285D02*
X170353571Y-83134285D01*
X169222857Y-84291428D02*
X169222857Y-83777143D01*
X168322857Y-84034285D02*
X169222857Y-84034285D01*
X168665714Y-83477143D02*
X168665714Y-82791428D01*
X165632857Y-90248571D02*
X166061428Y-90548571D01*
X165632857Y-90762857D02*
X166532857Y-90762857D01*
X166532857Y-90420000D01*
X166490000Y-90334285D01*
X166447142Y-90291428D01*
X166361428Y-90248571D01*
X166232857Y-90248571D01*
X166147142Y-90291428D01*
X166104285Y-90334285D01*
X166061428Y-90420000D01*
X166061428Y-90762857D01*
X165975714Y-89862857D02*
X165975714Y-89177142D01*
X170567857Y-90891428D02*
X170567857Y-90377143D01*
X169667857Y-90634285D02*
X170567857Y-90634285D01*
X170010714Y-90077143D02*
X170010714Y-89391428D01*
X169667857Y-89734285D02*
X170353571Y-89734285D01*
X169222857Y-90891428D02*
X169222857Y-90377143D01*
X168322857Y-90634285D02*
X169222857Y-90634285D01*
X168665714Y-90077143D02*
X168665714Y-89391428D01*
X166977857Y-90248571D02*
X167406428Y-90548571D01*
X166977857Y-90762857D02*
X167877857Y-90762857D01*
X167877857Y-90420000D01*
X167835000Y-90334285D01*
X167792142Y-90291428D01*
X167706428Y-90248571D01*
X167577857Y-90248571D01*
X167492142Y-90291428D01*
X167449285Y-90334285D01*
X167406428Y-90420000D01*
X167406428Y-90762857D01*
X167320714Y-89862857D02*
X167320714Y-89177142D01*
X166977857Y-89520000D02*
X167663571Y-89520000D01*
X170567857Y-97491428D02*
X170567857Y-96977143D01*
X169667857Y-97234285D02*
X170567857Y-97234285D01*
X170010714Y-96677143D02*
X170010714Y-95991428D01*
X169667857Y-96334285D02*
X170353571Y-96334285D01*
X169222857Y-97491428D02*
X169222857Y-96977143D01*
X168322857Y-97234285D02*
X169222857Y-97234285D01*
X168665714Y-96677143D02*
X168665714Y-95991428D01*
X166977857Y-96848571D02*
X167406428Y-97148571D01*
X166977857Y-97362857D02*
X167877857Y-97362857D01*
X167877857Y-97020000D01*
X167835000Y-96934285D01*
X167792142Y-96891428D01*
X167706428Y-96848571D01*
X167577857Y-96848571D01*
X167492142Y-96891428D01*
X167449285Y-96934285D01*
X167406428Y-97020000D01*
X167406428Y-97362857D01*
X167320714Y-96462857D02*
X167320714Y-95777142D01*
X166977857Y-96120000D02*
X167663571Y-96120000D01*
X165632857Y-96848571D02*
X166061428Y-97148571D01*
X165632857Y-97362857D02*
X166532857Y-97362857D01*
X166532857Y-97020000D01*
X166490000Y-96934285D01*
X166447142Y-96891428D01*
X166361428Y-96848571D01*
X166232857Y-96848571D01*
X166147142Y-96891428D01*
X166104285Y-96934285D01*
X166061428Y-97020000D01*
X166061428Y-97362857D01*
X165975714Y-96462857D02*
X165975714Y-95777142D01*
X171870000Y-103534285D02*
X171912857Y-103620000D01*
X171912857Y-103748571D01*
X171870000Y-103877142D01*
X171784285Y-103962857D01*
X171698571Y-104005714D01*
X171527142Y-104048571D01*
X171398571Y-104048571D01*
X171227142Y-104005714D01*
X171141428Y-103962857D01*
X171055714Y-103877142D01*
X171012857Y-103748571D01*
X171012857Y-103662857D01*
X171055714Y-103534285D01*
X171098571Y-103491428D01*
X171398571Y-103491428D01*
X171398571Y-103662857D01*
X170567857Y-104134285D02*
X170567857Y-103620000D01*
X169667857Y-103877142D02*
X170567857Y-103877142D01*
X170010714Y-103320000D02*
X170010714Y-102634285D01*
X169667857Y-102977142D02*
X170353571Y-102977142D01*
X169222857Y-104134285D02*
X169222857Y-103620000D01*
X168322857Y-103877142D02*
X169222857Y-103877142D01*
X168665714Y-103320000D02*
X168665714Y-102634285D01*
X166977857Y-103491428D02*
X167406428Y-103791428D01*
X166977857Y-104005714D02*
X167877857Y-104005714D01*
X167877857Y-103662857D01*
X167835000Y-103577142D01*
X167792142Y-103534285D01*
X167706428Y-103491428D01*
X167577857Y-103491428D01*
X167492142Y-103534285D01*
X167449285Y-103577142D01*
X167406428Y-103662857D01*
X167406428Y-104005714D01*
X167320714Y-103105714D02*
X167320714Y-102419999D01*
X166977857Y-102762857D02*
X167663571Y-102762857D01*
X165632857Y-103491428D02*
X166061428Y-103791428D01*
X165632857Y-104005714D02*
X166532857Y-104005714D01*
X166532857Y-103662857D01*
X166490000Y-103577142D01*
X166447142Y-103534285D01*
X166361428Y-103491428D01*
X166232857Y-103491428D01*
X166147142Y-103534285D01*
X166104285Y-103577142D01*
X166061428Y-103662857D01*
X166061428Y-104005714D01*
X165975714Y-103105714D02*
X165975714Y-102419999D01*
D10*
X135310750Y-103403607D02*
X135275035Y-103367893D01*
X135203607Y-103332178D01*
X135025035Y-103332178D01*
X134953607Y-103367893D01*
X134917893Y-103403607D01*
X134882178Y-103475035D01*
X134882178Y-103546464D01*
X134917893Y-103653607D01*
X135346464Y-104082178D01*
X134882178Y-104082178D01*
X134596464Y-103867893D02*
X134239321Y-103867893D01*
X134667893Y-104082178D02*
X134417893Y-103332178D01*
X134167893Y-104082178D01*
X133203607Y-103332178D02*
X133060750Y-103332178D01*
X132989321Y-103367893D01*
X132917893Y-103439321D01*
X132882178Y-103582178D01*
X132882178Y-103832178D01*
X132917893Y-103975035D01*
X132989321Y-104046464D01*
X133060750Y-104082178D01*
X133203607Y-104082178D01*
X133275035Y-104046464D01*
X133346464Y-103975035D01*
X133382178Y-103832178D01*
X133382178Y-103582178D01*
X133346464Y-103439321D01*
X133275035Y-103367893D01*
X133203607Y-103332178D01*
X132239321Y-103582178D02*
X132239321Y-104082178D01*
X132560750Y-103582178D02*
X132560750Y-103975035D01*
X132525035Y-104046464D01*
X132453607Y-104082178D01*
X132346464Y-104082178D01*
X132275035Y-104046464D01*
X132239321Y-104010750D01*
X131989321Y-103582178D02*
X131703607Y-103582178D01*
X131882178Y-103332178D02*
X131882178Y-103975035D01*
X131846464Y-104046464D01*
X131775035Y-104082178D01*
X131703607Y-104082178D01*
D12*
X134442893Y-106880988D02*
X134395273Y-106785750D01*
X134395273Y-106642893D01*
X134442893Y-106500035D01*
X134538131Y-106404797D01*
X134633369Y-106357178D01*
X134823845Y-106309559D01*
X134966702Y-106309559D01*
X135157178Y-106357178D01*
X135252416Y-106404797D01*
X135347654Y-106500035D01*
X135395273Y-106642893D01*
X135395273Y-106738131D01*
X135347654Y-106880988D01*
X135300035Y-106928607D01*
X134966702Y-106928607D01*
X134966702Y-106738131D01*
X135395273Y-107357178D02*
X134395273Y-107357178D01*
X135395273Y-107928607D01*
X134395273Y-107928607D01*
X135395273Y-108404797D02*
X134395273Y-108404797D01*
X134395273Y-108642893D01*
X134442893Y-108785750D01*
X134538131Y-108880988D01*
X134633369Y-108928607D01*
X134823845Y-108976226D01*
X134966702Y-108976226D01*
X135157178Y-108928607D01*
X135252416Y-108880988D01*
X135347654Y-108785750D01*
X135395273Y-108642893D01*
X135395273Y-108404797D01*
X130145273Y-106900035D02*
X130145273Y-106423845D01*
X130621464Y-106376226D01*
X130573845Y-106423845D01*
X130526226Y-106519083D01*
X130526226Y-106757178D01*
X130573845Y-106852416D01*
X130621464Y-106900035D01*
X130716702Y-106947654D01*
X130954797Y-106947654D01*
X131050035Y-106900035D01*
X131097654Y-106852416D01*
X131145273Y-106757178D01*
X131145273Y-106519083D01*
X131097654Y-106423845D01*
X131050035Y-106376226D01*
X130145273Y-107233369D02*
X131145273Y-107566702D01*
X130145273Y-107900035D01*
X131145273Y-108376226D02*
X131097654Y-108280988D01*
X131050035Y-108233369D01*
X130954797Y-108185750D01*
X130669083Y-108185750D01*
X130573845Y-108233369D01*
X130526226Y-108280988D01*
X130478607Y-108376226D01*
X130478607Y-108519083D01*
X130526226Y-108614321D01*
X130573845Y-108661940D01*
X130669083Y-108709559D01*
X130954797Y-108709559D01*
X131050035Y-108661940D01*
X131097654Y-108614321D01*
X131145273Y-108519083D01*
X131145273Y-108376226D01*
D13*
X129432178Y-77492893D02*
X129432178Y-77992893D01*
X130182178Y-77671464D01*
X129896464Y-78278607D02*
X129896464Y-78850035D01*
X129682178Y-79528607D02*
X130182178Y-79528607D01*
X129396464Y-79350035D02*
X129932178Y-79171464D01*
X129932178Y-79635750D01*
X129432178Y-80064321D02*
X129432178Y-80135750D01*
X129467893Y-80207178D01*
X129503607Y-80242893D01*
X129575035Y-80278607D01*
X129717893Y-80314321D01*
X129896464Y-80314321D01*
X130039321Y-80278607D01*
X130110750Y-80242893D01*
X130146464Y-80207178D01*
X130182178Y-80135750D01*
X130182178Y-80064321D01*
X130146464Y-79992893D01*
X130110750Y-79957178D01*
X130039321Y-79921464D01*
X129896464Y-79885750D01*
X129717893Y-79885750D01*
X129575035Y-79921464D01*
X129503607Y-79957178D01*
X129467893Y-79992893D01*
X129432178Y-80064321D01*
X129432178Y-80528607D02*
X130182178Y-80778607D01*
X129432178Y-81028607D01*
D12*
X134342893Y-75480988D02*
X134295273Y-75385750D01*
X134295273Y-75242893D01*
X134342893Y-75100035D01*
X134438131Y-75004797D01*
X134533369Y-74957178D01*
X134723845Y-74909559D01*
X134866702Y-74909559D01*
X135057178Y-74957178D01*
X135152416Y-75004797D01*
X135247654Y-75100035D01*
X135295273Y-75242893D01*
X135295273Y-75338131D01*
X135247654Y-75480988D01*
X135200035Y-75528607D01*
X134866702Y-75528607D01*
X134866702Y-75338131D01*
X135295273Y-75957178D02*
X134295273Y-75957178D01*
X135295273Y-76528607D01*
X134295273Y-76528607D01*
X135295273Y-77004797D02*
X134295273Y-77004797D01*
X134295273Y-77242893D01*
X134342893Y-77385750D01*
X134438131Y-77480988D01*
X134533369Y-77528607D01*
X134723845Y-77576226D01*
X134866702Y-77576226D01*
X135057178Y-77528607D01*
X135152416Y-77480988D01*
X135247654Y-77385750D01*
X135295273Y-77242893D01*
X135295273Y-77004797D01*
X130095273Y-75619083D02*
X131095273Y-75952416D01*
X130095273Y-76285750D01*
X131095273Y-76619083D02*
X130428607Y-76619083D01*
X130095273Y-76619083D02*
X130142893Y-76571464D01*
X130190512Y-76619083D01*
X130142893Y-76666702D01*
X130095273Y-76619083D01*
X130190512Y-76619083D01*
X130428607Y-77095273D02*
X131095273Y-77095273D01*
X130523845Y-77095273D02*
X130476226Y-77142893D01*
X130428607Y-77238131D01*
X130428607Y-77380988D01*
X130476226Y-77476226D01*
X130571464Y-77523845D01*
X131095273Y-77523845D01*
D10*
X141000000Y-104340000D02*
G75*
G03X141000000Y-104340000I-500000J0D01*
G01*
X153250000Y-85590000D02*
X153250000Y-105590000D01*
X139250000Y-85590000D02*
X153250000Y-85590000D01*
X139250000Y-105590000D02*
X139250000Y-85590000D01*
X153250000Y-105590000D02*
X139250000Y-105590000D01*
D17*
X151592893Y-81912893D02*
X152092893Y-81912893D01*
X152092893Y-82972893D02*
X151592893Y-82972893D01*
X154012893Y-77992893D02*
X154012893Y-77492893D01*
X155072893Y-77492893D02*
X155072893Y-77992893D01*
X152792893Y-78872893D02*
X152292893Y-78872893D01*
X152292893Y-77812893D02*
X152792893Y-77812893D01*
D10*
X132750000Y-95420000D02*
X131150000Y-95420000D01*
X132750000Y-98320000D02*
X132750000Y-95420000D01*
X131150000Y-98320000D02*
X132750000Y-98320000D01*
X131150000Y-95420000D02*
X131150000Y-98320000D01*
X133940000Y-88460000D02*
X132340000Y-88460000D01*
X133940000Y-91360000D02*
X133940000Y-88460000D01*
X132340000Y-91360000D02*
X133940000Y-91360000D01*
X132340000Y-88460000D02*
X132340000Y-91360000D01*
D17*
X134172893Y-82702893D02*
X133242893Y-82702893D01*
X131012893Y-82702893D02*
X131942893Y-82702893D01*
X131012893Y-82702893D02*
X131012893Y-80542893D01*
X134172893Y-82702893D02*
X134172893Y-81242893D01*
X135260000Y-91040000D02*
X135260000Y-92040000D01*
X136620000Y-92040000D02*
X136620000Y-91040000D01*
X134070000Y-98000000D02*
X134070000Y-99000000D01*
X135430000Y-99000000D02*
X135430000Y-98000000D01*
D18*
X139292893Y-111592893D02*
X139142893Y-111592893D01*
X139442893Y-111592893D02*
X139292893Y-111592893D01*
X139292893Y-109592893D02*
X139142893Y-109592893D01*
X139442893Y-109592893D02*
X139292893Y-109592893D01*
X140542893Y-110542893D02*
X140542893Y-110642893D01*
X138042893Y-110542893D02*
X138042893Y-110642893D01*
X140592893Y-111892893D02*
G75*
G03X140592893Y-111892893I-50000J0D01*
G01*
D19*
G36*
X166026140Y-71963305D02*
G01*
X166014050Y-71978193D01*
X165984730Y-72014681D01*
X165940751Y-72069556D01*
X165884690Y-72139604D01*
X165819118Y-72221609D01*
X165746611Y-72312358D01*
X165728593Y-72334917D01*
X165642950Y-72442736D01*
X165576048Y-72528403D01*
X165526304Y-72594161D01*
X165492136Y-72642250D01*
X165471958Y-72674912D01*
X165464189Y-72694387D01*
X165467246Y-72702917D01*
X165468322Y-72703329D01*
X165498475Y-72711383D01*
X165549403Y-72724010D01*
X165614258Y-72739614D01*
X165686194Y-72756597D01*
X165758364Y-72773365D01*
X165823922Y-72788319D01*
X165876020Y-72799864D01*
X165907813Y-72806402D01*
X165914133Y-72807289D01*
X165926225Y-72795123D01*
X165955464Y-72761134D01*
X165999311Y-72708407D01*
X166055229Y-72640031D01*
X166120680Y-72559093D01*
X166193126Y-72468681D01*
X166215339Y-72440807D01*
X166288657Y-72348081D01*
X166354643Y-72263453D01*
X166410926Y-72190061D01*
X166455133Y-72131042D01*
X166484892Y-72089533D01*
X166497830Y-72068672D01*
X166498073Y-72066905D01*
X166478566Y-72058821D01*
X166435396Y-72046468D01*
X166375192Y-72031300D01*
X166304583Y-72014775D01*
X166230199Y-71998346D01*
X166158671Y-71983470D01*
X166096628Y-71971601D01*
X166050700Y-71964196D01*
X166027517Y-71962709D01*
X166026140Y-71963305D01*
X166026140Y-71963305D01*
G37*
X166026140Y-71963305D02*
X166014050Y-71978193D01*
X165984730Y-72014681D01*
X165940751Y-72069556D01*
X165884690Y-72139604D01*
X165819118Y-72221609D01*
X165746611Y-72312358D01*
X165728593Y-72334917D01*
X165642950Y-72442736D01*
X165576048Y-72528403D01*
X165526304Y-72594161D01*
X165492136Y-72642250D01*
X165471958Y-72674912D01*
X165464189Y-72694387D01*
X165467246Y-72702917D01*
X165468322Y-72703329D01*
X165498475Y-72711383D01*
X165549403Y-72724010D01*
X165614258Y-72739614D01*
X165686194Y-72756597D01*
X165758364Y-72773365D01*
X165823922Y-72788319D01*
X165876020Y-72799864D01*
X165907813Y-72806402D01*
X165914133Y-72807289D01*
X165926225Y-72795123D01*
X165955464Y-72761134D01*
X165999311Y-72708407D01*
X166055229Y-72640031D01*
X166120680Y-72559093D01*
X166193126Y-72468681D01*
X166215339Y-72440807D01*
X166288657Y-72348081D01*
X166354643Y-72263453D01*
X166410926Y-72190061D01*
X166455133Y-72131042D01*
X166484892Y-72089533D01*
X166497830Y-72068672D01*
X166498073Y-72066905D01*
X166478566Y-72058821D01*
X166435396Y-72046468D01*
X166375192Y-72031300D01*
X166304583Y-72014775D01*
X166230199Y-71998346D01*
X166158671Y-71983470D01*
X166096628Y-71971601D01*
X166050700Y-71964196D01*
X166027517Y-71962709D01*
X166026140Y-71963305D01*
G36*
X166927232Y-72064319D02*
G01*
X166924220Y-72064899D01*
X166927300Y-72081086D01*
X166940072Y-72120173D01*
X166960046Y-72175741D01*
X166984729Y-72241372D01*
X167011631Y-72310647D01*
X167038260Y-72377147D01*
X167062124Y-72434452D01*
X167080733Y-72476145D01*
X167091379Y-72495569D01*
X167108456Y-72498865D01*
X167152525Y-72503882D01*
X167218898Y-72510259D01*
X167302887Y-72517636D01*
X167399803Y-72525652D01*
X167504956Y-72533947D01*
X167613659Y-72542160D01*
X167721223Y-72549931D01*
X167822958Y-72556900D01*
X167914176Y-72562705D01*
X167990188Y-72566987D01*
X168046306Y-72569385D01*
X168054253Y-72569596D01*
X168055377Y-72555887D01*
X168045316Y-72517272D01*
X168025434Y-72458010D01*
X167997098Y-72382357D01*
X167981830Y-72343799D01*
X167890861Y-72117580D01*
X167411243Y-72087537D01*
X167291194Y-72080268D01*
X167181652Y-72074115D01*
X167086551Y-72069260D01*
X167009825Y-72065888D01*
X166955408Y-72064180D01*
X166927232Y-72064319D01*
X166927232Y-72064319D01*
G37*
X166927232Y-72064319D02*
X166924220Y-72064899D01*
X166927300Y-72081086D01*
X166940072Y-72120173D01*
X166960046Y-72175741D01*
X166984729Y-72241372D01*
X167011631Y-72310647D01*
X167038260Y-72377147D01*
X167062124Y-72434452D01*
X167080733Y-72476145D01*
X167091379Y-72495569D01*
X167108456Y-72498865D01*
X167152525Y-72503882D01*
X167218898Y-72510259D01*
X167302887Y-72517636D01*
X167399803Y-72525652D01*
X167504956Y-72533947D01*
X167613659Y-72542160D01*
X167721223Y-72549931D01*
X167822958Y-72556900D01*
X167914176Y-72562705D01*
X167990188Y-72566987D01*
X168046306Y-72569385D01*
X168054253Y-72569596D01*
X168055377Y-72555887D01*
X168045316Y-72517272D01*
X168025434Y-72458010D01*
X167997098Y-72382357D01*
X167981830Y-72343799D01*
X167890861Y-72117580D01*
X167411243Y-72087537D01*
X167291194Y-72080268D01*
X167181652Y-72074115D01*
X167086551Y-72069260D01*
X167009825Y-72065888D01*
X166955408Y-72064180D01*
X166927232Y-72064319D01*
G36*
X156939081Y-71284143D02*
G01*
X156888816Y-71347162D01*
X156845050Y-71400066D01*
X156811647Y-71438332D01*
X156792469Y-71457438D01*
X156789928Y-71458768D01*
X156776191Y-71446997D01*
X156746810Y-71414679D01*
X156705665Y-71366298D01*
X156656638Y-71306343D01*
X156638881Y-71284143D01*
X156499986Y-71109518D01*
X156151187Y-71109518D01*
X156282407Y-71280174D01*
X156342843Y-71358709D01*
X156407684Y-71442861D01*
X156468743Y-71522010D01*
X156513726Y-71580228D01*
X156613826Y-71709627D01*
X156321618Y-72091172D01*
X156248080Y-72187297D01*
X156180640Y-72275650D01*
X156121767Y-72352982D01*
X156073926Y-72416046D01*
X156039584Y-72461596D01*
X156021207Y-72486385D01*
X156018965Y-72489617D01*
X156026985Y-72497910D01*
X156063828Y-72503373D01*
X156130601Y-72506122D01*
X156181128Y-72506518D01*
X156353736Y-72506518D01*
X156567034Y-72230258D01*
X156629532Y-72150247D01*
X156685822Y-72079961D01*
X156732985Y-72022900D01*
X156768099Y-71982569D01*
X156788244Y-71962468D01*
X156791633Y-71960946D01*
X156805069Y-71975458D01*
X156833850Y-72010263D01*
X156874006Y-72060450D01*
X156921568Y-72121113D01*
X156931580Y-72134018D01*
X157060225Y-72300143D01*
X157235753Y-72300143D01*
X157314010Y-72299412D01*
X157364510Y-72296894D01*
X157391220Y-72292097D01*
X157398106Y-72284529D01*
X157395958Y-72280299D01*
X157382144Y-72262239D01*
X157352137Y-72222899D01*
X157308973Y-72166263D01*
X157255687Y-72096317D01*
X157195316Y-72017044D01*
X157171508Y-71985774D01*
X156962382Y-71711093D01*
X157172981Y-71438943D01*
X157236203Y-71357161D01*
X157293788Y-71282516D01*
X157342559Y-71219139D01*
X157379338Y-71171161D01*
X157400949Y-71142712D01*
X157404325Y-71138155D01*
X157411534Y-71125661D01*
X157408332Y-71117449D01*
X157389924Y-71112623D01*
X157351512Y-71110292D01*
X157288302Y-71109562D01*
X157250576Y-71109518D01*
X157076082Y-71109518D01*
X156939081Y-71284143D01*
X156939081Y-71284143D01*
G37*
X156939081Y-71284143D02*
X156888816Y-71347162D01*
X156845050Y-71400066D01*
X156811647Y-71438332D01*
X156792469Y-71457438D01*
X156789928Y-71458768D01*
X156776191Y-71446997D01*
X156746810Y-71414679D01*
X156705665Y-71366298D01*
X156656638Y-71306343D01*
X156638881Y-71284143D01*
X156499986Y-71109518D01*
X156151187Y-71109518D01*
X156282407Y-71280174D01*
X156342843Y-71358709D01*
X156407684Y-71442861D01*
X156468743Y-71522010D01*
X156513726Y-71580228D01*
X156613826Y-71709627D01*
X156321618Y-72091172D01*
X156248080Y-72187297D01*
X156180640Y-72275650D01*
X156121767Y-72352982D01*
X156073926Y-72416046D01*
X156039584Y-72461596D01*
X156021207Y-72486385D01*
X156018965Y-72489617D01*
X156026985Y-72497910D01*
X156063828Y-72503373D01*
X156130601Y-72506122D01*
X156181128Y-72506518D01*
X156353736Y-72506518D01*
X156567034Y-72230258D01*
X156629532Y-72150247D01*
X156685822Y-72079961D01*
X156732985Y-72022900D01*
X156768099Y-71982569D01*
X156788244Y-71962468D01*
X156791633Y-71960946D01*
X156805069Y-71975458D01*
X156833850Y-72010263D01*
X156874006Y-72060450D01*
X156921568Y-72121113D01*
X156931580Y-72134018D01*
X157060225Y-72300143D01*
X157235753Y-72300143D01*
X157314010Y-72299412D01*
X157364510Y-72296894D01*
X157391220Y-72292097D01*
X157398106Y-72284529D01*
X157395958Y-72280299D01*
X157382144Y-72262239D01*
X157352137Y-72222899D01*
X157308973Y-72166263D01*
X157255687Y-72096317D01*
X157195316Y-72017044D01*
X157171508Y-71985774D01*
X156962382Y-71711093D01*
X157172981Y-71438943D01*
X157236203Y-71357161D01*
X157293788Y-71282516D01*
X157342559Y-71219139D01*
X157379338Y-71171161D01*
X157400949Y-71142712D01*
X157404325Y-71138155D01*
X157411534Y-71125661D01*
X157408332Y-71117449D01*
X157389924Y-71112623D01*
X157351512Y-71110292D01*
X157288302Y-71109562D01*
X157250576Y-71109518D01*
X157076082Y-71109518D01*
X156939081Y-71284143D01*
G36*
X162183456Y-71086351D02*
G01*
X162125007Y-71089194D01*
X162081297Y-71095591D01*
X162043826Y-71106899D01*
X162004094Y-71124475D01*
X161995268Y-71128793D01*
X161871358Y-71206195D01*
X161771767Y-71302932D01*
X161697904Y-71416553D01*
X161651176Y-71544606D01*
X161632992Y-71684640D01*
X161634881Y-71756266D01*
X161660031Y-71894497D01*
X161711789Y-72018283D01*
X161787318Y-72125060D01*
X161883786Y-72212265D01*
X161998356Y-72277338D01*
X162128194Y-72317714D01*
X162270465Y-72330831D01*
X162270527Y-72330831D01*
X162338547Y-72327359D01*
X162403665Y-72319350D01*
X162447706Y-72309633D01*
X162581146Y-72252017D01*
X162693258Y-72171373D01*
X162782549Y-72069398D01*
X162847532Y-71947792D01*
X162886482Y-71809587D01*
X162895272Y-71672199D01*
X162893599Y-71661440D01*
X162608977Y-71661440D01*
X162605903Y-71761821D01*
X162575279Y-71856848D01*
X162520874Y-71940223D01*
X162446456Y-72005643D01*
X162384031Y-72037550D01*
X162296985Y-72055508D01*
X162202011Y-72049928D01*
X162111076Y-72022019D01*
X162082254Y-72007103D01*
X162007876Y-71946420D01*
X161955254Y-71868132D01*
X161925092Y-71778400D01*
X161918094Y-71683386D01*
X161934964Y-71589250D01*
X161976406Y-71502155D01*
X162018663Y-71450412D01*
X162098879Y-71389992D01*
X162186912Y-71356912D01*
X162277860Y-71349419D01*
X162366822Y-71365761D01*
X162448899Y-71404187D01*
X162519188Y-71462945D01*
X162572788Y-71540281D01*
X162604798Y-71634446D01*
X162608977Y-71661440D01*
X162893599Y-71661440D01*
X162874520Y-71538785D01*
X162826430Y-71413655D01*
X162753209Y-71301124D01*
X162657061Y-71205502D01*
X162540192Y-71131102D01*
X162539231Y-71130630D01*
X162496554Y-71110910D01*
X162458869Y-71097971D01*
X162417567Y-71090403D01*
X162364043Y-71086795D01*
X162289689Y-71085737D01*
X162265143Y-71085705D01*
X162183456Y-71086351D01*
X162183456Y-71086351D01*
G37*
X162183456Y-71086351D02*
X162125007Y-71089194D01*
X162081297Y-71095591D01*
X162043826Y-71106899D01*
X162004094Y-71124475D01*
X161995268Y-71128793D01*
X161871358Y-71206195D01*
X161771767Y-71302932D01*
X161697904Y-71416553D01*
X161651176Y-71544606D01*
X161632992Y-71684640D01*
X161634881Y-71756266D01*
X161660031Y-71894497D01*
X161711789Y-72018283D01*
X161787318Y-72125060D01*
X161883786Y-72212265D01*
X161998356Y-72277338D01*
X162128194Y-72317714D01*
X162270465Y-72330831D01*
X162270527Y-72330831D01*
X162338547Y-72327359D01*
X162403665Y-72319350D01*
X162447706Y-72309633D01*
X162581146Y-72252017D01*
X162693258Y-72171373D01*
X162782549Y-72069398D01*
X162847532Y-71947792D01*
X162886482Y-71809587D01*
X162895272Y-71672199D01*
X162893599Y-71661440D01*
X162608977Y-71661440D01*
X162605903Y-71761821D01*
X162575279Y-71856848D01*
X162520874Y-71940223D01*
X162446456Y-72005643D01*
X162384031Y-72037550D01*
X162296985Y-72055508D01*
X162202011Y-72049928D01*
X162111076Y-72022019D01*
X162082254Y-72007103D01*
X162007876Y-71946420D01*
X161955254Y-71868132D01*
X161925092Y-71778400D01*
X161918094Y-71683386D01*
X161934964Y-71589250D01*
X161976406Y-71502155D01*
X162018663Y-71450412D01*
X162098879Y-71389992D01*
X162186912Y-71356912D01*
X162277860Y-71349419D01*
X162366822Y-71365761D01*
X162448899Y-71404187D01*
X162519188Y-71462945D01*
X162572788Y-71540281D01*
X162604798Y-71634446D01*
X162608977Y-71661440D01*
X162893599Y-71661440D01*
X162874520Y-71538785D01*
X162826430Y-71413655D01*
X162753209Y-71301124D01*
X162657061Y-71205502D01*
X162540192Y-71131102D01*
X162539231Y-71130630D01*
X162496554Y-71110910D01*
X162458869Y-71097971D01*
X162417567Y-71090403D01*
X162364043Y-71086795D01*
X162289689Y-71085737D01*
X162265143Y-71085705D01*
X162183456Y-71086351D01*
G36*
X157930748Y-71086185D02*
G01*
X157873716Y-71088655D01*
X157831330Y-71094657D01*
X157795041Y-71105733D01*
X157756299Y-71123428D01*
X157731675Y-71136107D01*
X157640302Y-71196096D01*
X157554084Y-71274858D01*
X157481000Y-71363771D01*
X157429034Y-71454214D01*
X157422487Y-71470125D01*
X157402484Y-71533201D01*
X157391408Y-71599914D01*
X157387387Y-71682741D01*
X157387264Y-71704830D01*
X157389957Y-71792991D01*
X157399285Y-71862237D01*
X157417121Y-71925043D01*
X157422487Y-71939535D01*
X157473960Y-72036815D01*
X157549257Y-72130277D01*
X157640738Y-72211849D01*
X157736634Y-72271449D01*
X157793019Y-72297258D01*
X157841608Y-72313132D01*
X157894572Y-72321763D01*
X157964084Y-72325847D01*
X157985216Y-72326467D01*
X158059294Y-72326401D01*
X158129868Y-72322919D01*
X158184791Y-72316721D01*
X158197120Y-72314268D01*
X158266917Y-72287837D01*
X158345739Y-72242462D01*
X158423966Y-72184892D01*
X158491974Y-72121881D01*
X158522696Y-72085830D01*
X158584845Y-71979483D01*
X158625487Y-71857391D01*
X158643728Y-71727598D01*
X158642383Y-71693136D01*
X158360323Y-71693136D01*
X158349740Y-71797387D01*
X158312741Y-71889491D01*
X158251076Y-71965997D01*
X158166495Y-72023451D01*
X158105996Y-72047185D01*
X158040676Y-72059322D01*
X157970995Y-72054492D01*
X157904403Y-72038185D01*
X157816584Y-71996606D01*
X157746483Y-71932198D01*
X157696888Y-71850155D01*
X157670589Y-71755669D01*
X157670375Y-71653933D01*
X157677444Y-71615582D01*
X157714182Y-71525636D01*
X157775329Y-71449129D01*
X157854725Y-71390925D01*
X157946210Y-71355886D01*
X158016739Y-71347731D01*
X158102907Y-71361086D01*
X158186555Y-71397851D01*
X158260053Y-71452584D01*
X158315768Y-71519842D01*
X158342740Y-71580191D01*
X158360323Y-71693136D01*
X158642383Y-71693136D01*
X158638675Y-71598149D01*
X158609434Y-71477090D01*
X158594358Y-71440423D01*
X158526231Y-71327927D01*
X158434572Y-71229274D01*
X158326849Y-71152133D01*
X158299661Y-71137784D01*
X158251986Y-71115176D01*
X158212718Y-71100275D01*
X158172983Y-71091480D01*
X158123909Y-71087191D01*
X158056622Y-71085808D01*
X158010977Y-71085705D01*
X157930748Y-71086185D01*
X157930748Y-71086185D01*
G37*
X157930748Y-71086185D02*
X157873716Y-71088655D01*
X157831330Y-71094657D01*
X157795041Y-71105733D01*
X157756299Y-71123428D01*
X157731675Y-71136107D01*
X157640302Y-71196096D01*
X157554084Y-71274858D01*
X157481000Y-71363771D01*
X157429034Y-71454214D01*
X157422487Y-71470125D01*
X157402484Y-71533201D01*
X157391408Y-71599914D01*
X157387387Y-71682741D01*
X157387264Y-71704830D01*
X157389957Y-71792991D01*
X157399285Y-71862237D01*
X157417121Y-71925043D01*
X157422487Y-71939535D01*
X157473960Y-72036815D01*
X157549257Y-72130277D01*
X157640738Y-72211849D01*
X157736634Y-72271449D01*
X157793019Y-72297258D01*
X157841608Y-72313132D01*
X157894572Y-72321763D01*
X157964084Y-72325847D01*
X157985216Y-72326467D01*
X158059294Y-72326401D01*
X158129868Y-72322919D01*
X158184791Y-72316721D01*
X158197120Y-72314268D01*
X158266917Y-72287837D01*
X158345739Y-72242462D01*
X158423966Y-72184892D01*
X158491974Y-72121881D01*
X158522696Y-72085830D01*
X158584845Y-71979483D01*
X158625487Y-71857391D01*
X158643728Y-71727598D01*
X158642383Y-71693136D01*
X158360323Y-71693136D01*
X158349740Y-71797387D01*
X158312741Y-71889491D01*
X158251076Y-71965997D01*
X158166495Y-72023451D01*
X158105996Y-72047185D01*
X158040676Y-72059322D01*
X157970995Y-72054492D01*
X157904403Y-72038185D01*
X157816584Y-71996606D01*
X157746483Y-71932198D01*
X157696888Y-71850155D01*
X157670589Y-71755669D01*
X157670375Y-71653933D01*
X157677444Y-71615582D01*
X157714182Y-71525636D01*
X157775329Y-71449129D01*
X157854725Y-71390925D01*
X157946210Y-71355886D01*
X158016739Y-71347731D01*
X158102907Y-71361086D01*
X158186555Y-71397851D01*
X158260053Y-71452584D01*
X158315768Y-71519842D01*
X158342740Y-71580191D01*
X158360323Y-71693136D01*
X158642383Y-71693136D01*
X158638675Y-71598149D01*
X158609434Y-71477090D01*
X158594358Y-71440423D01*
X158526231Y-71327927D01*
X158434572Y-71229274D01*
X158326849Y-71152133D01*
X158299661Y-71137784D01*
X158251986Y-71115176D01*
X158212718Y-71100275D01*
X158172983Y-71091480D01*
X158123909Y-71087191D01*
X158056622Y-71085808D01*
X158010977Y-71085705D01*
X157930748Y-71086185D01*
G36*
X161058643Y-71109518D02*
G01*
X160772893Y-71109518D01*
X160772893Y-71395268D01*
X161060648Y-71395268D01*
X161055677Y-71682426D01*
X161050706Y-71969585D01*
X161006165Y-72007864D01*
X160972493Y-72030976D01*
X160933123Y-72042609D01*
X160875909Y-72046110D01*
X160867258Y-72046143D01*
X160772893Y-72046143D01*
X160772893Y-72295988D01*
X160832425Y-72305828D01*
X160886319Y-72312556D01*
X160938359Y-72313009D01*
X161000572Y-72306763D01*
X161058496Y-72297867D01*
X161155936Y-72269299D01*
X161233266Y-72220402D01*
X161286799Y-72153579D01*
X161290319Y-72146778D01*
X161300523Y-72122889D01*
X161308338Y-72094578D01*
X161314166Y-72057192D01*
X161318408Y-72006081D01*
X161321467Y-71936593D01*
X161323743Y-71844078D01*
X161325409Y-71740549D01*
X161330237Y-71395268D01*
X161550768Y-71395268D01*
X161550768Y-71109518D01*
X161329710Y-71109518D01*
X161325145Y-70963674D01*
X161320581Y-70817830D01*
X161246981Y-70799092D01*
X161187881Y-70784905D01*
X161130289Y-70772388D01*
X161116012Y-70769591D01*
X161058643Y-70758829D01*
X161058643Y-71109518D01*
X161058643Y-71109518D01*
G37*
X161058643Y-71109518D02*
X160772893Y-71109518D01*
X160772893Y-71395268D01*
X161060648Y-71395268D01*
X161055677Y-71682426D01*
X161050706Y-71969585D01*
X161006165Y-72007864D01*
X160972493Y-72030976D01*
X160933123Y-72042609D01*
X160875909Y-72046110D01*
X160867258Y-72046143D01*
X160772893Y-72046143D01*
X160772893Y-72295988D01*
X160832425Y-72305828D01*
X160886319Y-72312556D01*
X160938359Y-72313009D01*
X161000572Y-72306763D01*
X161058496Y-72297867D01*
X161155936Y-72269299D01*
X161233266Y-72220402D01*
X161286799Y-72153579D01*
X161290319Y-72146778D01*
X161300523Y-72122889D01*
X161308338Y-72094578D01*
X161314166Y-72057192D01*
X161318408Y-72006081D01*
X161321467Y-71936593D01*
X161323743Y-71844078D01*
X161325409Y-71740549D01*
X161330237Y-71395268D01*
X161550768Y-71395268D01*
X161550768Y-71109518D01*
X161329710Y-71109518D01*
X161325145Y-70963674D01*
X161320581Y-70817830D01*
X161246981Y-70799092D01*
X161187881Y-70784905D01*
X161130289Y-70772388D01*
X161116012Y-70769591D01*
X161058643Y-70758829D01*
X161058643Y-71109518D01*
G36*
X163856612Y-70620386D02*
G01*
X163731690Y-70622004D01*
X163634178Y-70623727D01*
X163559738Y-70625942D01*
X163504032Y-70629035D01*
X163462720Y-70633394D01*
X163431466Y-70639405D01*
X163405929Y-70647456D01*
X163381772Y-70657931D01*
X163369680Y-70663794D01*
X163282727Y-70718954D01*
X163205925Y-70790787D01*
X163148607Y-70870104D01*
X163137212Y-70892642D01*
X163112380Y-70977858D01*
X163104979Y-71076960D01*
X163114677Y-71177516D01*
X163141143Y-71267097D01*
X163147597Y-71280968D01*
X163178238Y-71333506D01*
X163212191Y-71378710D01*
X163230941Y-71397364D01*
X163256906Y-71422490D01*
X163256535Y-71436462D01*
X163251114Y-71439181D01*
X163212889Y-71462479D01*
X163166811Y-71504029D01*
X163121400Y-71554879D01*
X163085174Y-71606078D01*
X163075696Y-71623539D01*
X163051103Y-71701800D01*
X163041379Y-71796131D01*
X163046385Y-71894622D01*
X163065981Y-71985364D01*
X163080370Y-72022330D01*
X163134564Y-72106953D01*
X163211477Y-72184354D01*
X163302106Y-72245917D01*
X163326825Y-72258275D01*
X163350683Y-72268450D01*
X163375850Y-72276451D01*
X163406483Y-72282599D01*
X163446734Y-72287214D01*
X163500757Y-72290617D01*
X163572707Y-72293128D01*
X163666738Y-72295068D01*
X163787004Y-72296757D01*
X163832800Y-72297310D01*
X164265393Y-72302414D01*
X164265393Y-71585768D01*
X163963768Y-71585768D01*
X163963768Y-72014393D01*
X163727991Y-72014393D01*
X163635596Y-72014065D01*
X163568999Y-72012585D01*
X163522250Y-72009209D01*
X163489401Y-72003194D01*
X163464501Y-71993795D01*
X163441602Y-71980269D01*
X163438504Y-71978197D01*
X163385390Y-71931348D01*
X163355615Y-71874334D01*
X163345057Y-71798704D01*
X163344878Y-71786306D01*
X163347498Y-71737477D01*
X163359802Y-71702078D01*
X163387902Y-71666275D01*
X163406276Y-71647400D01*
X163467908Y-71585768D01*
X163963768Y-71585768D01*
X164265393Y-71585768D01*
X164265393Y-70903143D01*
X163963768Y-70903143D01*
X163963768Y-71315893D01*
X163777237Y-71314996D01*
X163697550Y-71313027D01*
X163624278Y-71308373D01*
X163566308Y-71301765D01*
X163535693Y-71295153D01*
X163476252Y-71259200D01*
X163433966Y-71202778D01*
X163411554Y-71133696D01*
X163411734Y-71059762D01*
X163432225Y-70997873D01*
X163455234Y-70962363D01*
X163485313Y-70936727D01*
X163527556Y-70919479D01*
X163587055Y-70909131D01*
X163668904Y-70904195D01*
X163756605Y-70903143D01*
X163963768Y-70903143D01*
X164265393Y-70903143D01*
X164265393Y-70615441D01*
X163856612Y-70620386D01*
X163856612Y-70620386D01*
G37*
X163856612Y-70620386D02*
X163731690Y-70622004D01*
X163634178Y-70623727D01*
X163559738Y-70625942D01*
X163504032Y-70629035D01*
X163462720Y-70633394D01*
X163431466Y-70639405D01*
X163405929Y-70647456D01*
X163381772Y-70657931D01*
X163369680Y-70663794D01*
X163282727Y-70718954D01*
X163205925Y-70790787D01*
X163148607Y-70870104D01*
X163137212Y-70892642D01*
X163112380Y-70977858D01*
X163104979Y-71076960D01*
X163114677Y-71177516D01*
X163141143Y-71267097D01*
X163147597Y-71280968D01*
X163178238Y-71333506D01*
X163212191Y-71378710D01*
X163230941Y-71397364D01*
X163256906Y-71422490D01*
X163256535Y-71436462D01*
X163251114Y-71439181D01*
X163212889Y-71462479D01*
X163166811Y-71504029D01*
X163121400Y-71554879D01*
X163085174Y-71606078D01*
X163075696Y-71623539D01*
X163051103Y-71701800D01*
X163041379Y-71796131D01*
X163046385Y-71894622D01*
X163065981Y-71985364D01*
X163080370Y-72022330D01*
X163134564Y-72106953D01*
X163211477Y-72184354D01*
X163302106Y-72245917D01*
X163326825Y-72258275D01*
X163350683Y-72268450D01*
X163375850Y-72276451D01*
X163406483Y-72282599D01*
X163446734Y-72287214D01*
X163500757Y-72290617D01*
X163572707Y-72293128D01*
X163666738Y-72295068D01*
X163787004Y-72296757D01*
X163832800Y-72297310D01*
X164265393Y-72302414D01*
X164265393Y-71585768D01*
X163963768Y-71585768D01*
X163963768Y-72014393D01*
X163727991Y-72014393D01*
X163635596Y-72014065D01*
X163568999Y-72012585D01*
X163522250Y-72009209D01*
X163489401Y-72003194D01*
X163464501Y-71993795D01*
X163441602Y-71980269D01*
X163438504Y-71978197D01*
X163385390Y-71931348D01*
X163355615Y-71874334D01*
X163345057Y-71798704D01*
X163344878Y-71786306D01*
X163347498Y-71737477D01*
X163359802Y-71702078D01*
X163387902Y-71666275D01*
X163406276Y-71647400D01*
X163467908Y-71585768D01*
X163963768Y-71585768D01*
X164265393Y-71585768D01*
X164265393Y-70903143D01*
X163963768Y-70903143D01*
X163963768Y-71315893D01*
X163777237Y-71314996D01*
X163697550Y-71313027D01*
X163624278Y-71308373D01*
X163566308Y-71301765D01*
X163535693Y-71295153D01*
X163476252Y-71259200D01*
X163433966Y-71202778D01*
X163411554Y-71133696D01*
X163411734Y-71059762D01*
X163432225Y-70997873D01*
X163455234Y-70962363D01*
X163485313Y-70936727D01*
X163527556Y-70919479D01*
X163587055Y-70909131D01*
X163668904Y-70904195D01*
X163756605Y-70903143D01*
X163963768Y-70903143D01*
X164265393Y-70903143D01*
X164265393Y-70615441D01*
X163856612Y-70620386D01*
G36*
X160125987Y-70620386D02*
G01*
X159999901Y-70622081D01*
X159901260Y-70623980D01*
X159825759Y-70626426D01*
X159769095Y-70629761D01*
X159726963Y-70634331D01*
X159695058Y-70640477D01*
X159669077Y-70648543D01*
X159644962Y-70658757D01*
X159544105Y-70720591D01*
X159464311Y-70800281D01*
X159406778Y-70893175D01*
X159372705Y-70994620D01*
X159363289Y-71099965D01*
X159379727Y-71204558D01*
X159423219Y-71303745D01*
X159464285Y-71360476D01*
X159522100Y-71428020D01*
X159448333Y-71492952D01*
X159380158Y-71562069D01*
X159336484Y-71631710D01*
X159313116Y-71711387D01*
X159305858Y-71810612D01*
X159305843Y-71815955D01*
X159318401Y-71942043D01*
X159356644Y-72049643D01*
X159421268Y-72139859D01*
X159512971Y-72213793D01*
X159580896Y-72250615D01*
X159607940Y-72262964D01*
X159632996Y-72272636D01*
X159660305Y-72280009D01*
X159694109Y-72285464D01*
X159738651Y-72289377D01*
X159798173Y-72292127D01*
X159876919Y-72294093D01*
X159979129Y-72295653D01*
X160102175Y-72297107D01*
X160534768Y-72302009D01*
X160534768Y-72016590D01*
X160234054Y-72016590D01*
X159978340Y-72011522D01*
X159722625Y-72006455D01*
X159669281Y-71948204D01*
X159621181Y-71879647D01*
X159603804Y-71810067D01*
X159616332Y-71734803D01*
X159627040Y-71707582D01*
X159650118Y-71662577D01*
X159677122Y-71629308D01*
X159712986Y-71606041D01*
X159762644Y-71591043D01*
X159831031Y-71582581D01*
X159923080Y-71578921D01*
X159995018Y-71578301D01*
X160225206Y-71577830D01*
X160234054Y-72016590D01*
X160534768Y-72016590D01*
X160534768Y-70903143D01*
X160233143Y-70903143D01*
X160233143Y-71098934D01*
X160232331Y-71174799D01*
X160230114Y-71238764D01*
X160226826Y-71284336D01*
X160222801Y-71305018D01*
X160222560Y-71305309D01*
X160201418Y-71310818D01*
X160156236Y-71314268D01*
X160094650Y-71315776D01*
X160024296Y-71315460D01*
X159952810Y-71313436D01*
X159887828Y-71309823D01*
X159836985Y-71304738D01*
X159809521Y-71298960D01*
X159743071Y-71259538D01*
X159697372Y-71203676D01*
X159673431Y-71138032D01*
X159672251Y-71069266D01*
X159694837Y-71004038D01*
X159742195Y-70949007D01*
X159755272Y-70939442D01*
X159779807Y-70924588D01*
X159805713Y-70914430D01*
X159839435Y-70908089D01*
X159887421Y-70904684D01*
X159956117Y-70903335D01*
X160021179Y-70903143D01*
X160233143Y-70903143D01*
X160534768Y-70903143D01*
X160534768Y-70615441D01*
X160125987Y-70620386D01*
X160125987Y-70620386D01*
G37*
X160125987Y-70620386D02*
X159999901Y-70622081D01*
X159901260Y-70623980D01*
X159825759Y-70626426D01*
X159769095Y-70629761D01*
X159726963Y-70634331D01*
X159695058Y-70640477D01*
X159669077Y-70648543D01*
X159644962Y-70658757D01*
X159544105Y-70720591D01*
X159464311Y-70800281D01*
X159406778Y-70893175D01*
X159372705Y-70994620D01*
X159363289Y-71099965D01*
X159379727Y-71204558D01*
X159423219Y-71303745D01*
X159464285Y-71360476D01*
X159522100Y-71428020D01*
X159448333Y-71492952D01*
X159380158Y-71562069D01*
X159336484Y-71631710D01*
X159313116Y-71711387D01*
X159305858Y-71810612D01*
X159305843Y-71815955D01*
X159318401Y-71942043D01*
X159356644Y-72049643D01*
X159421268Y-72139859D01*
X159512971Y-72213793D01*
X159580896Y-72250615D01*
X159607940Y-72262964D01*
X159632996Y-72272636D01*
X159660305Y-72280009D01*
X159694109Y-72285464D01*
X159738651Y-72289377D01*
X159798173Y-72292127D01*
X159876919Y-72294093D01*
X159979129Y-72295653D01*
X160102175Y-72297107D01*
X160534768Y-72302009D01*
X160534768Y-72016590D01*
X160234054Y-72016590D01*
X159978340Y-72011522D01*
X159722625Y-72006455D01*
X159669281Y-71948204D01*
X159621181Y-71879647D01*
X159603804Y-71810067D01*
X159616332Y-71734803D01*
X159627040Y-71707582D01*
X159650118Y-71662577D01*
X159677122Y-71629308D01*
X159712986Y-71606041D01*
X159762644Y-71591043D01*
X159831031Y-71582581D01*
X159923080Y-71578921D01*
X159995018Y-71578301D01*
X160225206Y-71577830D01*
X160234054Y-72016590D01*
X160534768Y-72016590D01*
X160534768Y-70903143D01*
X160233143Y-70903143D01*
X160233143Y-71098934D01*
X160232331Y-71174799D01*
X160230114Y-71238764D01*
X160226826Y-71284336D01*
X160222801Y-71305018D01*
X160222560Y-71305309D01*
X160201418Y-71310818D01*
X160156236Y-71314268D01*
X160094650Y-71315776D01*
X160024296Y-71315460D01*
X159952810Y-71313436D01*
X159887828Y-71309823D01*
X159836985Y-71304738D01*
X159809521Y-71298960D01*
X159743071Y-71259538D01*
X159697372Y-71203676D01*
X159673431Y-71138032D01*
X159672251Y-71069266D01*
X159694837Y-71004038D01*
X159742195Y-70949007D01*
X159755272Y-70939442D01*
X159779807Y-70924588D01*
X159805713Y-70914430D01*
X159839435Y-70908089D01*
X159887421Y-70904684D01*
X159956117Y-70903335D01*
X160021179Y-70903143D01*
X160233143Y-70903143D01*
X160534768Y-70903143D01*
X160534768Y-70615441D01*
X160125987Y-70620386D01*
G36*
X158820268Y-72300143D02*
G01*
X159106018Y-72300143D01*
X159106018Y-70617393D01*
X158820268Y-70617393D01*
X158820268Y-72300143D01*
X158820268Y-72300143D01*
G37*
X158820268Y-72300143D02*
X159106018Y-72300143D01*
X159106018Y-70617393D01*
X158820268Y-70617393D01*
X158820268Y-72300143D01*
G36*
X166079068Y-71044585D02*
G01*
X166058489Y-71047823D01*
X166049719Y-71053719D01*
X166048778Y-71062474D01*
X166050489Y-71069830D01*
X166058669Y-71092719D01*
X166077251Y-71140658D01*
X166104521Y-71209354D01*
X166138762Y-71294510D01*
X166178260Y-71391832D01*
X166215367Y-71482580D01*
X166371693Y-71863580D01*
X166473449Y-71873518D01*
X166553663Y-71880442D01*
X166641382Y-71886504D01*
X166731210Y-71891513D01*
X166817750Y-71895278D01*
X166895604Y-71897610D01*
X166959378Y-71898317D01*
X167003673Y-71897209D01*
X167023093Y-71894096D01*
X167023404Y-71892938D01*
X167015481Y-71875195D01*
X166997233Y-71832007D01*
X166970303Y-71767337D01*
X166936334Y-71685146D01*
X166896968Y-71589399D01*
X166853850Y-71484057D01*
X166853247Y-71482580D01*
X166810170Y-71377487D01*
X166770848Y-71282276D01*
X166736912Y-71200836D01*
X166709991Y-71137057D01*
X166691717Y-71094829D01*
X166683719Y-71078042D01*
X166683670Y-71077988D01*
X166666246Y-71074868D01*
X166622003Y-71070661D01*
X166555839Y-71065727D01*
X166472654Y-71060426D01*
X166377345Y-71055115D01*
X166359063Y-71054175D01*
X166251452Y-71048801D01*
X166171570Y-71045276D01*
X166115435Y-71043804D01*
X166079068Y-71044585D01*
X166079068Y-71044585D01*
G37*
X166079068Y-71044585D02*
X166058489Y-71047823D01*
X166049719Y-71053719D01*
X166048778Y-71062474D01*
X166050489Y-71069830D01*
X166058669Y-71092719D01*
X166077251Y-71140658D01*
X166104521Y-71209354D01*
X166138762Y-71294510D01*
X166178260Y-71391832D01*
X166215367Y-71482580D01*
X166371693Y-71863580D01*
X166473449Y-71873518D01*
X166553663Y-71880442D01*
X166641382Y-71886504D01*
X166731210Y-71891513D01*
X166817750Y-71895278D01*
X166895604Y-71897610D01*
X166959378Y-71898317D01*
X167003673Y-71897209D01*
X167023093Y-71894096D01*
X167023404Y-71892938D01*
X167015481Y-71875195D01*
X166997233Y-71832007D01*
X166970303Y-71767337D01*
X166936334Y-71685146D01*
X166896968Y-71589399D01*
X166853850Y-71484057D01*
X166853247Y-71482580D01*
X166810170Y-71377487D01*
X166770848Y-71282276D01*
X166736912Y-71200836D01*
X166709991Y-71137057D01*
X166691717Y-71094829D01*
X166683719Y-71078042D01*
X166683670Y-71077988D01*
X166666246Y-71074868D01*
X166622003Y-71070661D01*
X166555839Y-71065727D01*
X166472654Y-71060426D01*
X166377345Y-71055115D01*
X166359063Y-71054175D01*
X166251452Y-71048801D01*
X166171570Y-71045276D01*
X166115435Y-71043804D01*
X166079068Y-71044585D01*
G36*
X165208121Y-71225123D02*
G01*
X165211877Y-71240931D01*
X165226035Y-71280308D01*
X165248459Y-71337653D01*
X165277016Y-71407366D01*
X165283069Y-71421810D01*
X165363496Y-71613018D01*
X165524851Y-71622789D01*
X165691997Y-71632485D01*
X165833462Y-71639792D01*
X165948138Y-71644673D01*
X166034920Y-71647092D01*
X166092701Y-71647013D01*
X166120375Y-71644397D01*
X166122768Y-71642683D01*
X166116936Y-71622908D01*
X166101394Y-71581262D01*
X166079075Y-71524821D01*
X166052909Y-71460662D01*
X166025828Y-71395864D01*
X166000766Y-71337504D01*
X165980652Y-71292658D01*
X165968419Y-71268405D01*
X165966863Y-71266319D01*
X165949049Y-71263050D01*
X165905034Y-71258786D01*
X165840203Y-71253821D01*
X165759940Y-71248446D01*
X165669632Y-71242954D01*
X165574662Y-71237637D01*
X165480417Y-71232789D01*
X165392282Y-71228700D01*
X165315641Y-71225664D01*
X165255881Y-71223973D01*
X165218386Y-71223919D01*
X165208121Y-71225123D01*
X165208121Y-71225123D01*
G37*
X165208121Y-71225123D02*
X165211877Y-71240931D01*
X165226035Y-71280308D01*
X165248459Y-71337653D01*
X165277016Y-71407366D01*
X165283069Y-71421810D01*
X165363496Y-71613018D01*
X165524851Y-71622789D01*
X165691997Y-71632485D01*
X165833462Y-71639792D01*
X165948138Y-71644673D01*
X166034920Y-71647092D01*
X166092701Y-71647013D01*
X166120375Y-71644397D01*
X166122768Y-71642683D01*
X166116936Y-71622908D01*
X166101394Y-71581262D01*
X166079075Y-71524821D01*
X166052909Y-71460662D01*
X166025828Y-71395864D01*
X166000766Y-71337504D01*
X165980652Y-71292658D01*
X165968419Y-71268405D01*
X165966863Y-71266319D01*
X165949049Y-71263050D01*
X165905034Y-71258786D01*
X165840203Y-71253821D01*
X165759940Y-71248446D01*
X165669632Y-71242954D01*
X165574662Y-71237637D01*
X165480417Y-71232789D01*
X165392282Y-71228700D01*
X165315641Y-71225664D01*
X165255881Y-71223973D01*
X165218386Y-71223919D01*
X165208121Y-71225123D01*
G36*
X166841061Y-71084434D02*
G01*
X166844947Y-71099825D01*
X166858641Y-71137625D01*
X166879382Y-71191085D01*
X166904412Y-71253458D01*
X166930969Y-71317996D01*
X166956294Y-71377949D01*
X166977627Y-71426571D01*
X166992208Y-71457112D01*
X166996080Y-71463465D01*
X167014169Y-71467913D01*
X167058080Y-71473064D01*
X167122541Y-71478644D01*
X167202282Y-71484378D01*
X167292031Y-71489991D01*
X167386518Y-71495209D01*
X167480471Y-71499756D01*
X167568620Y-71503357D01*
X167645694Y-71505739D01*
X167706422Y-71506625D01*
X167745532Y-71505743D01*
X167757893Y-71503182D01*
X167752197Y-71484923D01*
X167737013Y-71444450D01*
X167715199Y-71388803D01*
X167689613Y-71325018D01*
X167663113Y-71260133D01*
X167638558Y-71201188D01*
X167618805Y-71155220D01*
X167606712Y-71129267D01*
X167604814Y-71126210D01*
X167588004Y-71123563D01*
X167544866Y-71119795D01*
X167480745Y-71115196D01*
X167400985Y-71110061D01*
X167310930Y-71104681D01*
X167215922Y-71099348D01*
X167121306Y-71094354D01*
X167032426Y-71089993D01*
X166954625Y-71086556D01*
X166893247Y-71084335D01*
X166853636Y-71083624D01*
X166841061Y-71084434D01*
X166841061Y-71084434D01*
G37*
X166841061Y-71084434D02*
X166844947Y-71099825D01*
X166858641Y-71137625D01*
X166879382Y-71191085D01*
X166904412Y-71253458D01*
X166930969Y-71317996D01*
X166956294Y-71377949D01*
X166977627Y-71426571D01*
X166992208Y-71457112D01*
X166996080Y-71463465D01*
X167014169Y-71467913D01*
X167058080Y-71473064D01*
X167122541Y-71478644D01*
X167202282Y-71484378D01*
X167292031Y-71489991D01*
X167386518Y-71495209D01*
X167480471Y-71499756D01*
X167568620Y-71503357D01*
X167645694Y-71505739D01*
X167706422Y-71506625D01*
X167745532Y-71505743D01*
X167757893Y-71503182D01*
X167752197Y-71484923D01*
X167737013Y-71444450D01*
X167715199Y-71388803D01*
X167689613Y-71325018D01*
X167663113Y-71260133D01*
X167638558Y-71201188D01*
X167618805Y-71155220D01*
X167606712Y-71129267D01*
X167604814Y-71126210D01*
X167588004Y-71123563D01*
X167544866Y-71119795D01*
X167480745Y-71115196D01*
X167400985Y-71110061D01*
X167310930Y-71104681D01*
X167215922Y-71099348D01*
X167121306Y-71094354D01*
X167032426Y-71089993D01*
X166954625Y-71086556D01*
X166893247Y-71084335D01*
X166853636Y-71083624D01*
X166841061Y-71084434D01*
G36*
X165210574Y-70079870D02*
G01*
X165214883Y-70095470D01*
X165229917Y-70136281D01*
X165254079Y-70198256D01*
X165285772Y-70277344D01*
X165323398Y-70369496D01*
X165353726Y-70442768D01*
X165395182Y-70542393D01*
X165432562Y-70632267D01*
X165464145Y-70708241D01*
X165488204Y-70766167D01*
X165503018Y-70801898D01*
X165506985Y-70811536D01*
X165523297Y-70814682D01*
X165568065Y-70818967D01*
X165638022Y-70824185D01*
X165729904Y-70830133D01*
X165840443Y-70836605D01*
X165966375Y-70843399D01*
X166104432Y-70850309D01*
X166194206Y-70854540D01*
X166344027Y-70861499D01*
X166488724Y-70868337D01*
X166624180Y-70874852D01*
X166746277Y-70880840D01*
X166850898Y-70886099D01*
X166933926Y-70890426D01*
X166991241Y-70893617D01*
X167007800Y-70894645D01*
X167067693Y-70897356D01*
X167113197Y-70897018D01*
X167136953Y-70893777D01*
X167138768Y-70892022D01*
X167132903Y-70874843D01*
X167116407Y-70832464D01*
X167090928Y-70768963D01*
X167058114Y-70688422D01*
X167035404Y-70633268D01*
X166614430Y-70633268D01*
X166489360Y-70633268D01*
X166415446Y-70630913D01*
X166371431Y-70623700D01*
X166356333Y-70613424D01*
X166352082Y-70602782D01*
X165994534Y-70602782D01*
X165866651Y-70598181D01*
X165738767Y-70593580D01*
X165700580Y-70499602D01*
X165680891Y-70450391D01*
X165667102Y-70414486D01*
X165662393Y-70400383D01*
X165676964Y-70397859D01*
X165715458Y-70396002D01*
X165770052Y-70395160D01*
X165779512Y-70395143D01*
X165843739Y-70396140D01*
X165885332Y-70403045D01*
X165912886Y-70421725D01*
X165934995Y-70458050D01*
X165960255Y-70517888D01*
X165960626Y-70518806D01*
X165994534Y-70602782D01*
X166352082Y-70602782D01*
X166346317Y-70588353D01*
X166329007Y-70544943D01*
X166315178Y-70510236D01*
X166281982Y-70426893D01*
X166407052Y-70426893D01*
X166480966Y-70429247D01*
X166524981Y-70436460D01*
X166540079Y-70446736D01*
X166550095Y-70471807D01*
X166567405Y-70515217D01*
X166581234Y-70549924D01*
X166614430Y-70633268D01*
X167035404Y-70633268D01*
X167019613Y-70594918D01*
X166986064Y-70514095D01*
X166833360Y-70147473D01*
X166024722Y-70110817D01*
X165867712Y-70103813D01*
X165720543Y-70097467D01*
X165586217Y-70091893D01*
X165467734Y-70087206D01*
X165368092Y-70083519D01*
X165290293Y-70080947D01*
X165237336Y-70079603D01*
X165212222Y-70079602D01*
X165210574Y-70079870D01*
X165210574Y-70079870D01*
G37*
X165210574Y-70079870D02*
X165214883Y-70095470D01*
X165229917Y-70136281D01*
X165254079Y-70198256D01*
X165285772Y-70277344D01*
X165323398Y-70369496D01*
X165353726Y-70442768D01*
X165395182Y-70542393D01*
X165432562Y-70632267D01*
X165464145Y-70708241D01*
X165488204Y-70766167D01*
X165503018Y-70801898D01*
X165506985Y-70811536D01*
X165523297Y-70814682D01*
X165568065Y-70818967D01*
X165638022Y-70824185D01*
X165729904Y-70830133D01*
X165840443Y-70836605D01*
X165966375Y-70843399D01*
X166104432Y-70850309D01*
X166194206Y-70854540D01*
X166344027Y-70861499D01*
X166488724Y-70868337D01*
X166624180Y-70874852D01*
X166746277Y-70880840D01*
X166850898Y-70886099D01*
X166933926Y-70890426D01*
X166991241Y-70893617D01*
X167007800Y-70894645D01*
X167067693Y-70897356D01*
X167113197Y-70897018D01*
X167136953Y-70893777D01*
X167138768Y-70892022D01*
X167132903Y-70874843D01*
X167116407Y-70832464D01*
X167090928Y-70768963D01*
X167058114Y-70688422D01*
X167035404Y-70633268D01*
X166614430Y-70633268D01*
X166489360Y-70633268D01*
X166415446Y-70630913D01*
X166371431Y-70623700D01*
X166356333Y-70613424D01*
X166352082Y-70602782D01*
X165994534Y-70602782D01*
X165866651Y-70598181D01*
X165738767Y-70593580D01*
X165700580Y-70499602D01*
X165680891Y-70450391D01*
X165667102Y-70414486D01*
X165662393Y-70400383D01*
X165676964Y-70397859D01*
X165715458Y-70396002D01*
X165770052Y-70395160D01*
X165779512Y-70395143D01*
X165843739Y-70396140D01*
X165885332Y-70403045D01*
X165912886Y-70421725D01*
X165934995Y-70458050D01*
X165960255Y-70517888D01*
X165960626Y-70518806D01*
X165994534Y-70602782D01*
X166352082Y-70602782D01*
X166346317Y-70588353D01*
X166329007Y-70544943D01*
X166315178Y-70510236D01*
X166281982Y-70426893D01*
X166407052Y-70426893D01*
X166480966Y-70429247D01*
X166524981Y-70436460D01*
X166540079Y-70446736D01*
X166550095Y-70471807D01*
X166567405Y-70515217D01*
X166581234Y-70549924D01*
X166614430Y-70633268D01*
X167035404Y-70633268D01*
X167019613Y-70594918D01*
X166986064Y-70514095D01*
X166833360Y-70147473D01*
X166024722Y-70110817D01*
X165867712Y-70103813D01*
X165720543Y-70097467D01*
X165586217Y-70091893D01*
X165467734Y-70087206D01*
X165368092Y-70083519D01*
X165290293Y-70080947D01*
X165237336Y-70079603D01*
X165212222Y-70079602D01*
X165210574Y-70079870D01*
D17*
X135630000Y-82070000D02*
X135630000Y-81370000D01*
X134430000Y-81370000D02*
X134430000Y-82070000D01*
X135760000Y-81370000D02*
X135760000Y-82070000D01*
X136960000Y-82070000D02*
X136960000Y-81370000D01*
X132840000Y-88170000D02*
X132340000Y-88170000D01*
X132340000Y-87230000D02*
X132840000Y-87230000D01*
X131650000Y-95350000D02*
X131150000Y-95350000D01*
X131150000Y-94410000D02*
X131650000Y-94410000D01*
X133430000Y-91820000D02*
X133930000Y-91820000D01*
X133930000Y-92760000D02*
X133430000Y-92760000D01*
X134030000Y-94250000D02*
X134030000Y-93750000D01*
X134970000Y-93750000D02*
X134970000Y-94250000D01*
X132240000Y-98780000D02*
X132740000Y-98780000D01*
X132740000Y-99720000D02*
X132240000Y-99720000D01*
X133950000Y-99970000D02*
X134450000Y-99970000D01*
X134450000Y-100910000D02*
X133950000Y-100910000D01*
X145150000Y-107630000D02*
X145650000Y-107630000D01*
X145650000Y-108570000D02*
X145150000Y-108570000D01*
X155230000Y-92340000D02*
X155230000Y-91840000D01*
X156170000Y-91840000D02*
X156170000Y-92340000D01*
X139592893Y-112072893D02*
X140092893Y-112072893D01*
X140092893Y-113012893D02*
X139592893Y-113012893D01*
X136572893Y-111192893D02*
X136572893Y-110692893D01*
X137512893Y-110692893D02*
X137512893Y-111192893D01*
X153312893Y-75192893D02*
X153312893Y-75692893D01*
X152372893Y-75692893D02*
X152372893Y-75192893D01*
X153112893Y-80292893D02*
X153112893Y-80792893D01*
X152172893Y-80792893D02*
X152172893Y-80292893D01*
X161110000Y-76790000D02*
X161110000Y-77290000D01*
X160170000Y-77290000D02*
X160170000Y-76790000D01*
X160170000Y-79392893D02*
X160170000Y-78892893D01*
X161110000Y-78892893D02*
X161110000Y-79392893D01*
X157470000Y-92390000D02*
X157470000Y-92890000D01*
X156530000Y-92890000D02*
X156530000Y-92390000D01*
X157470000Y-98770000D02*
X157470000Y-99270000D01*
X156530000Y-99270000D02*
X156530000Y-98770000D01*
X157470000Y-105120000D02*
X157470000Y-105620000D01*
X156530000Y-105620000D02*
X156530000Y-105120000D01*
X157220000Y-108230000D02*
X157220000Y-107730000D01*
X158160000Y-107730000D02*
X158160000Y-108230000D01*
X136330000Y-87840000D02*
X136330000Y-87340000D01*
X137270000Y-87340000D02*
X137270000Y-87840000D01*
X135230000Y-95450000D02*
X135230000Y-94950000D01*
X136170000Y-94950000D02*
X136170000Y-95450000D01*
X136330000Y-94340000D02*
X136330000Y-93840000D01*
X137270000Y-93840000D02*
X137270000Y-94340000D01*
X145500000Y-83012893D02*
X145000000Y-83012893D01*
X145000000Y-82072893D02*
X145500000Y-82072893D01*
X156310000Y-97560000D02*
X156310000Y-98060000D01*
X155370000Y-98060000D02*
X155370000Y-97560000D01*
X150000000Y-82970000D02*
X149500000Y-82970000D01*
X149500000Y-82030000D02*
X150000000Y-82030000D01*
X153820000Y-106830000D02*
X153820000Y-106330000D01*
X154760000Y-106330000D02*
X154760000Y-106830000D01*
D18*
X138042893Y-74942893D02*
X138042893Y-78942893D01*
X138042893Y-74942893D02*
X138342893Y-74942893D01*
X150042893Y-74942893D02*
X150042893Y-78942893D01*
X149742893Y-74942893D02*
X150042893Y-74942893D01*
X138042893Y-78942893D02*
X138342893Y-78942893D01*
X149742893Y-78942893D02*
X150042893Y-78942893D01*
X143742893Y-78942893D02*
X144342893Y-78942893D01*
X141742893Y-78942893D02*
X142342893Y-78942893D01*
X139742893Y-78942893D02*
X140342893Y-78942893D01*
X139742893Y-74942893D02*
X140342893Y-74942893D01*
X141742893Y-74942893D02*
X142342893Y-74942893D01*
X143742893Y-74942893D02*
X144342893Y-74942893D01*
X145742893Y-78942893D02*
X146342893Y-78942893D01*
X145742893Y-74942893D02*
X146342893Y-74942893D01*
X147742893Y-78942893D02*
X148342893Y-78942893D01*
X147742893Y-74942893D02*
X148342893Y-74942893D01*
D17*
X161270000Y-76320000D02*
X161270000Y-75820000D01*
X162330000Y-75820000D02*
X162330000Y-76320000D01*
X147042893Y-109872893D02*
X146542893Y-109872893D01*
X146542893Y-108812893D02*
X147042893Y-108812893D01*
X136150000Y-96470000D02*
X136650000Y-96470000D01*
X136650000Y-97530000D02*
X136150000Y-97530000D01*
X161140000Y-112390000D02*
X161140000Y-111890000D01*
X162200000Y-111890000D02*
X162200000Y-112390000D01*
X162430000Y-79680000D02*
X162430000Y-80180000D01*
X161370000Y-80180000D02*
X161370000Y-79680000D01*
X163489276Y-111890000D02*
X163489276Y-112390000D01*
X162429276Y-112390000D02*
X162429276Y-111890000D01*
X157530000Y-90490000D02*
X157530000Y-90990000D01*
X156470000Y-90990000D02*
X156470000Y-90490000D01*
X164778552Y-111890000D02*
X164778552Y-112390000D01*
X163718552Y-112390000D02*
X163718552Y-111890000D01*
X156470000Y-97370000D02*
X156470000Y-96870000D01*
X157530000Y-96870000D02*
X157530000Y-97370000D01*
X165007828Y-112390000D02*
X165007828Y-111890000D01*
X166067828Y-111890000D02*
X166067828Y-112390000D01*
X157530000Y-103220000D02*
X157530000Y-103720000D01*
X156470000Y-103720000D02*
X156470000Y-103220000D01*
X166297104Y-112390000D02*
X166297104Y-111890000D01*
X167357104Y-111890000D02*
X167357104Y-112390000D01*
X158750000Y-108000000D02*
X159250000Y-108000000D01*
X159250000Y-109060000D02*
X158750000Y-109060000D01*
D10*
X154057142Y-84671428D02*
X154057142Y-85157142D01*
X154028571Y-85214285D01*
X154000000Y-85242857D01*
X153942857Y-85271428D01*
X153828571Y-85271428D01*
X153771428Y-85242857D01*
X153742857Y-85214285D01*
X153714285Y-85157142D01*
X153714285Y-84671428D01*
X153171428Y-84671428D02*
X153285714Y-84671428D01*
X153342857Y-84700000D01*
X153371428Y-84728571D01*
X153428571Y-84814285D01*
X153457142Y-84928571D01*
X153457142Y-85157142D01*
X153428571Y-85214285D01*
X153400000Y-85242857D01*
X153342857Y-85271428D01*
X153228571Y-85271428D01*
X153171428Y-85242857D01*
X153142857Y-85214285D01*
X153114285Y-85157142D01*
X153114285Y-85014285D01*
X153142857Y-84957142D01*
X153171428Y-84928571D01*
X153228571Y-84900000D01*
X153342857Y-84900000D01*
X153400000Y-84928571D01*
X153428571Y-84957142D01*
X153457142Y-85014285D01*
X153542893Y-83914321D02*
X153742893Y-83628607D01*
X153885750Y-83914321D02*
X153885750Y-83314321D01*
X153657178Y-83314321D01*
X153600035Y-83342893D01*
X153571464Y-83371464D01*
X153542893Y-83428607D01*
X153542893Y-83514321D01*
X153571464Y-83571464D01*
X153600035Y-83600035D01*
X153657178Y-83628607D01*
X153885750Y-83628607D01*
X153314321Y-83371464D02*
X153285750Y-83342893D01*
X153228607Y-83314321D01*
X153085750Y-83314321D01*
X153028607Y-83342893D01*
X153000035Y-83371464D01*
X152971464Y-83428607D01*
X152971464Y-83485750D01*
X153000035Y-83571464D01*
X153342893Y-83914321D01*
X152971464Y-83914321D01*
X155942893Y-78014321D02*
X156142893Y-77728607D01*
X156285750Y-78014321D02*
X156285750Y-77414321D01*
X156057178Y-77414321D01*
X156000035Y-77442893D01*
X155971464Y-77471464D01*
X155942893Y-77528607D01*
X155942893Y-77614321D01*
X155971464Y-77671464D01*
X156000035Y-77700035D01*
X156057178Y-77728607D01*
X156285750Y-77728607D01*
X155742893Y-77414321D02*
X155371464Y-77414321D01*
X155571464Y-77642893D01*
X155485750Y-77642893D01*
X155428607Y-77671464D01*
X155400035Y-77700035D01*
X155371464Y-77757178D01*
X155371464Y-77900035D01*
X155400035Y-77957178D01*
X155428607Y-77985750D01*
X155485750Y-78014321D01*
X155657178Y-78014321D01*
X155714321Y-77985750D01*
X155742893Y-77957178D01*
X152642893Y-77614321D02*
X152842893Y-77328607D01*
X152985750Y-77614321D02*
X152985750Y-77014321D01*
X152757178Y-77014321D01*
X152700035Y-77042893D01*
X152671464Y-77071464D01*
X152642893Y-77128607D01*
X152642893Y-77214321D01*
X152671464Y-77271464D01*
X152700035Y-77300035D01*
X152757178Y-77328607D01*
X152985750Y-77328607D01*
X152128607Y-77214321D02*
X152128607Y-77614321D01*
X152271464Y-76985750D02*
X152414321Y-77414321D01*
X152042893Y-77414321D01*
X133704249Y-94518535D02*
X133704249Y-95004249D01*
X133675678Y-95061392D01*
X133647107Y-95089964D01*
X133589964Y-95118535D01*
X133475678Y-95118535D01*
X133418535Y-95089964D01*
X133389964Y-95061392D01*
X133361392Y-95004249D01*
X133361392Y-94518535D01*
X132789964Y-94518535D02*
X133075678Y-94518535D01*
X133104249Y-94804249D01*
X133075678Y-94775678D01*
X133018535Y-94747107D01*
X132875678Y-94747107D01*
X132818535Y-94775678D01*
X132789964Y-94804249D01*
X132761392Y-94861392D01*
X132761392Y-95004249D01*
X132789964Y-95061392D01*
X132818535Y-95089964D01*
X132875678Y-95118535D01*
X133018535Y-95118535D01*
X133075678Y-95089964D01*
X133104249Y-95061392D01*
X134964249Y-87508535D02*
X134964249Y-87994249D01*
X134935678Y-88051392D01*
X134907107Y-88079964D01*
X134849964Y-88108535D01*
X134735678Y-88108535D01*
X134678535Y-88079964D01*
X134649964Y-88051392D01*
X134621392Y-87994249D01*
X134621392Y-87508535D01*
X134078535Y-87708535D02*
X134078535Y-88108535D01*
X134221392Y-87479964D02*
X134364249Y-87908535D01*
X133992821Y-87908535D01*
X131472857Y-83811428D02*
X131472857Y-83211428D01*
X131330000Y-83211428D01*
X131244285Y-83240000D01*
X131187142Y-83297142D01*
X131158571Y-83354285D01*
X131130000Y-83468571D01*
X131130000Y-83554285D01*
X131158571Y-83668571D01*
X131187142Y-83725714D01*
X131244285Y-83782857D01*
X131330000Y-83811428D01*
X131472857Y-83811428D01*
X130558571Y-83811428D02*
X130901428Y-83811428D01*
X130730000Y-83811428D02*
X130730000Y-83211428D01*
X130787142Y-83297142D01*
X130844285Y-83354285D01*
X130901428Y-83382857D01*
X135667107Y-90098535D02*
X135952821Y-90098535D01*
X135952821Y-89498535D01*
X135152821Y-90098535D02*
X135495678Y-90098535D01*
X135324249Y-90098535D02*
X135324249Y-89498535D01*
X135381392Y-89584249D01*
X135438535Y-89641392D01*
X135495678Y-89669964D01*
X136248535Y-99987107D02*
X136248535Y-99701392D01*
X135648535Y-99701392D01*
X135705678Y-100158535D02*
X135677107Y-100187107D01*
X135648535Y-100244249D01*
X135648535Y-100387107D01*
X135677107Y-100444249D01*
X135705678Y-100472821D01*
X135762821Y-100501392D01*
X135819964Y-100501392D01*
X135905678Y-100472821D01*
X136248535Y-100129964D01*
X136248535Y-100501392D01*
X141728607Y-109828607D02*
X141728607Y-110114321D01*
X141928607Y-109514321D02*
X141728607Y-109828607D01*
X141528607Y-109514321D01*
X141014321Y-110114321D02*
X141357178Y-110114321D01*
X141185750Y-110114321D02*
X141185750Y-109514321D01*
X141242893Y-109600035D01*
X141300035Y-109657178D01*
X141357178Y-109685750D01*
X134177107Y-83841392D02*
X134205678Y-83869964D01*
X134291392Y-83898535D01*
X134348535Y-83898535D01*
X134434249Y-83869964D01*
X134491392Y-83812821D01*
X134519964Y-83755678D01*
X134548535Y-83641392D01*
X134548535Y-83555678D01*
X134519964Y-83441392D01*
X134491392Y-83384249D01*
X134434249Y-83327107D01*
X134348535Y-83298535D01*
X134291392Y-83298535D01*
X134205678Y-83327107D01*
X134177107Y-83355678D01*
X133977107Y-83298535D02*
X133605678Y-83298535D01*
X133805678Y-83527107D01*
X133719964Y-83527107D01*
X133662821Y-83555678D01*
X133634249Y-83584249D01*
X133605678Y-83641392D01*
X133605678Y-83784249D01*
X133634249Y-83841392D01*
X133662821Y-83869964D01*
X133719964Y-83898535D01*
X133891392Y-83898535D01*
X133948535Y-83869964D01*
X133977107Y-83841392D01*
X136442893Y-83957178D02*
X136471464Y-83985750D01*
X136557178Y-84014321D01*
X136614321Y-84014321D01*
X136700035Y-83985750D01*
X136757178Y-83928607D01*
X136785750Y-83871464D01*
X136814321Y-83757178D01*
X136814321Y-83671464D01*
X136785750Y-83557178D01*
X136757178Y-83500035D01*
X136700035Y-83442893D01*
X136614321Y-83414321D01*
X136557178Y-83414321D01*
X136471464Y-83442893D01*
X136442893Y-83471464D01*
X135928607Y-83614321D02*
X135928607Y-84014321D01*
X136071464Y-83385750D02*
X136214321Y-83814321D01*
X135842893Y-83814321D01*
X132737107Y-86851392D02*
X132765678Y-86879964D01*
X132851392Y-86908535D01*
X132908535Y-86908535D01*
X132994249Y-86879964D01*
X133051392Y-86822821D01*
X133079964Y-86765678D01*
X133108535Y-86651392D01*
X133108535Y-86565678D01*
X133079964Y-86451392D01*
X133051392Y-86394249D01*
X132994249Y-86337107D01*
X132908535Y-86308535D01*
X132851392Y-86308535D01*
X132765678Y-86337107D01*
X132737107Y-86365678D01*
X132194249Y-86308535D02*
X132479964Y-86308535D01*
X132508535Y-86594249D01*
X132479964Y-86565678D01*
X132422821Y-86537107D01*
X132279964Y-86537107D01*
X132222821Y-86565678D01*
X132194249Y-86594249D01*
X132165678Y-86651392D01*
X132165678Y-86794249D01*
X132194249Y-86851392D01*
X132222821Y-86879964D01*
X132279964Y-86908535D01*
X132422821Y-86908535D01*
X132479964Y-86879964D01*
X132508535Y-86851392D01*
X131947107Y-94091392D02*
X131975678Y-94119964D01*
X132061392Y-94148535D01*
X132118535Y-94148535D01*
X132204249Y-94119964D01*
X132261392Y-94062821D01*
X132289964Y-94005678D01*
X132318535Y-93891392D01*
X132318535Y-93805678D01*
X132289964Y-93691392D01*
X132261392Y-93634249D01*
X132204249Y-93577107D01*
X132118535Y-93548535D01*
X132061392Y-93548535D01*
X131975678Y-93577107D01*
X131947107Y-93605678D01*
X131432821Y-93548535D02*
X131547107Y-93548535D01*
X131604249Y-93577107D01*
X131632821Y-93605678D01*
X131689964Y-93691392D01*
X131718535Y-93805678D01*
X131718535Y-94034249D01*
X131689964Y-94091392D01*
X131661392Y-94119964D01*
X131604249Y-94148535D01*
X131489964Y-94148535D01*
X131432821Y-94119964D01*
X131404249Y-94091392D01*
X131375678Y-94034249D01*
X131375678Y-93891392D01*
X131404249Y-93834249D01*
X131432821Y-93805678D01*
X131489964Y-93777107D01*
X131604249Y-93777107D01*
X131661392Y-93805678D01*
X131689964Y-93834249D01*
X131718535Y-93891392D01*
X133227107Y-93651392D02*
X133255678Y-93679964D01*
X133341392Y-93708535D01*
X133398535Y-93708535D01*
X133484249Y-93679964D01*
X133541392Y-93622821D01*
X133569964Y-93565678D01*
X133598535Y-93451392D01*
X133598535Y-93365678D01*
X133569964Y-93251392D01*
X133541392Y-93194249D01*
X133484249Y-93137107D01*
X133398535Y-93108535D01*
X133341392Y-93108535D01*
X133255678Y-93137107D01*
X133227107Y-93165678D01*
X133027107Y-93108535D02*
X132627107Y-93108535D01*
X132884249Y-93708535D01*
X130837107Y-99801392D02*
X130865678Y-99829964D01*
X130951392Y-99858535D01*
X131008535Y-99858535D01*
X131094249Y-99829964D01*
X131151392Y-99772821D01*
X131179964Y-99715678D01*
X131208535Y-99601392D01*
X131208535Y-99515678D01*
X131179964Y-99401392D01*
X131151392Y-99344249D01*
X131094249Y-99287107D01*
X131008535Y-99258535D01*
X130951392Y-99258535D01*
X130865678Y-99287107D01*
X130837107Y-99315678D01*
X130551392Y-99858535D02*
X130437107Y-99858535D01*
X130379964Y-99829964D01*
X130351392Y-99801392D01*
X130294249Y-99715678D01*
X130265678Y-99601392D01*
X130265678Y-99372821D01*
X130294249Y-99315678D01*
X130322821Y-99287107D01*
X130379964Y-99258535D01*
X130494249Y-99258535D01*
X130551392Y-99287107D01*
X130579964Y-99315678D01*
X130608535Y-99372821D01*
X130608535Y-99515678D01*
X130579964Y-99572821D01*
X130551392Y-99601392D01*
X130494249Y-99629964D01*
X130379964Y-99629964D01*
X130322821Y-99601392D01*
X130294249Y-99572821D01*
X130265678Y-99515678D01*
X134662821Y-101711392D02*
X134691392Y-101739964D01*
X134777107Y-101768535D01*
X134834249Y-101768535D01*
X134919964Y-101739964D01*
X134977107Y-101682821D01*
X135005678Y-101625678D01*
X135034249Y-101511392D01*
X135034249Y-101425678D01*
X135005678Y-101311392D01*
X134977107Y-101254249D01*
X134919964Y-101197107D01*
X134834249Y-101168535D01*
X134777107Y-101168535D01*
X134691392Y-101197107D01*
X134662821Y-101225678D01*
X134091392Y-101768535D02*
X134434249Y-101768535D01*
X134262821Y-101768535D02*
X134262821Y-101168535D01*
X134319964Y-101254249D01*
X134377107Y-101311392D01*
X134434249Y-101339964D01*
X133719964Y-101168535D02*
X133662821Y-101168535D01*
X133605678Y-101197107D01*
X133577107Y-101225678D01*
X133548535Y-101282821D01*
X133519964Y-101397107D01*
X133519964Y-101539964D01*
X133548535Y-101654249D01*
X133577107Y-101711392D01*
X133605678Y-101739964D01*
X133662821Y-101768535D01*
X133719964Y-101768535D01*
X133777107Y-101739964D01*
X133805678Y-101711392D01*
X133834249Y-101654249D01*
X133862821Y-101539964D01*
X133862821Y-101397107D01*
X133834249Y-101282821D01*
X133805678Y-101225678D01*
X133777107Y-101197107D01*
X133719964Y-101168535D01*
X143828607Y-108457178D02*
X143857178Y-108485750D01*
X143942893Y-108514321D01*
X144000035Y-108514321D01*
X144085750Y-108485750D01*
X144142893Y-108428607D01*
X144171464Y-108371464D01*
X144200035Y-108257178D01*
X144200035Y-108171464D01*
X144171464Y-108057178D01*
X144142893Y-108000035D01*
X144085750Y-107942893D01*
X144000035Y-107914321D01*
X143942893Y-107914321D01*
X143857178Y-107942893D01*
X143828607Y-107971464D01*
X143257178Y-108514321D02*
X143600035Y-108514321D01*
X143428607Y-108514321D02*
X143428607Y-107914321D01*
X143485750Y-108000035D01*
X143542893Y-108057178D01*
X143600035Y-108085750D01*
X143057178Y-107914321D02*
X142685750Y-107914321D01*
X142885750Y-108142893D01*
X142800035Y-108142893D01*
X142742893Y-108171464D01*
X142714321Y-108200035D01*
X142685750Y-108257178D01*
X142685750Y-108400035D01*
X142714321Y-108457178D01*
X142742893Y-108485750D01*
X142800035Y-108514321D01*
X142971464Y-108514321D01*
X143028607Y-108485750D01*
X143057178Y-108457178D01*
X156057178Y-93757178D02*
X156085750Y-93728607D01*
X156114321Y-93642893D01*
X156114321Y-93585750D01*
X156085750Y-93500035D01*
X156028607Y-93442893D01*
X155971464Y-93414321D01*
X155857178Y-93385750D01*
X155771464Y-93385750D01*
X155657178Y-93414321D01*
X155600035Y-93442893D01*
X155542893Y-93500035D01*
X155514321Y-93585750D01*
X155514321Y-93642893D01*
X155542893Y-93728607D01*
X155571464Y-93757178D01*
X156114321Y-94328607D02*
X156114321Y-93985750D01*
X156114321Y-94157178D02*
X155514321Y-94157178D01*
X155600035Y-94100035D01*
X155657178Y-94042893D01*
X155685750Y-93985750D01*
X155714321Y-94842893D02*
X156114321Y-94842893D01*
X155485750Y-94700035D02*
X155914321Y-94557178D01*
X155914321Y-94928607D01*
X142228607Y-112757178D02*
X142257178Y-112785750D01*
X142342893Y-112814321D01*
X142400035Y-112814321D01*
X142485750Y-112785750D01*
X142542893Y-112728607D01*
X142571464Y-112671464D01*
X142600035Y-112557178D01*
X142600035Y-112471464D01*
X142571464Y-112357178D01*
X142542893Y-112300035D01*
X142485750Y-112242893D01*
X142400035Y-112214321D01*
X142342893Y-112214321D01*
X142257178Y-112242893D01*
X142228607Y-112271464D01*
X141657178Y-112814321D02*
X142000035Y-112814321D01*
X141828607Y-112814321D02*
X141828607Y-112214321D01*
X141885750Y-112300035D01*
X141942893Y-112357178D01*
X142000035Y-112385750D01*
X141114321Y-112214321D02*
X141400035Y-112214321D01*
X141428607Y-112500035D01*
X141400035Y-112471464D01*
X141342893Y-112442893D01*
X141200035Y-112442893D01*
X141142893Y-112471464D01*
X141114321Y-112500035D01*
X141085750Y-112557178D01*
X141085750Y-112700035D01*
X141114321Y-112757178D01*
X141142893Y-112785750D01*
X141200035Y-112814321D01*
X141342893Y-112814321D01*
X141400035Y-112785750D01*
X141428607Y-112757178D01*
X135828607Y-111157178D02*
X135857178Y-111185750D01*
X135942893Y-111214321D01*
X136000035Y-111214321D01*
X136085750Y-111185750D01*
X136142893Y-111128607D01*
X136171464Y-111071464D01*
X136200035Y-110957178D01*
X136200035Y-110871464D01*
X136171464Y-110757178D01*
X136142893Y-110700035D01*
X136085750Y-110642893D01*
X136000035Y-110614321D01*
X135942893Y-110614321D01*
X135857178Y-110642893D01*
X135828607Y-110671464D01*
X135257178Y-111214321D02*
X135600035Y-111214321D01*
X135428607Y-111214321D02*
X135428607Y-110614321D01*
X135485750Y-110700035D01*
X135542893Y-110757178D01*
X135600035Y-110785750D01*
X134742893Y-110614321D02*
X134857178Y-110614321D01*
X134914321Y-110642893D01*
X134942893Y-110671464D01*
X135000035Y-110757178D01*
X135028607Y-110871464D01*
X135028607Y-111100035D01*
X135000035Y-111157178D01*
X134971464Y-111185750D01*
X134914321Y-111214321D01*
X134800035Y-111214321D01*
X134742893Y-111185750D01*
X134714321Y-111157178D01*
X134685750Y-111100035D01*
X134685750Y-110957178D01*
X134714321Y-110900035D01*
X134742893Y-110871464D01*
X134800035Y-110842893D01*
X134914321Y-110842893D01*
X134971464Y-110871464D01*
X135000035Y-110900035D01*
X135028607Y-110957178D01*
X154728607Y-75657178D02*
X154757178Y-75685750D01*
X154842893Y-75714321D01*
X154900035Y-75714321D01*
X154985750Y-75685750D01*
X155042893Y-75628607D01*
X155071464Y-75571464D01*
X155100035Y-75457178D01*
X155100035Y-75371464D01*
X155071464Y-75257178D01*
X155042893Y-75200035D01*
X154985750Y-75142893D01*
X154900035Y-75114321D01*
X154842893Y-75114321D01*
X154757178Y-75142893D01*
X154728607Y-75171464D01*
X154500035Y-75171464D02*
X154471464Y-75142893D01*
X154414321Y-75114321D01*
X154271464Y-75114321D01*
X154214321Y-75142893D01*
X154185750Y-75171464D01*
X154157178Y-75228607D01*
X154157178Y-75285750D01*
X154185750Y-75371464D01*
X154528607Y-75714321D01*
X154157178Y-75714321D01*
X153585750Y-75714321D02*
X153928607Y-75714321D01*
X153757178Y-75714321D02*
X153757178Y-75114321D01*
X153814321Y-75200035D01*
X153871464Y-75257178D01*
X153928607Y-75285750D01*
X154528607Y-80757178D02*
X154557178Y-80785750D01*
X154642893Y-80814321D01*
X154700035Y-80814321D01*
X154785750Y-80785750D01*
X154842893Y-80728607D01*
X154871464Y-80671464D01*
X154900035Y-80557178D01*
X154900035Y-80471464D01*
X154871464Y-80357178D01*
X154842893Y-80300035D01*
X154785750Y-80242893D01*
X154700035Y-80214321D01*
X154642893Y-80214321D01*
X154557178Y-80242893D01*
X154528607Y-80271464D01*
X154300035Y-80271464D02*
X154271464Y-80242893D01*
X154214321Y-80214321D01*
X154071464Y-80214321D01*
X154014321Y-80242893D01*
X153985750Y-80271464D01*
X153957178Y-80328607D01*
X153957178Y-80385750D01*
X153985750Y-80471464D01*
X154328607Y-80814321D01*
X153957178Y-80814321D01*
X153728607Y-80271464D02*
X153700035Y-80242893D01*
X153642893Y-80214321D01*
X153500035Y-80214321D01*
X153442893Y-80242893D01*
X153414321Y-80271464D01*
X153385750Y-80328607D01*
X153385750Y-80385750D01*
X153414321Y-80471464D01*
X153757178Y-80814321D01*
X153385750Y-80814321D01*
X159552821Y-77331392D02*
X159581392Y-77359964D01*
X159667107Y-77388535D01*
X159724249Y-77388535D01*
X159809964Y-77359964D01*
X159867107Y-77302821D01*
X159895678Y-77245678D01*
X159924249Y-77131392D01*
X159924249Y-77045678D01*
X159895678Y-76931392D01*
X159867107Y-76874249D01*
X159809964Y-76817107D01*
X159724249Y-76788535D01*
X159667107Y-76788535D01*
X159581392Y-76817107D01*
X159552821Y-76845678D01*
X159324249Y-76845678D02*
X159295678Y-76817107D01*
X159238535Y-76788535D01*
X159095678Y-76788535D01*
X159038535Y-76817107D01*
X159009964Y-76845678D01*
X158981392Y-76902821D01*
X158981392Y-76959964D01*
X159009964Y-77045678D01*
X159352821Y-77388535D01*
X158981392Y-77388535D01*
X158781392Y-76788535D02*
X158409964Y-76788535D01*
X158609964Y-77017107D01*
X158524249Y-77017107D01*
X158467107Y-77045678D01*
X158438535Y-77074249D01*
X158409964Y-77131392D01*
X158409964Y-77274249D01*
X158438535Y-77331392D01*
X158467107Y-77359964D01*
X158524249Y-77388535D01*
X158695678Y-77388535D01*
X158752821Y-77359964D01*
X158781392Y-77331392D01*
X159552821Y-79404285D02*
X159581392Y-79432857D01*
X159667107Y-79461428D01*
X159724249Y-79461428D01*
X159809964Y-79432857D01*
X159867107Y-79375714D01*
X159895678Y-79318571D01*
X159924249Y-79204285D01*
X159924249Y-79118571D01*
X159895678Y-79004285D01*
X159867107Y-78947142D01*
X159809964Y-78890000D01*
X159724249Y-78861428D01*
X159667107Y-78861428D01*
X159581392Y-78890000D01*
X159552821Y-78918571D01*
X159324249Y-78918571D02*
X159295678Y-78890000D01*
X159238535Y-78861428D01*
X159095678Y-78861428D01*
X159038535Y-78890000D01*
X159009964Y-78918571D01*
X158981392Y-78975714D01*
X158981392Y-79032857D01*
X159009964Y-79118571D01*
X159352821Y-79461428D01*
X158981392Y-79461428D01*
X158467107Y-79061428D02*
X158467107Y-79461428D01*
X158609964Y-78832857D02*
X158752821Y-79261428D01*
X158381392Y-79261428D01*
X158928607Y-92957178D02*
X158957178Y-92985750D01*
X159042893Y-93014321D01*
X159100035Y-93014321D01*
X159185750Y-92985750D01*
X159242893Y-92928607D01*
X159271464Y-92871464D01*
X159300035Y-92757178D01*
X159300035Y-92671464D01*
X159271464Y-92557178D01*
X159242893Y-92500035D01*
X159185750Y-92442893D01*
X159100035Y-92414321D01*
X159042893Y-92414321D01*
X158957178Y-92442893D01*
X158928607Y-92471464D01*
X158700035Y-92471464D02*
X158671464Y-92442893D01*
X158614321Y-92414321D01*
X158471464Y-92414321D01*
X158414321Y-92442893D01*
X158385750Y-92471464D01*
X158357178Y-92528607D01*
X158357178Y-92585750D01*
X158385750Y-92671464D01*
X158728607Y-93014321D01*
X158357178Y-93014321D01*
X157814321Y-92414321D02*
X158100035Y-92414321D01*
X158128607Y-92700035D01*
X158100035Y-92671464D01*
X158042893Y-92642893D01*
X157900035Y-92642893D01*
X157842893Y-92671464D01*
X157814321Y-92700035D01*
X157785750Y-92757178D01*
X157785750Y-92900035D01*
X157814321Y-92957178D01*
X157842893Y-92985750D01*
X157900035Y-93014321D01*
X158042893Y-93014321D01*
X158100035Y-92985750D01*
X158128607Y-92957178D01*
X158928607Y-99357178D02*
X158957178Y-99385750D01*
X159042893Y-99414321D01*
X159100035Y-99414321D01*
X159185750Y-99385750D01*
X159242893Y-99328607D01*
X159271464Y-99271464D01*
X159300035Y-99157178D01*
X159300035Y-99071464D01*
X159271464Y-98957178D01*
X159242893Y-98900035D01*
X159185750Y-98842893D01*
X159100035Y-98814321D01*
X159042893Y-98814321D01*
X158957178Y-98842893D01*
X158928607Y-98871464D01*
X158700035Y-98871464D02*
X158671464Y-98842893D01*
X158614321Y-98814321D01*
X158471464Y-98814321D01*
X158414321Y-98842893D01*
X158385750Y-98871464D01*
X158357178Y-98928607D01*
X158357178Y-98985750D01*
X158385750Y-99071464D01*
X158728607Y-99414321D01*
X158357178Y-99414321D01*
X157842893Y-98814321D02*
X157957178Y-98814321D01*
X158014321Y-98842893D01*
X158042893Y-98871464D01*
X158100035Y-98957178D01*
X158128607Y-99071464D01*
X158128607Y-99300035D01*
X158100035Y-99357178D01*
X158071464Y-99385750D01*
X158014321Y-99414321D01*
X157900035Y-99414321D01*
X157842893Y-99385750D01*
X157814321Y-99357178D01*
X157785750Y-99300035D01*
X157785750Y-99157178D01*
X157814321Y-99100035D01*
X157842893Y-99071464D01*
X157900035Y-99042893D01*
X158014321Y-99042893D01*
X158071464Y-99071464D01*
X158100035Y-99100035D01*
X158128607Y-99157178D01*
X158928607Y-105714285D02*
X158957178Y-105742857D01*
X159042893Y-105771428D01*
X159100035Y-105771428D01*
X159185750Y-105742857D01*
X159242893Y-105685714D01*
X159271464Y-105628571D01*
X159300035Y-105514285D01*
X159300035Y-105428571D01*
X159271464Y-105314285D01*
X159242893Y-105257142D01*
X159185750Y-105200000D01*
X159100035Y-105171428D01*
X159042893Y-105171428D01*
X158957178Y-105200000D01*
X158928607Y-105228571D01*
X158700035Y-105228571D02*
X158671464Y-105200000D01*
X158614321Y-105171428D01*
X158471464Y-105171428D01*
X158414321Y-105200000D01*
X158385750Y-105228571D01*
X158357178Y-105285714D01*
X158357178Y-105342857D01*
X158385750Y-105428571D01*
X158728607Y-105771428D01*
X158357178Y-105771428D01*
X158157178Y-105171428D02*
X157757178Y-105171428D01*
X158014321Y-105771428D01*
X156622821Y-108941392D02*
X156651392Y-108969964D01*
X156737107Y-108998535D01*
X156794249Y-108998535D01*
X156879964Y-108969964D01*
X156937107Y-108912821D01*
X156965678Y-108855678D01*
X156994249Y-108741392D01*
X156994249Y-108655678D01*
X156965678Y-108541392D01*
X156937107Y-108484249D01*
X156879964Y-108427107D01*
X156794249Y-108398535D01*
X156737107Y-108398535D01*
X156651392Y-108427107D01*
X156622821Y-108455678D01*
X156394249Y-108455678D02*
X156365678Y-108427107D01*
X156308535Y-108398535D01*
X156165678Y-108398535D01*
X156108535Y-108427107D01*
X156079964Y-108455678D01*
X156051392Y-108512821D01*
X156051392Y-108569964D01*
X156079964Y-108655678D01*
X156422821Y-108998535D01*
X156051392Y-108998535D01*
X155708535Y-108655678D02*
X155765678Y-108627107D01*
X155794249Y-108598535D01*
X155822821Y-108541392D01*
X155822821Y-108512821D01*
X155794249Y-108455678D01*
X155765678Y-108427107D01*
X155708535Y-108398535D01*
X155594249Y-108398535D01*
X155537107Y-108427107D01*
X155508535Y-108455678D01*
X155479964Y-108512821D01*
X155479964Y-108541392D01*
X155508535Y-108598535D01*
X155537107Y-108627107D01*
X155594249Y-108655678D01*
X155708535Y-108655678D01*
X155765678Y-108684249D01*
X155794249Y-108712821D01*
X155822821Y-108769964D01*
X155822821Y-108884249D01*
X155794249Y-108941392D01*
X155765678Y-108969964D01*
X155708535Y-108998535D01*
X155594249Y-108998535D01*
X155537107Y-108969964D01*
X155508535Y-108941392D01*
X155479964Y-108884249D01*
X155479964Y-108769964D01*
X155508535Y-108712821D01*
X155537107Y-108684249D01*
X155594249Y-108655678D01*
X135602821Y-86591392D02*
X135631392Y-86619964D01*
X135717107Y-86648535D01*
X135774249Y-86648535D01*
X135859964Y-86619964D01*
X135917107Y-86562821D01*
X135945678Y-86505678D01*
X135974249Y-86391392D01*
X135974249Y-86305678D01*
X135945678Y-86191392D01*
X135917107Y-86134249D01*
X135859964Y-86077107D01*
X135774249Y-86048535D01*
X135717107Y-86048535D01*
X135631392Y-86077107D01*
X135602821Y-86105678D01*
X135402821Y-86048535D02*
X135031392Y-86048535D01*
X135231392Y-86277107D01*
X135145678Y-86277107D01*
X135088535Y-86305678D01*
X135059964Y-86334249D01*
X135031392Y-86391392D01*
X135031392Y-86534249D01*
X135059964Y-86591392D01*
X135088535Y-86619964D01*
X135145678Y-86648535D01*
X135317107Y-86648535D01*
X135374249Y-86619964D01*
X135402821Y-86591392D01*
X134517107Y-86248535D02*
X134517107Y-86648535D01*
X134659964Y-86019964D02*
X134802821Y-86448535D01*
X134431392Y-86448535D01*
X147128607Y-83557178D02*
X147157178Y-83585750D01*
X147242893Y-83614321D01*
X147300035Y-83614321D01*
X147385750Y-83585750D01*
X147442893Y-83528607D01*
X147471464Y-83471464D01*
X147500035Y-83357178D01*
X147500035Y-83271464D01*
X147471464Y-83157178D01*
X147442893Y-83100035D01*
X147385750Y-83042893D01*
X147300035Y-83014321D01*
X147242893Y-83014321D01*
X147157178Y-83042893D01*
X147128607Y-83071464D01*
X146928607Y-83014321D02*
X146557178Y-83014321D01*
X146757178Y-83242893D01*
X146671464Y-83242893D01*
X146614321Y-83271464D01*
X146585750Y-83300035D01*
X146557178Y-83357178D01*
X146557178Y-83500035D01*
X146585750Y-83557178D01*
X146614321Y-83585750D01*
X146671464Y-83614321D01*
X146842893Y-83614321D01*
X146900035Y-83585750D01*
X146928607Y-83557178D01*
X146357178Y-83014321D02*
X145957178Y-83014321D01*
X146214321Y-83614321D01*
X156057178Y-99457178D02*
X156085750Y-99428607D01*
X156114321Y-99342893D01*
X156114321Y-99285750D01*
X156085750Y-99200035D01*
X156028607Y-99142893D01*
X155971464Y-99114321D01*
X155857178Y-99085750D01*
X155771464Y-99085750D01*
X155657178Y-99114321D01*
X155600035Y-99142893D01*
X155542893Y-99200035D01*
X155514321Y-99285750D01*
X155514321Y-99342893D01*
X155542893Y-99428607D01*
X155571464Y-99457178D01*
X155514321Y-99657178D02*
X155514321Y-100028607D01*
X155742893Y-99828607D01*
X155742893Y-99914321D01*
X155771464Y-99971464D01*
X155800035Y-100000035D01*
X155857178Y-100028607D01*
X156000035Y-100028607D01*
X156057178Y-100000035D01*
X156085750Y-99971464D01*
X156114321Y-99914321D01*
X156114321Y-99742893D01*
X156085750Y-99685750D01*
X156057178Y-99657178D01*
X155771464Y-100371464D02*
X155742893Y-100314321D01*
X155714321Y-100285750D01*
X155657178Y-100257178D01*
X155628607Y-100257178D01*
X155571464Y-100285750D01*
X155542893Y-100314321D01*
X155514321Y-100371464D01*
X155514321Y-100485750D01*
X155542893Y-100542893D01*
X155571464Y-100571464D01*
X155628607Y-100600035D01*
X155657178Y-100600035D01*
X155714321Y-100571464D01*
X155742893Y-100542893D01*
X155771464Y-100485750D01*
X155771464Y-100371464D01*
X155800035Y-100314321D01*
X155828607Y-100285750D01*
X155885750Y-100257178D01*
X156000035Y-100257178D01*
X156057178Y-100285750D01*
X156085750Y-100314321D01*
X156114321Y-100371464D01*
X156114321Y-100485750D01*
X156085750Y-100542893D01*
X156057178Y-100571464D01*
X156000035Y-100600035D01*
X155885750Y-100600035D01*
X155828607Y-100571464D01*
X155800035Y-100542893D01*
X155771464Y-100485750D01*
X150657178Y-80657178D02*
X150685750Y-80628607D01*
X150714321Y-80542893D01*
X150714321Y-80485750D01*
X150685750Y-80400035D01*
X150628607Y-80342893D01*
X150571464Y-80314321D01*
X150457178Y-80285750D01*
X150371464Y-80285750D01*
X150257178Y-80314321D01*
X150200035Y-80342893D01*
X150142893Y-80400035D01*
X150114321Y-80485750D01*
X150114321Y-80542893D01*
X150142893Y-80628607D01*
X150171464Y-80657178D01*
X150114321Y-80857178D02*
X150114321Y-81228607D01*
X150342893Y-81028607D01*
X150342893Y-81114321D01*
X150371464Y-81171464D01*
X150400035Y-81200035D01*
X150457178Y-81228607D01*
X150600035Y-81228607D01*
X150657178Y-81200035D01*
X150685750Y-81171464D01*
X150714321Y-81114321D01*
X150714321Y-80942893D01*
X150685750Y-80885750D01*
X150657178Y-80857178D01*
X150714321Y-81514321D02*
X150714321Y-81628607D01*
X150685750Y-81685750D01*
X150657178Y-81714321D01*
X150571464Y-81771464D01*
X150457178Y-81800035D01*
X150228607Y-81800035D01*
X150171464Y-81771464D01*
X150142893Y-81742893D01*
X150114321Y-81685750D01*
X150114321Y-81571464D01*
X150142893Y-81514321D01*
X150171464Y-81485750D01*
X150228607Y-81457178D01*
X150371464Y-81457178D01*
X150428607Y-81485750D01*
X150457178Y-81514321D01*
X150485750Y-81571464D01*
X150485750Y-81685750D01*
X150457178Y-81742893D01*
X150428607Y-81771464D01*
X150371464Y-81800035D01*
X155557178Y-106221392D02*
X155585750Y-106192821D01*
X155614321Y-106107107D01*
X155614321Y-106049964D01*
X155585750Y-105964249D01*
X155528607Y-105907107D01*
X155471464Y-105878535D01*
X155357178Y-105849964D01*
X155271464Y-105849964D01*
X155157178Y-105878535D01*
X155100035Y-105907107D01*
X155042893Y-105964249D01*
X155014321Y-106049964D01*
X155014321Y-106107107D01*
X155042893Y-106192821D01*
X155071464Y-106221392D01*
X155214321Y-106735678D02*
X155614321Y-106735678D01*
X154985750Y-106592821D02*
X155414321Y-106449964D01*
X155414321Y-106821392D01*
X155014321Y-107164249D02*
X155014321Y-107221392D01*
X155042893Y-107278535D01*
X155071464Y-107307107D01*
X155128607Y-107335678D01*
X155242893Y-107364249D01*
X155385750Y-107364249D01*
X155500035Y-107335678D01*
X155557178Y-107307107D01*
X155585750Y-107278535D01*
X155614321Y-107221392D01*
X155614321Y-107164249D01*
X155585750Y-107107107D01*
X155557178Y-107078535D01*
X155500035Y-107049964D01*
X155385750Y-107021392D01*
X155242893Y-107021392D01*
X155128607Y-107049964D01*
X155071464Y-107078535D01*
X155042893Y-107107107D01*
X155014321Y-107164249D01*
X150642893Y-73914321D02*
X150642893Y-74342893D01*
X150671464Y-74428607D01*
X150728607Y-74485750D01*
X150814321Y-74514321D01*
X150871464Y-74514321D01*
X150271464Y-74171464D02*
X150328607Y-74142893D01*
X150357178Y-74114321D01*
X150385750Y-74057178D01*
X150385750Y-74028607D01*
X150357178Y-73971464D01*
X150328607Y-73942893D01*
X150271464Y-73914321D01*
X150157178Y-73914321D01*
X150100035Y-73942893D01*
X150071464Y-73971464D01*
X150042893Y-74028607D01*
X150042893Y-74057178D01*
X150071464Y-74114321D01*
X150100035Y-74142893D01*
X150157178Y-74171464D01*
X150271464Y-74171464D01*
X150328607Y-74200035D01*
X150357178Y-74228607D01*
X150385750Y-74285750D01*
X150385750Y-74400035D01*
X150357178Y-74457178D01*
X150328607Y-74485750D01*
X150271464Y-74514321D01*
X150157178Y-74514321D01*
X150100035Y-74485750D01*
X150071464Y-74457178D01*
X150042893Y-74400035D01*
X150042893Y-74285750D01*
X150071464Y-74228607D01*
X150100035Y-74200035D01*
X150157178Y-74171464D01*
X163142893Y-76314321D02*
X163342893Y-76028607D01*
X163485750Y-76314321D02*
X163485750Y-75714321D01*
X163257178Y-75714321D01*
X163200035Y-75742893D01*
X163171464Y-75771464D01*
X163142893Y-75828607D01*
X163142893Y-75914321D01*
X163171464Y-75971464D01*
X163200035Y-76000035D01*
X163257178Y-76028607D01*
X163485750Y-76028607D01*
X162600035Y-75714321D02*
X162885750Y-75714321D01*
X162914321Y-76000035D01*
X162885750Y-75971464D01*
X162828607Y-75942893D01*
X162685750Y-75942893D01*
X162628607Y-75971464D01*
X162600035Y-76000035D01*
X162571464Y-76057178D01*
X162571464Y-76200035D01*
X162600035Y-76257178D01*
X162628607Y-76285750D01*
X162685750Y-76314321D01*
X162828607Y-76314321D01*
X162885750Y-76285750D01*
X162914321Y-76257178D01*
X145442893Y-109614321D02*
X145642893Y-109328607D01*
X145785750Y-109614321D02*
X145785750Y-109014321D01*
X145557178Y-109014321D01*
X145500035Y-109042893D01*
X145471464Y-109071464D01*
X145442893Y-109128607D01*
X145442893Y-109214321D01*
X145471464Y-109271464D01*
X145500035Y-109300035D01*
X145557178Y-109328607D01*
X145785750Y-109328607D01*
X144928607Y-109014321D02*
X145042893Y-109014321D01*
X145100035Y-109042893D01*
X145128607Y-109071464D01*
X145185750Y-109157178D01*
X145214321Y-109271464D01*
X145214321Y-109500035D01*
X145185750Y-109557178D01*
X145157178Y-109585750D01*
X145100035Y-109614321D01*
X144985750Y-109614321D01*
X144928607Y-109585750D01*
X144900035Y-109557178D01*
X144871464Y-109500035D01*
X144871464Y-109357178D01*
X144900035Y-109300035D01*
X144928607Y-109271464D01*
X144985750Y-109242893D01*
X145100035Y-109242893D01*
X145157178Y-109271464D01*
X145185750Y-109300035D01*
X145214321Y-109357178D01*
X136457107Y-99128535D02*
X136657107Y-98842821D01*
X136799964Y-99128535D02*
X136799964Y-98528535D01*
X136571392Y-98528535D01*
X136514249Y-98557107D01*
X136485678Y-98585678D01*
X136457107Y-98642821D01*
X136457107Y-98728535D01*
X136485678Y-98785678D01*
X136514249Y-98814249D01*
X136571392Y-98842821D01*
X136799964Y-98842821D01*
X136114249Y-98785678D02*
X136171392Y-98757107D01*
X136199964Y-98728535D01*
X136228535Y-98671392D01*
X136228535Y-98642821D01*
X136199964Y-98585678D01*
X136171392Y-98557107D01*
X136114249Y-98528535D01*
X135999964Y-98528535D01*
X135942821Y-98557107D01*
X135914249Y-98585678D01*
X135885678Y-98642821D01*
X135885678Y-98671392D01*
X135914249Y-98728535D01*
X135942821Y-98757107D01*
X135999964Y-98785678D01*
X136114249Y-98785678D01*
X136171392Y-98814249D01*
X136199964Y-98842821D01*
X136228535Y-98899964D01*
X136228535Y-99014249D01*
X136199964Y-99071392D01*
X136171392Y-99099964D01*
X136114249Y-99128535D01*
X135999964Y-99128535D01*
X135942821Y-99099964D01*
X135914249Y-99071392D01*
X135885678Y-99014249D01*
X135885678Y-98899964D01*
X135914249Y-98842821D01*
X135942821Y-98814249D01*
X135999964Y-98785678D01*
X161963928Y-109854285D02*
X161678214Y-109654285D01*
X161963928Y-109511428D02*
X161363928Y-109511428D01*
X161363928Y-109740000D01*
X161392500Y-109797142D01*
X161421071Y-109825714D01*
X161478214Y-109854285D01*
X161563928Y-109854285D01*
X161621071Y-109825714D01*
X161649642Y-109797142D01*
X161678214Y-109740000D01*
X161678214Y-109511428D01*
X161963928Y-110425714D02*
X161963928Y-110082857D01*
X161963928Y-110254285D02*
X161363928Y-110254285D01*
X161449642Y-110197142D01*
X161506785Y-110140000D01*
X161535357Y-110082857D01*
X161363928Y-110797142D02*
X161363928Y-110854285D01*
X161392500Y-110911428D01*
X161421071Y-110940000D01*
X161478214Y-110968571D01*
X161592500Y-110997142D01*
X161735357Y-110997142D01*
X161849642Y-110968571D01*
X161906785Y-110940000D01*
X161935357Y-110911428D01*
X161963928Y-110854285D01*
X161963928Y-110797142D01*
X161935357Y-110740000D01*
X161906785Y-110711428D01*
X161849642Y-110682857D01*
X161735357Y-110654285D01*
X161592500Y-110654285D01*
X161478214Y-110682857D01*
X161421071Y-110711428D01*
X161392500Y-110740000D01*
X161363928Y-110797142D01*
X163728607Y-80214321D02*
X163928607Y-79928607D01*
X164071464Y-80214321D02*
X164071464Y-79614321D01*
X163842893Y-79614321D01*
X163785750Y-79642893D01*
X163757178Y-79671464D01*
X163728607Y-79728607D01*
X163728607Y-79814321D01*
X163757178Y-79871464D01*
X163785750Y-79900035D01*
X163842893Y-79928607D01*
X164071464Y-79928607D01*
X163157178Y-80214321D02*
X163500035Y-80214321D01*
X163328607Y-80214321D02*
X163328607Y-79614321D01*
X163385750Y-79700035D01*
X163442893Y-79757178D01*
X163500035Y-79785750D01*
X162585750Y-80214321D02*
X162928607Y-80214321D01*
X162757178Y-80214321D02*
X162757178Y-79614321D01*
X162814321Y-79700035D01*
X162871464Y-79757178D01*
X162928607Y-79785750D01*
X163253204Y-109864285D02*
X162967490Y-109664285D01*
X163253204Y-109521428D02*
X162653204Y-109521428D01*
X162653204Y-109750000D01*
X162681776Y-109807142D01*
X162710347Y-109835714D01*
X162767490Y-109864285D01*
X162853204Y-109864285D01*
X162910347Y-109835714D01*
X162938918Y-109807142D01*
X162967490Y-109750000D01*
X162967490Y-109521428D01*
X163253204Y-110435714D02*
X163253204Y-110092857D01*
X163253204Y-110264285D02*
X162653204Y-110264285D01*
X162738918Y-110207142D01*
X162796061Y-110150000D01*
X162824633Y-110092857D01*
X162710347Y-110664285D02*
X162681776Y-110692857D01*
X162653204Y-110750000D01*
X162653204Y-110892857D01*
X162681776Y-110950000D01*
X162710347Y-110978571D01*
X162767490Y-111007142D01*
X162824633Y-111007142D01*
X162910347Y-110978571D01*
X163253204Y-110635714D01*
X163253204Y-111007142D01*
X158928607Y-91114321D02*
X159128607Y-90828607D01*
X159271464Y-91114321D02*
X159271464Y-90514321D01*
X159042893Y-90514321D01*
X158985750Y-90542893D01*
X158957178Y-90571464D01*
X158928607Y-90628607D01*
X158928607Y-90714321D01*
X158957178Y-90771464D01*
X158985750Y-90800035D01*
X159042893Y-90828607D01*
X159271464Y-90828607D01*
X158357178Y-91114321D02*
X158700035Y-91114321D01*
X158528607Y-91114321D02*
X158528607Y-90514321D01*
X158585750Y-90600035D01*
X158642893Y-90657178D01*
X158700035Y-90685750D01*
X158157178Y-90514321D02*
X157785750Y-90514321D01*
X157985750Y-90742893D01*
X157900035Y-90742893D01*
X157842893Y-90771464D01*
X157814321Y-90800035D01*
X157785750Y-90857178D01*
X157785750Y-91000035D01*
X157814321Y-91057178D01*
X157842893Y-91085750D01*
X157900035Y-91114321D01*
X158071464Y-91114321D01*
X158128607Y-91085750D01*
X158157178Y-91057178D01*
X164542480Y-109864285D02*
X164256766Y-109664285D01*
X164542480Y-109521428D02*
X163942480Y-109521428D01*
X163942480Y-109750000D01*
X163971052Y-109807142D01*
X163999623Y-109835714D01*
X164056766Y-109864285D01*
X164142480Y-109864285D01*
X164199623Y-109835714D01*
X164228194Y-109807142D01*
X164256766Y-109750000D01*
X164256766Y-109521428D01*
X164542480Y-110435714D02*
X164542480Y-110092857D01*
X164542480Y-110264285D02*
X163942480Y-110264285D01*
X164028194Y-110207142D01*
X164085337Y-110150000D01*
X164113909Y-110092857D01*
X164142480Y-110950000D02*
X164542480Y-110950000D01*
X163913909Y-110807142D02*
X164342480Y-110664285D01*
X164342480Y-111035714D01*
X158928607Y-97414321D02*
X159128607Y-97128607D01*
X159271464Y-97414321D02*
X159271464Y-96814321D01*
X159042893Y-96814321D01*
X158985750Y-96842893D01*
X158957178Y-96871464D01*
X158928607Y-96928607D01*
X158928607Y-97014321D01*
X158957178Y-97071464D01*
X158985750Y-97100035D01*
X159042893Y-97128607D01*
X159271464Y-97128607D01*
X158357178Y-97414321D02*
X158700035Y-97414321D01*
X158528607Y-97414321D02*
X158528607Y-96814321D01*
X158585750Y-96900035D01*
X158642893Y-96957178D01*
X158700035Y-96985750D01*
X157814321Y-96814321D02*
X158100035Y-96814321D01*
X158128607Y-97100035D01*
X158100035Y-97071464D01*
X158042893Y-97042893D01*
X157900035Y-97042893D01*
X157842893Y-97071464D01*
X157814321Y-97100035D01*
X157785750Y-97157178D01*
X157785750Y-97300035D01*
X157814321Y-97357178D01*
X157842893Y-97385750D01*
X157900035Y-97414321D01*
X158042893Y-97414321D01*
X158100035Y-97385750D01*
X158128607Y-97357178D01*
X165831756Y-109864285D02*
X165546042Y-109664285D01*
X165831756Y-109521428D02*
X165231756Y-109521428D01*
X165231756Y-109750000D01*
X165260328Y-109807142D01*
X165288899Y-109835714D01*
X165346042Y-109864285D01*
X165431756Y-109864285D01*
X165488899Y-109835714D01*
X165517470Y-109807142D01*
X165546042Y-109750000D01*
X165546042Y-109521428D01*
X165831756Y-110435714D02*
X165831756Y-110092857D01*
X165831756Y-110264285D02*
X165231756Y-110264285D01*
X165317470Y-110207142D01*
X165374613Y-110150000D01*
X165403185Y-110092857D01*
X165231756Y-110950000D02*
X165231756Y-110835714D01*
X165260328Y-110778571D01*
X165288899Y-110750000D01*
X165374613Y-110692857D01*
X165488899Y-110664285D01*
X165717470Y-110664285D01*
X165774613Y-110692857D01*
X165803185Y-110721428D01*
X165831756Y-110778571D01*
X165831756Y-110892857D01*
X165803185Y-110950000D01*
X165774613Y-110978571D01*
X165717470Y-111007142D01*
X165574613Y-111007142D01*
X165517470Y-110978571D01*
X165488899Y-110950000D01*
X165460328Y-110892857D01*
X165460328Y-110778571D01*
X165488899Y-110721428D01*
X165517470Y-110692857D01*
X165574613Y-110664285D01*
X158928607Y-103814321D02*
X159128607Y-103528607D01*
X159271464Y-103814321D02*
X159271464Y-103214321D01*
X159042893Y-103214321D01*
X158985750Y-103242893D01*
X158957178Y-103271464D01*
X158928607Y-103328607D01*
X158928607Y-103414321D01*
X158957178Y-103471464D01*
X158985750Y-103500035D01*
X159042893Y-103528607D01*
X159271464Y-103528607D01*
X158357178Y-103814321D02*
X158700035Y-103814321D01*
X158528607Y-103814321D02*
X158528607Y-103214321D01*
X158585750Y-103300035D01*
X158642893Y-103357178D01*
X158700035Y-103385750D01*
X158157178Y-103214321D02*
X157757178Y-103214321D01*
X158014321Y-103814321D01*
X167121032Y-109864285D02*
X166835318Y-109664285D01*
X167121032Y-109521428D02*
X166521032Y-109521428D01*
X166521032Y-109750000D01*
X166549604Y-109807142D01*
X166578175Y-109835714D01*
X166635318Y-109864285D01*
X166721032Y-109864285D01*
X166778175Y-109835714D01*
X166806746Y-109807142D01*
X166835318Y-109750000D01*
X166835318Y-109521428D01*
X167121032Y-110435714D02*
X167121032Y-110092857D01*
X167121032Y-110264285D02*
X166521032Y-110264285D01*
X166606746Y-110207142D01*
X166663889Y-110150000D01*
X166692461Y-110092857D01*
X166778175Y-110778571D02*
X166749604Y-110721428D01*
X166721032Y-110692857D01*
X166663889Y-110664285D01*
X166635318Y-110664285D01*
X166578175Y-110692857D01*
X166549604Y-110721428D01*
X166521032Y-110778571D01*
X166521032Y-110892857D01*
X166549604Y-110950000D01*
X166578175Y-110978571D01*
X166635318Y-111007142D01*
X166663889Y-111007142D01*
X166721032Y-110978571D01*
X166749604Y-110950000D01*
X166778175Y-110892857D01*
X166778175Y-110778571D01*
X166806746Y-110721428D01*
X166835318Y-110692857D01*
X166892461Y-110664285D01*
X167006746Y-110664285D01*
X167063889Y-110692857D01*
X167092461Y-110721428D01*
X167121032Y-110778571D01*
X167121032Y-110892857D01*
X167092461Y-110950000D01*
X167063889Y-110978571D01*
X167006746Y-111007142D01*
X166892461Y-111007142D01*
X166835318Y-110978571D01*
X166806746Y-110950000D01*
X166778175Y-110892857D01*
X160028607Y-107714321D02*
X160228607Y-107428607D01*
X160371464Y-107714321D02*
X160371464Y-107114321D01*
X160142893Y-107114321D01*
X160085750Y-107142893D01*
X160057178Y-107171464D01*
X160028607Y-107228607D01*
X160028607Y-107314321D01*
X160057178Y-107371464D01*
X160085750Y-107400035D01*
X160142893Y-107428607D01*
X160371464Y-107428607D01*
X159457178Y-107714321D02*
X159800035Y-107714321D01*
X159628607Y-107714321D02*
X159628607Y-107114321D01*
X159685750Y-107200035D01*
X159742893Y-107257178D01*
X159800035Y-107285750D01*
X159171464Y-107714321D02*
X159057178Y-107714321D01*
X159000035Y-107685750D01*
X158971464Y-107657178D01*
X158914321Y-107571464D01*
X158885750Y-107457178D01*
X158885750Y-107228607D01*
X158914321Y-107171464D01*
X158942893Y-107142893D01*
X159000035Y-107114321D01*
X159114321Y-107114321D01*
X159171464Y-107142893D01*
X159200035Y-107171464D01*
X159228607Y-107228607D01*
X159228607Y-107371464D01*
X159200035Y-107428607D01*
X159171464Y-107457178D01*
X159114321Y-107485750D01*
X159000035Y-107485750D01*
X158942893Y-107457178D01*
X158914321Y-107428607D01*
X158885750Y-107371464D01*
M02*
