G04 #@! TF.GenerationSoftware,KiCad,Pcbnew,(5.1.0-0)*
G04 #@! TF.CreationDate,2019-06-27T12:49:36+09:00*
G04 #@! TF.ProjectId,SwitchBlox,53776974-6368-4426-9c6f-782e6b696361,rev?*
G04 #@! TF.SameCoordinates,Original*
G04 #@! TF.FileFunction,Paste,Top*
G04 #@! TF.FilePolarity,Positive*
%FSLAX46Y46*%
G04 Gerber Fmt 4.6, Leading zero omitted, Abs format (unit mm)*
G04 Created by KiCad (PCBNEW (5.1.0-0)) date 2019-06-27 12:49:36*
%MOMM*%
%LPD*%
G04 APERTURE LIST*
%ADD10R,2.095000X0.900000*%
%ADD11R,3.500000X1.600000*%
%ADD12R,1.700000X0.760000*%
%ADD13R,0.900000X1.000000*%
%ADD14R,0.500000X0.600000*%
%ADD15R,0.600000X0.500000*%
%ADD16R,0.800000X0.800000*%
%ADD17R,0.400000X0.600000*%
G04 APERTURE END LIST*
D10*
X158632500Y-86945000D03*
X158632500Y-88215000D03*
X158632500Y-89485000D03*
X158632500Y-90755000D03*
X158632500Y-92025000D03*
X158632500Y-93295000D03*
X158632500Y-94565000D03*
X158632500Y-95835000D03*
X158632500Y-97105000D03*
X158632500Y-98375000D03*
X158632500Y-99645000D03*
X158632500Y-100915000D03*
X158632500Y-102185000D03*
X158632500Y-103455000D03*
X158632500Y-104725000D03*
X158632500Y-105995000D03*
X158632500Y-107265000D03*
X158632500Y-108535000D03*
X158632500Y-109805000D03*
X158632500Y-111075000D03*
X143967500Y-111075000D03*
X143967500Y-109805000D03*
X143967500Y-108535000D03*
X143967500Y-107265000D03*
X143967500Y-105995000D03*
X143967500Y-104725000D03*
X143967500Y-103455000D03*
X143967500Y-102185000D03*
X143967500Y-100915000D03*
X143967500Y-99645000D03*
X143967500Y-98375000D03*
X143967500Y-97105000D03*
X143967500Y-95835000D03*
X143967500Y-94565000D03*
X143967500Y-93295000D03*
X143967500Y-92025000D03*
X143967500Y-90755000D03*
X143967500Y-89485000D03*
X143967500Y-88215000D03*
X143967500Y-86945000D03*
D11*
X146560000Y-80340000D03*
X140960000Y-80340000D03*
D12*
X150060000Y-82445000D03*
X150060000Y-81175000D03*
X150060000Y-79905000D03*
X150060000Y-78635000D03*
X150060000Y-77365000D03*
X150060000Y-76095000D03*
X150060000Y-74825000D03*
X150060000Y-73555000D03*
X158860000Y-73555000D03*
X158860000Y-74825000D03*
X158860000Y-76095000D03*
X158860000Y-77365000D03*
X158860000Y-78635000D03*
X158860000Y-79905000D03*
X158860000Y-81175000D03*
X158860000Y-82445000D03*
D13*
X135517107Y-110747107D03*
X139617107Y-110747107D03*
X135517107Y-112347107D03*
X139617107Y-112347107D03*
D11*
X146560000Y-73450000D03*
X140960000Y-73450000D03*
D14*
X138242893Y-104792893D03*
X138242893Y-103692893D03*
X137700000Y-100910000D03*
X137700000Y-102010000D03*
D15*
X141450000Y-88100000D03*
X140350000Y-88100000D03*
D14*
X142100000Y-95650000D03*
X142100000Y-94550000D03*
X141900000Y-101050000D03*
X141900000Y-102150000D03*
D15*
X141120000Y-108340000D03*
X142220000Y-108340000D03*
D14*
X139342893Y-104780000D03*
X139342893Y-103680000D03*
D15*
X140270000Y-98850000D03*
X141370000Y-98850000D03*
X141370000Y-97950000D03*
X140270000Y-97950000D03*
X140350000Y-90300000D03*
X141450000Y-90300000D03*
X141450000Y-89200000D03*
X140350000Y-89200000D03*
D16*
X134920000Y-82180000D03*
X133320000Y-82180000D03*
X161442893Y-110790000D03*
X161442893Y-112390000D03*
X162792893Y-112390000D03*
X162792893Y-110790000D03*
X164148552Y-110790000D03*
X164148552Y-112390000D03*
X165492893Y-112390000D03*
X165492893Y-110790000D03*
X166842893Y-110790000D03*
X166842893Y-112390000D03*
D17*
X139242893Y-106042893D03*
X138342893Y-106042893D03*
X131420000Y-82180000D03*
X132320000Y-82180000D03*
M02*
