G04 #@! TF.GenerationSoftware,KiCad,Pcbnew,(5.1.0-0)*
G04 #@! TF.CreationDate,2019-06-27T12:49:36+09:00*
G04 #@! TF.ProjectId,SwitchBlox,53776974-6368-4426-9c6f-782e6b696361,rev?*
G04 #@! TF.SameCoordinates,Original*
G04 #@! TF.FileFunction,Soldermask,Bot*
G04 #@! TF.FilePolarity,Negative*
%FSLAX46Y46*%
G04 Gerber Fmt 4.6, Leading zero omitted, Abs format (unit mm)*
G04 Created by KiCad (PCBNEW (5.1.0-0)) date 2019-06-27 12:49:36*
%MOMM*%
%LPD*%
G04 APERTURE LIST*
%ADD10C,0.100000*%
G04 APERTURE END LIST*
D10*
G36*
X162170000Y-113008402D02*
G01*
X162172402Y-113032788D01*
X162179515Y-113056237D01*
X162191066Y-113077848D01*
X162205432Y-113099348D01*
X162210707Y-113109216D01*
X162226253Y-113128158D01*
X162245195Y-113143703D01*
X162266806Y-113155253D01*
X162290255Y-113162366D01*
X162314641Y-113164767D01*
X162339027Y-113162365D01*
X162362476Y-113155251D01*
X162384086Y-113143699D01*
X162403028Y-113128153D01*
X162418573Y-113109211D01*
X162423848Y-113099342D01*
X162438210Y-113077848D01*
X162449761Y-113056237D01*
X162456874Y-113032788D01*
X162459276Y-113008402D01*
X162459276Y-111290000D01*
X163459276Y-111290000D01*
X163459276Y-113008402D01*
X163461678Y-113032788D01*
X163468791Y-113056237D01*
X163480342Y-113077848D01*
X163494708Y-113099348D01*
X163499983Y-113109216D01*
X163515529Y-113128158D01*
X163534471Y-113143703D01*
X163556082Y-113155253D01*
X163579531Y-113162366D01*
X163603917Y-113164767D01*
X163628303Y-113162365D01*
X163651752Y-113155251D01*
X163673362Y-113143699D01*
X163692304Y-113128153D01*
X163707849Y-113109211D01*
X163713124Y-113099342D01*
X163727486Y-113077848D01*
X163739037Y-113056237D01*
X163746150Y-113032788D01*
X163748552Y-113008402D01*
X163748552Y-111290000D01*
X164748552Y-111290000D01*
X164748552Y-113008402D01*
X164750954Y-113032788D01*
X164758067Y-113056237D01*
X164769618Y-113077848D01*
X164783984Y-113099348D01*
X164789259Y-113109216D01*
X164804805Y-113128158D01*
X164823747Y-113143703D01*
X164845358Y-113155253D01*
X164868807Y-113162366D01*
X164893193Y-113164767D01*
X164917579Y-113162365D01*
X164941028Y-113155251D01*
X164962638Y-113143699D01*
X164981580Y-113128153D01*
X164997125Y-113109211D01*
X165002400Y-113099342D01*
X165016762Y-113077848D01*
X165028313Y-113056237D01*
X165035426Y-113032788D01*
X165037828Y-113008402D01*
X165037828Y-111290000D01*
X166037828Y-111290000D01*
X166037828Y-113008402D01*
X166040230Y-113032788D01*
X166047343Y-113056237D01*
X166058894Y-113077848D01*
X166073260Y-113099348D01*
X166078535Y-113109216D01*
X166094081Y-113128158D01*
X166113023Y-113143703D01*
X166134634Y-113155253D01*
X166158083Y-113162366D01*
X166182469Y-113164767D01*
X166206855Y-113162365D01*
X166230304Y-113155251D01*
X166251914Y-113143699D01*
X166270856Y-113128153D01*
X166286401Y-113109211D01*
X166291676Y-113099342D01*
X166306038Y-113077848D01*
X166317589Y-113056237D01*
X166324702Y-113032788D01*
X166327104Y-113008402D01*
X166327104Y-111290000D01*
X167327104Y-111290000D01*
X167327104Y-113008402D01*
X167329506Y-113032788D01*
X167336619Y-113056237D01*
X167348170Y-113077848D01*
X167358818Y-113093784D01*
X167404047Y-113202976D01*
X167427104Y-113318893D01*
X167427104Y-113437085D01*
X167404047Y-113553002D01*
X167358818Y-113662195D01*
X167293155Y-113760466D01*
X167209581Y-113844040D01*
X167111310Y-113909703D01*
X167002117Y-113954932D01*
X166886200Y-113977989D01*
X166768008Y-113977989D01*
X166652091Y-113954932D01*
X166542898Y-113909703D01*
X166444627Y-113844040D01*
X166361053Y-113760466D01*
X166291672Y-113656630D01*
X166286397Y-113646762D01*
X166270851Y-113627820D01*
X166251909Y-113612275D01*
X166230298Y-113600725D01*
X166206849Y-113593612D01*
X166182463Y-113591211D01*
X166158077Y-113593613D01*
X166134628Y-113600727D01*
X166113018Y-113612279D01*
X166094076Y-113627825D01*
X166078531Y-113646767D01*
X166073256Y-113656636D01*
X166003879Y-113760466D01*
X165920305Y-113844040D01*
X165822034Y-113909703D01*
X165712841Y-113954932D01*
X165596924Y-113977989D01*
X165478732Y-113977989D01*
X165362815Y-113954932D01*
X165253622Y-113909703D01*
X165155351Y-113844040D01*
X165071777Y-113760466D01*
X165002396Y-113656630D01*
X164997121Y-113646762D01*
X164981575Y-113627820D01*
X164962633Y-113612275D01*
X164941022Y-113600725D01*
X164917573Y-113593612D01*
X164893187Y-113591211D01*
X164868801Y-113593613D01*
X164845352Y-113600727D01*
X164823742Y-113612279D01*
X164804800Y-113627825D01*
X164789255Y-113646767D01*
X164783980Y-113656636D01*
X164714603Y-113760466D01*
X164631029Y-113844040D01*
X164532758Y-113909703D01*
X164423565Y-113954932D01*
X164307648Y-113977989D01*
X164189456Y-113977989D01*
X164073539Y-113954932D01*
X163964346Y-113909703D01*
X163866075Y-113844040D01*
X163782501Y-113760466D01*
X163713120Y-113656630D01*
X163707845Y-113646762D01*
X163692299Y-113627820D01*
X163673357Y-113612275D01*
X163651746Y-113600725D01*
X163628297Y-113593612D01*
X163603911Y-113591211D01*
X163579525Y-113593613D01*
X163556076Y-113600727D01*
X163534466Y-113612279D01*
X163515524Y-113627825D01*
X163499979Y-113646767D01*
X163494704Y-113656636D01*
X163425327Y-113760466D01*
X163341753Y-113844040D01*
X163243482Y-113909703D01*
X163134289Y-113954932D01*
X163018372Y-113977989D01*
X162900180Y-113977989D01*
X162784263Y-113954932D01*
X162675070Y-113909703D01*
X162576799Y-113844040D01*
X162493225Y-113760466D01*
X162423844Y-113656630D01*
X162418569Y-113646762D01*
X162403023Y-113627820D01*
X162384081Y-113612275D01*
X162362470Y-113600725D01*
X162339021Y-113593612D01*
X162314635Y-113591211D01*
X162290249Y-113593613D01*
X162266800Y-113600727D01*
X162245190Y-113612279D01*
X162226248Y-113627825D01*
X162210703Y-113646767D01*
X162205428Y-113656636D01*
X162136051Y-113760466D01*
X162052477Y-113844040D01*
X161954206Y-113909703D01*
X161845013Y-113954932D01*
X161729096Y-113977989D01*
X161610904Y-113977989D01*
X161494987Y-113954932D01*
X161385794Y-113909703D01*
X161287523Y-113844040D01*
X161203949Y-113760466D01*
X161138286Y-113662195D01*
X161093057Y-113553002D01*
X161070000Y-113437085D01*
X161070000Y-113318893D01*
X161093057Y-113202976D01*
X161138286Y-113093784D01*
X161148934Y-113077848D01*
X161160485Y-113056237D01*
X161167598Y-113032788D01*
X161170000Y-113008402D01*
X161170000Y-111290000D01*
X162170000Y-111290000D01*
X162170000Y-113008402D01*
X162170000Y-113008402D01*
G37*
G36*
X132398822Y-109127437D02*
G01*
X132799196Y-109293277D01*
X132799198Y-109293278D01*
X133159525Y-109534041D01*
X133465959Y-109840475D01*
X133651333Y-110117906D01*
X133706723Y-110200804D01*
X133872563Y-110601178D01*
X133957107Y-111026211D01*
X133957107Y-111459575D01*
X133872563Y-111884608D01*
X133727861Y-112233950D01*
X133706722Y-112284984D01*
X133465959Y-112645311D01*
X133159525Y-112951745D01*
X132799198Y-113192508D01*
X132799197Y-113192509D01*
X132799196Y-113192509D01*
X132398822Y-113358349D01*
X131973789Y-113442893D01*
X131540425Y-113442893D01*
X131115392Y-113358349D01*
X130715018Y-113192509D01*
X130715017Y-113192509D01*
X130715016Y-113192508D01*
X130354689Y-112951745D01*
X130048255Y-112645311D01*
X129807492Y-112284984D01*
X129786353Y-112233950D01*
X129641651Y-111884608D01*
X129557107Y-111459575D01*
X129557107Y-111026211D01*
X129641651Y-110601178D01*
X129807491Y-110200804D01*
X129862882Y-110117906D01*
X130048255Y-109840475D01*
X130354689Y-109534041D01*
X130715016Y-109293278D01*
X130715018Y-109293277D01*
X131115392Y-109127437D01*
X131540425Y-109042893D01*
X131973789Y-109042893D01*
X132398822Y-109127437D01*
X132398822Y-109127437D01*
G37*
G36*
X171384608Y-109127437D02*
G01*
X171784982Y-109293277D01*
X171784984Y-109293278D01*
X172145311Y-109534041D01*
X172451745Y-109840475D01*
X172637119Y-110117906D01*
X172692509Y-110200804D01*
X172858349Y-110601178D01*
X172942893Y-111026211D01*
X172942893Y-111459575D01*
X172858349Y-111884608D01*
X172713647Y-112233950D01*
X172692508Y-112284984D01*
X172451745Y-112645311D01*
X172145311Y-112951745D01*
X171784984Y-113192508D01*
X171784983Y-113192509D01*
X171784982Y-113192509D01*
X171384608Y-113358349D01*
X170959575Y-113442893D01*
X170526211Y-113442893D01*
X170101178Y-113358349D01*
X169700804Y-113192509D01*
X169700803Y-113192509D01*
X169700802Y-113192508D01*
X169340475Y-112951745D01*
X169034041Y-112645311D01*
X168793278Y-112284984D01*
X168772139Y-112233950D01*
X168627437Y-111884608D01*
X168542893Y-111459575D01*
X168542893Y-111026211D01*
X168627437Y-110601178D01*
X168793277Y-110200804D01*
X168848668Y-110117906D01*
X169034041Y-109840475D01*
X169340475Y-109534041D01*
X169700802Y-109293278D01*
X169700804Y-109293277D01*
X170101178Y-109127437D01*
X170526211Y-109042893D01*
X170959575Y-109042893D01*
X171384608Y-109127437D01*
X171384608Y-109127437D01*
G37*
G36*
X137417906Y-108465950D02*
G01*
X137527099Y-108511179D01*
X137625370Y-108576842D01*
X137708944Y-108660416D01*
X137774607Y-108758687D01*
X137819836Y-108867880D01*
X137842893Y-108983797D01*
X137842893Y-109110635D01*
X137842178Y-109117897D01*
X137844580Y-109142283D01*
X137851694Y-109165732D01*
X137863246Y-109187342D01*
X137878791Y-109206284D01*
X137897734Y-109221829D01*
X137919345Y-109233379D01*
X137942794Y-109240492D01*
X137967177Y-109242893D01*
X140942893Y-109242893D01*
X140942893Y-111968516D01*
X140929504Y-111979504D01*
X140913959Y-111998446D01*
X140902408Y-112020057D01*
X140895295Y-112043506D01*
X140892893Y-112067892D01*
X140892893Y-112992893D01*
X138792893Y-112992893D01*
X138792893Y-112067892D01*
X138790491Y-112043506D01*
X138783378Y-112020057D01*
X138771827Y-111998446D01*
X138756282Y-111979504D01*
X138737340Y-111963959D01*
X138715729Y-111952408D01*
X138692280Y-111945295D01*
X138667894Y-111942893D01*
X137858948Y-111942893D01*
X137834562Y-111945295D01*
X137811113Y-111952408D01*
X137789502Y-111963959D01*
X137770560Y-111979504D01*
X137755015Y-111998446D01*
X137743464Y-112020057D01*
X137736351Y-112043506D01*
X137733949Y-112067892D01*
X137736351Y-112092278D01*
X137743464Y-112115727D01*
X137755015Y-112137338D01*
X137770560Y-112156280D01*
X137789502Y-112171825D01*
X137882477Y-112233949D01*
X137966051Y-112317523D01*
X138031714Y-112415794D01*
X138076943Y-112524987D01*
X138100000Y-112640904D01*
X138100000Y-112759096D01*
X138076943Y-112875013D01*
X138031714Y-112984206D01*
X137966051Y-113082477D01*
X137882477Y-113166051D01*
X137784206Y-113231714D01*
X137675013Y-113276943D01*
X137559096Y-113300000D01*
X137440904Y-113300000D01*
X137324987Y-113276943D01*
X137215794Y-113231714D01*
X137117523Y-113166051D01*
X137033949Y-113082477D01*
X136968286Y-112984206D01*
X136923057Y-112875013D01*
X136900000Y-112759096D01*
X136900000Y-112640904D01*
X136923057Y-112524987D01*
X136968286Y-112415794D01*
X137033949Y-112317523D01*
X137117525Y-112233947D01*
X137135667Y-112221825D01*
X137154609Y-112206280D01*
X137170154Y-112187338D01*
X137181706Y-112165728D01*
X137188819Y-112142279D01*
X137191221Y-112117893D01*
X137188819Y-112093507D01*
X137181706Y-112070058D01*
X137170155Y-112048447D01*
X137154610Y-112029505D01*
X137135668Y-112013960D01*
X137114058Y-112002408D01*
X137090609Y-111995295D01*
X137066222Y-111992893D01*
X136592893Y-111992893D01*
X136592893Y-109892893D01*
X137517894Y-109892893D01*
X137542280Y-109890491D01*
X137565729Y-109883378D01*
X137587340Y-109871827D01*
X137606282Y-109856282D01*
X137621827Y-109837340D01*
X137633378Y-109815729D01*
X137640491Y-109792280D01*
X137642893Y-109767894D01*
X137642893Y-109713717D01*
X137640491Y-109689331D01*
X137633378Y-109665882D01*
X137621827Y-109644271D01*
X137606282Y-109625329D01*
X137587340Y-109609784D01*
X137565729Y-109598233D01*
X137542280Y-109591120D01*
X137517894Y-109588718D01*
X137493508Y-109591120D01*
X137470059Y-109598233D01*
X137417905Y-109619836D01*
X137301989Y-109642893D01*
X137183797Y-109642893D01*
X137067880Y-109619836D01*
X136958687Y-109574607D01*
X136860416Y-109508944D01*
X136776842Y-109425370D01*
X136711179Y-109327099D01*
X136665950Y-109217906D01*
X136642893Y-109101989D01*
X136642893Y-108983797D01*
X136665950Y-108867880D01*
X136711179Y-108758687D01*
X136776842Y-108660416D01*
X136860416Y-108576842D01*
X136958687Y-108511179D01*
X137067880Y-108465950D01*
X137183797Y-108442893D01*
X137301989Y-108442893D01*
X137417906Y-108465950D01*
X137417906Y-108465950D01*
G37*
G36*
X143717906Y-111865950D02*
G01*
X143827099Y-111911179D01*
X143925370Y-111976842D01*
X144008944Y-112060416D01*
X144074607Y-112158687D01*
X144119836Y-112267880D01*
X144142893Y-112383797D01*
X144142893Y-112501989D01*
X144119836Y-112617906D01*
X144074607Y-112727099D01*
X144008944Y-112825370D01*
X143925370Y-112908944D01*
X143827099Y-112974607D01*
X143717906Y-113019836D01*
X143601989Y-113042893D01*
X143483797Y-113042893D01*
X143367880Y-113019836D01*
X143258687Y-112974607D01*
X143160416Y-112908944D01*
X143076842Y-112825370D01*
X143011179Y-112727099D01*
X142965950Y-112617906D01*
X142942893Y-112501989D01*
X142942893Y-112383797D01*
X142965950Y-112267880D01*
X143011179Y-112158687D01*
X143076842Y-112060416D01*
X143160416Y-111976842D01*
X143258687Y-111911179D01*
X143367880Y-111865950D01*
X143483797Y-111842893D01*
X143601989Y-111842893D01*
X143717906Y-111865950D01*
X143717906Y-111865950D01*
G37*
G36*
X153817906Y-109365950D02*
G01*
X153927099Y-109411179D01*
X154025370Y-109476842D01*
X154108944Y-109560416D01*
X154174607Y-109658687D01*
X154219836Y-109767880D01*
X154242893Y-109883797D01*
X154242893Y-110001989D01*
X154219836Y-110117906D01*
X154174607Y-110227099D01*
X154108944Y-110325370D01*
X154025370Y-110408944D01*
X153927099Y-110474607D01*
X153817906Y-110519836D01*
X153701989Y-110542893D01*
X153583797Y-110542893D01*
X153467880Y-110519836D01*
X153358687Y-110474607D01*
X153260416Y-110408944D01*
X153176842Y-110325370D01*
X153111179Y-110227099D01*
X153065950Y-110117906D01*
X153042893Y-110001989D01*
X153042893Y-109883797D01*
X153065950Y-109767880D01*
X153111179Y-109658687D01*
X153176842Y-109560416D01*
X153260416Y-109476842D01*
X153358687Y-109411179D01*
X153467880Y-109365950D01*
X153583797Y-109342893D01*
X153701989Y-109342893D01*
X153817906Y-109365950D01*
X153817906Y-109365950D01*
G37*
G36*
X135717906Y-108765950D02*
G01*
X135827099Y-108811179D01*
X135925370Y-108876842D01*
X136008944Y-108960416D01*
X136074607Y-109058687D01*
X136119836Y-109167880D01*
X136142893Y-109283797D01*
X136142893Y-109401989D01*
X136119836Y-109517906D01*
X136074607Y-109627099D01*
X136008944Y-109725370D01*
X135925370Y-109808944D01*
X135827099Y-109874607D01*
X135717906Y-109919836D01*
X135601989Y-109942893D01*
X135483797Y-109942893D01*
X135367880Y-109919836D01*
X135258687Y-109874607D01*
X135160416Y-109808944D01*
X135076842Y-109725370D01*
X135011179Y-109627099D01*
X134965950Y-109517906D01*
X134942893Y-109401989D01*
X134942893Y-109283797D01*
X134965950Y-109167880D01*
X135011179Y-109058687D01*
X135076842Y-108960416D01*
X135160416Y-108876842D01*
X135258687Y-108811179D01*
X135367880Y-108765950D01*
X135483797Y-108742893D01*
X135601989Y-108742893D01*
X135717906Y-108765950D01*
X135717906Y-108765950D01*
G37*
G36*
X152810000Y-107590000D02*
G01*
X149240303Y-107590000D01*
X149215917Y-107592402D01*
X149192468Y-107599515D01*
X149170857Y-107611066D01*
X149151915Y-107626611D01*
X149136370Y-107645553D01*
X149124819Y-107667164D01*
X149117706Y-107690613D01*
X149115304Y-107714999D01*
X149117706Y-107739385D01*
X149124819Y-107762834D01*
X149136370Y-107784445D01*
X149151915Y-107803387D01*
X149208944Y-107860416D01*
X149274607Y-107958687D01*
X149319836Y-108067880D01*
X149342893Y-108183797D01*
X149342893Y-108301989D01*
X149319836Y-108417906D01*
X149274607Y-108527099D01*
X149208942Y-108625373D01*
X149179807Y-108654509D01*
X149164262Y-108673451D01*
X149152711Y-108695061D01*
X149145598Y-108718511D01*
X149143197Y-108742897D01*
X149145599Y-108767283D01*
X149152713Y-108790732D01*
X149164264Y-108812342D01*
X149179808Y-108831283D01*
X149208944Y-108860419D01*
X149274607Y-108958690D01*
X149319836Y-109067883D01*
X149342893Y-109183800D01*
X149342893Y-109301992D01*
X149319836Y-109417909D01*
X149274607Y-109527102D01*
X149208944Y-109625373D01*
X149125370Y-109708947D01*
X149027099Y-109774610D01*
X148917906Y-109819839D01*
X148801989Y-109842896D01*
X148683797Y-109842896D01*
X148567880Y-109819839D01*
X148458687Y-109774610D01*
X148360416Y-109708947D01*
X148276842Y-109625373D01*
X148211179Y-109527102D01*
X148165950Y-109417909D01*
X148142893Y-109301992D01*
X148142893Y-109183800D01*
X148165950Y-109067883D01*
X148211179Y-108958690D01*
X148276843Y-108860417D01*
X148305977Y-108831284D01*
X148321523Y-108812342D01*
X148333074Y-108790732D01*
X148340188Y-108767283D01*
X148342590Y-108742897D01*
X148340189Y-108718511D01*
X148333076Y-108695061D01*
X148321525Y-108673451D01*
X148305979Y-108654507D01*
X148276842Y-108625370D01*
X148211179Y-108527099D01*
X148165950Y-108417906D01*
X148142893Y-108301989D01*
X148142893Y-108183797D01*
X148165950Y-108067880D01*
X148211179Y-107958687D01*
X148276842Y-107860416D01*
X148333871Y-107803387D01*
X148349416Y-107784445D01*
X148360967Y-107762834D01*
X148368080Y-107739385D01*
X148370482Y-107714999D01*
X148368080Y-107690613D01*
X148360967Y-107667164D01*
X148349416Y-107645553D01*
X148333871Y-107626611D01*
X148314929Y-107611066D01*
X148293318Y-107599515D01*
X148269869Y-107592402D01*
X148245483Y-107590000D01*
X146574999Y-107590000D01*
X146550613Y-107592402D01*
X146527164Y-107599515D01*
X146505553Y-107611066D01*
X146486611Y-107626611D01*
X146471066Y-107645553D01*
X146459515Y-107667164D01*
X146452402Y-107690613D01*
X146450000Y-107714999D01*
X146450000Y-108550000D01*
X144350000Y-108550000D01*
X144350000Y-107714999D01*
X144347598Y-107690613D01*
X144340485Y-107667164D01*
X144328934Y-107645553D01*
X144313389Y-107626611D01*
X144294447Y-107611066D01*
X144272836Y-107599515D01*
X144249387Y-107592402D01*
X144225001Y-107590000D01*
X140788063Y-107590000D01*
X140763677Y-107592402D01*
X140740228Y-107599515D01*
X140718617Y-107611066D01*
X140699675Y-107626611D01*
X140684130Y-107645553D01*
X140672579Y-107667164D01*
X140665466Y-107690613D01*
X140663064Y-107714999D01*
X140665466Y-107739385D01*
X140672579Y-107762834D01*
X140684131Y-107784446D01*
X140691714Y-107795794D01*
X140736943Y-107904987D01*
X140760000Y-108020904D01*
X140760000Y-108139096D01*
X140736943Y-108255013D01*
X140691714Y-108364206D01*
X140626051Y-108462477D01*
X140542477Y-108546051D01*
X140444206Y-108611714D01*
X140335013Y-108656943D01*
X140219096Y-108680000D01*
X140100904Y-108680000D01*
X139984987Y-108656943D01*
X139875794Y-108611714D01*
X139777523Y-108546051D01*
X139693949Y-108462477D01*
X139628286Y-108364206D01*
X139583057Y-108255013D01*
X139560000Y-108139096D01*
X139560000Y-108020904D01*
X139583057Y-107904987D01*
X139628287Y-107795792D01*
X139668934Y-107734959D01*
X139680485Y-107713349D01*
X139687598Y-107689900D01*
X139690000Y-107665514D01*
X139690000Y-105590000D01*
X152810000Y-105590000D01*
X152810000Y-107590000D01*
X152810000Y-107590000D01*
G37*
G36*
X147642893Y-109842893D02*
G01*
X145942893Y-109842893D01*
X145942893Y-108842893D01*
X147642893Y-108842893D01*
X147642893Y-109842893D01*
X147642893Y-109842893D01*
G37*
G36*
X151317906Y-107965950D02*
G01*
X151427099Y-108011179D01*
X151525370Y-108076842D01*
X151608944Y-108160416D01*
X151674607Y-108258687D01*
X151719836Y-108367880D01*
X151742893Y-108483797D01*
X151742893Y-108601989D01*
X151719836Y-108717906D01*
X151674607Y-108827099D01*
X151608944Y-108925370D01*
X151525370Y-109008944D01*
X151427099Y-109074607D01*
X151317906Y-109119836D01*
X151201989Y-109142893D01*
X151083797Y-109142893D01*
X150967880Y-109119836D01*
X150858687Y-109074607D01*
X150760416Y-109008944D01*
X150676842Y-108925370D01*
X150611179Y-108827099D01*
X150565950Y-108717906D01*
X150542893Y-108601989D01*
X150542893Y-108483797D01*
X150565950Y-108367880D01*
X150611179Y-108258687D01*
X150676842Y-108160416D01*
X150760416Y-108076842D01*
X150858687Y-108011179D01*
X150967880Y-107965950D01*
X151083797Y-107942893D01*
X151201989Y-107942893D01*
X151317906Y-107965950D01*
X151317906Y-107965950D01*
G37*
G36*
X157175013Y-101608057D02*
G01*
X157284206Y-101653286D01*
X157382477Y-101718949D01*
X157466051Y-101802523D01*
X157531714Y-101900794D01*
X157576943Y-102009987D01*
X157600000Y-102125904D01*
X157600000Y-102244096D01*
X157576943Y-102360013D01*
X157536391Y-102457913D01*
X157531713Y-102469207D01*
X157524819Y-102479524D01*
X157521066Y-102485141D01*
X157509515Y-102506752D01*
X157502402Y-102530201D01*
X157500000Y-102554587D01*
X157500000Y-104345623D01*
X157486611Y-104356611D01*
X157471066Y-104375553D01*
X157459515Y-104397164D01*
X157452402Y-104420613D01*
X157450000Y-104444999D01*
X157450000Y-106527489D01*
X157452402Y-106551875D01*
X157459515Y-106575324D01*
X157465998Y-106590975D01*
X157489055Y-106706892D01*
X157489055Y-106805001D01*
X157491457Y-106829387D01*
X157498570Y-106852836D01*
X157510121Y-106874447D01*
X157525666Y-106893389D01*
X157544608Y-106908934D01*
X157566219Y-106920485D01*
X157589668Y-106927598D01*
X157614054Y-106930000D01*
X158140000Y-106930000D01*
X158140000Y-107905001D01*
X158142402Y-107929387D01*
X158149515Y-107952836D01*
X158161066Y-107974447D01*
X158176611Y-107993389D01*
X158195553Y-108008934D01*
X158217164Y-108020485D01*
X158240613Y-108027598D01*
X158264999Y-108030000D01*
X159937896Y-108030000D01*
X159962282Y-108027598D01*
X159985731Y-108020485D01*
X160007342Y-108008934D01*
X160015793Y-108003287D01*
X160015795Y-108003286D01*
X160124987Y-107958057D01*
X160240904Y-107935000D01*
X160359096Y-107935000D01*
X160475013Y-107958057D01*
X160584206Y-108003286D01*
X160682477Y-108068949D01*
X160766051Y-108152523D01*
X160831714Y-108250794D01*
X160876943Y-108359987D01*
X160900000Y-108475904D01*
X160900000Y-108594096D01*
X160876943Y-108710013D01*
X160831714Y-108819206D01*
X160766051Y-108917477D01*
X160682477Y-109001051D01*
X160584206Y-109066714D01*
X160475013Y-109111943D01*
X160359096Y-109135000D01*
X160240904Y-109135000D01*
X160124987Y-109111943D01*
X160015795Y-109066714D01*
X160015794Y-109066714D01*
X160015793Y-109066713D01*
X159992375Y-109051065D01*
X159970765Y-109039515D01*
X159947316Y-109032402D01*
X159922930Y-109030000D01*
X157240000Y-109030000D01*
X157240000Y-107457132D01*
X157237598Y-107432746D01*
X157230485Y-107409297D01*
X157218934Y-107387686D01*
X157203389Y-107368744D01*
X157184447Y-107353199D01*
X157162836Y-107341648D01*
X157139387Y-107334535D01*
X157115001Y-107332133D01*
X157090615Y-107334535D01*
X157067169Y-107341647D01*
X157064070Y-107342930D01*
X156948151Y-107365988D01*
X156829959Y-107365988D01*
X156714042Y-107342931D01*
X156604849Y-107297702D01*
X156506578Y-107232039D01*
X156423004Y-107148465D01*
X156357341Y-107050194D01*
X156312112Y-106941001D01*
X156289055Y-106825084D01*
X156289055Y-106706892D01*
X156312112Y-106590975D01*
X156357341Y-106481782D01*
X156423004Y-106383511D01*
X156513389Y-106293126D01*
X156528934Y-106274184D01*
X156540485Y-106252573D01*
X156547598Y-106229124D01*
X156550000Y-106204738D01*
X156550000Y-104444999D01*
X156547598Y-104420613D01*
X156540485Y-104397164D01*
X156528934Y-104375553D01*
X156513389Y-104356611D01*
X156500000Y-104345623D01*
X156500000Y-102554587D01*
X156497598Y-102530201D01*
X156490485Y-102506752D01*
X156478934Y-102485141D01*
X156475181Y-102479524D01*
X156468287Y-102469207D01*
X156463609Y-102457913D01*
X156423057Y-102360013D01*
X156400000Y-102244096D01*
X156400000Y-102125904D01*
X156423057Y-102009987D01*
X156468286Y-101900794D01*
X156533949Y-101802523D01*
X156617523Y-101718949D01*
X156715794Y-101653286D01*
X156824987Y-101608057D01*
X156940904Y-101585000D01*
X157059096Y-101585000D01*
X157175013Y-101608057D01*
X157175013Y-101608057D01*
G37*
G36*
X154740000Y-107649694D02*
G01*
X154742402Y-107674080D01*
X154749515Y-107697529D01*
X154761066Y-107719140D01*
X154776611Y-107738082D01*
X154795553Y-107753627D01*
X154817164Y-107765178D01*
X154840613Y-107772291D01*
X154945013Y-107793057D01*
X155054206Y-107838286D01*
X155152477Y-107903949D01*
X155236051Y-107987523D01*
X155301714Y-108085794D01*
X155346943Y-108194987D01*
X155370000Y-108310904D01*
X155370000Y-108429096D01*
X155346943Y-108545013D01*
X155301714Y-108654206D01*
X155236051Y-108752477D01*
X155152477Y-108836051D01*
X155054206Y-108901714D01*
X154945013Y-108946943D01*
X154829096Y-108970000D01*
X154710904Y-108970000D01*
X154594987Y-108946943D01*
X154485794Y-108901714D01*
X154387523Y-108836051D01*
X154303949Y-108752477D01*
X154238286Y-108654206D01*
X154193057Y-108545013D01*
X154170000Y-108429096D01*
X154170000Y-108310904D01*
X154193057Y-108194987D01*
X154238286Y-108085794D01*
X154303949Y-107987523D01*
X154387525Y-107903947D01*
X154454895Y-107858932D01*
X154473837Y-107843387D01*
X154489383Y-107824445D01*
X154500934Y-107802834D01*
X154508047Y-107779385D01*
X154510449Y-107754999D01*
X154508047Y-107730613D01*
X154500934Y-107707164D01*
X154489383Y-107685554D01*
X154473838Y-107666612D01*
X154454896Y-107651066D01*
X154433285Y-107639515D01*
X154409836Y-107632402D01*
X154385450Y-107630000D01*
X153840000Y-107630000D01*
X153840000Y-105530000D01*
X154740000Y-105530000D01*
X154740000Y-107649694D01*
X154740000Y-107649694D01*
G37*
G36*
X138517906Y-106565950D02*
G01*
X138627099Y-106611179D01*
X138725370Y-106676842D01*
X138808944Y-106760416D01*
X138874607Y-106858687D01*
X138919836Y-106967880D01*
X138942893Y-107083797D01*
X138942893Y-107201989D01*
X138919836Y-107317906D01*
X138874607Y-107427099D01*
X138808944Y-107525370D01*
X138725370Y-107608944D01*
X138627099Y-107674607D01*
X138517906Y-107719836D01*
X138401989Y-107742893D01*
X138283797Y-107742893D01*
X138167880Y-107719836D01*
X138058687Y-107674607D01*
X137960416Y-107608944D01*
X137876842Y-107525370D01*
X137811179Y-107427099D01*
X137765950Y-107317906D01*
X137742893Y-107201989D01*
X137742893Y-107083797D01*
X137765950Y-106967880D01*
X137811179Y-106858687D01*
X137876842Y-106760416D01*
X137960416Y-106676842D01*
X138058687Y-106611179D01*
X138167880Y-106565950D01*
X138283797Y-106542893D01*
X138401989Y-106542893D01*
X138517906Y-106565950D01*
X138517906Y-106565950D01*
G37*
G36*
X171365998Y-104408280D02*
G01*
X171377423Y-104409405D01*
X171414370Y-104420613D01*
X171499948Y-104446573D01*
X171612868Y-104506930D01*
X171711843Y-104588157D01*
X171793070Y-104687132D01*
X171853427Y-104800052D01*
X171853427Y-104800053D01*
X171888886Y-104916942D01*
X171890595Y-104922578D01*
X171900000Y-105018069D01*
X171900000Y-105481932D01*
X171891771Y-105565486D01*
X171890595Y-105577423D01*
X171885918Y-105592840D01*
X171853427Y-105699948D01*
X171793070Y-105812868D01*
X171711843Y-105911843D01*
X171612867Y-105993070D01*
X171499947Y-106053427D01*
X171438684Y-106072011D01*
X171377422Y-106090595D01*
X171365997Y-106091720D01*
X171250000Y-106103145D01*
X171134002Y-106091720D01*
X171122577Y-106090595D01*
X171061315Y-106072011D01*
X171000052Y-106053427D01*
X170887132Y-105993070D01*
X170788157Y-105911843D01*
X170721620Y-105830767D01*
X170704299Y-105813446D01*
X170683925Y-105799832D01*
X170661286Y-105790455D01*
X170637253Y-105785674D01*
X170612749Y-105785674D01*
X170588715Y-105790454D01*
X170566076Y-105799831D01*
X170545702Y-105813445D01*
X170528383Y-105830764D01*
X170461843Y-105911843D01*
X170362867Y-105993070D01*
X170249947Y-106053427D01*
X170188684Y-106072011D01*
X170127422Y-106090595D01*
X170115997Y-106091720D01*
X170000000Y-106103145D01*
X169884002Y-106091720D01*
X169872577Y-106090595D01*
X169811315Y-106072011D01*
X169750052Y-106053427D01*
X169637132Y-105993070D01*
X169538157Y-105911843D01*
X169471620Y-105830767D01*
X169454299Y-105813446D01*
X169433925Y-105799832D01*
X169411286Y-105790455D01*
X169387253Y-105785674D01*
X169362749Y-105785674D01*
X169338715Y-105790454D01*
X169316076Y-105799831D01*
X169295702Y-105813445D01*
X169278383Y-105830764D01*
X169211843Y-105911843D01*
X169112867Y-105993070D01*
X168999947Y-106053427D01*
X168938684Y-106072011D01*
X168877422Y-106090595D01*
X168865997Y-106091720D01*
X168750000Y-106103145D01*
X168634002Y-106091720D01*
X168622577Y-106090595D01*
X168561315Y-106072011D01*
X168500052Y-106053427D01*
X168387132Y-105993070D01*
X168288157Y-105911843D01*
X168221620Y-105830767D01*
X168204299Y-105813446D01*
X168183925Y-105799832D01*
X168161286Y-105790455D01*
X168137253Y-105785674D01*
X168112749Y-105785674D01*
X168088715Y-105790454D01*
X168066076Y-105799831D01*
X168045702Y-105813445D01*
X168028383Y-105830764D01*
X167961843Y-105911843D01*
X167862867Y-105993070D01*
X167749947Y-106053427D01*
X167688684Y-106072011D01*
X167627422Y-106090595D01*
X167615997Y-106091720D01*
X167500000Y-106103145D01*
X167384002Y-106091720D01*
X167372577Y-106090595D01*
X167311315Y-106072011D01*
X167250052Y-106053427D01*
X167137132Y-105993070D01*
X167038157Y-105911843D01*
X166971620Y-105830767D01*
X166954299Y-105813446D01*
X166933925Y-105799832D01*
X166911286Y-105790455D01*
X166887253Y-105785674D01*
X166862749Y-105785674D01*
X166838715Y-105790454D01*
X166816076Y-105799831D01*
X166795702Y-105813445D01*
X166778383Y-105830764D01*
X166711843Y-105911843D01*
X166612867Y-105993070D01*
X166499947Y-106053427D01*
X166438684Y-106072011D01*
X166377422Y-106090595D01*
X166365997Y-106091720D01*
X166250000Y-106103145D01*
X166134002Y-106091720D01*
X166122577Y-106090595D01*
X166061315Y-106072011D01*
X166000052Y-106053427D01*
X165887132Y-105993070D01*
X165788157Y-105911843D01*
X165706930Y-105812867D01*
X165646573Y-105699947D01*
X165627989Y-105638684D01*
X165609405Y-105577422D01*
X165608229Y-105565485D01*
X165600000Y-105481931D01*
X165600000Y-105018068D01*
X165609405Y-104922578D01*
X165611115Y-104916942D01*
X165646573Y-104800053D01*
X165646573Y-104800052D01*
X165706930Y-104687132D01*
X165788158Y-104588157D01*
X165887133Y-104506930D01*
X166000053Y-104446573D01*
X166085631Y-104420613D01*
X166122578Y-104409405D01*
X166134003Y-104408280D01*
X166250000Y-104396855D01*
X166365998Y-104408280D01*
X166377423Y-104409405D01*
X166414370Y-104420613D01*
X166499948Y-104446573D01*
X166612868Y-104506930D01*
X166711843Y-104588157D01*
X166778383Y-104669236D01*
X166795701Y-104686554D01*
X166816075Y-104700168D01*
X166838714Y-104709545D01*
X166862747Y-104714326D01*
X166887251Y-104714326D01*
X166911285Y-104709546D01*
X166933924Y-104700169D01*
X166954298Y-104686555D01*
X166971618Y-104669235D01*
X167038158Y-104588157D01*
X167137133Y-104506930D01*
X167250053Y-104446573D01*
X167335631Y-104420613D01*
X167372578Y-104409405D01*
X167384003Y-104408280D01*
X167500000Y-104396855D01*
X167615998Y-104408280D01*
X167627423Y-104409405D01*
X167664370Y-104420613D01*
X167749948Y-104446573D01*
X167862868Y-104506930D01*
X167961843Y-104588157D01*
X168028383Y-104669236D01*
X168045701Y-104686554D01*
X168066075Y-104700168D01*
X168088714Y-104709545D01*
X168112747Y-104714326D01*
X168137251Y-104714326D01*
X168161285Y-104709546D01*
X168183924Y-104700169D01*
X168204298Y-104686555D01*
X168221618Y-104669235D01*
X168288158Y-104588157D01*
X168387133Y-104506930D01*
X168500053Y-104446573D01*
X168585631Y-104420613D01*
X168622578Y-104409405D01*
X168634003Y-104408280D01*
X168750000Y-104396855D01*
X168865998Y-104408280D01*
X168877423Y-104409405D01*
X168914370Y-104420613D01*
X168999948Y-104446573D01*
X169112868Y-104506930D01*
X169211843Y-104588157D01*
X169278383Y-104669236D01*
X169295701Y-104686554D01*
X169316075Y-104700168D01*
X169338714Y-104709545D01*
X169362747Y-104714326D01*
X169387251Y-104714326D01*
X169411285Y-104709546D01*
X169433924Y-104700169D01*
X169454298Y-104686555D01*
X169471618Y-104669235D01*
X169538158Y-104588157D01*
X169637133Y-104506930D01*
X169750053Y-104446573D01*
X169835631Y-104420613D01*
X169872578Y-104409405D01*
X169884003Y-104408280D01*
X170000000Y-104396855D01*
X170115998Y-104408280D01*
X170127423Y-104409405D01*
X170164370Y-104420613D01*
X170249948Y-104446573D01*
X170362868Y-104506930D01*
X170461843Y-104588157D01*
X170528383Y-104669236D01*
X170545701Y-104686554D01*
X170566075Y-104700168D01*
X170588714Y-104709545D01*
X170612747Y-104714326D01*
X170637251Y-104714326D01*
X170661285Y-104709546D01*
X170683924Y-104700169D01*
X170704298Y-104686555D01*
X170721618Y-104669235D01*
X170788158Y-104588157D01*
X170887133Y-104506930D01*
X171000053Y-104446573D01*
X171085631Y-104420613D01*
X171122578Y-104409405D01*
X171134003Y-104408280D01*
X171250000Y-104396855D01*
X171365998Y-104408280D01*
X171365998Y-104408280D01*
G37*
G36*
X136208891Y-104301173D02*
G01*
X136220316Y-104302298D01*
X136247726Y-104310613D01*
X136342841Y-104339466D01*
X136455761Y-104399823D01*
X136554736Y-104481050D01*
X136635963Y-104580025D01*
X136696320Y-104692945D01*
X136701356Y-104709546D01*
X136730631Y-104806051D01*
X136733488Y-104815471D01*
X136742893Y-104910962D01*
X136742893Y-105374825D01*
X136734664Y-105458379D01*
X136733488Y-105470316D01*
X136729964Y-105481932D01*
X136696320Y-105592841D01*
X136635963Y-105705761D01*
X136554736Y-105804736D01*
X136455760Y-105885963D01*
X136342840Y-105946320D01*
X136281577Y-105964904D01*
X136220315Y-105983488D01*
X136208890Y-105984613D01*
X136092893Y-105996038D01*
X135976895Y-105984613D01*
X135965470Y-105983488D01*
X135904208Y-105964904D01*
X135842945Y-105946320D01*
X135730025Y-105885963D01*
X135631050Y-105804736D01*
X135564513Y-105723660D01*
X135547192Y-105706339D01*
X135526818Y-105692725D01*
X135504179Y-105683348D01*
X135480146Y-105678567D01*
X135455642Y-105678567D01*
X135431608Y-105683347D01*
X135408969Y-105692724D01*
X135388595Y-105706338D01*
X135371276Y-105723657D01*
X135304736Y-105804736D01*
X135205760Y-105885963D01*
X135092840Y-105946320D01*
X135031577Y-105964904D01*
X134970315Y-105983488D01*
X134958890Y-105984613D01*
X134842893Y-105996038D01*
X134726895Y-105984613D01*
X134715470Y-105983488D01*
X134654208Y-105964904D01*
X134592945Y-105946320D01*
X134480025Y-105885963D01*
X134381050Y-105804736D01*
X134314513Y-105723660D01*
X134297192Y-105706339D01*
X134276818Y-105692725D01*
X134254179Y-105683348D01*
X134230146Y-105678567D01*
X134205642Y-105678567D01*
X134181608Y-105683347D01*
X134158969Y-105692724D01*
X134138595Y-105706338D01*
X134121276Y-105723657D01*
X134054736Y-105804736D01*
X133955760Y-105885963D01*
X133842840Y-105946320D01*
X133781577Y-105964904D01*
X133720315Y-105983488D01*
X133708890Y-105984613D01*
X133592893Y-105996038D01*
X133476895Y-105984613D01*
X133465470Y-105983488D01*
X133404208Y-105964904D01*
X133342945Y-105946320D01*
X133230025Y-105885963D01*
X133131050Y-105804736D01*
X133064513Y-105723660D01*
X133047192Y-105706339D01*
X133026818Y-105692725D01*
X133004179Y-105683348D01*
X132980146Y-105678567D01*
X132955642Y-105678567D01*
X132931608Y-105683347D01*
X132908969Y-105692724D01*
X132888595Y-105706338D01*
X132871276Y-105723657D01*
X132804736Y-105804736D01*
X132705760Y-105885963D01*
X132592840Y-105946320D01*
X132531577Y-105964904D01*
X132470315Y-105983488D01*
X132458890Y-105984613D01*
X132342893Y-105996038D01*
X132226895Y-105984613D01*
X132215470Y-105983488D01*
X132154208Y-105964904D01*
X132092945Y-105946320D01*
X131980025Y-105885963D01*
X131881050Y-105804736D01*
X131814513Y-105723660D01*
X131797192Y-105706339D01*
X131776818Y-105692725D01*
X131754179Y-105683348D01*
X131730146Y-105678567D01*
X131705642Y-105678567D01*
X131681608Y-105683347D01*
X131658969Y-105692724D01*
X131638595Y-105706338D01*
X131621276Y-105723657D01*
X131554736Y-105804736D01*
X131455760Y-105885963D01*
X131342840Y-105946320D01*
X131281577Y-105964904D01*
X131220315Y-105983488D01*
X131208890Y-105984613D01*
X131092893Y-105996038D01*
X130976895Y-105984613D01*
X130965470Y-105983488D01*
X130904208Y-105964904D01*
X130842945Y-105946320D01*
X130730025Y-105885963D01*
X130631050Y-105804736D01*
X130549823Y-105705760D01*
X130489466Y-105592840D01*
X130455820Y-105481924D01*
X130452298Y-105470315D01*
X130451122Y-105458378D01*
X130442893Y-105374824D01*
X130442893Y-104910961D01*
X130452298Y-104815471D01*
X130455156Y-104806051D01*
X130484430Y-104709546D01*
X130489466Y-104692945D01*
X130549823Y-104580025D01*
X130631051Y-104481050D01*
X130730026Y-104399823D01*
X130842946Y-104339466D01*
X130938061Y-104310613D01*
X130965471Y-104302298D01*
X130976896Y-104301173D01*
X131092893Y-104289748D01*
X131208891Y-104301173D01*
X131220316Y-104302298D01*
X131247726Y-104310613D01*
X131342841Y-104339466D01*
X131455761Y-104399823D01*
X131554736Y-104481050D01*
X131621276Y-104562129D01*
X131638594Y-104579447D01*
X131658968Y-104593061D01*
X131681607Y-104602438D01*
X131705640Y-104607219D01*
X131730144Y-104607219D01*
X131754178Y-104602439D01*
X131776817Y-104593062D01*
X131797191Y-104579448D01*
X131814511Y-104562128D01*
X131881051Y-104481050D01*
X131980026Y-104399823D01*
X132092946Y-104339466D01*
X132188061Y-104310613D01*
X132215471Y-104302298D01*
X132226896Y-104301173D01*
X132342893Y-104289748D01*
X132458891Y-104301173D01*
X132470316Y-104302298D01*
X132497726Y-104310613D01*
X132592841Y-104339466D01*
X132705761Y-104399823D01*
X132804736Y-104481050D01*
X132871276Y-104562129D01*
X132888594Y-104579447D01*
X132908968Y-104593061D01*
X132931607Y-104602438D01*
X132955640Y-104607219D01*
X132980144Y-104607219D01*
X133004178Y-104602439D01*
X133026817Y-104593062D01*
X133047191Y-104579448D01*
X133064511Y-104562128D01*
X133131051Y-104481050D01*
X133230026Y-104399823D01*
X133342946Y-104339466D01*
X133438061Y-104310613D01*
X133465471Y-104302298D01*
X133476896Y-104301173D01*
X133592893Y-104289748D01*
X133708891Y-104301173D01*
X133720316Y-104302298D01*
X133747726Y-104310613D01*
X133842841Y-104339466D01*
X133955761Y-104399823D01*
X134054736Y-104481050D01*
X134121276Y-104562129D01*
X134138594Y-104579447D01*
X134158968Y-104593061D01*
X134181607Y-104602438D01*
X134205640Y-104607219D01*
X134230144Y-104607219D01*
X134254178Y-104602439D01*
X134276817Y-104593062D01*
X134297191Y-104579448D01*
X134314511Y-104562128D01*
X134381051Y-104481050D01*
X134480026Y-104399823D01*
X134592946Y-104339466D01*
X134688061Y-104310613D01*
X134715471Y-104302298D01*
X134726896Y-104301173D01*
X134842893Y-104289748D01*
X134958891Y-104301173D01*
X134970316Y-104302298D01*
X134997726Y-104310613D01*
X135092841Y-104339466D01*
X135205761Y-104399823D01*
X135304736Y-104481050D01*
X135371276Y-104562129D01*
X135388594Y-104579447D01*
X135408968Y-104593061D01*
X135431607Y-104602438D01*
X135455640Y-104607219D01*
X135480144Y-104607219D01*
X135504178Y-104602439D01*
X135526817Y-104593062D01*
X135547191Y-104579448D01*
X135564511Y-104562128D01*
X135631051Y-104481050D01*
X135730026Y-104399823D01*
X135842946Y-104339466D01*
X135938061Y-104310613D01*
X135965471Y-104302298D01*
X135976896Y-104301173D01*
X136092893Y-104289748D01*
X136208891Y-104301173D01*
X136208891Y-104301173D01*
G37*
G36*
X137803750Y-83850165D02*
G01*
X138003936Y-83933085D01*
X138003938Y-83933086D01*
X138094631Y-83993685D01*
X138184101Y-84053467D01*
X138337319Y-84206685D01*
X138457701Y-84386850D01*
X138540621Y-84587036D01*
X138582893Y-84799551D01*
X138582893Y-85016235D01*
X138540621Y-85228750D01*
X138457701Y-85428936D01*
X138337319Y-85609101D01*
X138184101Y-85762319D01*
X138126109Y-85801068D01*
X138107168Y-85816613D01*
X138091622Y-85835555D01*
X138080071Y-85857166D01*
X138072958Y-85880615D01*
X138070556Y-85905001D01*
X138072958Y-85929387D01*
X138080071Y-85952836D01*
X138091622Y-85974447D01*
X138107167Y-85993388D01*
X138126109Y-86008934D01*
X138147720Y-86020485D01*
X138171169Y-86027598D01*
X138195555Y-86030000D01*
X139250000Y-86030000D01*
X139250000Y-93789675D01*
X139252402Y-93814061D01*
X139259515Y-93837510D01*
X139271066Y-93859121D01*
X139286611Y-93878063D01*
X139305553Y-93893608D01*
X139327164Y-93905159D01*
X139350613Y-93912272D01*
X139374999Y-93914674D01*
X139399385Y-93912272D01*
X139422834Y-93905159D01*
X139444445Y-93893608D01*
X139463387Y-93878063D01*
X139467533Y-93873917D01*
X139565804Y-93808254D01*
X139674997Y-93763025D01*
X139790914Y-93739968D01*
X139909106Y-93739968D01*
X140025798Y-93763179D01*
X140047746Y-93769837D01*
X140072132Y-93772238D01*
X140096518Y-93769836D01*
X140119967Y-93762722D01*
X140141577Y-93751170D01*
X140160519Y-93735624D01*
X140176064Y-93716682D01*
X140187614Y-93695071D01*
X140194727Y-93671622D01*
X140197128Y-93647236D01*
X140194726Y-93622852D01*
X140190000Y-93599094D01*
X140190000Y-93480904D01*
X140213057Y-93364987D01*
X140258286Y-93255794D01*
X140323949Y-93157523D01*
X140407523Y-93073949D01*
X140505794Y-93008286D01*
X140614987Y-92963057D01*
X140730904Y-92940000D01*
X140849096Y-92940000D01*
X140965013Y-92963057D01*
X141074206Y-93008286D01*
X141172477Y-93073949D01*
X141256051Y-93157523D01*
X141321714Y-93255794D01*
X141366943Y-93364987D01*
X141390000Y-93480904D01*
X141390000Y-93599096D01*
X141366943Y-93715013D01*
X141318500Y-93831965D01*
X141314838Y-93838814D01*
X141307723Y-93862263D01*
X141305319Y-93886649D01*
X141307719Y-93911035D01*
X141314830Y-93934485D01*
X141326379Y-93956096D01*
X141341922Y-93975040D01*
X141360863Y-93990587D01*
X141382472Y-94002140D01*
X141405931Y-94009257D01*
X141425035Y-94013057D01*
X141534228Y-94058286D01*
X141632499Y-94123949D01*
X141716073Y-94207523D01*
X141781736Y-94305794D01*
X141826965Y-94414987D01*
X141850022Y-94530904D01*
X141850022Y-94649096D01*
X141826965Y-94765013D01*
X141781736Y-94874206D01*
X141716073Y-94972477D01*
X141632499Y-95056051D01*
X141534228Y-95121714D01*
X141425035Y-95166943D01*
X141309118Y-95190000D01*
X141190926Y-95190000D01*
X141075009Y-95166943D01*
X140965816Y-95121714D01*
X140867545Y-95056051D01*
X140783971Y-94972477D01*
X140718308Y-94874206D01*
X140673079Y-94765013D01*
X140650022Y-94649096D01*
X140650022Y-94604857D01*
X140647620Y-94580471D01*
X140640507Y-94557022D01*
X140628956Y-94535411D01*
X140613411Y-94516469D01*
X140594469Y-94500924D01*
X140572858Y-94489373D01*
X140549409Y-94482260D01*
X140525023Y-94479858D01*
X140500637Y-94482260D01*
X140477188Y-94489373D01*
X140455577Y-94500924D01*
X140436635Y-94516469D01*
X140421090Y-94535411D01*
X140409539Y-94557022D01*
X140381724Y-94624173D01*
X140316061Y-94722445D01*
X140232487Y-94806019D01*
X140134216Y-94871682D01*
X140025023Y-94916911D01*
X139909106Y-94939968D01*
X139790914Y-94939968D01*
X139674997Y-94916911D01*
X139565804Y-94871682D01*
X139467533Y-94806019D01*
X139463387Y-94801873D01*
X139444445Y-94786328D01*
X139422834Y-94774777D01*
X139399385Y-94767664D01*
X139374999Y-94765262D01*
X139350613Y-94767664D01*
X139327164Y-94774777D01*
X139305553Y-94786328D01*
X139286611Y-94801873D01*
X139271066Y-94820815D01*
X139259515Y-94842426D01*
X139252402Y-94865875D01*
X139250000Y-94890261D01*
X139250000Y-101784025D01*
X139252402Y-101808411D01*
X139259515Y-101831860D01*
X139271066Y-101853471D01*
X139286611Y-101872413D01*
X139305553Y-101887958D01*
X139327164Y-101899509D01*
X139350613Y-101906622D01*
X139374999Y-101909024D01*
X139399385Y-101906622D01*
X139422834Y-101899509D01*
X139444445Y-101887958D01*
X139463387Y-101872413D01*
X139478932Y-101853470D01*
X139532555Y-101773217D01*
X139616131Y-101689641D01*
X139714402Y-101623978D01*
X139823595Y-101578749D01*
X139939512Y-101555692D01*
X140057704Y-101555692D01*
X140173621Y-101578749D01*
X140282814Y-101623978D01*
X140381085Y-101689641D01*
X140410223Y-101718779D01*
X140429165Y-101734324D01*
X140450776Y-101745875D01*
X140474225Y-101752988D01*
X140498611Y-101755390D01*
X140522997Y-101752988D01*
X140546446Y-101745875D01*
X140568057Y-101734324D01*
X140586999Y-101718779D01*
X140616137Y-101689641D01*
X140714408Y-101623978D01*
X140823601Y-101578749D01*
X140939518Y-101555692D01*
X141057710Y-101555692D01*
X141173627Y-101578749D01*
X141282820Y-101623978D01*
X141381091Y-101689641D01*
X141464665Y-101773215D01*
X141530328Y-101871486D01*
X141575557Y-101980679D01*
X141598614Y-102096596D01*
X141598614Y-102214788D01*
X141575557Y-102330705D01*
X141530328Y-102439898D01*
X141464665Y-102538169D01*
X141381091Y-102621743D01*
X141282820Y-102687406D01*
X141173627Y-102732635D01*
X141057710Y-102755692D01*
X140939518Y-102755692D01*
X140823601Y-102732635D01*
X140714408Y-102687406D01*
X140616137Y-102621743D01*
X140586999Y-102592605D01*
X140568057Y-102577060D01*
X140546446Y-102565509D01*
X140522997Y-102558396D01*
X140498611Y-102555994D01*
X140474225Y-102558396D01*
X140450776Y-102565509D01*
X140429165Y-102577060D01*
X140410223Y-102592605D01*
X140381085Y-102621743D01*
X140282814Y-102687406D01*
X140173621Y-102732635D01*
X140057704Y-102755692D01*
X139939512Y-102755692D01*
X139823595Y-102732635D01*
X139714402Y-102687406D01*
X139616131Y-102621743D01*
X139532555Y-102538167D01*
X139478932Y-102457914D01*
X139463387Y-102438972D01*
X139444445Y-102423426D01*
X139422834Y-102411875D01*
X139399386Y-102404762D01*
X139374999Y-102402360D01*
X139350613Y-102404762D01*
X139327164Y-102411875D01*
X139305554Y-102423426D01*
X139286612Y-102438971D01*
X139271066Y-102457913D01*
X139259515Y-102479524D01*
X139252402Y-102502972D01*
X139250000Y-102527359D01*
X139250000Y-105150000D01*
X137250000Y-105150000D01*
X137250000Y-102820972D01*
X137247598Y-102796586D01*
X137240485Y-102773137D01*
X137228934Y-102751526D01*
X137213389Y-102732584D01*
X137194447Y-102717039D01*
X137172836Y-102705488D01*
X137149387Y-102698375D01*
X137125001Y-102695973D01*
X137100615Y-102698375D01*
X137077166Y-102705488D01*
X136965013Y-102751943D01*
X136849096Y-102775000D01*
X136730904Y-102775000D01*
X136614987Y-102751943D01*
X136505794Y-102706714D01*
X136407523Y-102641051D01*
X136323949Y-102557477D01*
X136258286Y-102459206D01*
X136213057Y-102350013D01*
X136190000Y-102234096D01*
X136190000Y-102115904D01*
X136213057Y-101999987D01*
X136258286Y-101890794D01*
X136323949Y-101792523D01*
X136407523Y-101708949D01*
X136505794Y-101643286D01*
X136617794Y-101596895D01*
X136635456Y-101591537D01*
X136657067Y-101579985D01*
X136676008Y-101564440D01*
X136691554Y-101545498D01*
X136703104Y-101523887D01*
X136710217Y-101500438D01*
X136710363Y-101498948D01*
X136927379Y-101498948D01*
X136929781Y-101523334D01*
X136936894Y-101546783D01*
X136948446Y-101568394D01*
X136963991Y-101587335D01*
X136982933Y-101602881D01*
X137004544Y-101614431D01*
X137077167Y-101644512D01*
X137100616Y-101651625D01*
X137125002Y-101654027D01*
X137149388Y-101651625D01*
X137172837Y-101644512D01*
X137194447Y-101632961D01*
X137213389Y-101617415D01*
X137228934Y-101598473D01*
X137240485Y-101576862D01*
X137247598Y-101553413D01*
X137250000Y-101529028D01*
X137250000Y-101470824D01*
X137247598Y-101446438D01*
X137240485Y-101422989D01*
X137228934Y-101401378D01*
X137213389Y-101382436D01*
X137194447Y-101366891D01*
X137172836Y-101355340D01*
X137149387Y-101348227D01*
X137125001Y-101345825D01*
X137100615Y-101348227D01*
X137077167Y-101355340D01*
X137022209Y-101378104D01*
X137004542Y-101383463D01*
X136982931Y-101395015D01*
X136963990Y-101410560D01*
X136948444Y-101429502D01*
X136936894Y-101451113D01*
X136929781Y-101474562D01*
X136927379Y-101498948D01*
X136710363Y-101498948D01*
X136712619Y-101476052D01*
X136710217Y-101451666D01*
X136703104Y-101428217D01*
X136691552Y-101406606D01*
X136676007Y-101387665D01*
X136657065Y-101372119D01*
X136635455Y-101360569D01*
X136565793Y-101331714D01*
X136565792Y-101331714D01*
X136565791Y-101331713D01*
X136467520Y-101266050D01*
X136383947Y-101182477D01*
X136318284Y-101084206D01*
X136273055Y-100975013D01*
X136249998Y-100859096D01*
X136249998Y-100740904D01*
X136273055Y-100624987D01*
X136318284Y-100515794D01*
X136383947Y-100417523D01*
X136467521Y-100333949D01*
X136565792Y-100268286D01*
X136674985Y-100223057D01*
X136790902Y-100200000D01*
X136909094Y-100200000D01*
X137025013Y-100223058D01*
X137077167Y-100244660D01*
X137100616Y-100251773D01*
X137125002Y-100254175D01*
X137149388Y-100251773D01*
X137172837Y-100244660D01*
X137194448Y-100233108D01*
X137213389Y-100217563D01*
X137228934Y-100198621D01*
X137240485Y-100177010D01*
X137247598Y-100153561D01*
X137250000Y-100129176D01*
X137250000Y-98585824D01*
X137247598Y-98561438D01*
X137240485Y-98537989D01*
X137228934Y-98516378D01*
X137213389Y-98497436D01*
X137194447Y-98481891D01*
X137172836Y-98470340D01*
X137149387Y-98463227D01*
X137125001Y-98460825D01*
X137100615Y-98463227D01*
X137077166Y-98470340D01*
X137025012Y-98491943D01*
X136909096Y-98515000D01*
X136790904Y-98515000D01*
X136674987Y-98491943D01*
X136565794Y-98446714D01*
X136467523Y-98381051D01*
X136383949Y-98297477D01*
X136318286Y-98199206D01*
X136273057Y-98090013D01*
X136250000Y-97974096D01*
X136250000Y-97855904D01*
X136273057Y-97739988D01*
X136300873Y-97672834D01*
X136307986Y-97649385D01*
X136310388Y-97624999D01*
X136307986Y-97600613D01*
X136300873Y-97577164D01*
X136289322Y-97555553D01*
X136273777Y-97536611D01*
X136254835Y-97521066D01*
X136233224Y-97509515D01*
X136209775Y-97502402D01*
X136185389Y-97500000D01*
X135524999Y-97500000D01*
X135500613Y-97502402D01*
X135477164Y-97509515D01*
X135455553Y-97521066D01*
X135436611Y-97536611D01*
X135421066Y-97555553D01*
X135409515Y-97577164D01*
X135402402Y-97600613D01*
X135400000Y-97624999D01*
X135400000Y-98200000D01*
X134074999Y-98200000D01*
X134050613Y-98202402D01*
X134027164Y-98209515D01*
X134005553Y-98221066D01*
X133986611Y-98236611D01*
X133971066Y-98255553D01*
X133959515Y-98277164D01*
X133952402Y-98300613D01*
X133950000Y-98324999D01*
X133950000Y-98350000D01*
X132550000Y-98350000D01*
X132550000Y-97425303D01*
X132547598Y-97400917D01*
X132540485Y-97377468D01*
X132528934Y-97355857D01*
X132513389Y-97336915D01*
X132494447Y-97321370D01*
X132472836Y-97309819D01*
X132449387Y-97302706D01*
X132425001Y-97300304D01*
X132400615Y-97302706D01*
X132377166Y-97309819D01*
X132355555Y-97321370D01*
X132336613Y-97336915D01*
X132322477Y-97351051D01*
X132224206Y-97416714D01*
X132115013Y-97461943D01*
X131999096Y-97485000D01*
X131880904Y-97485000D01*
X131764987Y-97461943D01*
X131655794Y-97416714D01*
X131550627Y-97346444D01*
X131544445Y-97341370D01*
X131522834Y-97329819D01*
X131499385Y-97322706D01*
X131474999Y-97320304D01*
X131450613Y-97322706D01*
X131427164Y-97329819D01*
X131405553Y-97341370D01*
X131386611Y-97356915D01*
X131371066Y-97375857D01*
X131359515Y-97397468D01*
X131352402Y-97420917D01*
X131350000Y-97445303D01*
X131350000Y-98350000D01*
X131300824Y-98350000D01*
X131276438Y-98352402D01*
X131252989Y-98359515D01*
X131231378Y-98371066D01*
X131212436Y-98386611D01*
X131196891Y-98405553D01*
X131185340Y-98427164D01*
X131178227Y-98450613D01*
X131175825Y-98474999D01*
X131178227Y-98499385D01*
X131185340Y-98522834D01*
X131206943Y-98574988D01*
X131231687Y-98699387D01*
X131238800Y-98722836D01*
X131250351Y-98744446D01*
X131265896Y-98763388D01*
X131284838Y-98778934D01*
X131306448Y-98790485D01*
X131329897Y-98797598D01*
X131354284Y-98800000D01*
X133540000Y-98800000D01*
X133540000Y-99700000D01*
X131440000Y-99700000D01*
X131440000Y-98990775D01*
X131437598Y-98966389D01*
X131430485Y-98942940D01*
X131418934Y-98921329D01*
X131403389Y-98902387D01*
X131384447Y-98886842D01*
X131362836Y-98875291D01*
X131339387Y-98868178D01*
X131315001Y-98865776D01*
X131290615Y-98868178D01*
X131267166Y-98875291D01*
X131245555Y-98886842D01*
X131226613Y-98902387D01*
X131211068Y-98921329D01*
X131199517Y-98942940D01*
X131161714Y-99034206D01*
X131096051Y-99132477D01*
X131012477Y-99216051D01*
X130914206Y-99281714D01*
X130805013Y-99326943D01*
X130689096Y-99350000D01*
X130570904Y-99350000D01*
X130454987Y-99326943D01*
X130345794Y-99281714D01*
X130247523Y-99216051D01*
X130163949Y-99132477D01*
X130098286Y-99034206D01*
X130053057Y-98925013D01*
X130030000Y-98809096D01*
X130030000Y-98690904D01*
X130053057Y-98574988D01*
X130074660Y-98522834D01*
X130081773Y-98499386D01*
X130084175Y-98474999D01*
X130081773Y-98450613D01*
X130074660Y-98427164D01*
X130063109Y-98405554D01*
X130047564Y-98386612D01*
X130028622Y-98371066D01*
X130007011Y-98359515D01*
X129983563Y-98352402D01*
X129959176Y-98350000D01*
X129950000Y-98350000D01*
X129950000Y-96574999D01*
X132471328Y-96574999D01*
X132473730Y-96599385D01*
X132480843Y-96622834D01*
X132516943Y-96709987D01*
X132540000Y-96825904D01*
X132540000Y-96944096D01*
X132516943Y-97060012D01*
X132493269Y-97117166D01*
X132486156Y-97140615D01*
X132483754Y-97165001D01*
X132486156Y-97189387D01*
X132493269Y-97212836D01*
X132504820Y-97234446D01*
X132520365Y-97253388D01*
X132539307Y-97268934D01*
X132560918Y-97280485D01*
X132584367Y-97287598D01*
X132608753Y-97290000D01*
X133471937Y-97290000D01*
X133496323Y-97287598D01*
X133519772Y-97280485D01*
X133541383Y-97268934D01*
X133560325Y-97253389D01*
X133575870Y-97234447D01*
X133587421Y-97212836D01*
X133594534Y-97189387D01*
X133596936Y-97165001D01*
X133594534Y-97140615D01*
X133587421Y-97117166D01*
X133575869Y-97095554D01*
X133568286Y-97084206D01*
X133523057Y-96975013D01*
X133500000Y-96859096D01*
X133500000Y-96740904D01*
X133523057Y-96624987D01*
X133523949Y-96622834D01*
X133531062Y-96599385D01*
X133533464Y-96574998D01*
X133531062Y-96550612D01*
X133523949Y-96527163D01*
X133512398Y-96505553D01*
X133496852Y-96486611D01*
X133477910Y-96471066D01*
X133456300Y-96459515D01*
X133432851Y-96452402D01*
X133408465Y-96450000D01*
X132596327Y-96450000D01*
X132571941Y-96452402D01*
X132548492Y-96459515D01*
X132526881Y-96471066D01*
X132507939Y-96486611D01*
X132492394Y-96505553D01*
X132480843Y-96527164D01*
X132473730Y-96550613D01*
X132471328Y-96574999D01*
X129950000Y-96574999D01*
X129950000Y-95390000D01*
X130225001Y-95390000D01*
X130249387Y-95387598D01*
X130272836Y-95380485D01*
X130294447Y-95368934D01*
X130313389Y-95353389D01*
X130328934Y-95334447D01*
X130340485Y-95312836D01*
X130347598Y-95289387D01*
X130350000Y-95265001D01*
X130350000Y-94681338D01*
X130347598Y-94656952D01*
X130340485Y-94633503D01*
X130328934Y-94611892D01*
X130313389Y-94592950D01*
X130294447Y-94577405D01*
X130247524Y-94546052D01*
X130163949Y-94462477D01*
X130098286Y-94364206D01*
X130053057Y-94255013D01*
X130030000Y-94139096D01*
X130030000Y-94020904D01*
X130053057Y-93904987D01*
X130098286Y-93795794D01*
X130163949Y-93697523D01*
X130247523Y-93613949D01*
X130345794Y-93548286D01*
X130454987Y-93503057D01*
X130570904Y-93480000D01*
X130689096Y-93480000D01*
X130805013Y-93503057D01*
X130914206Y-93548286D01*
X131012477Y-93613949D01*
X131096051Y-93697523D01*
X131161714Y-93795794D01*
X131206943Y-93904987D01*
X131230000Y-94020904D01*
X131230000Y-94139096D01*
X131206943Y-94255013D01*
X131206051Y-94257166D01*
X131198938Y-94280615D01*
X131196536Y-94305002D01*
X131198938Y-94329388D01*
X131206051Y-94352837D01*
X131217602Y-94374447D01*
X131233148Y-94393389D01*
X131252090Y-94408934D01*
X131273700Y-94420485D01*
X131297149Y-94427598D01*
X131321535Y-94430000D01*
X132450000Y-94430000D01*
X132450000Y-95265001D01*
X132452402Y-95289387D01*
X132459515Y-95312836D01*
X132471066Y-95334447D01*
X132477092Y-95341790D01*
X132472836Y-95339515D01*
X132449387Y-95332402D01*
X132425001Y-95330000D01*
X131474999Y-95330000D01*
X131450613Y-95332402D01*
X131427164Y-95339515D01*
X131405553Y-95351066D01*
X131386611Y-95366611D01*
X131371066Y-95385553D01*
X131359515Y-95407164D01*
X131352402Y-95430613D01*
X131350000Y-95454999D01*
X131350000Y-96324697D01*
X131352402Y-96349083D01*
X131359515Y-96372532D01*
X131371066Y-96394143D01*
X131386611Y-96413085D01*
X131405553Y-96428630D01*
X131427164Y-96440181D01*
X131450613Y-96447294D01*
X131474999Y-96449696D01*
X131499385Y-96447294D01*
X131522834Y-96440181D01*
X131544445Y-96428630D01*
X131550627Y-96423556D01*
X131655794Y-96353286D01*
X131764987Y-96308057D01*
X131880904Y-96285000D01*
X131999096Y-96285000D01*
X132115013Y-96308057D01*
X132224206Y-96353286D01*
X132322477Y-96418949D01*
X132336613Y-96433085D01*
X132355555Y-96448630D01*
X132377166Y-96460181D01*
X132400615Y-96467294D01*
X132425001Y-96469696D01*
X132449387Y-96467294D01*
X132472836Y-96460181D01*
X132494447Y-96448630D01*
X132513389Y-96433085D01*
X132528934Y-96414143D01*
X132540485Y-96392532D01*
X132545803Y-96374999D01*
X135672394Y-96374999D01*
X135674796Y-96399385D01*
X135685590Y-96430900D01*
X135685591Y-96430902D01*
X135698646Y-96451640D01*
X135715494Y-96469432D01*
X135735491Y-96483595D01*
X135757866Y-96493585D01*
X135781760Y-96499018D01*
X135797394Y-96500000D01*
X136121937Y-96500000D01*
X136146323Y-96497598D01*
X136169772Y-96490485D01*
X136191383Y-96478934D01*
X136210325Y-96463389D01*
X136225870Y-96444447D01*
X136237421Y-96422836D01*
X136244534Y-96399387D01*
X136246936Y-96375001D01*
X136244534Y-96350615D01*
X136237421Y-96327166D01*
X136225870Y-96305555D01*
X136210325Y-96286613D01*
X136210323Y-96286611D01*
X136191381Y-96271066D01*
X136169770Y-96259515D01*
X136146321Y-96252402D01*
X136121935Y-96250000D01*
X135797393Y-96250000D01*
X135773007Y-96252402D01*
X135749558Y-96259515D01*
X135727947Y-96271066D01*
X135709005Y-96286611D01*
X135693460Y-96305553D01*
X135681909Y-96327164D01*
X135674796Y-96350613D01*
X135672394Y-96374999D01*
X132545803Y-96374999D01*
X132547598Y-96369083D01*
X132550000Y-96344697D01*
X132550000Y-95454999D01*
X132547598Y-95430613D01*
X132540485Y-95407164D01*
X132528934Y-95385553D01*
X132522908Y-95378210D01*
X132527164Y-95380485D01*
X132550613Y-95387598D01*
X132574999Y-95390000D01*
X133950000Y-95390000D01*
X133950000Y-96075001D01*
X133952402Y-96099387D01*
X133959515Y-96122836D01*
X133971066Y-96144447D01*
X133986611Y-96163389D01*
X134005553Y-96178934D01*
X134027164Y-96190485D01*
X134050613Y-96197598D01*
X134074999Y-96200000D01*
X134159096Y-96200000D01*
X134275013Y-96223057D01*
X134384208Y-96268287D01*
X134441015Y-96306244D01*
X134462625Y-96317795D01*
X134486074Y-96324908D01*
X134510460Y-96327310D01*
X134534847Y-96324908D01*
X134558295Y-96317795D01*
X134579906Y-96306244D01*
X134598848Y-96290698D01*
X134614393Y-96271756D01*
X134643947Y-96227525D01*
X134727523Y-96143949D01*
X134825794Y-96078286D01*
X134934987Y-96033057D01*
X135050904Y-96010000D01*
X135125001Y-96010000D01*
X135149387Y-96007598D01*
X135172836Y-96000485D01*
X135194447Y-95988934D01*
X135213389Y-95973389D01*
X135228934Y-95954447D01*
X135240485Y-95932836D01*
X135247598Y-95909387D01*
X135250000Y-95885001D01*
X135250000Y-95264999D01*
X136150000Y-95264999D01*
X136150000Y-95459697D01*
X136152402Y-95484083D01*
X136159515Y-95507532D01*
X136171066Y-95529143D01*
X136186611Y-95548085D01*
X136205553Y-95563630D01*
X136227164Y-95575181D01*
X136250613Y-95582294D01*
X136274999Y-95584696D01*
X136299385Y-95582294D01*
X136322834Y-95575181D01*
X136344445Y-95563630D01*
X136363387Y-95548085D01*
X136367523Y-95543949D01*
X136465794Y-95478286D01*
X136574987Y-95433057D01*
X136690904Y-95410000D01*
X136809096Y-95410000D01*
X136925013Y-95433057D01*
X136989327Y-95459697D01*
X137034207Y-95478287D01*
X137042881Y-95484083D01*
X137055556Y-95492552D01*
X137077167Y-95504102D01*
X137100616Y-95511215D01*
X137125002Y-95513617D01*
X137149388Y-95511215D01*
X137172837Y-95504102D01*
X137194448Y-95492550D01*
X137213389Y-95477005D01*
X137228935Y-95458063D01*
X137240485Y-95436452D01*
X137247598Y-95413003D01*
X137250000Y-95388618D01*
X137250000Y-95264999D01*
X137247598Y-95240613D01*
X137240485Y-95217164D01*
X137228934Y-95195553D01*
X137213389Y-95176611D01*
X137194447Y-95161066D01*
X137172836Y-95149515D01*
X137149387Y-95142402D01*
X137125001Y-95140000D01*
X136274999Y-95140000D01*
X136250613Y-95142402D01*
X136227164Y-95149515D01*
X136205553Y-95161066D01*
X136186611Y-95176611D01*
X136171066Y-95195553D01*
X136159515Y-95217164D01*
X136152402Y-95240613D01*
X136150000Y-95264999D01*
X135250000Y-95264999D01*
X135250000Y-94232732D01*
X140442882Y-94232732D01*
X140445284Y-94257112D01*
X140449994Y-94280793D01*
X140450010Y-94280874D01*
X140450010Y-94325111D01*
X140452412Y-94349497D01*
X140459525Y-94372946D01*
X140471076Y-94394557D01*
X140486621Y-94413499D01*
X140505563Y-94429044D01*
X140527174Y-94440595D01*
X140550623Y-94447708D01*
X140575009Y-94450110D01*
X140599395Y-94447708D01*
X140622844Y-94440595D01*
X140644455Y-94429044D01*
X140663397Y-94413499D01*
X140678942Y-94394557D01*
X140690493Y-94372946D01*
X140721522Y-94298036D01*
X140725184Y-94291186D01*
X140732299Y-94267737D01*
X140734703Y-94243351D01*
X140732303Y-94218965D01*
X140725192Y-94195515D01*
X140713643Y-94173904D01*
X140698100Y-94154960D01*
X140679159Y-94139413D01*
X140657550Y-94127860D01*
X140634091Y-94120743D01*
X140614211Y-94116789D01*
X140592264Y-94110131D01*
X140567878Y-94107730D01*
X140543492Y-94110132D01*
X140520043Y-94117246D01*
X140498433Y-94128798D01*
X140479491Y-94144344D01*
X140463946Y-94163286D01*
X140452396Y-94184897D01*
X140445283Y-94208346D01*
X140442882Y-94232732D01*
X135250000Y-94232732D01*
X135250000Y-94150000D01*
X136225001Y-94150000D01*
X136249387Y-94147598D01*
X136272836Y-94140485D01*
X136294447Y-94128934D01*
X136313389Y-94113389D01*
X136328934Y-94094447D01*
X136340485Y-94072836D01*
X136347598Y-94049387D01*
X136350000Y-94025001D01*
X136350000Y-93964338D01*
X136347598Y-93939952D01*
X136340485Y-93916503D01*
X136328934Y-93894892D01*
X136313389Y-93875950D01*
X136294447Y-93860405D01*
X136272836Y-93848854D01*
X136249387Y-93841741D01*
X136225001Y-93839339D01*
X136200617Y-93841741D01*
X136159095Y-93850000D01*
X136040904Y-93850000D01*
X135924987Y-93826943D01*
X135815794Y-93781714D01*
X135717523Y-93716051D01*
X135633949Y-93632477D01*
X135568286Y-93534206D01*
X135523057Y-93425013D01*
X135500000Y-93309096D01*
X135500000Y-93190904D01*
X135523057Y-93074987D01*
X135568287Y-92965792D01*
X135589233Y-92934444D01*
X135600784Y-92912834D01*
X135607897Y-92889385D01*
X135610299Y-92864999D01*
X135607897Y-92840612D01*
X135600784Y-92817164D01*
X135589233Y-92795553D01*
X135573687Y-92776611D01*
X135554745Y-92761066D01*
X135533135Y-92749515D01*
X135509686Y-92742402D01*
X135485300Y-92740000D01*
X135290000Y-92740000D01*
X135290000Y-91840000D01*
X136590000Y-91840000D01*
X136590000Y-92861963D01*
X136589701Y-92864999D01*
X136592103Y-92889385D01*
X136599216Y-92912834D01*
X136610767Y-92934444D01*
X136633490Y-92968451D01*
X136642036Y-92984442D01*
X136657580Y-93003385D01*
X136676522Y-93018931D01*
X136698132Y-93030483D01*
X136721580Y-93037597D01*
X136745972Y-93040000D01*
X137125001Y-93040000D01*
X137149387Y-93037598D01*
X137172836Y-93030485D01*
X137194447Y-93018934D01*
X137213389Y-93003389D01*
X137228934Y-92984447D01*
X137240485Y-92962836D01*
X137247598Y-92939387D01*
X137250000Y-92915001D01*
X137250000Y-90486613D01*
X137247598Y-90462227D01*
X137240485Y-90438778D01*
X137228934Y-90417167D01*
X137213389Y-90398225D01*
X137194447Y-90382680D01*
X137172836Y-90371129D01*
X137149387Y-90364016D01*
X137125001Y-90361614D01*
X137100615Y-90364016D01*
X137077166Y-90371129D01*
X137055555Y-90382680D01*
X137036613Y-90398225D01*
X137001673Y-90433165D01*
X136903402Y-90498828D01*
X136794209Y-90544057D01*
X136690613Y-90564663D01*
X136667164Y-90571776D01*
X136645554Y-90583327D01*
X136626612Y-90598872D01*
X136611066Y-90617814D01*
X136599515Y-90639425D01*
X136592402Y-90662874D01*
X136590000Y-90687260D01*
X136590000Y-91240000D01*
X135264999Y-91240000D01*
X135240613Y-91242402D01*
X135217164Y-91249515D01*
X135195553Y-91261066D01*
X135176611Y-91276611D01*
X135161066Y-91295553D01*
X135149515Y-91317164D01*
X135142402Y-91340613D01*
X135140000Y-91364999D01*
X135140000Y-91390000D01*
X133740000Y-91390000D01*
X133740000Y-90450303D01*
X133737598Y-90425917D01*
X133730485Y-90402468D01*
X133718934Y-90380857D01*
X133703389Y-90361915D01*
X133684447Y-90346370D01*
X133662836Y-90334819D01*
X133639387Y-90327706D01*
X133615001Y-90325304D01*
X133590615Y-90327706D01*
X133567166Y-90334819D01*
X133545555Y-90346370D01*
X133526613Y-90361915D01*
X133512477Y-90376051D01*
X133414206Y-90441714D01*
X133305013Y-90486943D01*
X133189096Y-90510000D01*
X133070904Y-90510000D01*
X132954987Y-90486943D01*
X132845794Y-90441714D01*
X132740627Y-90371444D01*
X132734445Y-90366370D01*
X132712834Y-90354819D01*
X132689385Y-90347706D01*
X132664999Y-90345304D01*
X132640613Y-90347706D01*
X132617164Y-90354819D01*
X132595553Y-90366370D01*
X132576611Y-90381915D01*
X132561066Y-90400857D01*
X132549515Y-90422468D01*
X132542402Y-90445917D01*
X132540000Y-90470303D01*
X132540000Y-91390000D01*
X131140000Y-91390000D01*
X131140000Y-90440303D01*
X131137598Y-90415917D01*
X131130485Y-90392468D01*
X131118934Y-90370857D01*
X131103389Y-90351915D01*
X131084447Y-90336370D01*
X131062836Y-90324819D01*
X131039387Y-90317706D01*
X131015001Y-90315304D01*
X130990615Y-90317706D01*
X130967166Y-90324819D01*
X130945555Y-90336370D01*
X130926613Y-90351915D01*
X130882477Y-90396051D01*
X130784206Y-90461714D01*
X130675013Y-90506943D01*
X130559096Y-90530000D01*
X130440904Y-90530000D01*
X130324987Y-90506943D01*
X130215794Y-90461714D01*
X130117523Y-90396051D01*
X130033949Y-90312477D01*
X129968286Y-90214206D01*
X129923057Y-90105013D01*
X129900000Y-89989096D01*
X129900000Y-89870904D01*
X129923057Y-89754987D01*
X129968286Y-89645794D01*
X130033949Y-89547523D01*
X130117523Y-89463949D01*
X130215794Y-89398286D01*
X130324987Y-89353057D01*
X130440904Y-89330000D01*
X130559096Y-89330000D01*
X130675013Y-89353057D01*
X130784206Y-89398286D01*
X130882477Y-89463949D01*
X130926613Y-89508085D01*
X130945555Y-89523630D01*
X130967166Y-89535181D01*
X130990615Y-89542294D01*
X131015001Y-89544696D01*
X131039387Y-89542294D01*
X131062836Y-89535181D01*
X131084447Y-89523630D01*
X131103389Y-89508085D01*
X131118934Y-89489143D01*
X131130485Y-89467532D01*
X131137598Y-89444083D01*
X131140000Y-89419697D01*
X131140000Y-88430000D01*
X132540000Y-88430000D01*
X132540000Y-89349697D01*
X132542402Y-89374083D01*
X132549515Y-89397532D01*
X132561066Y-89419143D01*
X132576611Y-89438085D01*
X132595553Y-89453630D01*
X132617164Y-89465181D01*
X132640613Y-89472294D01*
X132664999Y-89474696D01*
X132689385Y-89472294D01*
X132712834Y-89465181D01*
X132734445Y-89453630D01*
X132740627Y-89448556D01*
X132845794Y-89378286D01*
X132954987Y-89333057D01*
X133070904Y-89310000D01*
X133189096Y-89310000D01*
X133305013Y-89333057D01*
X133414206Y-89378286D01*
X133512477Y-89443949D01*
X133526613Y-89458085D01*
X133545555Y-89473630D01*
X133567166Y-89485181D01*
X133590615Y-89492294D01*
X133615001Y-89494696D01*
X133639387Y-89492294D01*
X133662836Y-89485181D01*
X133684447Y-89473630D01*
X133703389Y-89458085D01*
X133718934Y-89439143D01*
X133730485Y-89417532D01*
X133737598Y-89394083D01*
X133740000Y-89369697D01*
X133740000Y-88430000D01*
X135140000Y-88430000D01*
X135140000Y-89490000D01*
X133792540Y-89490000D01*
X133768154Y-89492402D01*
X133744705Y-89499515D01*
X133723094Y-89511066D01*
X133704152Y-89526611D01*
X133688607Y-89545553D01*
X133677056Y-89567164D01*
X133669943Y-89590613D01*
X133667541Y-89614999D01*
X133669943Y-89639385D01*
X133677056Y-89662834D01*
X133706943Y-89734987D01*
X133730000Y-89850904D01*
X133730000Y-89969096D01*
X133706943Y-90085013D01*
X133677056Y-90157166D01*
X133669943Y-90180615D01*
X133667541Y-90205001D01*
X133669943Y-90229387D01*
X133677056Y-90252836D01*
X133688607Y-90274447D01*
X133704152Y-90293389D01*
X133723094Y-90308934D01*
X133744705Y-90320485D01*
X133768154Y-90327598D01*
X133792540Y-90330000D01*
X135216257Y-90330000D01*
X135217164Y-90330485D01*
X135240613Y-90337598D01*
X135264999Y-90340000D01*
X135937141Y-90340000D01*
X135961527Y-90337598D01*
X135984976Y-90330485D01*
X136006587Y-90318934D01*
X136025529Y-90303389D01*
X136041074Y-90284447D01*
X136052625Y-90262836D01*
X136059738Y-90239387D01*
X136062140Y-90215001D01*
X136059738Y-90190615D01*
X136052625Y-90167165D01*
X136043064Y-90144083D01*
X136042254Y-90142128D01*
X136035523Y-90108287D01*
X136019196Y-90026210D01*
X136019196Y-89908018D01*
X136042253Y-89792101D01*
X136087482Y-89682908D01*
X136153145Y-89584637D01*
X136186241Y-89551541D01*
X136201786Y-89532599D01*
X136213337Y-89510988D01*
X136220450Y-89487539D01*
X136222852Y-89463153D01*
X136220450Y-89438767D01*
X136213337Y-89415318D01*
X136207267Y-89403961D01*
X136956344Y-89403961D01*
X136958746Y-89428347D01*
X136965859Y-89451796D01*
X136977410Y-89473407D01*
X136992955Y-89492349D01*
X136992979Y-89492369D01*
X137036613Y-89536003D01*
X137055555Y-89551548D01*
X137077166Y-89563099D01*
X137100615Y-89570212D01*
X137125001Y-89572614D01*
X137149387Y-89570212D01*
X137172836Y-89563099D01*
X137194447Y-89551548D01*
X137213389Y-89536003D01*
X137228934Y-89517061D01*
X137240485Y-89495450D01*
X137247598Y-89472001D01*
X137250000Y-89447615D01*
X137250000Y-89359381D01*
X137247598Y-89334995D01*
X137240485Y-89311546D01*
X137228934Y-89289935D01*
X137213389Y-89270993D01*
X137194447Y-89255448D01*
X137172836Y-89243897D01*
X137149387Y-89236784D01*
X137125001Y-89234382D01*
X137100615Y-89236784D01*
X137077166Y-89243897D01*
X137055555Y-89255448D01*
X137036613Y-89270993D01*
X137032393Y-89276135D01*
X136992955Y-89315573D01*
X136977410Y-89334515D01*
X136965859Y-89356126D01*
X136958746Y-89379575D01*
X136956344Y-89403961D01*
X136207267Y-89403961D01*
X136201786Y-89393707D01*
X136186241Y-89374765D01*
X136186217Y-89374745D01*
X136093949Y-89282477D01*
X136028286Y-89184206D01*
X135983057Y-89075013D01*
X135960000Y-88959096D01*
X135960000Y-88840904D01*
X135983057Y-88724987D01*
X136028286Y-88615794D01*
X136093949Y-88517523D01*
X136177523Y-88433949D01*
X136225175Y-88402109D01*
X136275793Y-88368287D01*
X136275794Y-88368286D01*
X136278456Y-88366508D01*
X136294442Y-88357964D01*
X136313385Y-88342420D01*
X136328931Y-88323478D01*
X136340483Y-88301868D01*
X136347597Y-88278420D01*
X136350000Y-88254028D01*
X136350000Y-88246511D01*
X136347598Y-88222125D01*
X136340485Y-88198676D01*
X136328934Y-88177065D01*
X136313389Y-88158123D01*
X136294447Y-88142578D01*
X136272836Y-88131027D01*
X136249387Y-88123914D01*
X136225001Y-88121512D01*
X136200615Y-88123914D01*
X136177166Y-88131027D01*
X136155555Y-88142578D01*
X136078157Y-88194294D01*
X135968964Y-88239523D01*
X135853047Y-88262580D01*
X135734855Y-88262580D01*
X135618938Y-88239523D01*
X135509745Y-88194294D01*
X135411474Y-88128631D01*
X135327900Y-88045057D01*
X135262237Y-87946786D01*
X135217008Y-87837593D01*
X135193951Y-87721676D01*
X135193951Y-87603484D01*
X135217008Y-87487567D01*
X135262237Y-87378374D01*
X135327900Y-87280103D01*
X135411474Y-87196529D01*
X135509745Y-87130866D01*
X135618938Y-87085637D01*
X135734855Y-87062580D01*
X135853047Y-87062580D01*
X135968964Y-87085637D01*
X136078157Y-87130866D01*
X136155555Y-87182582D01*
X136177166Y-87194133D01*
X136200615Y-87201246D01*
X136225001Y-87203648D01*
X136249387Y-87201246D01*
X136272836Y-87194133D01*
X136294447Y-87182582D01*
X136313389Y-87167037D01*
X136328934Y-87148095D01*
X136340485Y-87126484D01*
X136347598Y-87103035D01*
X136350000Y-87078649D01*
X136350000Y-86540000D01*
X137125001Y-86540000D01*
X137149387Y-86537598D01*
X137172836Y-86530485D01*
X137194447Y-86518934D01*
X137213389Y-86503389D01*
X137228934Y-86484447D01*
X137240485Y-86462836D01*
X137247598Y-86439387D01*
X137250000Y-86415001D01*
X137250000Y-86085579D01*
X137247598Y-86061193D01*
X137240485Y-86037744D01*
X137228934Y-86016133D01*
X137213389Y-85997191D01*
X137194447Y-85981646D01*
X137172836Y-85970095D01*
X136961850Y-85882701D01*
X136961849Y-85882701D01*
X136961848Y-85882700D01*
X136781684Y-85762318D01*
X136628468Y-85609102D01*
X136627013Y-85606924D01*
X136508085Y-85428936D01*
X136425165Y-85228750D01*
X136382893Y-85016235D01*
X136382893Y-84799551D01*
X136425165Y-84587036D01*
X136508085Y-84386850D01*
X136628467Y-84206685D01*
X136781685Y-84053467D01*
X136871155Y-83993685D01*
X136961848Y-83933086D01*
X136961850Y-83933085D01*
X137162036Y-83850165D01*
X137374551Y-83807893D01*
X137591235Y-83807893D01*
X137803750Y-83850165D01*
X137803750Y-83850165D01*
G37*
G36*
X155250000Y-90119697D02*
G01*
X155252402Y-90144083D01*
X155259515Y-90167532D01*
X155271066Y-90189143D01*
X155286611Y-90208085D01*
X155305553Y-90223630D01*
X155327164Y-90235181D01*
X155350613Y-90242294D01*
X155374999Y-90244696D01*
X155399385Y-90242294D01*
X155422834Y-90235181D01*
X155444445Y-90223630D01*
X155463387Y-90208085D01*
X155497523Y-90173949D01*
X155595794Y-90108286D01*
X155704987Y-90063057D01*
X155820904Y-90040000D01*
X155939096Y-90040000D01*
X156055013Y-90063057D01*
X156164206Y-90108286D01*
X156262477Y-90173949D01*
X156286613Y-90198085D01*
X156305555Y-90213630D01*
X156327166Y-90225181D01*
X156350615Y-90232294D01*
X156375001Y-90234696D01*
X156399387Y-90232294D01*
X156422836Y-90225181D01*
X156444447Y-90213630D01*
X156463389Y-90198085D01*
X156478934Y-90179143D01*
X156490485Y-90157532D01*
X156497598Y-90134083D01*
X156500000Y-90109697D01*
X156500000Y-89854587D01*
X156497598Y-89830201D01*
X156490485Y-89806752D01*
X156478934Y-89785141D01*
X156468286Y-89769205D01*
X156423057Y-89660013D01*
X156400000Y-89544096D01*
X156400000Y-89425904D01*
X156423057Y-89309987D01*
X156468286Y-89200794D01*
X156533949Y-89102523D01*
X156617523Y-89018949D01*
X156715794Y-88953286D01*
X156824987Y-88908057D01*
X156940904Y-88885000D01*
X157059096Y-88885000D01*
X157175013Y-88908057D01*
X157284206Y-88953286D01*
X157382477Y-89018949D01*
X157466051Y-89102523D01*
X157531714Y-89200794D01*
X157576943Y-89309987D01*
X157600000Y-89425904D01*
X157600000Y-89544096D01*
X157576943Y-89660013D01*
X157531714Y-89769205D01*
X157521066Y-89785141D01*
X157509515Y-89806752D01*
X157502402Y-89830201D01*
X157500000Y-89854587D01*
X157500000Y-91615623D01*
X157486611Y-91626611D01*
X157471066Y-91645553D01*
X157459515Y-91667164D01*
X157452402Y-91690613D01*
X157450000Y-91714999D01*
X157450000Y-93690000D01*
X157304966Y-93690000D01*
X157280580Y-93692402D01*
X157257131Y-93699515D01*
X157235520Y-93711066D01*
X157216578Y-93726611D01*
X157201033Y-93745553D01*
X157189482Y-93767164D01*
X157182369Y-93790613D01*
X157179967Y-93814999D01*
X157182369Y-93839385D01*
X157189480Y-93862830D01*
X157206942Y-93904986D01*
X157206942Y-93904987D01*
X157206943Y-93904990D01*
X157230000Y-94020904D01*
X157230000Y-94139096D01*
X157206943Y-94255013D01*
X157161714Y-94364206D01*
X157096051Y-94462477D01*
X157012477Y-94546051D01*
X156914206Y-94611714D01*
X156805013Y-94656943D01*
X156689096Y-94680000D01*
X156570904Y-94680000D01*
X156454987Y-94656943D01*
X156345794Y-94611714D01*
X156247523Y-94546051D01*
X156163949Y-94462477D01*
X156098286Y-94364206D01*
X156053057Y-94255013D01*
X156030000Y-94139096D01*
X156030000Y-94020904D01*
X156053057Y-93904987D01*
X156098286Y-93795794D01*
X156163949Y-93697523D01*
X156247523Y-93613949D01*
X156345794Y-93548286D01*
X156460260Y-93500873D01*
X156472837Y-93497058D01*
X156494447Y-93485506D01*
X156513389Y-93469961D01*
X156528934Y-93451019D01*
X156540485Y-93429408D01*
X156547598Y-93405959D01*
X156550000Y-93381574D01*
X156550000Y-91714999D01*
X156547598Y-91690613D01*
X156540485Y-91667164D01*
X156528934Y-91645553D01*
X156513389Y-91626611D01*
X156500000Y-91615623D01*
X156500000Y-91170303D01*
X156497598Y-91145917D01*
X156490485Y-91122468D01*
X156478934Y-91100857D01*
X156463389Y-91081915D01*
X156444447Y-91066370D01*
X156422836Y-91054819D01*
X156399387Y-91047706D01*
X156375001Y-91045304D01*
X156350615Y-91047706D01*
X156327166Y-91054819D01*
X156305555Y-91066370D01*
X156286613Y-91081915D01*
X156262475Y-91106053D01*
X156205554Y-91144086D01*
X156186612Y-91159631D01*
X156171067Y-91178573D01*
X156159515Y-91200183D01*
X156152402Y-91223632D01*
X156150000Y-91248019D01*
X156150000Y-93140000D01*
X155374999Y-93140000D01*
X155350613Y-93142402D01*
X155327164Y-93149515D01*
X155305553Y-93161066D01*
X155286611Y-93176611D01*
X155271066Y-93195553D01*
X155259515Y-93217164D01*
X155252402Y-93240613D01*
X155250000Y-93264999D01*
X155250000Y-95799697D01*
X155252402Y-95824083D01*
X155259515Y-95847532D01*
X155271066Y-95869143D01*
X155286611Y-95888085D01*
X155305553Y-95903630D01*
X155327164Y-95915181D01*
X155350613Y-95922294D01*
X155374999Y-95924696D01*
X155399385Y-95922294D01*
X155422834Y-95915181D01*
X155444445Y-95903630D01*
X155450627Y-95898556D01*
X155555794Y-95828286D01*
X155664987Y-95783057D01*
X155780904Y-95760000D01*
X155899096Y-95760000D01*
X156015013Y-95783057D01*
X156124206Y-95828286D01*
X156205555Y-95882642D01*
X156227166Y-95894193D01*
X156250615Y-95901306D01*
X156275001Y-95903708D01*
X156299387Y-95901306D01*
X156322836Y-95894193D01*
X156344447Y-95882642D01*
X156363389Y-95867097D01*
X156378934Y-95848155D01*
X156390485Y-95826544D01*
X156397598Y-95803095D01*
X156400000Y-95778709D01*
X156400000Y-95775904D01*
X156423057Y-95659987D01*
X156468286Y-95550794D01*
X156533949Y-95452523D01*
X156617523Y-95368949D01*
X156715794Y-95303286D01*
X156824987Y-95258057D01*
X156940904Y-95235000D01*
X157059096Y-95235000D01*
X157175013Y-95258057D01*
X157284206Y-95303286D01*
X157382477Y-95368949D01*
X157466051Y-95452523D01*
X157531714Y-95550794D01*
X157576943Y-95659987D01*
X157600000Y-95775904D01*
X157600000Y-95894096D01*
X157576943Y-96010013D01*
X157531714Y-96119205D01*
X157521066Y-96135141D01*
X157509515Y-96156752D01*
X157502402Y-96180201D01*
X157500000Y-96204587D01*
X157500000Y-97995623D01*
X157486611Y-98006611D01*
X157471066Y-98025553D01*
X157459515Y-98047164D01*
X157452402Y-98070613D01*
X157450000Y-98094999D01*
X157450000Y-100137651D01*
X157452402Y-100162037D01*
X157459515Y-100185486D01*
X157506943Y-100299987D01*
X157530000Y-100415904D01*
X157530000Y-100534096D01*
X157506943Y-100650013D01*
X157461714Y-100759206D01*
X157396051Y-100857477D01*
X157312477Y-100941051D01*
X157214206Y-101006714D01*
X157105013Y-101051943D01*
X156989096Y-101075000D01*
X156870904Y-101075000D01*
X156754987Y-101051943D01*
X156645794Y-101006714D01*
X156547523Y-100941051D01*
X156463949Y-100857477D01*
X156398286Y-100759206D01*
X156353057Y-100650013D01*
X156330000Y-100534096D01*
X156330000Y-100415904D01*
X156353057Y-100299987D01*
X156398286Y-100190794D01*
X156463949Y-100092523D01*
X156513389Y-100043083D01*
X156528934Y-100024141D01*
X156540485Y-100002530D01*
X156547598Y-99979081D01*
X156550000Y-99954695D01*
X156550000Y-98094999D01*
X156547598Y-98070613D01*
X156540485Y-98047164D01*
X156528934Y-98025553D01*
X156513389Y-98006611D01*
X156494447Y-97991066D01*
X156472836Y-97979515D01*
X156449387Y-97972402D01*
X156425001Y-97970000D01*
X156414999Y-97970000D01*
X156390613Y-97972402D01*
X156367164Y-97979515D01*
X156345553Y-97991066D01*
X156326611Y-98006611D01*
X156311066Y-98025553D01*
X156299515Y-98047164D01*
X156292402Y-98070613D01*
X156290000Y-98094999D01*
X156290000Y-98860000D01*
X155374999Y-98860000D01*
X155350613Y-98862402D01*
X155327164Y-98869515D01*
X155305553Y-98881066D01*
X155286611Y-98896611D01*
X155271066Y-98915553D01*
X155259515Y-98937164D01*
X155252402Y-98960613D01*
X155250000Y-98984999D01*
X155250000Y-105150000D01*
X153250000Y-105150000D01*
X153250000Y-103610824D01*
X153247598Y-103586438D01*
X153240485Y-103562989D01*
X153228934Y-103541378D01*
X153213389Y-103522436D01*
X153194447Y-103506891D01*
X153172836Y-103495340D01*
X153149387Y-103488227D01*
X153125001Y-103485825D01*
X153100615Y-103488227D01*
X153077166Y-103495340D01*
X153022680Y-103517909D01*
X153001069Y-103529460D01*
X152982127Y-103545006D01*
X152966582Y-103563948D01*
X152955031Y-103585558D01*
X152947918Y-103609007D01*
X152945516Y-103633393D01*
X152947918Y-103657779D01*
X152955030Y-103681226D01*
X152966943Y-103709987D01*
X152990000Y-103825904D01*
X152990000Y-103944096D01*
X152966943Y-104060013D01*
X152921714Y-104169206D01*
X152856051Y-104267477D01*
X152772477Y-104351051D01*
X152674206Y-104416714D01*
X152565013Y-104461943D01*
X152449096Y-104485000D01*
X152330904Y-104485000D01*
X152214987Y-104461943D01*
X152105794Y-104416714D01*
X152007523Y-104351051D01*
X151923949Y-104267477D01*
X151865530Y-104180047D01*
X151849985Y-104161105D01*
X151831043Y-104145560D01*
X151809432Y-104134009D01*
X151785983Y-104126896D01*
X151761597Y-104124494D01*
X151737211Y-104126896D01*
X151713762Y-104134009D01*
X151692151Y-104145560D01*
X151673209Y-104161105D01*
X151625370Y-104208944D01*
X151527099Y-104274607D01*
X151417906Y-104319836D01*
X151301989Y-104342893D01*
X151183797Y-104342893D01*
X151067880Y-104319836D01*
X150958687Y-104274607D01*
X150860416Y-104208944D01*
X150776842Y-104125370D01*
X150711179Y-104027099D01*
X150665950Y-103917906D01*
X150642893Y-103801989D01*
X150642893Y-103675151D01*
X150643608Y-103667889D01*
X150641206Y-103643503D01*
X150634092Y-103620054D01*
X150622540Y-103598444D01*
X150606995Y-103579502D01*
X150588052Y-103563957D01*
X150566441Y-103552407D01*
X150542992Y-103545294D01*
X150518609Y-103542893D01*
X150483798Y-103542893D01*
X150464452Y-103539045D01*
X150440068Y-103536643D01*
X150415682Y-103539045D01*
X150392233Y-103546158D01*
X150370622Y-103557709D01*
X150351680Y-103573254D01*
X150336134Y-103592196D01*
X150324583Y-103613806D01*
X150317470Y-103637255D01*
X150315068Y-103661642D01*
X150315068Y-103774164D01*
X150292011Y-103890081D01*
X150246782Y-103999274D01*
X150181119Y-104097545D01*
X150097545Y-104181119D01*
X149999274Y-104246782D01*
X149890081Y-104292011D01*
X149774164Y-104315068D01*
X149655972Y-104315068D01*
X149540055Y-104292011D01*
X149430862Y-104246782D01*
X149332591Y-104181119D01*
X149249017Y-104097545D01*
X149183354Y-103999274D01*
X149138125Y-103890081D01*
X149115068Y-103774164D01*
X149115068Y-103667892D01*
X149112666Y-103643506D01*
X149105553Y-103620057D01*
X149094002Y-103598446D01*
X149078457Y-103579504D01*
X149059515Y-103563959D01*
X149037904Y-103552408D01*
X149014455Y-103545295D01*
X148990069Y-103542893D01*
X148983797Y-103542893D01*
X148867880Y-103519836D01*
X148758687Y-103474607D01*
X148660416Y-103408944D01*
X148576842Y-103325370D01*
X148511179Y-103227099D01*
X148465950Y-103117906D01*
X148442893Y-103001989D01*
X148442893Y-102883797D01*
X148465950Y-102767880D01*
X148511179Y-102658687D01*
X148576842Y-102560416D01*
X148660416Y-102476842D01*
X148758687Y-102411179D01*
X148867880Y-102365950D01*
X148983797Y-102342893D01*
X149101989Y-102342893D01*
X149217906Y-102365950D01*
X149327099Y-102411179D01*
X149425370Y-102476842D01*
X149508944Y-102560416D01*
X149574607Y-102658687D01*
X149619836Y-102767880D01*
X149642893Y-102883797D01*
X149642893Y-102990069D01*
X149645295Y-103014455D01*
X149652408Y-103037904D01*
X149663959Y-103059515D01*
X149679504Y-103078457D01*
X149698446Y-103094002D01*
X149720057Y-103105553D01*
X149743506Y-103112666D01*
X149767892Y-103115068D01*
X149774163Y-103115068D01*
X149793509Y-103118916D01*
X149817893Y-103121318D01*
X149842279Y-103118916D01*
X149865728Y-103111803D01*
X149887339Y-103100252D01*
X149906281Y-103084707D01*
X149921827Y-103065765D01*
X149933378Y-103044155D01*
X149940491Y-103020706D01*
X149942893Y-102996319D01*
X149942893Y-102883797D01*
X149965950Y-102767880D01*
X150011179Y-102658687D01*
X150076842Y-102560416D01*
X150160416Y-102476842D01*
X150258687Y-102411179D01*
X150367880Y-102365950D01*
X150483797Y-102342893D01*
X150601989Y-102342893D01*
X150717906Y-102365950D01*
X150827099Y-102411179D01*
X150925370Y-102476842D01*
X151008944Y-102560416D01*
X151074607Y-102658687D01*
X151119836Y-102767880D01*
X151142893Y-102883797D01*
X151142893Y-103010635D01*
X151142178Y-103017897D01*
X151144580Y-103042283D01*
X151151694Y-103065732D01*
X151163246Y-103087342D01*
X151178791Y-103106284D01*
X151197734Y-103121829D01*
X151219345Y-103133379D01*
X151242794Y-103140492D01*
X151267177Y-103142893D01*
X151301989Y-103142893D01*
X151417906Y-103165950D01*
X151527099Y-103211179D01*
X151625370Y-103276842D01*
X151708944Y-103360416D01*
X151767363Y-103447846D01*
X151782908Y-103466788D01*
X151801850Y-103482333D01*
X151823461Y-103493884D01*
X151846910Y-103500997D01*
X151871296Y-103503399D01*
X151895682Y-103500997D01*
X151919131Y-103493884D01*
X151940742Y-103482333D01*
X151959684Y-103466788D01*
X152007523Y-103418949D01*
X152105794Y-103353286D01*
X152217320Y-103307091D01*
X152238931Y-103295540D01*
X152257872Y-103279995D01*
X152273418Y-103261053D01*
X152284969Y-103239442D01*
X152292082Y-103215993D01*
X152294484Y-103191607D01*
X152292082Y-103167221D01*
X152284970Y-103143774D01*
X152273057Y-103115013D01*
X152250000Y-102999096D01*
X152250000Y-102880904D01*
X152273057Y-102764987D01*
X152318286Y-102655794D01*
X152383949Y-102557523D01*
X152467523Y-102473949D01*
X152565794Y-102408286D01*
X152674987Y-102363057D01*
X152790904Y-102340000D01*
X152909096Y-102340000D01*
X153025012Y-102363057D01*
X153077166Y-102384660D01*
X153100614Y-102391773D01*
X153125001Y-102394175D01*
X153149387Y-102391773D01*
X153172836Y-102384660D01*
X153194446Y-102373109D01*
X153213388Y-102357564D01*
X153228934Y-102338622D01*
X153240485Y-102317011D01*
X153247598Y-102293563D01*
X153250000Y-102269176D01*
X153250000Y-99010824D01*
X153247598Y-98986438D01*
X153240485Y-98962989D01*
X153228934Y-98941378D01*
X153213389Y-98922436D01*
X153194447Y-98906891D01*
X153172836Y-98895340D01*
X153149387Y-98888227D01*
X153125001Y-98885825D01*
X153100615Y-98888227D01*
X153077166Y-98895340D01*
X153025012Y-98916943D01*
X152909096Y-98940000D01*
X152790904Y-98940000D01*
X152674987Y-98916943D01*
X152565794Y-98871714D01*
X152467523Y-98806051D01*
X152383949Y-98722477D01*
X152318286Y-98624206D01*
X152273057Y-98515013D01*
X152250000Y-98399096D01*
X152250000Y-98280904D01*
X152273057Y-98164987D01*
X152318286Y-98055794D01*
X152383949Y-97957523D01*
X152467523Y-97873949D01*
X152565794Y-97808286D01*
X152674987Y-97763057D01*
X152790904Y-97740000D01*
X152909096Y-97740000D01*
X153025012Y-97763057D01*
X153067287Y-97780568D01*
X153073299Y-97783058D01*
X153077166Y-97784660D01*
X153100614Y-97791773D01*
X153125001Y-97794175D01*
X153149387Y-97791773D01*
X153172836Y-97784660D01*
X153194446Y-97773109D01*
X153213388Y-97757564D01*
X153228934Y-97738622D01*
X153240485Y-97717011D01*
X153247598Y-97693563D01*
X153250000Y-97669176D01*
X153250000Y-87823974D01*
X153247598Y-87799588D01*
X153240485Y-87776139D01*
X153228934Y-87754528D01*
X153213389Y-87735586D01*
X153194447Y-87720041D01*
X153172836Y-87708490D01*
X153149387Y-87701377D01*
X153125001Y-87698975D01*
X153100615Y-87701377D01*
X153077166Y-87708490D01*
X153055556Y-87720041D01*
X153022651Y-87742027D01*
X153022650Y-87742028D01*
X153022649Y-87742028D01*
X152913457Y-87787257D01*
X152797540Y-87810314D01*
X152679348Y-87810314D01*
X152563431Y-87787257D01*
X152454238Y-87742028D01*
X152355967Y-87676365D01*
X152272393Y-87592791D01*
X152206730Y-87494520D01*
X152161501Y-87385327D01*
X152138444Y-87269410D01*
X152138444Y-87151218D01*
X152161501Y-87035301D01*
X152206730Y-86926108D01*
X152272393Y-86827837D01*
X152355967Y-86744263D01*
X152454238Y-86678600D01*
X152563431Y-86633371D01*
X152679348Y-86610314D01*
X152797540Y-86610314D01*
X152913457Y-86633371D01*
X152992471Y-86666100D01*
X153022651Y-86678601D01*
X153055555Y-86700587D01*
X153077166Y-86712138D01*
X153100615Y-86719251D01*
X153125001Y-86721653D01*
X153149387Y-86719251D01*
X153172836Y-86712138D01*
X153194447Y-86700587D01*
X153213388Y-86685042D01*
X153228934Y-86666100D01*
X153240485Y-86644489D01*
X153247598Y-86621040D01*
X153250000Y-86596654D01*
X153250000Y-86030000D01*
X155250000Y-86030000D01*
X155250000Y-90119697D01*
X155250000Y-90119697D01*
G37*
G36*
X141585034Y-103033057D02*
G01*
X141694227Y-103078286D01*
X141792498Y-103143949D01*
X141876072Y-103227523D01*
X141941735Y-103325794D01*
X141986964Y-103434987D01*
X142010021Y-103550904D01*
X142010021Y-103615001D01*
X142012423Y-103639387D01*
X142019536Y-103662836D01*
X142031087Y-103684447D01*
X142046632Y-103703389D01*
X142065574Y-103718934D01*
X142087185Y-103730485D01*
X142110634Y-103737598D01*
X142135020Y-103740000D01*
X142249096Y-103740000D01*
X142365013Y-103763057D01*
X142474206Y-103808286D01*
X142572477Y-103873949D01*
X142656051Y-103957523D01*
X142721714Y-104055794D01*
X142766943Y-104164987D01*
X142790000Y-104280904D01*
X142790000Y-104399096D01*
X142766943Y-104515013D01*
X142721714Y-104624206D01*
X142656051Y-104722477D01*
X142572477Y-104806051D01*
X142474206Y-104871714D01*
X142365013Y-104916943D01*
X142249096Y-104940000D01*
X142130904Y-104940000D01*
X142014987Y-104916943D01*
X141905794Y-104871714D01*
X141807523Y-104806051D01*
X141723949Y-104722477D01*
X141658286Y-104624206D01*
X141613057Y-104515013D01*
X141590000Y-104399096D01*
X141590000Y-104334999D01*
X141587598Y-104310613D01*
X141580485Y-104287164D01*
X141568934Y-104265553D01*
X141553389Y-104246611D01*
X141534447Y-104231066D01*
X141512836Y-104219515D01*
X141489387Y-104212402D01*
X141465001Y-104210000D01*
X141350925Y-104210000D01*
X141235008Y-104186943D01*
X141125815Y-104141714D01*
X141027544Y-104076051D01*
X140943970Y-103992477D01*
X140878307Y-103894206D01*
X140833078Y-103785013D01*
X140810021Y-103669096D01*
X140810021Y-103550904D01*
X140833078Y-103434987D01*
X140878307Y-103325794D01*
X140943970Y-103227523D01*
X141027544Y-103143949D01*
X141125815Y-103078286D01*
X141235008Y-103033057D01*
X141350925Y-103010000D01*
X141469117Y-103010000D01*
X141585034Y-103033057D01*
X141585034Y-103033057D01*
G37*
G36*
X146055013Y-101493057D02*
G01*
X146164206Y-101538286D01*
X146262477Y-101603949D01*
X146346051Y-101687523D01*
X146411714Y-101785794D01*
X146456943Y-101894987D01*
X146480000Y-102010904D01*
X146480000Y-102129096D01*
X146456943Y-102245013D01*
X146413450Y-102350013D01*
X146411713Y-102354207D01*
X146403866Y-102365951D01*
X146392982Y-102382240D01*
X146381432Y-102403851D01*
X146374319Y-102427300D01*
X146371917Y-102451686D01*
X146374319Y-102476072D01*
X146381432Y-102499521D01*
X146392984Y-102521132D01*
X146408529Y-102540073D01*
X146427471Y-102555619D01*
X146449081Y-102567169D01*
X146524206Y-102598286D01*
X146622477Y-102663949D01*
X146706051Y-102747523D01*
X146771714Y-102845794D01*
X146816943Y-102954987D01*
X146840000Y-103070904D01*
X146840000Y-103189096D01*
X146816943Y-103305013D01*
X146771714Y-103414206D01*
X146706051Y-103512477D01*
X146622477Y-103596051D01*
X146524206Y-103661714D01*
X146415013Y-103706943D01*
X146299096Y-103730000D01*
X146180904Y-103730000D01*
X146064987Y-103706943D01*
X145955794Y-103661714D01*
X145857523Y-103596051D01*
X145773949Y-103512477D01*
X145708286Y-103414206D01*
X145663057Y-103305013D01*
X145640000Y-103189096D01*
X145640000Y-103070904D01*
X145663057Y-102954987D01*
X145708286Y-102845795D01*
X145727018Y-102817760D01*
X145738568Y-102796149D01*
X145745681Y-102772700D01*
X145748083Y-102748314D01*
X145745681Y-102723928D01*
X145738568Y-102700479D01*
X145727016Y-102678868D01*
X145711471Y-102659927D01*
X145692529Y-102644381D01*
X145670919Y-102632831D01*
X145595794Y-102601714D01*
X145497523Y-102536051D01*
X145413949Y-102452477D01*
X145348286Y-102354206D01*
X145303057Y-102245013D01*
X145280000Y-102129096D01*
X145280000Y-102010904D01*
X145303057Y-101894987D01*
X145348286Y-101785794D01*
X145413949Y-101687523D01*
X145497523Y-101603949D01*
X145595794Y-101538286D01*
X145704987Y-101493057D01*
X145820904Y-101470000D01*
X145939096Y-101470000D01*
X146055013Y-101493057D01*
X146055013Y-101493057D01*
G37*
G36*
X135317906Y-101765950D02*
G01*
X135427099Y-101811179D01*
X135525370Y-101876842D01*
X135608944Y-101960416D01*
X135674607Y-102058687D01*
X135719836Y-102167880D01*
X135742893Y-102283797D01*
X135742893Y-102401989D01*
X135719836Y-102517906D01*
X135674607Y-102627099D01*
X135608944Y-102725370D01*
X135525370Y-102808944D01*
X135427099Y-102874607D01*
X135317906Y-102919836D01*
X135201989Y-102942893D01*
X135083797Y-102942893D01*
X134967880Y-102919836D01*
X134858687Y-102874607D01*
X134760416Y-102808944D01*
X134676842Y-102725370D01*
X134611179Y-102627099D01*
X134565950Y-102517906D01*
X134542893Y-102401989D01*
X134542893Y-102283797D01*
X134565950Y-102167880D01*
X134611179Y-102058687D01*
X134676842Y-101960416D01*
X134760416Y-101876842D01*
X134858687Y-101811179D01*
X134967880Y-101765950D01*
X135083797Y-101742893D01*
X135201989Y-101742893D01*
X135317906Y-101765950D01*
X135317906Y-101765950D01*
G37*
G36*
X133617906Y-101465950D02*
G01*
X133727099Y-101511179D01*
X133825370Y-101576842D01*
X133908944Y-101660416D01*
X133974607Y-101758687D01*
X134019836Y-101867880D01*
X134042893Y-101983797D01*
X134042893Y-102101989D01*
X134019836Y-102217906D01*
X133974607Y-102327099D01*
X133908944Y-102425370D01*
X133825370Y-102508944D01*
X133727099Y-102574607D01*
X133617906Y-102619836D01*
X133501989Y-102642893D01*
X133383797Y-102642893D01*
X133267880Y-102619836D01*
X133158687Y-102574607D01*
X133060416Y-102508944D01*
X132976842Y-102425370D01*
X132911179Y-102327099D01*
X132865950Y-102217906D01*
X132842893Y-102101989D01*
X132842893Y-101983797D01*
X132865950Y-101867880D01*
X132911179Y-101758687D01*
X132976842Y-101660416D01*
X133060416Y-101576842D01*
X133158687Y-101511179D01*
X133267880Y-101465950D01*
X133383797Y-101442893D01*
X133501989Y-101442893D01*
X133617906Y-101465950D01*
X133617906Y-101465950D01*
G37*
G36*
X147517906Y-101465950D02*
G01*
X147627099Y-101511179D01*
X147725370Y-101576842D01*
X147808944Y-101660416D01*
X147874607Y-101758687D01*
X147919836Y-101867880D01*
X147942893Y-101983797D01*
X147942893Y-102101989D01*
X147919836Y-102217906D01*
X147874607Y-102327099D01*
X147808944Y-102425370D01*
X147725370Y-102508944D01*
X147627099Y-102574607D01*
X147517906Y-102619836D01*
X147401989Y-102642893D01*
X147283797Y-102642893D01*
X147167880Y-102619836D01*
X147058687Y-102574607D01*
X146960416Y-102508944D01*
X146876842Y-102425370D01*
X146811179Y-102327099D01*
X146765950Y-102217906D01*
X146742893Y-102101989D01*
X146742893Y-101983797D01*
X146765950Y-101867880D01*
X146811179Y-101758687D01*
X146876842Y-101660416D01*
X146960416Y-101576842D01*
X147058687Y-101511179D01*
X147167880Y-101465950D01*
X147283797Y-101442893D01*
X147401989Y-101442893D01*
X147517906Y-101465950D01*
X147517906Y-101465950D01*
G37*
G36*
X145725013Y-99068057D02*
G01*
X145834206Y-99113286D01*
X145932477Y-99178949D01*
X146016051Y-99262523D01*
X146081714Y-99360794D01*
X146126943Y-99469987D01*
X146150000Y-99585904D01*
X146150000Y-99704096D01*
X146139531Y-99756726D01*
X146137129Y-99781112D01*
X146139531Y-99805498D01*
X146146644Y-99828947D01*
X146158195Y-99850557D01*
X146173740Y-99869499D01*
X146192682Y-99885045D01*
X146214293Y-99896596D01*
X146237742Y-99903709D01*
X146335013Y-99923057D01*
X146444206Y-99968286D01*
X146542477Y-100033949D01*
X146626051Y-100117523D01*
X146691714Y-100215794D01*
X146736943Y-100324987D01*
X146760000Y-100440904D01*
X146760000Y-100559096D01*
X146736943Y-100675013D01*
X146691714Y-100784206D01*
X146626051Y-100882477D01*
X146542477Y-100966051D01*
X146444206Y-101031714D01*
X146335013Y-101076943D01*
X146219096Y-101100000D01*
X146100904Y-101100000D01*
X145984987Y-101076943D01*
X145875794Y-101031714D01*
X145777523Y-100966051D01*
X145693949Y-100882477D01*
X145628286Y-100784206D01*
X145583057Y-100675013D01*
X145560000Y-100559096D01*
X145560000Y-100440904D01*
X145570469Y-100388274D01*
X145572871Y-100363888D01*
X145570469Y-100339502D01*
X145563356Y-100316053D01*
X145551805Y-100294443D01*
X145536260Y-100275501D01*
X145517318Y-100259955D01*
X145495707Y-100248404D01*
X145472258Y-100241291D01*
X145374987Y-100221943D01*
X145265794Y-100176714D01*
X145167523Y-100111051D01*
X145083949Y-100027477D01*
X145018286Y-99929206D01*
X144973057Y-99820013D01*
X144950000Y-99704096D01*
X144950000Y-99585904D01*
X144973057Y-99469987D01*
X145018286Y-99360794D01*
X145083949Y-99262523D01*
X145167523Y-99178949D01*
X145265794Y-99113286D01*
X145374987Y-99068057D01*
X145490904Y-99045000D01*
X145609096Y-99045000D01*
X145725013Y-99068057D01*
X145725013Y-99068057D01*
G37*
G36*
X130575013Y-99823057D02*
G01*
X130684206Y-99868286D01*
X130782477Y-99933949D01*
X130866051Y-100017523D01*
X130931714Y-100115794D01*
X130976943Y-100224987D01*
X131000000Y-100340904D01*
X131000000Y-100459096D01*
X130976943Y-100575013D01*
X130931714Y-100684206D01*
X130866051Y-100782477D01*
X130782477Y-100866051D01*
X130684206Y-100931714D01*
X130575013Y-100976943D01*
X130459096Y-101000000D01*
X130340904Y-101000000D01*
X130224987Y-100976943D01*
X130115794Y-100931714D01*
X130017523Y-100866051D01*
X129933949Y-100782477D01*
X129868286Y-100684206D01*
X129823057Y-100575013D01*
X129800000Y-100459096D01*
X129800000Y-100340904D01*
X129823057Y-100224987D01*
X129868286Y-100115794D01*
X129933949Y-100017523D01*
X130017523Y-99933949D01*
X130115794Y-99868286D01*
X130224987Y-99823057D01*
X130340904Y-99800000D01*
X130459096Y-99800000D01*
X130575013Y-99823057D01*
X130575013Y-99823057D01*
G37*
G36*
X135250000Y-100890000D02*
G01*
X133150000Y-100890000D01*
X133150000Y-99990000D01*
X135250000Y-99990000D01*
X135250000Y-100890000D01*
X135250000Y-100890000D01*
G37*
G36*
X140452845Y-99205225D02*
G01*
X140562038Y-99250454D01*
X140660309Y-99316117D01*
X140743883Y-99399691D01*
X140809546Y-99497962D01*
X140854775Y-99607155D01*
X140877832Y-99723072D01*
X140877832Y-99841264D01*
X140854775Y-99957181D01*
X140809546Y-100066374D01*
X140743883Y-100164645D01*
X140660309Y-100248219D01*
X140562038Y-100313882D01*
X140452845Y-100359111D01*
X140336928Y-100382168D01*
X140218736Y-100382168D01*
X140102819Y-100359111D01*
X139993626Y-100313882D01*
X139895355Y-100248219D01*
X139811781Y-100164645D01*
X139746118Y-100066374D01*
X139700889Y-99957181D01*
X139677832Y-99841264D01*
X139677832Y-99723072D01*
X139700889Y-99607155D01*
X139746118Y-99497962D01*
X139811781Y-99399691D01*
X139895355Y-99316117D01*
X139993626Y-99250454D01*
X140102819Y-99205225D01*
X140218736Y-99182168D01*
X140336928Y-99182168D01*
X140452845Y-99205225D01*
X140452845Y-99205225D01*
G37*
G36*
X150875013Y-97763057D02*
G01*
X150984206Y-97808286D01*
X151082477Y-97873949D01*
X151166051Y-97957523D01*
X151231714Y-98055794D01*
X151276943Y-98164987D01*
X151300000Y-98280904D01*
X151300000Y-98399096D01*
X151276943Y-98515013D01*
X151231713Y-98624208D01*
X151188368Y-98689079D01*
X151176817Y-98710690D01*
X151169704Y-98734139D01*
X151167302Y-98758525D01*
X151169704Y-98782911D01*
X151176817Y-98806360D01*
X151188368Y-98827970D01*
X151203914Y-98846912D01*
X151222856Y-98862457D01*
X151244466Y-98874008D01*
X151334206Y-98911179D01*
X151432477Y-98976842D01*
X151516051Y-99060416D01*
X151581714Y-99158687D01*
X151626943Y-99267880D01*
X151650000Y-99383797D01*
X151650000Y-99501989D01*
X151626943Y-99617906D01*
X151581714Y-99727099D01*
X151516051Y-99825370D01*
X151432477Y-99908944D01*
X151334206Y-99974607D01*
X151225013Y-100019836D01*
X151109096Y-100042893D01*
X150990904Y-100042893D01*
X150874987Y-100019836D01*
X150765794Y-99974607D01*
X150667523Y-99908944D01*
X150583949Y-99825370D01*
X150518286Y-99727099D01*
X150473057Y-99617906D01*
X150450000Y-99501989D01*
X150450000Y-99383797D01*
X150473057Y-99267880D01*
X150518287Y-99158685D01*
X150561632Y-99093814D01*
X150573183Y-99072203D01*
X150580296Y-99048754D01*
X150582698Y-99024368D01*
X150580296Y-98999982D01*
X150573183Y-98976533D01*
X150561632Y-98954923D01*
X150546086Y-98935981D01*
X150527144Y-98920436D01*
X150505534Y-98908885D01*
X150415794Y-98871714D01*
X150317523Y-98806051D01*
X150233949Y-98722477D01*
X150168286Y-98624206D01*
X150123057Y-98515013D01*
X150100000Y-98399096D01*
X150100000Y-98280904D01*
X150123057Y-98164987D01*
X150168286Y-98055794D01*
X150233949Y-97957523D01*
X150317523Y-97873949D01*
X150415794Y-97808286D01*
X150524987Y-97763057D01*
X150640904Y-97740000D01*
X150759096Y-97740000D01*
X150875013Y-97763057D01*
X150875013Y-97763057D01*
G37*
G36*
X135400000Y-99700000D02*
G01*
X134100000Y-99700000D01*
X134100000Y-98800000D01*
X135400000Y-98800000D01*
X135400000Y-99700000D01*
X135400000Y-99700000D01*
G37*
G36*
X171363746Y-97783058D02*
G01*
X171377423Y-97784405D01*
X171438685Y-97802989D01*
X171499948Y-97821573D01*
X171612868Y-97881930D01*
X171711843Y-97963157D01*
X171793070Y-98062132D01*
X171853427Y-98175052D01*
X171863881Y-98209515D01*
X171890565Y-98297477D01*
X171890595Y-98297578D01*
X171900000Y-98393069D01*
X171900000Y-98856932D01*
X171893294Y-98925014D01*
X171890595Y-98952423D01*
X171887390Y-98962989D01*
X171853427Y-99074948D01*
X171793070Y-99187868D01*
X171711843Y-99286843D01*
X171612867Y-99368070D01*
X171499947Y-99428427D01*
X171438684Y-99447011D01*
X171377422Y-99465595D01*
X171365997Y-99466720D01*
X171250000Y-99478145D01*
X171134002Y-99466720D01*
X171122577Y-99465595D01*
X171061315Y-99447011D01*
X171000052Y-99428427D01*
X170887132Y-99368070D01*
X170788157Y-99286843D01*
X170721620Y-99205767D01*
X170704299Y-99188446D01*
X170683925Y-99174832D01*
X170661286Y-99165455D01*
X170637253Y-99160674D01*
X170612749Y-99160674D01*
X170588715Y-99165454D01*
X170566076Y-99174831D01*
X170545702Y-99188445D01*
X170528383Y-99205764D01*
X170461843Y-99286843D01*
X170362867Y-99368070D01*
X170249947Y-99428427D01*
X170188684Y-99447011D01*
X170127422Y-99465595D01*
X170115997Y-99466720D01*
X170000000Y-99478145D01*
X169884002Y-99466720D01*
X169872577Y-99465595D01*
X169811315Y-99447011D01*
X169750052Y-99428427D01*
X169637132Y-99368070D01*
X169538157Y-99286843D01*
X169471620Y-99205767D01*
X169454299Y-99188446D01*
X169433925Y-99174832D01*
X169411286Y-99165455D01*
X169387253Y-99160674D01*
X169362749Y-99160674D01*
X169338715Y-99165454D01*
X169316076Y-99174831D01*
X169295702Y-99188445D01*
X169278383Y-99205764D01*
X169211843Y-99286843D01*
X169112867Y-99368070D01*
X168999947Y-99428427D01*
X168938684Y-99447011D01*
X168877422Y-99465595D01*
X168865997Y-99466720D01*
X168750000Y-99478145D01*
X168634002Y-99466720D01*
X168622577Y-99465595D01*
X168561315Y-99447011D01*
X168500052Y-99428427D01*
X168387132Y-99368070D01*
X168288157Y-99286843D01*
X168221620Y-99205767D01*
X168204299Y-99188446D01*
X168183925Y-99174832D01*
X168161286Y-99165455D01*
X168137253Y-99160674D01*
X168112749Y-99160674D01*
X168088715Y-99165454D01*
X168066076Y-99174831D01*
X168045702Y-99188445D01*
X168028383Y-99205764D01*
X167961843Y-99286843D01*
X167862867Y-99368070D01*
X167749947Y-99428427D01*
X167688684Y-99447011D01*
X167627422Y-99465595D01*
X167615997Y-99466720D01*
X167500000Y-99478145D01*
X167384002Y-99466720D01*
X167372577Y-99465595D01*
X167311315Y-99447011D01*
X167250052Y-99428427D01*
X167137132Y-99368070D01*
X167038157Y-99286843D01*
X166971620Y-99205767D01*
X166954299Y-99188446D01*
X166933925Y-99174832D01*
X166911286Y-99165455D01*
X166887253Y-99160674D01*
X166862749Y-99160674D01*
X166838715Y-99165454D01*
X166816076Y-99174831D01*
X166795702Y-99188445D01*
X166778383Y-99205764D01*
X166711843Y-99286843D01*
X166612867Y-99368070D01*
X166499947Y-99428427D01*
X166438684Y-99447011D01*
X166377422Y-99465595D01*
X166365997Y-99466720D01*
X166250000Y-99478145D01*
X166134002Y-99466720D01*
X166122577Y-99465595D01*
X166061315Y-99447011D01*
X166000052Y-99428427D01*
X165887132Y-99368070D01*
X165788157Y-99286843D01*
X165706930Y-99187867D01*
X165646573Y-99074947D01*
X165627121Y-99010824D01*
X165609405Y-98952422D01*
X165604477Y-98902387D01*
X165600000Y-98856931D01*
X165600000Y-98393068D01*
X165609405Y-98297578D01*
X165609436Y-98297477D01*
X165636119Y-98209515D01*
X165646573Y-98175052D01*
X165706930Y-98062132D01*
X165788158Y-97963157D01*
X165887133Y-97881930D01*
X166000053Y-97821573D01*
X166061316Y-97802989D01*
X166122578Y-97784405D01*
X166136255Y-97783058D01*
X166250000Y-97771855D01*
X166363746Y-97783058D01*
X166377423Y-97784405D01*
X166438685Y-97802989D01*
X166499948Y-97821573D01*
X166612868Y-97881930D01*
X166711843Y-97963157D01*
X166778383Y-98044236D01*
X166795701Y-98061554D01*
X166816075Y-98075168D01*
X166838714Y-98084545D01*
X166862747Y-98089326D01*
X166887251Y-98089326D01*
X166911285Y-98084546D01*
X166933924Y-98075169D01*
X166954298Y-98061555D01*
X166971618Y-98044235D01*
X167038158Y-97963157D01*
X167137133Y-97881930D01*
X167250053Y-97821573D01*
X167311316Y-97802989D01*
X167372578Y-97784405D01*
X167386255Y-97783058D01*
X167500000Y-97771855D01*
X167613746Y-97783058D01*
X167627423Y-97784405D01*
X167688685Y-97802989D01*
X167749948Y-97821573D01*
X167862868Y-97881930D01*
X167961843Y-97963157D01*
X168028383Y-98044236D01*
X168045701Y-98061554D01*
X168066075Y-98075168D01*
X168088714Y-98084545D01*
X168112747Y-98089326D01*
X168137251Y-98089326D01*
X168161285Y-98084546D01*
X168183924Y-98075169D01*
X168204298Y-98061555D01*
X168221618Y-98044235D01*
X168288158Y-97963157D01*
X168387133Y-97881930D01*
X168500053Y-97821573D01*
X168561316Y-97802989D01*
X168622578Y-97784405D01*
X168636255Y-97783058D01*
X168750000Y-97771855D01*
X168863746Y-97783058D01*
X168877423Y-97784405D01*
X168938685Y-97802989D01*
X168999948Y-97821573D01*
X169112868Y-97881930D01*
X169211843Y-97963157D01*
X169278383Y-98044236D01*
X169295701Y-98061554D01*
X169316075Y-98075168D01*
X169338714Y-98084545D01*
X169362747Y-98089326D01*
X169387251Y-98089326D01*
X169411285Y-98084546D01*
X169433924Y-98075169D01*
X169454298Y-98061555D01*
X169471618Y-98044235D01*
X169538158Y-97963157D01*
X169637133Y-97881930D01*
X169750053Y-97821573D01*
X169811316Y-97802989D01*
X169872578Y-97784405D01*
X169886255Y-97783058D01*
X170000000Y-97771855D01*
X170113746Y-97783058D01*
X170127423Y-97784405D01*
X170188685Y-97802989D01*
X170249948Y-97821573D01*
X170362868Y-97881930D01*
X170461843Y-97963157D01*
X170528383Y-98044236D01*
X170545701Y-98061554D01*
X170566075Y-98075168D01*
X170588714Y-98084545D01*
X170612747Y-98089326D01*
X170637251Y-98089326D01*
X170661285Y-98084546D01*
X170683924Y-98075169D01*
X170704298Y-98061555D01*
X170721618Y-98044235D01*
X170788158Y-97963157D01*
X170887133Y-97881930D01*
X171000053Y-97821573D01*
X171061316Y-97802989D01*
X171122578Y-97784405D01*
X171136255Y-97783058D01*
X171250000Y-97771855D01*
X171363746Y-97783058D01*
X171363746Y-97783058D01*
G37*
G36*
X142145013Y-97783057D02*
G01*
X142254206Y-97828286D01*
X142352477Y-97893949D01*
X142436051Y-97977523D01*
X142501714Y-98075794D01*
X142546943Y-98184987D01*
X142570000Y-98300904D01*
X142570000Y-98419096D01*
X142546943Y-98535013D01*
X142501714Y-98644206D01*
X142436051Y-98742477D01*
X142352477Y-98826051D01*
X142254206Y-98891714D01*
X142145013Y-98936943D01*
X142029096Y-98960000D01*
X141910904Y-98960000D01*
X141794987Y-98936943D01*
X141685794Y-98891714D01*
X141587523Y-98826051D01*
X141503949Y-98742477D01*
X141438286Y-98644206D01*
X141393057Y-98535013D01*
X141370000Y-98419096D01*
X141370000Y-98300904D01*
X141393057Y-98184987D01*
X141438286Y-98075794D01*
X141503949Y-97977523D01*
X141587523Y-97893949D01*
X141685794Y-97828286D01*
X141794987Y-97783057D01*
X141910904Y-97760000D01*
X142029096Y-97760000D01*
X142145013Y-97783057D01*
X142145013Y-97783057D01*
G37*
G36*
X145725013Y-92718057D02*
G01*
X145834206Y-92763286D01*
X145932477Y-92828949D01*
X146016051Y-92912523D01*
X146081714Y-93010794D01*
X146126943Y-93119987D01*
X146150000Y-93235904D01*
X146150000Y-93354096D01*
X146126943Y-93470013D01*
X146081714Y-93579206D01*
X146016051Y-93677477D01*
X145932477Y-93761051D01*
X145835174Y-93826067D01*
X145816232Y-93841612D01*
X145800687Y-93860554D01*
X145789136Y-93882165D01*
X145782023Y-93905614D01*
X145779621Y-93930000D01*
X145782023Y-93954386D01*
X145789136Y-93977835D01*
X145800687Y-93999446D01*
X145816232Y-94018388D01*
X145835174Y-94033933D01*
X145932477Y-94098949D01*
X146016051Y-94182523D01*
X146081714Y-94280794D01*
X146126943Y-94389987D01*
X146150000Y-94505904D01*
X146150000Y-94624096D01*
X146126943Y-94740013D01*
X146081714Y-94849206D01*
X146016051Y-94947477D01*
X145932477Y-95031051D01*
X145834206Y-95096714D01*
X145725013Y-95141943D01*
X145609096Y-95165000D01*
X145490904Y-95165000D01*
X145374987Y-95141943D01*
X145265794Y-95096714D01*
X145167523Y-95031051D01*
X145083949Y-94947477D01*
X145018286Y-94849206D01*
X144973057Y-94740013D01*
X144950000Y-94624096D01*
X144950000Y-94505904D01*
X144973057Y-94389987D01*
X145018286Y-94280794D01*
X145083949Y-94182523D01*
X145167523Y-94098949D01*
X145264826Y-94033933D01*
X145283768Y-94018388D01*
X145299313Y-93999446D01*
X145310864Y-93977835D01*
X145317977Y-93954386D01*
X145320379Y-93930000D01*
X145317977Y-93905614D01*
X145310864Y-93882165D01*
X145299313Y-93860554D01*
X145283768Y-93841612D01*
X145264826Y-93826067D01*
X145167523Y-93761051D01*
X145083949Y-93677477D01*
X145018286Y-93579206D01*
X144973057Y-93470013D01*
X144950000Y-93354096D01*
X144950000Y-93235904D01*
X144973057Y-93119987D01*
X145018286Y-93010794D01*
X145083949Y-92912523D01*
X145167523Y-92828949D01*
X145265794Y-92763286D01*
X145374987Y-92718057D01*
X145490904Y-92695000D01*
X145609096Y-92695000D01*
X145725013Y-92718057D01*
X145725013Y-92718057D01*
G37*
G36*
X134730000Y-92825001D02*
G01*
X134732402Y-92849387D01*
X134739515Y-92872836D01*
X134751066Y-92894447D01*
X134766611Y-92913389D01*
X134785553Y-92928934D01*
X134807164Y-92940485D01*
X134830613Y-92947598D01*
X134854999Y-92950000D01*
X134950000Y-92950000D01*
X134950000Y-95050000D01*
X134050000Y-95050000D01*
X134050000Y-92864999D01*
X134047598Y-92840613D01*
X134040485Y-92817164D01*
X134028934Y-92795553D01*
X134013389Y-92776611D01*
X133994447Y-92761066D01*
X133972836Y-92749515D01*
X133949387Y-92742402D01*
X133925001Y-92740000D01*
X132624999Y-92740000D01*
X132600613Y-92742402D01*
X132577164Y-92749515D01*
X132555553Y-92761066D01*
X132536611Y-92776611D01*
X132521066Y-92795553D01*
X132509515Y-92817164D01*
X132502402Y-92840613D01*
X132500000Y-92864999D01*
X132500000Y-92879096D01*
X132476943Y-92995013D01*
X132431714Y-93104206D01*
X132366051Y-93202477D01*
X132282477Y-93286051D01*
X132184206Y-93351714D01*
X132075013Y-93396943D01*
X131959096Y-93420000D01*
X131840904Y-93420000D01*
X131724987Y-93396943D01*
X131615794Y-93351714D01*
X131517523Y-93286051D01*
X131433949Y-93202477D01*
X131368286Y-93104206D01*
X131323057Y-92995013D01*
X131300000Y-92879096D01*
X131300000Y-92760904D01*
X131323057Y-92644987D01*
X131368286Y-92535794D01*
X131433949Y-92437523D01*
X131517523Y-92353949D01*
X131615794Y-92288286D01*
X131724987Y-92243057D01*
X131840904Y-92220000D01*
X131959096Y-92220000D01*
X132075013Y-92243057D01*
X132184206Y-92288286D01*
X132282477Y-92353949D01*
X132366053Y-92437525D01*
X132401068Y-92489929D01*
X132416613Y-92508871D01*
X132435555Y-92524417D01*
X132457165Y-92535968D01*
X132480614Y-92543081D01*
X132505000Y-92545483D01*
X132529387Y-92543081D01*
X132552836Y-92535968D01*
X132574446Y-92524417D01*
X132593388Y-92508872D01*
X132608934Y-92489930D01*
X132620485Y-92468320D01*
X132627598Y-92444871D01*
X132630000Y-92420484D01*
X132630000Y-91840000D01*
X134730000Y-91840000D01*
X134730000Y-92825001D01*
X134730000Y-92825001D01*
G37*
G36*
X171365998Y-91158280D02*
G01*
X171377423Y-91159405D01*
X171413348Y-91170303D01*
X171499948Y-91196573D01*
X171612868Y-91256930D01*
X171711843Y-91338157D01*
X171793070Y-91437132D01*
X171853427Y-91550052D01*
X171890595Y-91672578D01*
X171900000Y-91768069D01*
X171900000Y-92231932D01*
X171894449Y-92288287D01*
X171890595Y-92327423D01*
X171884979Y-92345935D01*
X171853427Y-92449948D01*
X171793070Y-92562868D01*
X171711843Y-92661843D01*
X171612867Y-92743070D01*
X171499947Y-92803427D01*
X171454662Y-92817164D01*
X171377422Y-92840595D01*
X171365997Y-92841720D01*
X171250000Y-92853145D01*
X171134002Y-92841720D01*
X171122577Y-92840595D01*
X171045337Y-92817164D01*
X171000052Y-92803427D01*
X170887132Y-92743070D01*
X170788157Y-92661843D01*
X170721620Y-92580767D01*
X170704299Y-92563446D01*
X170683925Y-92549832D01*
X170661286Y-92540455D01*
X170637253Y-92535674D01*
X170612749Y-92535674D01*
X170588715Y-92540454D01*
X170566076Y-92549831D01*
X170545702Y-92563445D01*
X170528383Y-92580764D01*
X170461843Y-92661843D01*
X170362867Y-92743070D01*
X170249947Y-92803427D01*
X170204662Y-92817164D01*
X170127422Y-92840595D01*
X170115997Y-92841720D01*
X170000000Y-92853145D01*
X169884002Y-92841720D01*
X169872577Y-92840595D01*
X169795337Y-92817164D01*
X169750052Y-92803427D01*
X169637132Y-92743070D01*
X169538157Y-92661843D01*
X169471620Y-92580767D01*
X169454299Y-92563446D01*
X169433925Y-92549832D01*
X169411286Y-92540455D01*
X169387253Y-92535674D01*
X169362749Y-92535674D01*
X169338715Y-92540454D01*
X169316076Y-92549831D01*
X169295702Y-92563445D01*
X169278383Y-92580764D01*
X169211843Y-92661843D01*
X169112867Y-92743070D01*
X168999947Y-92803427D01*
X168954662Y-92817164D01*
X168877422Y-92840595D01*
X168865997Y-92841720D01*
X168750000Y-92853145D01*
X168634002Y-92841720D01*
X168622577Y-92840595D01*
X168545337Y-92817164D01*
X168500052Y-92803427D01*
X168387132Y-92743070D01*
X168288157Y-92661843D01*
X168221620Y-92580767D01*
X168204299Y-92563446D01*
X168183925Y-92549832D01*
X168161286Y-92540455D01*
X168137253Y-92535674D01*
X168112749Y-92535674D01*
X168088715Y-92540454D01*
X168066076Y-92549831D01*
X168045702Y-92563445D01*
X168028383Y-92580764D01*
X167961843Y-92661843D01*
X167862867Y-92743070D01*
X167749947Y-92803427D01*
X167704662Y-92817164D01*
X167627422Y-92840595D01*
X167615997Y-92841720D01*
X167500000Y-92853145D01*
X167384002Y-92841720D01*
X167372577Y-92840595D01*
X167295337Y-92817164D01*
X167250052Y-92803427D01*
X167137132Y-92743070D01*
X167038157Y-92661843D01*
X166971620Y-92580767D01*
X166954299Y-92563446D01*
X166933925Y-92549832D01*
X166911286Y-92540455D01*
X166887253Y-92535674D01*
X166862749Y-92535674D01*
X166838715Y-92540454D01*
X166816076Y-92549831D01*
X166795702Y-92563445D01*
X166778383Y-92580764D01*
X166711843Y-92661843D01*
X166612867Y-92743070D01*
X166499947Y-92803427D01*
X166454662Y-92817164D01*
X166377422Y-92840595D01*
X166365997Y-92841720D01*
X166250000Y-92853145D01*
X166134002Y-92841720D01*
X166122577Y-92840595D01*
X166045337Y-92817164D01*
X166000052Y-92803427D01*
X165887132Y-92743070D01*
X165788157Y-92661843D01*
X165706930Y-92562867D01*
X165646573Y-92449947D01*
X165627989Y-92388684D01*
X165609405Y-92327422D01*
X165604761Y-92280271D01*
X165600000Y-92231931D01*
X165600000Y-91768068D01*
X165609405Y-91672578D01*
X165646573Y-91550052D01*
X165706930Y-91437132D01*
X165788158Y-91338157D01*
X165887133Y-91256930D01*
X166000053Y-91196573D01*
X166086653Y-91170303D01*
X166122578Y-91159405D01*
X166134003Y-91158280D01*
X166250000Y-91146855D01*
X166365998Y-91158280D01*
X166377423Y-91159405D01*
X166413348Y-91170303D01*
X166499948Y-91196573D01*
X166612868Y-91256930D01*
X166711843Y-91338157D01*
X166778383Y-91419236D01*
X166795701Y-91436554D01*
X166816075Y-91450168D01*
X166838714Y-91459545D01*
X166862747Y-91464326D01*
X166887251Y-91464326D01*
X166911285Y-91459546D01*
X166933924Y-91450169D01*
X166954298Y-91436555D01*
X166971618Y-91419235D01*
X167038158Y-91338157D01*
X167137133Y-91256930D01*
X167250053Y-91196573D01*
X167336653Y-91170303D01*
X167372578Y-91159405D01*
X167384003Y-91158280D01*
X167500000Y-91146855D01*
X167615998Y-91158280D01*
X167627423Y-91159405D01*
X167663348Y-91170303D01*
X167749948Y-91196573D01*
X167862868Y-91256930D01*
X167961843Y-91338157D01*
X168028383Y-91419236D01*
X168045701Y-91436554D01*
X168066075Y-91450168D01*
X168088714Y-91459545D01*
X168112747Y-91464326D01*
X168137251Y-91464326D01*
X168161285Y-91459546D01*
X168183924Y-91450169D01*
X168204298Y-91436555D01*
X168221618Y-91419235D01*
X168288158Y-91338157D01*
X168387133Y-91256930D01*
X168500053Y-91196573D01*
X168586653Y-91170303D01*
X168622578Y-91159405D01*
X168634003Y-91158280D01*
X168750000Y-91146855D01*
X168865998Y-91158280D01*
X168877423Y-91159405D01*
X168913348Y-91170303D01*
X168999948Y-91196573D01*
X169112868Y-91256930D01*
X169211843Y-91338157D01*
X169278383Y-91419236D01*
X169295701Y-91436554D01*
X169316075Y-91450168D01*
X169338714Y-91459545D01*
X169362747Y-91464326D01*
X169387251Y-91464326D01*
X169411285Y-91459546D01*
X169433924Y-91450169D01*
X169454298Y-91436555D01*
X169471618Y-91419235D01*
X169538158Y-91338157D01*
X169637133Y-91256930D01*
X169750053Y-91196573D01*
X169836653Y-91170303D01*
X169872578Y-91159405D01*
X169884003Y-91158280D01*
X170000000Y-91146855D01*
X170115998Y-91158280D01*
X170127423Y-91159405D01*
X170163348Y-91170303D01*
X170249948Y-91196573D01*
X170362868Y-91256930D01*
X170461843Y-91338157D01*
X170528383Y-91419236D01*
X170545701Y-91436554D01*
X170566075Y-91450168D01*
X170588714Y-91459545D01*
X170612747Y-91464326D01*
X170637251Y-91464326D01*
X170661285Y-91459546D01*
X170683924Y-91450169D01*
X170704298Y-91436555D01*
X170721618Y-91419235D01*
X170788158Y-91338157D01*
X170887133Y-91256930D01*
X171000053Y-91196573D01*
X171086653Y-91170303D01*
X171122578Y-91159405D01*
X171134003Y-91158280D01*
X171250000Y-91146855D01*
X171365998Y-91158280D01*
X171365998Y-91158280D01*
G37*
G36*
X142495013Y-90178057D02*
G01*
X142604206Y-90223286D01*
X142702477Y-90288949D01*
X142786051Y-90372523D01*
X142851714Y-90470794D01*
X142896943Y-90579987D01*
X142920000Y-90695904D01*
X142920000Y-90814096D01*
X142896943Y-90930013D01*
X142851714Y-91039206D01*
X142786051Y-91137477D01*
X142702477Y-91221051D01*
X142605174Y-91286067D01*
X142586232Y-91301612D01*
X142570687Y-91320554D01*
X142559136Y-91342165D01*
X142552023Y-91365614D01*
X142549621Y-91390000D01*
X142552023Y-91414386D01*
X142559136Y-91437835D01*
X142570687Y-91459446D01*
X142586232Y-91478388D01*
X142605174Y-91493933D01*
X142702477Y-91558949D01*
X142786051Y-91642523D01*
X142851714Y-91740794D01*
X142896943Y-91849987D01*
X142920000Y-91965904D01*
X142920000Y-92084096D01*
X142896943Y-92200013D01*
X142851714Y-92309206D01*
X142786051Y-92407477D01*
X142702477Y-92491051D01*
X142604206Y-92556714D01*
X142495013Y-92601943D01*
X142379096Y-92625000D01*
X142260904Y-92625000D01*
X142144987Y-92601943D01*
X142035794Y-92556714D01*
X141937523Y-92491051D01*
X141853949Y-92407477D01*
X141788286Y-92309206D01*
X141743057Y-92200012D01*
X141721113Y-92089692D01*
X141714000Y-92066243D01*
X141702449Y-92044632D01*
X141686904Y-92025690D01*
X141667962Y-92010145D01*
X141646351Y-91998594D01*
X141622902Y-91991481D01*
X141598516Y-91989079D01*
X141574130Y-91991481D01*
X141550681Y-91998594D01*
X141539914Y-92004349D01*
X141534207Y-92006713D01*
X141525921Y-92010145D01*
X141425013Y-92051943D01*
X141309096Y-92075000D01*
X141190904Y-92075000D01*
X141074987Y-92051943D01*
X140965794Y-92006714D01*
X140867523Y-91941051D01*
X140783949Y-91857477D01*
X140718286Y-91759206D01*
X140673057Y-91650013D01*
X140650000Y-91534096D01*
X140650000Y-91415904D01*
X140673057Y-91299987D01*
X140718286Y-91190794D01*
X140783949Y-91092523D01*
X140867523Y-91008949D01*
X140965794Y-90943286D01*
X141074987Y-90898057D01*
X141190904Y-90875000D01*
X141309096Y-90875000D01*
X141425013Y-90898057D01*
X141541988Y-90946510D01*
X141548799Y-90950151D01*
X141572247Y-90957267D01*
X141596633Y-90959671D01*
X141621019Y-90957272D01*
X141644469Y-90950161D01*
X141666081Y-90938612D01*
X141685024Y-90923068D01*
X141700571Y-90904128D01*
X141712124Y-90882518D01*
X141719240Y-90859070D01*
X141721644Y-90834684D01*
X141720000Y-90817980D01*
X141720000Y-90695904D01*
X141743057Y-90579987D01*
X141788286Y-90470794D01*
X141853949Y-90372523D01*
X141937523Y-90288949D01*
X142035794Y-90223286D01*
X142144987Y-90178057D01*
X142260904Y-90155000D01*
X142379096Y-90155000D01*
X142495013Y-90178057D01*
X142495013Y-90178057D01*
G37*
G36*
X151917906Y-91237278D02*
G01*
X152027099Y-91282507D01*
X152125370Y-91348170D01*
X152208944Y-91431744D01*
X152274607Y-91530015D01*
X152319836Y-91639208D01*
X152342893Y-91755125D01*
X152342893Y-91873317D01*
X152319836Y-91989234D01*
X152274607Y-92098427D01*
X152208944Y-92196698D01*
X152125370Y-92280272D01*
X152027099Y-92345935D01*
X151917906Y-92391164D01*
X151801989Y-92414221D01*
X151683797Y-92414221D01*
X151567880Y-92391164D01*
X151458687Y-92345935D01*
X151360416Y-92280272D01*
X151276842Y-92196698D01*
X151211179Y-92098427D01*
X151165950Y-91989234D01*
X151142893Y-91873317D01*
X151142893Y-91755125D01*
X151165950Y-91639208D01*
X151211179Y-91530015D01*
X151276842Y-91431744D01*
X151360416Y-91348170D01*
X151458687Y-91282507D01*
X151567880Y-91237278D01*
X151683797Y-91214221D01*
X151801989Y-91214221D01*
X151917906Y-91237278D01*
X151917906Y-91237278D01*
G37*
G36*
X150617906Y-89765950D02*
G01*
X150727099Y-89811179D01*
X150825370Y-89876842D01*
X150908944Y-89960416D01*
X150974607Y-90058687D01*
X151019836Y-90167880D01*
X151042893Y-90283797D01*
X151042893Y-90401989D01*
X151019836Y-90517906D01*
X150974607Y-90627099D01*
X150908944Y-90725370D01*
X150825370Y-90808944D01*
X150727099Y-90874607D01*
X150617906Y-90919836D01*
X150501989Y-90942893D01*
X150383797Y-90942893D01*
X150267880Y-90919836D01*
X150158687Y-90874607D01*
X150060416Y-90808944D01*
X149976842Y-90725370D01*
X149911179Y-90627099D01*
X149865950Y-90517906D01*
X149842893Y-90401989D01*
X149842893Y-90283797D01*
X149865950Y-90167880D01*
X149911179Y-90058687D01*
X149976842Y-89960416D01*
X150060416Y-89876842D01*
X150158687Y-89811179D01*
X150267880Y-89765950D01*
X150383797Y-89742893D01*
X150501989Y-89742893D01*
X150617906Y-89765950D01*
X150617906Y-89765950D01*
G37*
G36*
X145910798Y-88358842D02*
G01*
X146019991Y-88404071D01*
X146118262Y-88469734D01*
X146201836Y-88553308D01*
X146267499Y-88651579D01*
X146312728Y-88760772D01*
X146335785Y-88876689D01*
X146335785Y-88917894D01*
X146338187Y-88942280D01*
X146345300Y-88965729D01*
X146356851Y-88987340D01*
X146372396Y-89006282D01*
X146391338Y-89021827D01*
X146412949Y-89033378D01*
X146436398Y-89040491D01*
X146460784Y-89042893D01*
X146501989Y-89042893D01*
X146617906Y-89065950D01*
X146727099Y-89111179D01*
X146825370Y-89176842D01*
X146908944Y-89260416D01*
X146974607Y-89358687D01*
X147019836Y-89467880D01*
X147042893Y-89583797D01*
X147042893Y-89701989D01*
X147019836Y-89817906D01*
X146974607Y-89927099D01*
X146908944Y-90025370D01*
X146825370Y-90108944D01*
X146727099Y-90174607D01*
X146617906Y-90219836D01*
X146501989Y-90242893D01*
X146383797Y-90242893D01*
X146267880Y-90219836D01*
X146158687Y-90174607D01*
X146060416Y-90108944D01*
X145976842Y-90025370D01*
X145911179Y-89927099D01*
X145865950Y-89817906D01*
X145842893Y-89701989D01*
X145842893Y-89660784D01*
X145840491Y-89636398D01*
X145833378Y-89612949D01*
X145821827Y-89591338D01*
X145806282Y-89572396D01*
X145787340Y-89556851D01*
X145765729Y-89545300D01*
X145742280Y-89538187D01*
X145717894Y-89535785D01*
X145676689Y-89535785D01*
X145560772Y-89512728D01*
X145451579Y-89467499D01*
X145353308Y-89401836D01*
X145269734Y-89318262D01*
X145204071Y-89219991D01*
X145158842Y-89110798D01*
X145135785Y-88994881D01*
X145135785Y-88876689D01*
X145158842Y-88760772D01*
X145204071Y-88651579D01*
X145269734Y-88553308D01*
X145353308Y-88469734D01*
X145451579Y-88404071D01*
X145560772Y-88358842D01*
X145676689Y-88335785D01*
X145794881Y-88335785D01*
X145910798Y-88358842D01*
X145910798Y-88358842D01*
G37*
G36*
X133640000Y-88150000D02*
G01*
X131540000Y-88150000D01*
X131540000Y-87250000D01*
X133640000Y-87250000D01*
X133640000Y-88150000D01*
X133640000Y-88150000D01*
G37*
G36*
X149580918Y-86593058D02*
G01*
X149690111Y-86638287D01*
X149788382Y-86703950D01*
X149871958Y-86787526D01*
X149890306Y-86814986D01*
X149905851Y-86833928D01*
X149924793Y-86849473D01*
X149946403Y-86861025D01*
X149969852Y-86868138D01*
X149994238Y-86870540D01*
X150018624Y-86868138D01*
X150042073Y-86861025D01*
X150063684Y-86849474D01*
X150082627Y-86833929D01*
X150174024Y-86742532D01*
X150272295Y-86676869D01*
X150381488Y-86631640D01*
X150497405Y-86608583D01*
X150615597Y-86608583D01*
X150731514Y-86631640D01*
X150840707Y-86676869D01*
X150938978Y-86742532D01*
X151022552Y-86826106D01*
X151088215Y-86924377D01*
X151133444Y-87033570D01*
X151156501Y-87149487D01*
X151156501Y-87267679D01*
X151133444Y-87383596D01*
X151088215Y-87492789D01*
X151022552Y-87591060D01*
X150938978Y-87674634D01*
X150840707Y-87740297D01*
X150731514Y-87785526D01*
X150615597Y-87808583D01*
X150497405Y-87808583D01*
X150381488Y-87785526D01*
X150272295Y-87740297D01*
X150174024Y-87674634D01*
X150090448Y-87591058D01*
X150072100Y-87563598D01*
X150056555Y-87544656D01*
X150037613Y-87529111D01*
X150016003Y-87517559D01*
X149992554Y-87510446D01*
X149968168Y-87508044D01*
X149943782Y-87510446D01*
X149920333Y-87517559D01*
X149898722Y-87529110D01*
X149879779Y-87544655D01*
X149788382Y-87636052D01*
X149690111Y-87701715D01*
X149580918Y-87746944D01*
X149465001Y-87770001D01*
X149346809Y-87770001D01*
X149230892Y-87746944D01*
X149121699Y-87701715D01*
X149023428Y-87636052D01*
X148939854Y-87552478D01*
X148874191Y-87454207D01*
X148828962Y-87345014D01*
X148805905Y-87229097D01*
X148805905Y-87110905D01*
X148828962Y-86994988D01*
X148874191Y-86885795D01*
X148939854Y-86787524D01*
X149023428Y-86703950D01*
X149121699Y-86638287D01*
X149230892Y-86593058D01*
X149346809Y-86570001D01*
X149465001Y-86570001D01*
X149580918Y-86593058D01*
X149580918Y-86593058D01*
G37*
G36*
X171365998Y-84533280D02*
G01*
X171377423Y-84534405D01*
X171438685Y-84552989D01*
X171499948Y-84571573D01*
X171612868Y-84631930D01*
X171711843Y-84713157D01*
X171793070Y-84812132D01*
X171853427Y-84925052D01*
X171890595Y-85047578D01*
X171900000Y-85143069D01*
X171900000Y-85606932D01*
X171890595Y-85702422D01*
X171853427Y-85824948D01*
X171793070Y-85937868D01*
X171711843Y-86036843D01*
X171612867Y-86118070D01*
X171499947Y-86178427D01*
X171438684Y-86197011D01*
X171377422Y-86215595D01*
X171365997Y-86216720D01*
X171250000Y-86228145D01*
X171134002Y-86216720D01*
X171122577Y-86215595D01*
X171061315Y-86197011D01*
X171000052Y-86178427D01*
X170887132Y-86118070D01*
X170788157Y-86036843D01*
X170721620Y-85955767D01*
X170704299Y-85938446D01*
X170683925Y-85924832D01*
X170661286Y-85915455D01*
X170637253Y-85910674D01*
X170612749Y-85910674D01*
X170588715Y-85915454D01*
X170566076Y-85924831D01*
X170545702Y-85938445D01*
X170528383Y-85955764D01*
X170461843Y-86036843D01*
X170362867Y-86118070D01*
X170249947Y-86178427D01*
X170188684Y-86197011D01*
X170127422Y-86215595D01*
X170115997Y-86216720D01*
X170000000Y-86228145D01*
X169884002Y-86216720D01*
X169872577Y-86215595D01*
X169811315Y-86197011D01*
X169750052Y-86178427D01*
X169637132Y-86118070D01*
X169538157Y-86036843D01*
X169471620Y-85955767D01*
X169454299Y-85938446D01*
X169433925Y-85924832D01*
X169411286Y-85915455D01*
X169387253Y-85910674D01*
X169362749Y-85910674D01*
X169338715Y-85915454D01*
X169316076Y-85924831D01*
X169295702Y-85938445D01*
X169278383Y-85955764D01*
X169211843Y-86036843D01*
X169112867Y-86118070D01*
X168999947Y-86178427D01*
X168938684Y-86197011D01*
X168877422Y-86215595D01*
X168865997Y-86216720D01*
X168750000Y-86228145D01*
X168634002Y-86216720D01*
X168622577Y-86215595D01*
X168561315Y-86197011D01*
X168500052Y-86178427D01*
X168387132Y-86118070D01*
X168288157Y-86036843D01*
X168221620Y-85955767D01*
X168204299Y-85938446D01*
X168183925Y-85924832D01*
X168161286Y-85915455D01*
X168137253Y-85910674D01*
X168112749Y-85910674D01*
X168088715Y-85915454D01*
X168066076Y-85924831D01*
X168045702Y-85938445D01*
X168028383Y-85955764D01*
X167961843Y-86036843D01*
X167862867Y-86118070D01*
X167749947Y-86178427D01*
X167688684Y-86197011D01*
X167627422Y-86215595D01*
X167615997Y-86216720D01*
X167500000Y-86228145D01*
X167384002Y-86216720D01*
X167372577Y-86215595D01*
X167311315Y-86197011D01*
X167250052Y-86178427D01*
X167137132Y-86118070D01*
X167038157Y-86036843D01*
X166971620Y-85955767D01*
X166954299Y-85938446D01*
X166933925Y-85924832D01*
X166911286Y-85915455D01*
X166887253Y-85910674D01*
X166862749Y-85910674D01*
X166838715Y-85915454D01*
X166816076Y-85924831D01*
X166795702Y-85938445D01*
X166778383Y-85955764D01*
X166711843Y-86036843D01*
X166612867Y-86118070D01*
X166499947Y-86178427D01*
X166438684Y-86197011D01*
X166377422Y-86215595D01*
X166365997Y-86216720D01*
X166250000Y-86228145D01*
X166134002Y-86216720D01*
X166122577Y-86215595D01*
X166061315Y-86197011D01*
X166000052Y-86178427D01*
X165887132Y-86118070D01*
X165788157Y-86036843D01*
X165706930Y-85937867D01*
X165646573Y-85824947D01*
X165627575Y-85762318D01*
X165609405Y-85702422D01*
X165600214Y-85609101D01*
X165600000Y-85606931D01*
X165600000Y-85143068D01*
X165609405Y-85047578D01*
X165646573Y-84925052D01*
X165706930Y-84812132D01*
X165788158Y-84713157D01*
X165887133Y-84631930D01*
X166000053Y-84571573D01*
X166061316Y-84552989D01*
X166122578Y-84534405D01*
X166134003Y-84533280D01*
X166250000Y-84521855D01*
X166365998Y-84533280D01*
X166377423Y-84534405D01*
X166438685Y-84552989D01*
X166499948Y-84571573D01*
X166612868Y-84631930D01*
X166711843Y-84713157D01*
X166778383Y-84794236D01*
X166795701Y-84811554D01*
X166816075Y-84825168D01*
X166838714Y-84834545D01*
X166862747Y-84839326D01*
X166887251Y-84839326D01*
X166911285Y-84834546D01*
X166933924Y-84825169D01*
X166954298Y-84811555D01*
X166971618Y-84794235D01*
X167038158Y-84713157D01*
X167137133Y-84631930D01*
X167250053Y-84571573D01*
X167311316Y-84552989D01*
X167372578Y-84534405D01*
X167384003Y-84533280D01*
X167500000Y-84521855D01*
X167615998Y-84533280D01*
X167627423Y-84534405D01*
X167688685Y-84552989D01*
X167749948Y-84571573D01*
X167862868Y-84631930D01*
X167961843Y-84713157D01*
X168028383Y-84794236D01*
X168045701Y-84811554D01*
X168066075Y-84825168D01*
X168088714Y-84834545D01*
X168112747Y-84839326D01*
X168137251Y-84839326D01*
X168161285Y-84834546D01*
X168183924Y-84825169D01*
X168204298Y-84811555D01*
X168221618Y-84794235D01*
X168288158Y-84713157D01*
X168387133Y-84631930D01*
X168500053Y-84571573D01*
X168561316Y-84552989D01*
X168622578Y-84534405D01*
X168634003Y-84533280D01*
X168750000Y-84521855D01*
X168865998Y-84533280D01*
X168877423Y-84534405D01*
X168938685Y-84552989D01*
X168999948Y-84571573D01*
X169112868Y-84631930D01*
X169211843Y-84713157D01*
X169278383Y-84794236D01*
X169295701Y-84811554D01*
X169316075Y-84825168D01*
X169338714Y-84834545D01*
X169362747Y-84839326D01*
X169387251Y-84839326D01*
X169411285Y-84834546D01*
X169433924Y-84825169D01*
X169454298Y-84811555D01*
X169471618Y-84794235D01*
X169538158Y-84713157D01*
X169637133Y-84631930D01*
X169750053Y-84571573D01*
X169811316Y-84552989D01*
X169872578Y-84534405D01*
X169884003Y-84533280D01*
X170000000Y-84521855D01*
X170115998Y-84533280D01*
X170127423Y-84534405D01*
X170188685Y-84552989D01*
X170249948Y-84571573D01*
X170362868Y-84631930D01*
X170461843Y-84713157D01*
X170528383Y-84794236D01*
X170545701Y-84811554D01*
X170566075Y-84825168D01*
X170588714Y-84834545D01*
X170612747Y-84839326D01*
X170637251Y-84839326D01*
X170661285Y-84834546D01*
X170683924Y-84825169D01*
X170704298Y-84811555D01*
X170721618Y-84794235D01*
X170788158Y-84713157D01*
X170887133Y-84631930D01*
X171000053Y-84571573D01*
X171061316Y-84552989D01*
X171122578Y-84534405D01*
X171134003Y-84533280D01*
X171250000Y-84521855D01*
X171365998Y-84533280D01*
X171365998Y-84533280D01*
G37*
G36*
X135263750Y-83850165D02*
G01*
X135463936Y-83933085D01*
X135463938Y-83933086D01*
X135554631Y-83993685D01*
X135644101Y-84053467D01*
X135797319Y-84206685D01*
X135917701Y-84386850D01*
X136000621Y-84587036D01*
X136042893Y-84799551D01*
X136042893Y-85016235D01*
X136000621Y-85228750D01*
X135917701Y-85428936D01*
X135798774Y-85606924D01*
X135797318Y-85609102D01*
X135644102Y-85762318D01*
X135463938Y-85882700D01*
X135463937Y-85882701D01*
X135463936Y-85882701D01*
X135263750Y-85965621D01*
X135051235Y-86007893D01*
X134834551Y-86007893D01*
X134622036Y-85965621D01*
X134421850Y-85882701D01*
X134421849Y-85882701D01*
X134421848Y-85882700D01*
X134241684Y-85762318D01*
X134088468Y-85609102D01*
X134087013Y-85606924D01*
X133968085Y-85428936D01*
X133885165Y-85228750D01*
X133842893Y-85016235D01*
X133842893Y-84799551D01*
X133885165Y-84587036D01*
X133968085Y-84386850D01*
X134088467Y-84206685D01*
X134241685Y-84053467D01*
X134331155Y-83993685D01*
X134421848Y-83933086D01*
X134421850Y-83933085D01*
X134622036Y-83850165D01*
X134834551Y-83807893D01*
X135051235Y-83807893D01*
X135263750Y-83850165D01*
X135263750Y-83850165D01*
G37*
G36*
X133192893Y-83592893D02*
G01*
X132699492Y-83592893D01*
X132675106Y-83595295D01*
X132651657Y-83602408D01*
X132630046Y-83613959D01*
X132611104Y-83629504D01*
X132595559Y-83648446D01*
X132584008Y-83670057D01*
X132576895Y-83693506D01*
X132574493Y-83717892D01*
X132576895Y-83742278D01*
X132584008Y-83765727D01*
X132595559Y-83787338D01*
X132611104Y-83806280D01*
X132630046Y-83821825D01*
X132651657Y-83833376D01*
X132675106Y-83840489D01*
X132723750Y-83850165D01*
X132923936Y-83933085D01*
X132923938Y-83933086D01*
X133014631Y-83993685D01*
X133104101Y-84053467D01*
X133257319Y-84206685D01*
X133377701Y-84386850D01*
X133460621Y-84587036D01*
X133502893Y-84799551D01*
X133502893Y-85016235D01*
X133460621Y-85228750D01*
X133377701Y-85428936D01*
X133258774Y-85606924D01*
X133257318Y-85609102D01*
X133104102Y-85762318D01*
X132923938Y-85882700D01*
X132923937Y-85882701D01*
X132923936Y-85882701D01*
X132723750Y-85965621D01*
X132511235Y-86007893D01*
X132294551Y-86007893D01*
X132082036Y-85965621D01*
X131881850Y-85882701D01*
X131881849Y-85882701D01*
X131881848Y-85882700D01*
X131701684Y-85762318D01*
X131548468Y-85609102D01*
X131547013Y-85606924D01*
X131428085Y-85428936D01*
X131345165Y-85228750D01*
X131302893Y-85016235D01*
X131302893Y-84799551D01*
X131345165Y-84587036D01*
X131428085Y-84386850D01*
X131548467Y-84206685D01*
X131701685Y-84053467D01*
X131791155Y-83993685D01*
X131881848Y-83933086D01*
X131881850Y-83933085D01*
X132082036Y-83850165D01*
X132130680Y-83840489D01*
X132154129Y-83833376D01*
X132175740Y-83821825D01*
X132194682Y-83806280D01*
X132210227Y-83787338D01*
X132221778Y-83765727D01*
X132228891Y-83742278D01*
X132231293Y-83717892D01*
X132228891Y-83693506D01*
X132221778Y-83670057D01*
X132210227Y-83648446D01*
X132194682Y-83629504D01*
X132175740Y-83613959D01*
X132154129Y-83602408D01*
X132130680Y-83595295D01*
X132106294Y-83592893D01*
X131992893Y-83592893D01*
X131992893Y-82292893D01*
X133192893Y-82292893D01*
X133192893Y-83592893D01*
X133192893Y-83592893D01*
G37*
G36*
X143317906Y-76965950D02*
G01*
X143427099Y-77011179D01*
X143525370Y-77076842D01*
X143608944Y-77160416D01*
X143674607Y-77258687D01*
X143719836Y-77367880D01*
X143742893Y-77483797D01*
X143742893Y-77601989D01*
X143719836Y-77717906D01*
X143674607Y-77827098D01*
X143660341Y-77848449D01*
X143648791Y-77870060D01*
X143641678Y-77893509D01*
X143639276Y-77917895D01*
X143641678Y-77942281D01*
X143648791Y-77965730D01*
X143660343Y-77987341D01*
X143675888Y-78006282D01*
X143694830Y-78021828D01*
X143716441Y-78033378D01*
X143739890Y-78040491D01*
X143742893Y-78040787D01*
X143742893Y-80433527D01*
X143745295Y-80457913D01*
X143752408Y-80481362D01*
X143763959Y-80502973D01*
X143779504Y-80521915D01*
X143798446Y-80537460D01*
X143820057Y-80549011D01*
X143843506Y-80556124D01*
X143867892Y-80558526D01*
X143892277Y-80556124D01*
X143958796Y-80542893D01*
X144076989Y-80542893D01*
X144193508Y-80566070D01*
X144217894Y-80568472D01*
X144242280Y-80566070D01*
X144265729Y-80558957D01*
X144287340Y-80547406D01*
X144306282Y-80531861D01*
X144321827Y-80512919D01*
X144333378Y-80491308D01*
X144340491Y-80467859D01*
X144342893Y-80443473D01*
X144342893Y-78042893D01*
X145742893Y-78042893D01*
X145742893Y-80642893D01*
X144639275Y-80642893D01*
X144614889Y-80645295D01*
X144591440Y-80652408D01*
X144569829Y-80663959D01*
X144550887Y-80679504D01*
X144535342Y-80698446D01*
X144523791Y-80720057D01*
X144516678Y-80743506D01*
X144514276Y-80767892D01*
X144516678Y-80792278D01*
X144523791Y-80815727D01*
X144535341Y-80837337D01*
X144549607Y-80858688D01*
X144594836Y-80967880D01*
X144617893Y-81083797D01*
X144617893Y-81201989D01*
X144594836Y-81317906D01*
X144549607Y-81427099D01*
X144483944Y-81525370D01*
X144400370Y-81608944D01*
X144369598Y-81629505D01*
X144302100Y-81674606D01*
X144302099Y-81674607D01*
X144302098Y-81674607D01*
X144185686Y-81722827D01*
X144164075Y-81734378D01*
X144145133Y-81749924D01*
X144129588Y-81768866D01*
X144118037Y-81790476D01*
X144110924Y-81813925D01*
X144108522Y-81838311D01*
X144110924Y-81862697D01*
X144118037Y-81886146D01*
X144129588Y-81907757D01*
X144145133Y-81926699D01*
X144225950Y-82007516D01*
X144245878Y-82037340D01*
X144261423Y-82056282D01*
X144280365Y-82071827D01*
X144301976Y-82083378D01*
X144325425Y-82090491D01*
X144349810Y-82092893D01*
X146392588Y-82092893D01*
X146416974Y-82090491D01*
X146440423Y-82083378D01*
X146462034Y-82071827D01*
X146480976Y-82056282D01*
X146560416Y-81976842D01*
X146658687Y-81911179D01*
X146767880Y-81865950D01*
X146883797Y-81842893D01*
X147001989Y-81842893D01*
X147117906Y-81865950D01*
X147139088Y-81874724D01*
X147162537Y-81881837D01*
X147186923Y-81884239D01*
X147211310Y-81881837D01*
X147234758Y-81874724D01*
X147256369Y-81863173D01*
X147275311Y-81847627D01*
X147290856Y-81828685D01*
X147302407Y-81807076D01*
X147324994Y-81752547D01*
X147390656Y-81654277D01*
X147474230Y-81570703D01*
X147572501Y-81505040D01*
X147681694Y-81459811D01*
X147797611Y-81436754D01*
X147915803Y-81436754D01*
X148031720Y-81459811D01*
X148140913Y-81505040D01*
X148239184Y-81570703D01*
X148322758Y-81654277D01*
X148388421Y-81752548D01*
X148433650Y-81861741D01*
X148452404Y-81956025D01*
X148459517Y-81979474D01*
X148471068Y-82001085D01*
X148486613Y-82020027D01*
X148505555Y-82035572D01*
X148507766Y-82036754D01*
X148505555Y-82037936D01*
X148486613Y-82053481D01*
X148471068Y-82072423D01*
X148459517Y-82094034D01*
X148452404Y-82117483D01*
X148433650Y-82211766D01*
X148392262Y-82311686D01*
X148385149Y-82335135D01*
X148382747Y-82359521D01*
X148385149Y-82383907D01*
X148392262Y-82407356D01*
X148403813Y-82428967D01*
X148419358Y-82447909D01*
X148438300Y-82463454D01*
X148459911Y-82475005D01*
X148483360Y-82482118D01*
X148550615Y-82495496D01*
X148575001Y-82497898D01*
X148599387Y-82495496D01*
X148622836Y-82488383D01*
X148644447Y-82476832D01*
X148663388Y-82461287D01*
X148678934Y-82442345D01*
X148690485Y-82420734D01*
X148697598Y-82397285D01*
X148700000Y-82372899D01*
X148700000Y-82141869D01*
X148697598Y-82117483D01*
X148690485Y-82094034D01*
X148678934Y-82072423D01*
X148663389Y-82053481D01*
X148659147Y-82050000D01*
X150867894Y-82050000D01*
X150892280Y-82047598D01*
X150915729Y-82040485D01*
X150937340Y-82028934D01*
X150956282Y-82013389D01*
X150971827Y-81994447D01*
X150983378Y-81972836D01*
X150990491Y-81949387D01*
X150991131Y-81942893D01*
X151287569Y-81942893D01*
X151311955Y-81940491D01*
X151335404Y-81933378D01*
X151357015Y-81921827D01*
X151375957Y-81906282D01*
X151391502Y-81887340D01*
X151403053Y-81865729D01*
X151410166Y-81842280D01*
X151412568Y-81817894D01*
X151847432Y-81817894D01*
X151849834Y-81842280D01*
X151856947Y-81865729D01*
X151868498Y-81887340D01*
X151884043Y-81906282D01*
X151902985Y-81921827D01*
X151924596Y-81933378D01*
X151948045Y-81940491D01*
X151972431Y-81942893D01*
X152692893Y-81942893D01*
X152692893Y-81992779D01*
X152695295Y-82017165D01*
X152702408Y-82040614D01*
X152713959Y-82062225D01*
X152729504Y-82081167D01*
X152748446Y-82096712D01*
X152770057Y-82108263D01*
X152793506Y-82115376D01*
X152817892Y-82117778D01*
X152842278Y-82115376D01*
X152865727Y-82108263D01*
X152967880Y-82065950D01*
X153083797Y-82042893D01*
X153118609Y-82042893D01*
X153142995Y-82040491D01*
X153166444Y-82033378D01*
X153188055Y-82021827D01*
X153206997Y-82006282D01*
X153222542Y-81987340D01*
X153234093Y-81965729D01*
X153241206Y-81942280D01*
X153243608Y-81917894D01*
X153242893Y-81910633D01*
X153242893Y-81783799D01*
X153249109Y-81752548D01*
X153251152Y-81742276D01*
X153253554Y-81717893D01*
X153251152Y-81693507D01*
X153244039Y-81670058D01*
X153232488Y-81648447D01*
X153216943Y-81629505D01*
X153198001Y-81613959D01*
X153176391Y-81602408D01*
X153152942Y-81595295D01*
X153128555Y-81592893D01*
X152112412Y-81592893D01*
X152088026Y-81595295D01*
X152064577Y-81602408D01*
X152042966Y-81613959D01*
X152024024Y-81629504D01*
X152012477Y-81641051D01*
X151904856Y-81712961D01*
X151902985Y-81713961D01*
X151884043Y-81729506D01*
X151868498Y-81748448D01*
X151856947Y-81770059D01*
X151849834Y-81793508D01*
X151847432Y-81817894D01*
X151412568Y-81817894D01*
X151410166Y-81793508D01*
X151403053Y-81770059D01*
X151391502Y-81748448D01*
X151375957Y-81729506D01*
X151357015Y-81713961D01*
X151355144Y-81712961D01*
X151247523Y-81641051D01*
X151163949Y-81557477D01*
X151098286Y-81459206D01*
X151053057Y-81350013D01*
X151030000Y-81234096D01*
X151030000Y-81115904D01*
X151053057Y-80999987D01*
X151098286Y-80890794D01*
X151163949Y-80792523D01*
X151247523Y-80708949D01*
X151345794Y-80643286D01*
X151454987Y-80598057D01*
X151570904Y-80575000D01*
X151689096Y-80575000D01*
X151805013Y-80598057D01*
X151914206Y-80643286D01*
X151998448Y-80699575D01*
X152020059Y-80711126D01*
X152043508Y-80718239D01*
X152067894Y-80720641D01*
X152092280Y-80718239D01*
X152115729Y-80711126D01*
X152137340Y-80699575D01*
X152156282Y-80684030D01*
X152171827Y-80665088D01*
X152183378Y-80643477D01*
X152190491Y-80620028D01*
X152192893Y-80595642D01*
X152192893Y-79793007D01*
X152190491Y-79768621D01*
X152183378Y-79745172D01*
X152171827Y-79723561D01*
X152156282Y-79704619D01*
X152137340Y-79689074D01*
X152115729Y-79677523D01*
X152092280Y-79670410D01*
X152067894Y-79668008D01*
X152043508Y-79670410D01*
X152020059Y-79677523D01*
X151917906Y-79719836D01*
X151801989Y-79742893D01*
X151683797Y-79742893D01*
X151567880Y-79719836D01*
X151458687Y-79674607D01*
X151360416Y-79608944D01*
X151276842Y-79525370D01*
X151211179Y-79427099D01*
X151165950Y-79317906D01*
X151142893Y-79201989D01*
X151142893Y-79083797D01*
X151165950Y-78967880D01*
X151211179Y-78858687D01*
X151276842Y-78760416D01*
X151360416Y-78676842D01*
X151458687Y-78611179D01*
X151567881Y-78565950D01*
X151592279Y-78561097D01*
X151615728Y-78553984D01*
X151637339Y-78542433D01*
X151656281Y-78526888D01*
X151671826Y-78507947D01*
X151683378Y-78486336D01*
X151690491Y-78462887D01*
X151692893Y-78438500D01*
X151692893Y-77842893D01*
X153392893Y-77842893D01*
X153392893Y-78842893D01*
X152447286Y-78842893D01*
X152422900Y-78845295D01*
X152399451Y-78852408D01*
X152377840Y-78863959D01*
X152358898Y-78879504D01*
X152343353Y-78898446D01*
X152331802Y-78920057D01*
X152324689Y-78943506D01*
X152322287Y-78967892D01*
X152324689Y-78992278D01*
X152342893Y-79083797D01*
X152342893Y-79201989D01*
X152319836Y-79317906D01*
X152318944Y-79320059D01*
X152311831Y-79343508D01*
X152309429Y-79367895D01*
X152311831Y-79392281D01*
X152318944Y-79415730D01*
X152330495Y-79437340D01*
X152346041Y-79456282D01*
X152364983Y-79471827D01*
X152386593Y-79483378D01*
X152410042Y-79490491D01*
X152434428Y-79492893D01*
X153092893Y-79492893D01*
X153092893Y-81473309D01*
X153095295Y-81497695D01*
X153102408Y-81521144D01*
X153113959Y-81542755D01*
X153129504Y-81561697D01*
X153148446Y-81577242D01*
X153170057Y-81588793D01*
X153193506Y-81595906D01*
X153217892Y-81598308D01*
X153242278Y-81595906D01*
X153265727Y-81588793D01*
X153287338Y-81577242D01*
X153306280Y-81561697D01*
X153321825Y-81542754D01*
X153376840Y-81460418D01*
X153460416Y-81376842D01*
X153558687Y-81311179D01*
X153667880Y-81265950D01*
X153783797Y-81242893D01*
X153901989Y-81242893D01*
X154017906Y-81265950D01*
X154127099Y-81311179D01*
X154225370Y-81376842D01*
X154308944Y-81460416D01*
X154374607Y-81558687D01*
X154419836Y-81667880D01*
X154442893Y-81783797D01*
X154442893Y-81901989D01*
X154419836Y-82017906D01*
X154374607Y-82127099D01*
X154308944Y-82225370D01*
X154225370Y-82308944D01*
X154127099Y-82374607D01*
X154017906Y-82419836D01*
X153901989Y-82442893D01*
X153867177Y-82442893D01*
X153842791Y-82445295D01*
X153819342Y-82452408D01*
X153797731Y-82463959D01*
X153778789Y-82479504D01*
X153763244Y-82498446D01*
X153751693Y-82520057D01*
X153744580Y-82543506D01*
X153742178Y-82567892D01*
X153742893Y-82575153D01*
X153742893Y-82701989D01*
X153719836Y-82817906D01*
X153674607Y-82927099D01*
X153608944Y-83025370D01*
X153525370Y-83108944D01*
X153427099Y-83174607D01*
X153317906Y-83219836D01*
X153201989Y-83242893D01*
X153083797Y-83242893D01*
X152967880Y-83219836D01*
X152858687Y-83174607D01*
X152760416Y-83108944D01*
X152676840Y-83025368D01*
X152658852Y-82998447D01*
X152643307Y-82979505D01*
X152624365Y-82963959D01*
X152602754Y-82952408D01*
X152579306Y-82945295D01*
X152554919Y-82942893D01*
X150924999Y-82942893D01*
X150900613Y-82945295D01*
X150885102Y-82950000D01*
X149100478Y-82950000D01*
X149076092Y-82952402D01*
X149052643Y-82959515D01*
X149031032Y-82971066D01*
X149012090Y-82986611D01*
X148996545Y-83005553D01*
X148984994Y-83027164D01*
X148977881Y-83050613D01*
X148975479Y-83074999D01*
X148975479Y-83131510D01*
X148952422Y-83247427D01*
X148907193Y-83356619D01*
X148881177Y-83395555D01*
X148869626Y-83417166D01*
X148862513Y-83440615D01*
X148860111Y-83465001D01*
X148862513Y-83489387D01*
X148869626Y-83512836D01*
X148881177Y-83534447D01*
X148896722Y-83553389D01*
X148915664Y-83568934D01*
X148937275Y-83580485D01*
X148960724Y-83587598D01*
X148985110Y-83590000D01*
X152810000Y-83590000D01*
X152810000Y-85590000D01*
X139690000Y-85590000D01*
X139690000Y-83562343D01*
X139687598Y-83537957D01*
X139680485Y-83514508D01*
X139668934Y-83492897D01*
X139653389Y-83473955D01*
X139634447Y-83458410D01*
X139560416Y-83408944D01*
X139476842Y-83325370D01*
X139411179Y-83227099D01*
X139365950Y-83117906D01*
X139342893Y-83001989D01*
X139342893Y-82883797D01*
X139365950Y-82767880D01*
X139411179Y-82658687D01*
X139476842Y-82560416D01*
X139560416Y-82476842D01*
X139658687Y-82411179D01*
X139767880Y-82365950D01*
X139883797Y-82342893D01*
X140001989Y-82342893D01*
X140117906Y-82365950D01*
X140227099Y-82411179D01*
X140325370Y-82476842D01*
X140408944Y-82560416D01*
X140474607Y-82658687D01*
X140519836Y-82767880D01*
X140542893Y-82883797D01*
X140542893Y-83001989D01*
X140519836Y-83117906D01*
X140474607Y-83227099D01*
X140408944Y-83325370D01*
X140357701Y-83376613D01*
X140342156Y-83395555D01*
X140330605Y-83417166D01*
X140323492Y-83440615D01*
X140321090Y-83465001D01*
X140323492Y-83489387D01*
X140330605Y-83512836D01*
X140342156Y-83534447D01*
X140357701Y-83553389D01*
X140376643Y-83568934D01*
X140398254Y-83580485D01*
X140421703Y-83587598D01*
X140446089Y-83590000D01*
X147765848Y-83590000D01*
X147790234Y-83587598D01*
X147813683Y-83580485D01*
X147835294Y-83568934D01*
X147854236Y-83553389D01*
X147869781Y-83534447D01*
X147881332Y-83512836D01*
X147888445Y-83489387D01*
X147890847Y-83465001D01*
X147888445Y-83440615D01*
X147881332Y-83417166D01*
X147869781Y-83395555D01*
X147843765Y-83356619D01*
X147798536Y-83247427D01*
X147775479Y-83131510D01*
X147775479Y-83013318D01*
X147798536Y-82897401D01*
X147839924Y-82797482D01*
X147847037Y-82774033D01*
X147849439Y-82749647D01*
X147847037Y-82725261D01*
X147839924Y-82701812D01*
X147828373Y-82680201D01*
X147812828Y-82661259D01*
X147793886Y-82645714D01*
X147772275Y-82634163D01*
X147748826Y-82627050D01*
X147681694Y-82613697D01*
X147660512Y-82604923D01*
X147637063Y-82597810D01*
X147612677Y-82595408D01*
X147588290Y-82597810D01*
X147564842Y-82604923D01*
X147543231Y-82616474D01*
X147524289Y-82632020D01*
X147508744Y-82650962D01*
X147497193Y-82672571D01*
X147474606Y-82727100D01*
X147408944Y-82825370D01*
X147325370Y-82908944D01*
X147227099Y-82974607D01*
X147117906Y-83019836D01*
X147001989Y-83042893D01*
X146883797Y-83042893D01*
X146767880Y-83019836D01*
X146658687Y-82974607D01*
X146560416Y-82908944D01*
X146513387Y-82861915D01*
X146494445Y-82846370D01*
X146472834Y-82834819D01*
X146449385Y-82827706D01*
X146424999Y-82825304D01*
X146400613Y-82827706D01*
X146377164Y-82834819D01*
X146355553Y-82846370D01*
X146336611Y-82861915D01*
X146321066Y-82880857D01*
X146309515Y-82902468D01*
X146302402Y-82925917D01*
X146300000Y-82950303D01*
X146300000Y-82992893D01*
X144188629Y-82992893D01*
X144178934Y-82974755D01*
X144163389Y-82955813D01*
X144144447Y-82940268D01*
X144122836Y-82928717D01*
X144099387Y-82921604D01*
X144075001Y-82919202D01*
X144050615Y-82921604D01*
X144027166Y-82928717D01*
X143934907Y-82966932D01*
X143818991Y-82989989D01*
X143700799Y-82989989D01*
X143584882Y-82966932D01*
X143475689Y-82921703D01*
X143377418Y-82856040D01*
X143293844Y-82772466D01*
X143228181Y-82674195D01*
X143182952Y-82565002D01*
X143159895Y-82449085D01*
X143159895Y-82330893D01*
X143182952Y-82214976D01*
X143228181Y-82105783D01*
X143293844Y-82007512D01*
X143377418Y-81923938D01*
X143464202Y-81865951D01*
X143475688Y-81858276D01*
X143475690Y-81858275D01*
X143592102Y-81810055D01*
X143613713Y-81798504D01*
X143632655Y-81782958D01*
X143648200Y-81764016D01*
X143659751Y-81742406D01*
X143666864Y-81718957D01*
X143669266Y-81694571D01*
X143666864Y-81670185D01*
X143659751Y-81646736D01*
X143648200Y-81625125D01*
X143632655Y-81606183D01*
X143551842Y-81525370D01*
X143486179Y-81427099D01*
X143440950Y-81317906D01*
X143417893Y-81201989D01*
X143417893Y-81083797D01*
X143440950Y-80967880D01*
X143486179Y-80858688D01*
X143500445Y-80837337D01*
X143511995Y-80815726D01*
X143519108Y-80792277D01*
X143521510Y-80767891D01*
X143519108Y-80743505D01*
X143511995Y-80720056D01*
X143500443Y-80698445D01*
X143484898Y-80679504D01*
X143465956Y-80663958D01*
X143444345Y-80652408D01*
X143420896Y-80645295D01*
X143396511Y-80642893D01*
X142342893Y-80642893D01*
X142342893Y-78042893D01*
X142521511Y-78042893D01*
X142545897Y-78040491D01*
X142569346Y-78033378D01*
X142590957Y-78021827D01*
X142609899Y-78006282D01*
X142625444Y-77987340D01*
X142636995Y-77965729D01*
X142644108Y-77942280D01*
X142646510Y-77917894D01*
X142644108Y-77893508D01*
X142636995Y-77870059D01*
X142625445Y-77848449D01*
X142611179Y-77827098D01*
X142565950Y-77717906D01*
X142542893Y-77601989D01*
X142542893Y-77483797D01*
X142565950Y-77367880D01*
X142611179Y-77258687D01*
X142676842Y-77160416D01*
X142760416Y-77076842D01*
X142858687Y-77011179D01*
X142967880Y-76965950D01*
X143083797Y-76942893D01*
X143201989Y-76942893D01*
X143317906Y-76965950D01*
X143317906Y-76965950D01*
G37*
G36*
X136935000Y-83070000D02*
G01*
X134455000Y-83070000D01*
X134455000Y-81870000D01*
X136935000Y-81870000D01*
X136935000Y-83070000D01*
X136935000Y-83070000D01*
G37*
G36*
X157465013Y-80598057D02*
G01*
X157574206Y-80643286D01*
X157672477Y-80708949D01*
X157756051Y-80792523D01*
X157821714Y-80890794D01*
X157866943Y-80999987D01*
X157890000Y-81115904D01*
X157890000Y-81234096D01*
X157866943Y-81350013D01*
X157821714Y-81459206D01*
X157756051Y-81557477D01*
X157672477Y-81641051D01*
X157574206Y-81706714D01*
X157465013Y-81751943D01*
X157349096Y-81775000D01*
X157230904Y-81775000D01*
X157114987Y-81751943D01*
X157005794Y-81706714D01*
X156907523Y-81641051D01*
X156823949Y-81557477D01*
X156758286Y-81459206D01*
X156713057Y-81350013D01*
X156690000Y-81234096D01*
X156690000Y-81115904D01*
X156713057Y-80999987D01*
X156758286Y-80890794D01*
X156823949Y-80792523D01*
X156907523Y-80708949D01*
X157005794Y-80643286D01*
X157114987Y-80598057D01*
X157230904Y-80575000D01*
X157349096Y-80575000D01*
X157465013Y-80598057D01*
X157465013Y-80598057D01*
G37*
G36*
X134142893Y-81592893D02*
G01*
X132942893Y-81592893D01*
X132942893Y-80292893D01*
X134142893Y-80292893D01*
X134142893Y-81592893D01*
X134142893Y-81592893D01*
G37*
G36*
X132242893Y-81592893D02*
G01*
X131042893Y-81592893D01*
X131042893Y-80292893D01*
X132242893Y-80292893D01*
X132242893Y-81592893D01*
X132242893Y-81592893D01*
G37*
G36*
X136935000Y-81570000D02*
G01*
X134455000Y-81570000D01*
X134455000Y-80370000D01*
X136935000Y-80370000D01*
X136935000Y-81570000D01*
X136935000Y-81570000D01*
G37*
G36*
X162400000Y-80780000D02*
G01*
X161400000Y-80780000D01*
X161400000Y-79080000D01*
X162400000Y-79080000D01*
X162400000Y-80780000D01*
X162400000Y-80780000D01*
G37*
G36*
X149742893Y-80642893D02*
G01*
X148342893Y-80642893D01*
X148342893Y-78042893D01*
X149742893Y-78042893D01*
X149742893Y-80642893D01*
X149742893Y-80642893D01*
G37*
G36*
X147742893Y-80642893D02*
G01*
X146342893Y-80642893D01*
X146342893Y-78042893D01*
X147742893Y-78042893D01*
X147742893Y-80642893D01*
X147742893Y-80642893D01*
G37*
G36*
X141742893Y-80642893D02*
G01*
X140342893Y-80642893D01*
X140342893Y-78042893D01*
X141742893Y-78042893D01*
X141742893Y-80642893D01*
X141742893Y-80642893D01*
G37*
G36*
X139742893Y-80642893D02*
G01*
X138342893Y-80642893D01*
X138342893Y-78042893D01*
X139742893Y-78042893D01*
X139742893Y-80642893D01*
X139742893Y-80642893D01*
G37*
G36*
X162300000Y-76920000D02*
G01*
X161214999Y-76920000D01*
X161190613Y-76922402D01*
X161167164Y-76929515D01*
X161145553Y-76941066D01*
X161126611Y-76956611D01*
X161111066Y-76975553D01*
X161099515Y-76997164D01*
X161092402Y-77020613D01*
X161090000Y-77044999D01*
X161090000Y-80192893D01*
X160190000Y-80192893D01*
X160190000Y-75990000D01*
X161175001Y-75990000D01*
X161199387Y-75987598D01*
X161222836Y-75980485D01*
X161244447Y-75968934D01*
X161263389Y-75953389D01*
X161278934Y-75934447D01*
X161290485Y-75912836D01*
X161297598Y-75889387D01*
X161300000Y-75865001D01*
X161300000Y-75220000D01*
X162300000Y-75220000D01*
X162300000Y-76920000D01*
X162300000Y-76920000D01*
G37*
G36*
X136058891Y-78001173D02*
G01*
X136070316Y-78002298D01*
X136085585Y-78006930D01*
X136192841Y-78039466D01*
X136305761Y-78099823D01*
X136404736Y-78181050D01*
X136485963Y-78280025D01*
X136546320Y-78392945D01*
X136557484Y-78429747D01*
X136583488Y-78515470D01*
X136583745Y-78518076D01*
X136592893Y-78610962D01*
X136592893Y-79074825D01*
X136592383Y-79080000D01*
X136583488Y-79170316D01*
X136574499Y-79199947D01*
X136546320Y-79292841D01*
X136485963Y-79405761D01*
X136404736Y-79504736D01*
X136305760Y-79585963D01*
X136192840Y-79646320D01*
X136131577Y-79664904D01*
X136070315Y-79683488D01*
X136058890Y-79684613D01*
X135942893Y-79696038D01*
X135826895Y-79684613D01*
X135815470Y-79683488D01*
X135754208Y-79664904D01*
X135692945Y-79646320D01*
X135580025Y-79585963D01*
X135481050Y-79504736D01*
X135414513Y-79423660D01*
X135397192Y-79406339D01*
X135376818Y-79392725D01*
X135354179Y-79383348D01*
X135330146Y-79378567D01*
X135305642Y-79378567D01*
X135281608Y-79383347D01*
X135258969Y-79392724D01*
X135238595Y-79406338D01*
X135221276Y-79423657D01*
X135154736Y-79504736D01*
X135055760Y-79585963D01*
X134942840Y-79646320D01*
X134881577Y-79664904D01*
X134820315Y-79683488D01*
X134808890Y-79684613D01*
X134692893Y-79696038D01*
X134576895Y-79684613D01*
X134565470Y-79683488D01*
X134504208Y-79664904D01*
X134442945Y-79646320D01*
X134330025Y-79585963D01*
X134231050Y-79504736D01*
X134164513Y-79423660D01*
X134147192Y-79406339D01*
X134126818Y-79392725D01*
X134104179Y-79383348D01*
X134080146Y-79378567D01*
X134055642Y-79378567D01*
X134031608Y-79383347D01*
X134008969Y-79392724D01*
X133988595Y-79406338D01*
X133971276Y-79423657D01*
X133904736Y-79504736D01*
X133805760Y-79585963D01*
X133692840Y-79646320D01*
X133631577Y-79664904D01*
X133570315Y-79683488D01*
X133558890Y-79684613D01*
X133442893Y-79696038D01*
X133326895Y-79684613D01*
X133315470Y-79683488D01*
X133254208Y-79664904D01*
X133192945Y-79646320D01*
X133080025Y-79585963D01*
X132981050Y-79504736D01*
X132914513Y-79423660D01*
X132897192Y-79406339D01*
X132876818Y-79392725D01*
X132854179Y-79383348D01*
X132830146Y-79378567D01*
X132805642Y-79378567D01*
X132781608Y-79383347D01*
X132758969Y-79392724D01*
X132738595Y-79406338D01*
X132721276Y-79423657D01*
X132654736Y-79504736D01*
X132555760Y-79585963D01*
X132442840Y-79646320D01*
X132381577Y-79664904D01*
X132320315Y-79683488D01*
X132308890Y-79684613D01*
X132192893Y-79696038D01*
X132076895Y-79684613D01*
X132065470Y-79683488D01*
X132004208Y-79664904D01*
X131942945Y-79646320D01*
X131830025Y-79585963D01*
X131731050Y-79504736D01*
X131664513Y-79423660D01*
X131647192Y-79406339D01*
X131626818Y-79392725D01*
X131604179Y-79383348D01*
X131580146Y-79378567D01*
X131555642Y-79378567D01*
X131531608Y-79383347D01*
X131508969Y-79392724D01*
X131488595Y-79406338D01*
X131471276Y-79423657D01*
X131404736Y-79504736D01*
X131305760Y-79585963D01*
X131192840Y-79646320D01*
X131131577Y-79664904D01*
X131070315Y-79683488D01*
X131058890Y-79684613D01*
X130942893Y-79696038D01*
X130826895Y-79684613D01*
X130815470Y-79683488D01*
X130754208Y-79664904D01*
X130692945Y-79646320D01*
X130580025Y-79585963D01*
X130481050Y-79504736D01*
X130399823Y-79405760D01*
X130339466Y-79292840D01*
X130320882Y-79231577D01*
X130302298Y-79170315D01*
X130293403Y-79080000D01*
X130292893Y-79074824D01*
X130292893Y-78610961D01*
X130302041Y-78518076D01*
X130302298Y-78515470D01*
X130328302Y-78429747D01*
X130339466Y-78392945D01*
X130399823Y-78280025D01*
X130481051Y-78181050D01*
X130580026Y-78099823D01*
X130692946Y-78039466D01*
X130800202Y-78006930D01*
X130815471Y-78002298D01*
X130826896Y-78001173D01*
X130942893Y-77989748D01*
X131058891Y-78001173D01*
X131070316Y-78002298D01*
X131085585Y-78006930D01*
X131192841Y-78039466D01*
X131305761Y-78099823D01*
X131404736Y-78181050D01*
X131471276Y-78262129D01*
X131488594Y-78279447D01*
X131508968Y-78293061D01*
X131531607Y-78302438D01*
X131555640Y-78307219D01*
X131580144Y-78307219D01*
X131604178Y-78302439D01*
X131626817Y-78293062D01*
X131647191Y-78279448D01*
X131664511Y-78262128D01*
X131731051Y-78181050D01*
X131830026Y-78099823D01*
X131942946Y-78039466D01*
X132050202Y-78006930D01*
X132065471Y-78002298D01*
X132076896Y-78001173D01*
X132192893Y-77989748D01*
X132308891Y-78001173D01*
X132320316Y-78002298D01*
X132335585Y-78006930D01*
X132442841Y-78039466D01*
X132555761Y-78099823D01*
X132654736Y-78181050D01*
X132721276Y-78262129D01*
X132738594Y-78279447D01*
X132758968Y-78293061D01*
X132781607Y-78302438D01*
X132805640Y-78307219D01*
X132830144Y-78307219D01*
X132854178Y-78302439D01*
X132876817Y-78293062D01*
X132897191Y-78279448D01*
X132914511Y-78262128D01*
X132981051Y-78181050D01*
X133080026Y-78099823D01*
X133192946Y-78039466D01*
X133300202Y-78006930D01*
X133315471Y-78002298D01*
X133326896Y-78001173D01*
X133442893Y-77989748D01*
X133558891Y-78001173D01*
X133570316Y-78002298D01*
X133585585Y-78006930D01*
X133692841Y-78039466D01*
X133805761Y-78099823D01*
X133904736Y-78181050D01*
X133971276Y-78262129D01*
X133988594Y-78279447D01*
X134008968Y-78293061D01*
X134031607Y-78302438D01*
X134055640Y-78307219D01*
X134080144Y-78307219D01*
X134104178Y-78302439D01*
X134126817Y-78293062D01*
X134147191Y-78279448D01*
X134164511Y-78262128D01*
X134231051Y-78181050D01*
X134330026Y-78099823D01*
X134442946Y-78039466D01*
X134550202Y-78006930D01*
X134565471Y-78002298D01*
X134576896Y-78001173D01*
X134692893Y-77989748D01*
X134808891Y-78001173D01*
X134820316Y-78002298D01*
X134835585Y-78006930D01*
X134942841Y-78039466D01*
X135055761Y-78099823D01*
X135154736Y-78181050D01*
X135221276Y-78262129D01*
X135238594Y-78279447D01*
X135258968Y-78293061D01*
X135281607Y-78302438D01*
X135305640Y-78307219D01*
X135330144Y-78307219D01*
X135354178Y-78302439D01*
X135376817Y-78293062D01*
X135397191Y-78279448D01*
X135414511Y-78262128D01*
X135481051Y-78181050D01*
X135580026Y-78099823D01*
X135692946Y-78039466D01*
X135800202Y-78006930D01*
X135815471Y-78002298D01*
X135826896Y-78001173D01*
X135942893Y-77989748D01*
X136058891Y-78001173D01*
X136058891Y-78001173D01*
G37*
G36*
X171365998Y-77908280D02*
G01*
X171377423Y-77909405D01*
X171405410Y-77917895D01*
X171499948Y-77946573D01*
X171612868Y-78006930D01*
X171711843Y-78088157D01*
X171793070Y-78187132D01*
X171853427Y-78300052D01*
X171890595Y-78422578D01*
X171900000Y-78518069D01*
X171900000Y-78981932D01*
X171891771Y-79065486D01*
X171890852Y-79074818D01*
X171890595Y-79077422D01*
X171853427Y-79199948D01*
X171793070Y-79312868D01*
X171711843Y-79411843D01*
X171612867Y-79493070D01*
X171499947Y-79553427D01*
X171438684Y-79572011D01*
X171377422Y-79590595D01*
X171365997Y-79591720D01*
X171250000Y-79603145D01*
X171134002Y-79591720D01*
X171122577Y-79590595D01*
X171061315Y-79572011D01*
X171000052Y-79553427D01*
X170887132Y-79493070D01*
X170788157Y-79411843D01*
X170721620Y-79330767D01*
X170704299Y-79313446D01*
X170683925Y-79299832D01*
X170661286Y-79290455D01*
X170637253Y-79285674D01*
X170612749Y-79285674D01*
X170588715Y-79290454D01*
X170566076Y-79299831D01*
X170545702Y-79313445D01*
X170528383Y-79330764D01*
X170461843Y-79411843D01*
X170362867Y-79493070D01*
X170249947Y-79553427D01*
X170188684Y-79572011D01*
X170127422Y-79590595D01*
X170115997Y-79591720D01*
X170000000Y-79603145D01*
X169884002Y-79591720D01*
X169872577Y-79590595D01*
X169811315Y-79572011D01*
X169750052Y-79553427D01*
X169637132Y-79493070D01*
X169538157Y-79411843D01*
X169471620Y-79330767D01*
X169454299Y-79313446D01*
X169433925Y-79299832D01*
X169411286Y-79290455D01*
X169387253Y-79285674D01*
X169362749Y-79285674D01*
X169338715Y-79290454D01*
X169316076Y-79299831D01*
X169295702Y-79313445D01*
X169278383Y-79330764D01*
X169211843Y-79411843D01*
X169112867Y-79493070D01*
X168999947Y-79553427D01*
X168938684Y-79572011D01*
X168877422Y-79590595D01*
X168865997Y-79591720D01*
X168750000Y-79603145D01*
X168634002Y-79591720D01*
X168622577Y-79590595D01*
X168561315Y-79572011D01*
X168500052Y-79553427D01*
X168387132Y-79493070D01*
X168288157Y-79411843D01*
X168221620Y-79330767D01*
X168204299Y-79313446D01*
X168183925Y-79299832D01*
X168161286Y-79290455D01*
X168137253Y-79285674D01*
X168112749Y-79285674D01*
X168088715Y-79290454D01*
X168066076Y-79299831D01*
X168045702Y-79313445D01*
X168028383Y-79330764D01*
X167961843Y-79411843D01*
X167862867Y-79493070D01*
X167749947Y-79553427D01*
X167688684Y-79572011D01*
X167627422Y-79590595D01*
X167615997Y-79591720D01*
X167500000Y-79603145D01*
X167384002Y-79591720D01*
X167372577Y-79590595D01*
X167311315Y-79572011D01*
X167250052Y-79553427D01*
X167137132Y-79493070D01*
X167038157Y-79411843D01*
X166971620Y-79330767D01*
X166954299Y-79313446D01*
X166933925Y-79299832D01*
X166911286Y-79290455D01*
X166887253Y-79285674D01*
X166862749Y-79285674D01*
X166838715Y-79290454D01*
X166816076Y-79299831D01*
X166795702Y-79313445D01*
X166778383Y-79330764D01*
X166711843Y-79411843D01*
X166612867Y-79493070D01*
X166499947Y-79553427D01*
X166438684Y-79572011D01*
X166377422Y-79590595D01*
X166365997Y-79591720D01*
X166250000Y-79603145D01*
X166134002Y-79591720D01*
X166122577Y-79590595D01*
X166061315Y-79572011D01*
X166000052Y-79553427D01*
X165887132Y-79493070D01*
X165788157Y-79411843D01*
X165706930Y-79312867D01*
X165646573Y-79199947D01*
X165610187Y-79080000D01*
X165609405Y-79077422D01*
X165608229Y-79065485D01*
X165600000Y-78981931D01*
X165600000Y-78518068D01*
X165609405Y-78422578D01*
X165646573Y-78300052D01*
X165706930Y-78187132D01*
X165788158Y-78088157D01*
X165887133Y-78006930D01*
X166000053Y-77946573D01*
X166094591Y-77917895D01*
X166122578Y-77909405D01*
X166134003Y-77908280D01*
X166250000Y-77896855D01*
X166365998Y-77908280D01*
X166377423Y-77909405D01*
X166405410Y-77917895D01*
X166499948Y-77946573D01*
X166612868Y-78006930D01*
X166711843Y-78088157D01*
X166778383Y-78169236D01*
X166795701Y-78186554D01*
X166816075Y-78200168D01*
X166838714Y-78209545D01*
X166862747Y-78214326D01*
X166887251Y-78214326D01*
X166911285Y-78209546D01*
X166933924Y-78200169D01*
X166954298Y-78186555D01*
X166971618Y-78169235D01*
X167038158Y-78088157D01*
X167137133Y-78006930D01*
X167250053Y-77946573D01*
X167344591Y-77917895D01*
X167372578Y-77909405D01*
X167384003Y-77908280D01*
X167500000Y-77896855D01*
X167615998Y-77908280D01*
X167627423Y-77909405D01*
X167655410Y-77917895D01*
X167749948Y-77946573D01*
X167862868Y-78006930D01*
X167961843Y-78088157D01*
X168028383Y-78169236D01*
X168045701Y-78186554D01*
X168066075Y-78200168D01*
X168088714Y-78209545D01*
X168112747Y-78214326D01*
X168137251Y-78214326D01*
X168161285Y-78209546D01*
X168183924Y-78200169D01*
X168204298Y-78186555D01*
X168221618Y-78169235D01*
X168288158Y-78088157D01*
X168387133Y-78006930D01*
X168500053Y-77946573D01*
X168594591Y-77917895D01*
X168622578Y-77909405D01*
X168634003Y-77908280D01*
X168750000Y-77896855D01*
X168865998Y-77908280D01*
X168877423Y-77909405D01*
X168905410Y-77917895D01*
X168999948Y-77946573D01*
X169112868Y-78006930D01*
X169211843Y-78088157D01*
X169278383Y-78169236D01*
X169295701Y-78186554D01*
X169316075Y-78200168D01*
X169338714Y-78209545D01*
X169362747Y-78214326D01*
X169387251Y-78214326D01*
X169411285Y-78209546D01*
X169433924Y-78200169D01*
X169454298Y-78186555D01*
X169471618Y-78169235D01*
X169538158Y-78088157D01*
X169637133Y-78006930D01*
X169750053Y-77946573D01*
X169844591Y-77917895D01*
X169872578Y-77909405D01*
X169884003Y-77908280D01*
X170000000Y-77896855D01*
X170115998Y-77908280D01*
X170127423Y-77909405D01*
X170155410Y-77917895D01*
X170249948Y-77946573D01*
X170362868Y-78006930D01*
X170461843Y-78088157D01*
X170528383Y-78169236D01*
X170545701Y-78186554D01*
X170566075Y-78200168D01*
X170588714Y-78209545D01*
X170612747Y-78214326D01*
X170637251Y-78214326D01*
X170661285Y-78209546D01*
X170683924Y-78200169D01*
X170704298Y-78186555D01*
X170721618Y-78169235D01*
X170788158Y-78088157D01*
X170887133Y-78006930D01*
X171000053Y-77946573D01*
X171094591Y-77917895D01*
X171122578Y-77909405D01*
X171134003Y-77908280D01*
X171250000Y-77896855D01*
X171365998Y-77908280D01*
X171365998Y-77908280D01*
G37*
G36*
X155042893Y-78392600D02*
G01*
X155045295Y-78416986D01*
X155052408Y-78440435D01*
X155063959Y-78462046D01*
X155079504Y-78480988D01*
X155098446Y-78496533D01*
X155120057Y-78508084D01*
X155143506Y-78515197D01*
X155167892Y-78517599D01*
X155192278Y-78515197D01*
X155215727Y-78508084D01*
X155237338Y-78496533D01*
X155256280Y-78480988D01*
X155307522Y-78429746D01*
X155405793Y-78364083D01*
X155514986Y-78318854D01*
X155630903Y-78295797D01*
X155749095Y-78295797D01*
X155865012Y-78318854D01*
X155974205Y-78364083D01*
X156072476Y-78429746D01*
X156156050Y-78513320D01*
X156221713Y-78611591D01*
X156266942Y-78720784D01*
X156289999Y-78836701D01*
X156289999Y-78954893D01*
X156266942Y-79070810D01*
X156221713Y-79180003D01*
X156156050Y-79278274D01*
X156072476Y-79361848D01*
X155974205Y-79427511D01*
X155865012Y-79472740D01*
X155749095Y-79495797D01*
X155630903Y-79495797D01*
X155514986Y-79472740D01*
X155405793Y-79427511D01*
X155307522Y-79361848D01*
X155223948Y-79278274D01*
X155158285Y-79180003D01*
X155113056Y-79070810D01*
X155089999Y-78954893D01*
X155089999Y-78836701D01*
X155108781Y-78742278D01*
X155111183Y-78717892D01*
X155108781Y-78693506D01*
X155101668Y-78670057D01*
X155090117Y-78648446D01*
X155074572Y-78629504D01*
X155055630Y-78613959D01*
X155034019Y-78602408D01*
X155010570Y-78595295D01*
X154986184Y-78592893D01*
X154042893Y-78592893D01*
X154042893Y-76892893D01*
X155042893Y-76892893D01*
X155042893Y-78392600D01*
X155042893Y-78392600D01*
G37*
G36*
X148276244Y-76173636D02*
G01*
X148421834Y-76233941D01*
X148552863Y-76321492D01*
X148664294Y-76432923D01*
X148751845Y-76563952D01*
X148812150Y-76709542D01*
X148842893Y-76864099D01*
X148842893Y-77021687D01*
X148812150Y-77176244D01*
X148751845Y-77321834D01*
X148664294Y-77452863D01*
X148552863Y-77564294D01*
X148421834Y-77651845D01*
X148276244Y-77712150D01*
X148121687Y-77742893D01*
X147964099Y-77742893D01*
X147809542Y-77712150D01*
X147663952Y-77651845D01*
X147532923Y-77564294D01*
X147421492Y-77452863D01*
X147333941Y-77321834D01*
X147273636Y-77176244D01*
X147242893Y-77021687D01*
X147242893Y-76864099D01*
X147273636Y-76709542D01*
X147333941Y-76563952D01*
X147421492Y-76432923D01*
X147532923Y-76321492D01*
X147663952Y-76233941D01*
X147809542Y-76173636D01*
X147964099Y-76142893D01*
X148121687Y-76142893D01*
X148276244Y-76173636D01*
X148276244Y-76173636D01*
G37*
G36*
X141398552Y-76151287D02*
G01*
X141507745Y-76196516D01*
X141606016Y-76262179D01*
X141689590Y-76345753D01*
X141755253Y-76444024D01*
X141800482Y-76553217D01*
X141823539Y-76669134D01*
X141823539Y-76787326D01*
X141800482Y-76903243D01*
X141755253Y-77012436D01*
X141689590Y-77110707D01*
X141606016Y-77194281D01*
X141507745Y-77259944D01*
X141398552Y-77305173D01*
X141282635Y-77328230D01*
X141164443Y-77328230D01*
X141048526Y-77305173D01*
X140939334Y-77259944D01*
X140939208Y-77259860D01*
X140917597Y-77248309D01*
X140894148Y-77241196D01*
X140869762Y-77238794D01*
X140845376Y-77241196D01*
X140821927Y-77248309D01*
X140800316Y-77259860D01*
X140781374Y-77275405D01*
X140765829Y-77294347D01*
X140754277Y-77315960D01*
X140751844Y-77321835D01*
X140664294Y-77452863D01*
X140552863Y-77564294D01*
X140421834Y-77651845D01*
X140276244Y-77712150D01*
X140121687Y-77742893D01*
X139964099Y-77742893D01*
X139809542Y-77712150D01*
X139663952Y-77651845D01*
X139532923Y-77564294D01*
X139421492Y-77452863D01*
X139333941Y-77321834D01*
X139273636Y-77176244D01*
X139242893Y-77021687D01*
X139242893Y-76864099D01*
X139273636Y-76709542D01*
X139333941Y-76563952D01*
X139421492Y-76432923D01*
X139532923Y-76321492D01*
X139663952Y-76233941D01*
X139809542Y-76173636D01*
X139964099Y-76142893D01*
X140121687Y-76142893D01*
X140276244Y-76173636D01*
X140421834Y-76233941D01*
X140552863Y-76321492D01*
X140578918Y-76347547D01*
X140597860Y-76363092D01*
X140619471Y-76374643D01*
X140642920Y-76381756D01*
X140667306Y-76384158D01*
X140691692Y-76381756D01*
X140715141Y-76374643D01*
X140736752Y-76363092D01*
X140755694Y-76347547D01*
X140841062Y-76262179D01*
X140939333Y-76196516D01*
X141048526Y-76151287D01*
X141164443Y-76128230D01*
X141282635Y-76128230D01*
X141398552Y-76151287D01*
X141398552Y-76151287D01*
G37*
G36*
X145742893Y-75842893D02*
G01*
X145307811Y-75842893D01*
X145283425Y-75845295D01*
X145259976Y-75852408D01*
X145238365Y-75863959D01*
X145219423Y-75879504D01*
X145203878Y-75898446D01*
X145192327Y-75920057D01*
X145185214Y-75943506D01*
X145182812Y-75967892D01*
X145185214Y-75992278D01*
X145192327Y-76015727D01*
X145203878Y-76037338D01*
X145219423Y-76056280D01*
X145238365Y-76071825D01*
X145259976Y-76083376D01*
X145327098Y-76111179D01*
X145327100Y-76111180D01*
X145340300Y-76120000D01*
X145425370Y-76176842D01*
X145508944Y-76260416D01*
X145574607Y-76358687D01*
X145619836Y-76467880D01*
X145642893Y-76583797D01*
X145642893Y-76701989D01*
X145619836Y-76817906D01*
X145574607Y-76927099D01*
X145508944Y-77025370D01*
X145425370Y-77108944D01*
X145327099Y-77174607D01*
X145217906Y-77219836D01*
X145101989Y-77242893D01*
X144983797Y-77242893D01*
X144867880Y-77219836D01*
X144758687Y-77174607D01*
X144660416Y-77108944D01*
X144576842Y-77025370D01*
X144511179Y-76927099D01*
X144465950Y-76817906D01*
X144442893Y-76701989D01*
X144442893Y-76583797D01*
X144465950Y-76467880D01*
X144511179Y-76358687D01*
X144576842Y-76260416D01*
X144660416Y-76176842D01*
X144745486Y-76120000D01*
X144758686Y-76111180D01*
X144758688Y-76111179D01*
X144825810Y-76083376D01*
X144847421Y-76071825D01*
X144866363Y-76056280D01*
X144881908Y-76037338D01*
X144893459Y-76015727D01*
X144900572Y-75992278D01*
X144902974Y-75967892D01*
X144900572Y-75943506D01*
X144893459Y-75920057D01*
X144881908Y-75898446D01*
X144866363Y-75879504D01*
X144847421Y-75863959D01*
X144825810Y-75852408D01*
X144802361Y-75845295D01*
X144777975Y-75842893D01*
X144342893Y-75842893D01*
X144342893Y-73242893D01*
X145742893Y-73242893D01*
X145742893Y-75842893D01*
X145742893Y-75842893D01*
G37*
G36*
X151805013Y-74248057D02*
G01*
X151914206Y-74293286D01*
X152012477Y-74358949D01*
X152096053Y-74442525D01*
X152163961Y-74544157D01*
X152179506Y-74563099D01*
X152198448Y-74578645D01*
X152220059Y-74590196D01*
X152243508Y-74597309D01*
X152267894Y-74599711D01*
X152292280Y-74597309D01*
X152315729Y-74590196D01*
X152337339Y-74578645D01*
X152356281Y-74563100D01*
X152371827Y-74544158D01*
X152383378Y-74522547D01*
X152390491Y-74499098D01*
X152392893Y-74474712D01*
X152392893Y-74392893D01*
X153292893Y-74392893D01*
X153292893Y-76492893D01*
X152392893Y-76492893D01*
X152392893Y-76445288D01*
X152390491Y-76420902D01*
X152383378Y-76397453D01*
X152371827Y-76375842D01*
X152356282Y-76356900D01*
X152337340Y-76341355D01*
X152315729Y-76329804D01*
X152292280Y-76322691D01*
X152267894Y-76320289D01*
X152243508Y-76322691D01*
X152220059Y-76329804D01*
X152198448Y-76341355D01*
X152179506Y-76356900D01*
X152163961Y-76375843D01*
X152096053Y-76477475D01*
X152012477Y-76561051D01*
X151914206Y-76626714D01*
X151805013Y-76671943D01*
X151689096Y-76695000D01*
X151570904Y-76695000D01*
X151454987Y-76671943D01*
X151345794Y-76626714D01*
X151247523Y-76561051D01*
X151163949Y-76477477D01*
X151098286Y-76379206D01*
X151053057Y-76270013D01*
X151030000Y-76154096D01*
X151030000Y-76035904D01*
X151053057Y-75919987D01*
X151098286Y-75810794D01*
X151163949Y-75712523D01*
X151247523Y-75628949D01*
X151344826Y-75563933D01*
X151363768Y-75548388D01*
X151379313Y-75529446D01*
X151390864Y-75507835D01*
X151397977Y-75484386D01*
X151400379Y-75460000D01*
X151859621Y-75460000D01*
X151862023Y-75484386D01*
X151869136Y-75507835D01*
X151880687Y-75529446D01*
X151896232Y-75548388D01*
X151915174Y-75563933D01*
X152012477Y-75628949D01*
X152096053Y-75712525D01*
X152163961Y-75814157D01*
X152179506Y-75833099D01*
X152198448Y-75848645D01*
X152220059Y-75860196D01*
X152243508Y-75867309D01*
X152267894Y-75869711D01*
X152292280Y-75867309D01*
X152315729Y-75860196D01*
X152337339Y-75848645D01*
X152356281Y-75833100D01*
X152371827Y-75814158D01*
X152383378Y-75792547D01*
X152390491Y-75769098D01*
X152392893Y-75744712D01*
X152392893Y-75175288D01*
X152390491Y-75150902D01*
X152383378Y-75127453D01*
X152371827Y-75105842D01*
X152356282Y-75086900D01*
X152337340Y-75071355D01*
X152315729Y-75059804D01*
X152292280Y-75052691D01*
X152267894Y-75050289D01*
X152243508Y-75052691D01*
X152220059Y-75059804D01*
X152198448Y-75071355D01*
X152179506Y-75086900D01*
X152163961Y-75105843D01*
X152096053Y-75207475D01*
X152012477Y-75291051D01*
X151915174Y-75356067D01*
X151896232Y-75371612D01*
X151880687Y-75390554D01*
X151869136Y-75412165D01*
X151862023Y-75435614D01*
X151859621Y-75460000D01*
X151400379Y-75460000D01*
X151397977Y-75435614D01*
X151390864Y-75412165D01*
X151379313Y-75390554D01*
X151363768Y-75371612D01*
X151344826Y-75356067D01*
X151247523Y-75291051D01*
X151163949Y-75207477D01*
X151098286Y-75109206D01*
X151053057Y-75000013D01*
X151030000Y-74884096D01*
X151030000Y-74765904D01*
X151053057Y-74649987D01*
X151098286Y-74540794D01*
X151163949Y-74442523D01*
X151247523Y-74358949D01*
X151345794Y-74293286D01*
X151454987Y-74248057D01*
X151570904Y-74225000D01*
X151689096Y-74225000D01*
X151805013Y-74248057D01*
X151805013Y-74248057D01*
G37*
G36*
X149742893Y-75842893D02*
G01*
X148342893Y-75842893D01*
X148342893Y-73242893D01*
X149742893Y-73242893D01*
X149742893Y-75842893D01*
X149742893Y-75842893D01*
G37*
G36*
X147742893Y-75842893D02*
G01*
X146342893Y-75842893D01*
X146342893Y-73242893D01*
X147742893Y-73242893D01*
X147742893Y-75842893D01*
X147742893Y-75842893D01*
G37*
G36*
X143742893Y-75842893D02*
G01*
X142342893Y-75842893D01*
X142342893Y-73242893D01*
X143742893Y-73242893D01*
X143742893Y-75842893D01*
X143742893Y-75842893D01*
G37*
G36*
X141742893Y-75842893D02*
G01*
X140342893Y-75842893D01*
X140342893Y-73242893D01*
X141742893Y-73242893D01*
X141742893Y-75842893D01*
X141742893Y-75842893D01*
G37*
G36*
X139742893Y-75842893D02*
G01*
X138342893Y-75842893D01*
X138342893Y-75093206D01*
X138340491Y-75068820D01*
X138333378Y-75045371D01*
X138321827Y-75023760D01*
X138306282Y-75004818D01*
X138287340Y-74989273D01*
X138265729Y-74977722D01*
X138242280Y-74970609D01*
X138217894Y-74968207D01*
X138193508Y-74970609D01*
X138170059Y-74977722D01*
X138148448Y-74989273D01*
X138129506Y-75004818D01*
X138125380Y-75008944D01*
X138027109Y-75074607D01*
X137917916Y-75119836D01*
X137801999Y-75142893D01*
X137683807Y-75142893D01*
X137567890Y-75119836D01*
X137458697Y-75074607D01*
X137360426Y-75008944D01*
X137276852Y-74925370D01*
X137211189Y-74827099D01*
X137165960Y-74717906D01*
X137142903Y-74601989D01*
X137142903Y-74483797D01*
X137165960Y-74367880D01*
X137211189Y-74258687D01*
X137276852Y-74160416D01*
X137360426Y-74076842D01*
X137458697Y-74011179D01*
X137567890Y-73965950D01*
X137683807Y-73942893D01*
X137801999Y-73942893D01*
X137917916Y-73965950D01*
X138027109Y-74011179D01*
X138125380Y-74076842D01*
X138129506Y-74080968D01*
X138148448Y-74096513D01*
X138170059Y-74108064D01*
X138193508Y-74115177D01*
X138217894Y-74117579D01*
X138242280Y-74115177D01*
X138265729Y-74108064D01*
X138287340Y-74096513D01*
X138306282Y-74080968D01*
X138321827Y-74062026D01*
X138333378Y-74040415D01*
X138340491Y-74016966D01*
X138342893Y-73992580D01*
X138342893Y-73242893D01*
X139742893Y-73242893D01*
X139742893Y-75842893D01*
X139742893Y-75842893D01*
G37*
G36*
X157465013Y-74248057D02*
G01*
X157574206Y-74293286D01*
X157672477Y-74358949D01*
X157756051Y-74442523D01*
X157821714Y-74540794D01*
X157866943Y-74649987D01*
X157890000Y-74765904D01*
X157890000Y-74884096D01*
X157866943Y-75000013D01*
X157821714Y-75109206D01*
X157756051Y-75207477D01*
X157672477Y-75291051D01*
X157574206Y-75356714D01*
X157465013Y-75401943D01*
X157349096Y-75425000D01*
X157230904Y-75425000D01*
X157114987Y-75401943D01*
X157005794Y-75356714D01*
X156907523Y-75291051D01*
X156823949Y-75207477D01*
X156758286Y-75109206D01*
X156713057Y-75000013D01*
X156690000Y-74884096D01*
X156690000Y-74765904D01*
X156713057Y-74649987D01*
X156758286Y-74540794D01*
X156823949Y-74442523D01*
X156907523Y-74358949D01*
X157005794Y-74293286D01*
X157114987Y-74248057D01*
X157230904Y-74225000D01*
X157349096Y-74225000D01*
X157465013Y-74248057D01*
X157465013Y-74248057D01*
G37*
G36*
X171384608Y-70141651D02*
G01*
X171784982Y-70307491D01*
X171784984Y-70307492D01*
X172145311Y-70548255D01*
X172451745Y-70854689D01*
X172661013Y-71167880D01*
X172692509Y-71215018D01*
X172858349Y-71615392D01*
X172942893Y-72040425D01*
X172942893Y-72473789D01*
X172858349Y-72898822D01*
X172744115Y-73174607D01*
X172692508Y-73299198D01*
X172451745Y-73659525D01*
X172145311Y-73965959D01*
X171784984Y-74206722D01*
X171784983Y-74206723D01*
X171784982Y-74206723D01*
X171384608Y-74372563D01*
X170959575Y-74457107D01*
X170526211Y-74457107D01*
X170101178Y-74372563D01*
X169700804Y-74206723D01*
X169700803Y-74206723D01*
X169700802Y-74206722D01*
X169340475Y-73965959D01*
X169034041Y-73659525D01*
X168793278Y-73299198D01*
X168741671Y-73174607D01*
X168627437Y-72898822D01*
X168542893Y-72473789D01*
X168542893Y-72040425D01*
X168627437Y-71615392D01*
X168793277Y-71215018D01*
X168824774Y-71167880D01*
X169034041Y-70854689D01*
X169340475Y-70548255D01*
X169700802Y-70307492D01*
X169700804Y-70307491D01*
X170101178Y-70141651D01*
X170526211Y-70057107D01*
X170959575Y-70057107D01*
X171384608Y-70141651D01*
X171384608Y-70141651D01*
G37*
G36*
X132398822Y-70141651D02*
G01*
X132799196Y-70307491D01*
X132799198Y-70307492D01*
X133159525Y-70548255D01*
X133465959Y-70854689D01*
X133675227Y-71167880D01*
X133706723Y-71215018D01*
X133872563Y-71615392D01*
X133957107Y-72040425D01*
X133957107Y-72473789D01*
X133872563Y-72898822D01*
X133758329Y-73174607D01*
X133706722Y-73299198D01*
X133465959Y-73659525D01*
X133159525Y-73965959D01*
X132799198Y-74206722D01*
X132799197Y-74206723D01*
X132799196Y-74206723D01*
X132398822Y-74372563D01*
X131973789Y-74457107D01*
X131540425Y-74457107D01*
X131115392Y-74372563D01*
X130715018Y-74206723D01*
X130715017Y-74206723D01*
X130715016Y-74206722D01*
X130354689Y-73965959D01*
X130048255Y-73659525D01*
X129807492Y-73299198D01*
X129755885Y-73174607D01*
X129641651Y-72898822D01*
X129557107Y-72473789D01*
X129557107Y-72040425D01*
X129641651Y-71615392D01*
X129807491Y-71215018D01*
X129838988Y-71167880D01*
X130048255Y-70854689D01*
X130354689Y-70548255D01*
X130715016Y-70307492D01*
X130715018Y-70307491D01*
X131115392Y-70141651D01*
X131540425Y-70057107D01*
X131973789Y-70057107D01*
X132398822Y-70141651D01*
X132398822Y-70141651D01*
G37*
G36*
X154817906Y-72065950D02*
G01*
X154927099Y-72111179D01*
X155025370Y-72176842D01*
X155108944Y-72260416D01*
X155174607Y-72358687D01*
X155219836Y-72467880D01*
X155242893Y-72583797D01*
X155242893Y-72701989D01*
X155219836Y-72817906D01*
X155174607Y-72927099D01*
X155108944Y-73025370D01*
X155025370Y-73108944D01*
X154927099Y-73174607D01*
X154817906Y-73219836D01*
X154701989Y-73242893D01*
X154583797Y-73242893D01*
X154467880Y-73219836D01*
X154358687Y-73174607D01*
X154260416Y-73108944D01*
X154176842Y-73025370D01*
X154111179Y-72927099D01*
X154065950Y-72817906D01*
X154042893Y-72701989D01*
X154042893Y-72583797D01*
X154065950Y-72467880D01*
X154111179Y-72358687D01*
X154176842Y-72260416D01*
X154260416Y-72176842D01*
X154358687Y-72111179D01*
X154467880Y-72065950D01*
X154583797Y-72042893D01*
X154701989Y-72042893D01*
X154817906Y-72065950D01*
X154817906Y-72065950D01*
G37*
G36*
X144117906Y-71763087D02*
G01*
X144227099Y-71808316D01*
X144325370Y-71873979D01*
X144408944Y-71957553D01*
X144474607Y-72055824D01*
X144519836Y-72165017D01*
X144542893Y-72280934D01*
X144542893Y-72399126D01*
X144519836Y-72515043D01*
X144474607Y-72624236D01*
X144408944Y-72722507D01*
X144325370Y-72806081D01*
X144227099Y-72871744D01*
X144117906Y-72916973D01*
X144001989Y-72940030D01*
X143883797Y-72940030D01*
X143767880Y-72916973D01*
X143658687Y-72871744D01*
X143560416Y-72806081D01*
X143476842Y-72722507D01*
X143411179Y-72624236D01*
X143365950Y-72515043D01*
X143342893Y-72399126D01*
X143342893Y-72280934D01*
X143365950Y-72165017D01*
X143411179Y-72055824D01*
X143476842Y-71957553D01*
X143560416Y-71873979D01*
X143658687Y-71808316D01*
X143767880Y-71763087D01*
X143883797Y-71740030D01*
X144001989Y-71740030D01*
X144117906Y-71763087D01*
X144117906Y-71763087D01*
G37*
G36*
X136617906Y-70765950D02*
G01*
X136727099Y-70811179D01*
X136825370Y-70876842D01*
X136908944Y-70960416D01*
X136974607Y-71058687D01*
X137019836Y-71167880D01*
X137042893Y-71283797D01*
X137042893Y-71401989D01*
X137019836Y-71517906D01*
X136974607Y-71627099D01*
X136908944Y-71725370D01*
X136825370Y-71808944D01*
X136727099Y-71874607D01*
X136617906Y-71919836D01*
X136501989Y-71942893D01*
X136383797Y-71942893D01*
X136267880Y-71919836D01*
X136158687Y-71874607D01*
X136060416Y-71808944D01*
X135976842Y-71725370D01*
X135911179Y-71627099D01*
X135865950Y-71517906D01*
X135842893Y-71401989D01*
X135842893Y-71283797D01*
X135865950Y-71167880D01*
X135911179Y-71058687D01*
X135976842Y-70960416D01*
X136060416Y-70876842D01*
X136158687Y-70811179D01*
X136267880Y-70765950D01*
X136383797Y-70742893D01*
X136501989Y-70742893D01*
X136617906Y-70765950D01*
X136617906Y-70765950D01*
G37*
M02*
